<?xml version="1.0" encoding="utf-8"?>
<svg xmlns="http://www.w3.org/2000/svg" xmlns:xlink="http://www.w3.org/1999/xlink" width="672" height="480" viewBox="0 0 2688 1920">
<defs>
  <clipPath id="clip430">
    <rect x="0" y="0" width="2688" height="1920"/>
  </clipPath>
</defs>
<path clip-path="url(#clip430)" d="M0 1920 L2688 1920 L2688 0 L0 0  Z" fill="#ffffff" fill-rule="evenodd" fill-opacity="1"/>
<defs>
  <clipPath id="clip431">
    <rect x="537" y="0" width="1883" height="1883"/>
  </clipPath>
</defs>
<path clip-path="url(#clip430)" d="M174.895 840.779 L2640.76 840.779 L2640.76 109.278 L174.895 109.278  Z" fill="#ffffff" fill-rule="evenodd" fill-opacity="1"/>
<defs>
  <clipPath id="clip432">
    <rect x="174" y="109" width="2467" height="733"/>
  </clipPath>
</defs>
<polyline clip-path="url(#clip432)" style="stroke:#000000; stroke-linecap:round; stroke-linejoin:round; stroke-width:2; stroke-opacity:0.1; fill:none" points="244.683,840.779 244.683,109.278 "/>
<polyline clip-path="url(#clip432)" style="stroke:#000000; stroke-linecap:round; stroke-linejoin:round; stroke-width:2; stroke-opacity:0.1; fill:none" points="1407.83,840.779 1407.83,109.278 "/>
<polyline clip-path="url(#clip432)" style="stroke:#000000; stroke-linecap:round; stroke-linejoin:round; stroke-width:2; stroke-opacity:0.1; fill:none" points="2570.97,840.779 2570.97,109.278 "/>
<polyline clip-path="url(#clip430)" style="stroke:#000000; stroke-linecap:round; stroke-linejoin:round; stroke-width:4; stroke-opacity:1; fill:none" points="174.895,840.779 2640.76,840.779 "/>
<polyline clip-path="url(#clip430)" style="stroke:#000000; stroke-linecap:round; stroke-linejoin:round; stroke-width:4; stroke-opacity:1; fill:none" points="244.683,840.779 244.683,821.882 "/>
<polyline clip-path="url(#clip430)" style="stroke:#000000; stroke-linecap:round; stroke-linejoin:round; stroke-width:4; stroke-opacity:1; fill:none" points="1407.83,840.779 1407.83,821.882 "/>
<polyline clip-path="url(#clip430)" style="stroke:#000000; stroke-linecap:round; stroke-linejoin:round; stroke-width:4; stroke-opacity:1; fill:none" points="2570.97,840.779 2570.97,821.882 "/>
<path clip-path="url(#clip430)" d="M203.121 888.979 L203.121 901.641 L210.621 901.641 Q214.394 901.641 216.2 900.09 Q218.028 898.516 218.028 895.298 Q218.028 892.057 216.2 890.53 Q214.394 888.979 210.621 888.979 L203.121 888.979 M203.121 874.766 L203.121 885.182 L210.042 885.182 Q213.468 885.182 215.135 883.909 Q216.825 882.613 216.825 879.974 Q216.825 877.358 215.135 876.062 Q213.468 874.766 210.042 874.766 L203.121 874.766 M198.445 870.923 L210.39 870.923 Q215.737 870.923 218.63 873.146 Q221.524 875.368 221.524 879.465 Q221.524 882.636 220.042 884.511 Q218.561 886.386 215.69 886.849 Q219.139 887.59 221.038 889.951 Q222.959 892.289 222.959 895.807 Q222.959 900.437 219.811 902.96 Q216.663 905.483 210.853 905.483 L198.445 905.483 L198.445 870.923 Z" fill="#000000" fill-rule="nonzero" fill-opacity="1" /><path clip-path="url(#clip430)" d="M230.783 879.558 L235.042 879.558 L235.042 905.483 L230.783 905.483 L230.783 879.558 M230.783 869.465 L235.042 869.465 L235.042 874.858 L230.783 874.858 L230.783 869.465 Z" fill="#000000" fill-rule="nonzero" fill-opacity="1" /><path clip-path="url(#clip430)" d="M255.737 892.451 Q250.575 892.451 248.584 893.632 Q246.593 894.812 246.593 897.659 Q246.593 899.928 248.075 901.27 Q249.579 902.59 252.149 902.59 Q255.69 902.59 257.82 900.09 Q259.973 897.567 259.973 893.4 L259.973 892.451 L255.737 892.451 M264.232 890.692 L264.232 905.483 L259.973 905.483 L259.973 901.548 Q258.514 903.909 256.338 905.043 Q254.162 906.155 251.014 906.155 Q247.033 906.155 244.672 903.932 Q242.334 901.687 242.334 897.937 Q242.334 893.562 245.25 891.34 Q248.19 889.118 254 889.118 L259.973 889.118 L259.973 888.701 Q259.973 885.761 258.028 884.164 Q256.107 882.544 252.612 882.544 Q250.389 882.544 248.283 883.076 Q246.176 883.608 244.232 884.673 L244.232 880.738 Q246.57 879.835 248.769 879.395 Q250.968 878.933 253.051 878.933 Q258.676 878.933 261.454 881.849 Q264.232 884.766 264.232 890.692 Z" fill="#000000" fill-rule="nonzero" fill-opacity="1" /><path clip-path="url(#clip430)" d="M289.533 880.321 L289.533 884.349 Q287.727 883.423 285.783 882.96 Q283.838 882.497 281.755 882.497 Q278.584 882.497 276.986 883.47 Q275.412 884.442 275.412 886.386 Q275.412 887.868 276.547 888.724 Q277.681 889.557 281.107 890.321 L282.565 890.645 Q287.102 891.618 289 893.4 Q290.922 895.159 290.922 898.331 Q290.922 901.942 288.051 904.048 Q285.204 906.155 280.204 906.155 Q278.121 906.155 275.852 905.738 Q273.607 905.344 271.107 904.534 L271.107 900.136 Q273.468 901.363 275.76 901.988 Q278.051 902.59 280.297 902.59 Q283.306 902.59 284.926 901.571 Q286.547 900.53 286.547 898.655 Q286.547 896.919 285.366 895.993 Q284.209 895.067 280.25 894.21 L278.769 893.863 Q274.81 893.03 273.051 891.317 Q271.292 889.581 271.292 886.571 Q271.292 882.914 273.885 880.923 Q276.477 878.933 281.246 878.933 Q283.607 878.933 285.69 879.28 Q287.773 879.627 289.533 880.321 Z" fill="#000000" fill-rule="nonzero" fill-opacity="1" /><path clip-path="url(#clip430)" d="M1320.07 905.483 L1306.88 870.923 L1311.76 870.923 L1322.71 900.02 L1333.68 870.923 L1338.54 870.923 L1325.37 905.483 L1320.07 905.483 Z" fill="#000000" fill-rule="nonzero" fill-opacity="1" /><path clip-path="url(#clip430)" d="M1351.51 892.451 Q1346.34 892.451 1344.35 893.632 Q1342.36 894.812 1342.36 897.659 Q1342.36 899.928 1343.84 901.27 Q1345.35 902.59 1347.92 902.59 Q1351.46 902.59 1353.59 900.09 Q1355.74 897.567 1355.74 893.4 L1355.74 892.451 L1351.51 892.451 M1360 890.692 L1360 905.483 L1355.74 905.483 L1355.74 901.548 Q1354.28 903.909 1352.11 905.043 Q1349.93 906.155 1346.78 906.155 Q1342.8 906.155 1340.44 903.932 Q1338.1 901.687 1338.1 897.937 Q1338.1 893.562 1341.02 891.34 Q1343.96 889.118 1349.77 889.118 L1355.74 889.118 L1355.74 888.701 Q1355.74 885.761 1353.8 884.164 Q1351.88 882.544 1348.38 882.544 Q1346.16 882.544 1344.05 883.076 Q1341.95 883.608 1340 884.673 L1340 880.738 Q1342.34 879.835 1344.54 879.395 Q1346.74 878.933 1348.82 878.933 Q1354.45 878.933 1357.22 881.849 Q1360 884.766 1360 890.692 Z" fill="#000000" fill-rule="nonzero" fill-opacity="1" /><path clip-path="url(#clip430)" d="M1383.8 883.539 Q1383.08 883.122 1382.22 882.937 Q1381.39 882.729 1380.37 882.729 Q1376.76 882.729 1374.82 885.09 Q1372.89 887.428 1372.89 891.826 L1372.89 905.483 L1368.61 905.483 L1368.61 879.558 L1372.89 879.558 L1372.89 883.585 Q1374.24 881.224 1376.39 880.09 Q1378.54 878.933 1381.62 878.933 Q1382.06 878.933 1382.59 879.002 Q1383.13 879.048 1383.77 879.164 L1383.8 883.539 Z" fill="#000000" fill-rule="nonzero" fill-opacity="1" /><path clip-path="url(#clip430)" d="M1388.27 879.558 L1392.52 879.558 L1392.52 905.483 L1388.27 905.483 L1388.27 879.558 M1388.27 869.465 L1392.52 869.465 L1392.52 874.858 L1388.27 874.858 L1388.27 869.465 Z" fill="#000000" fill-rule="nonzero" fill-opacity="1" /><path clip-path="url(#clip430)" d="M1413.22 892.451 Q1408.06 892.451 1406.07 893.632 Q1404.08 894.812 1404.08 897.659 Q1404.08 899.928 1405.56 901.27 Q1407.06 902.59 1409.63 902.59 Q1413.17 902.59 1415.3 900.09 Q1417.45 897.567 1417.45 893.4 L1417.45 892.451 L1413.22 892.451 M1421.71 890.692 L1421.71 905.483 L1417.45 905.483 L1417.45 901.548 Q1416 903.909 1413.82 905.043 Q1411.64 906.155 1408.5 906.155 Q1404.52 906.155 1402.15 903.932 Q1399.82 901.687 1399.82 897.937 Q1399.82 893.562 1402.73 891.34 Q1405.67 889.118 1411.48 889.118 L1417.45 889.118 L1417.45 888.701 Q1417.45 885.761 1415.51 884.164 Q1413.59 882.544 1410.09 882.544 Q1407.87 882.544 1405.77 883.076 Q1403.66 883.608 1401.71 884.673 L1401.71 880.738 Q1404.05 879.835 1406.25 879.395 Q1408.45 878.933 1410.53 878.933 Q1416.16 878.933 1418.94 881.849 Q1421.71 884.766 1421.71 890.692 Z" fill="#000000" fill-rule="nonzero" fill-opacity="1" /><path clip-path="url(#clip430)" d="M1452.04 889.835 L1452.04 905.483 L1447.78 905.483 L1447.78 889.974 Q1447.78 886.294 1446.34 884.465 Q1444.91 882.636 1442.04 882.636 Q1438.59 882.636 1436.6 884.835 Q1434.61 887.034 1434.61 890.831 L1434.61 905.483 L1430.33 905.483 L1430.33 879.558 L1434.61 879.558 L1434.61 883.585 Q1436.14 881.247 1438.2 880.09 Q1440.28 878.933 1442.99 878.933 Q1447.45 878.933 1449.75 881.71 Q1452.04 884.465 1452.04 889.835 Z" fill="#000000" fill-rule="nonzero" fill-opacity="1" /><path clip-path="url(#clip430)" d="M1479.19 880.553 L1479.19 884.534 Q1477.39 883.539 1475.56 883.053 Q1473.75 882.544 1471.9 882.544 Q1467.76 882.544 1465.46 885.182 Q1463.17 887.798 1463.17 892.544 Q1463.17 897.289 1465.46 899.928 Q1467.76 902.544 1471.9 902.544 Q1473.75 902.544 1475.56 902.057 Q1477.39 901.548 1479.19 900.553 L1479.19 904.488 Q1477.41 905.321 1475.49 905.738 Q1473.59 906.155 1471.44 906.155 Q1465.58 906.155 1462.13 902.474 Q1458.68 898.794 1458.68 892.544 Q1458.68 886.201 1462.15 882.567 Q1465.65 878.933 1471.71 878.933 Q1473.68 878.933 1475.56 879.349 Q1477.43 879.743 1479.19 880.553 Z" fill="#000000" fill-rule="nonzero" fill-opacity="1" /><path clip-path="url(#clip430)" d="M1508.77 891.456 L1508.77 893.539 L1489.19 893.539 Q1489.47 897.937 1491.83 900.252 Q1494.21 902.544 1498.45 902.544 Q1500.9 902.544 1503.2 901.942 Q1505.51 901.34 1507.78 900.136 L1507.78 904.164 Q1505.49 905.136 1503.08 905.645 Q1500.67 906.155 1498.2 906.155 Q1491.99 906.155 1488.36 902.544 Q1484.75 898.932 1484.75 892.775 Q1484.75 886.409 1488.17 882.682 Q1491.62 878.933 1497.45 878.933 Q1502.69 878.933 1505.72 882.312 Q1508.77 885.669 1508.77 891.456 M1504.51 890.206 Q1504.47 886.71 1502.55 884.627 Q1500.65 882.544 1497.5 882.544 Q1493.94 882.544 1491.78 884.557 Q1489.65 886.571 1489.33 890.229 L1504.51 890.206 Z" fill="#000000" fill-rule="nonzero" fill-opacity="1" /><path clip-path="url(#clip430)" d="M2524.34 870.923 L2531.3 870.923 L2540.12 894.442 L2548.99 870.923 L2555.96 870.923 L2555.96 905.483 L2551.4 905.483 L2551.4 875.136 L2542.48 898.84 L2537.78 898.84 L2528.87 875.136 L2528.87 905.483 L2524.34 905.483 L2524.34 870.923 Z" fill="#000000" fill-rule="nonzero" fill-opacity="1" /><path clip-path="url(#clip430)" d="M2585.96 872.058 L2585.96 876.618 Q2583.29 875.345 2580.93 874.72 Q2578.57 874.095 2576.37 874.095 Q2572.55 874.095 2570.47 875.576 Q2568.41 877.058 2568.41 879.789 Q2568.41 882.081 2569.78 883.261 Q2571.16 884.419 2575.01 885.136 L2577.83 885.715 Q2583.06 886.71 2585.54 889.233 Q2588.04 891.733 2588.04 895.946 Q2588.04 900.969 2584.66 903.562 Q2581.3 906.155 2574.8 906.155 Q2572.34 906.155 2569.57 905.599 Q2566.81 905.043 2563.85 903.956 L2563.85 899.141 Q2566.7 900.738 2569.43 901.548 Q2572.16 902.358 2574.8 902.358 Q2578.8 902.358 2580.98 900.784 Q2583.15 899.21 2583.15 896.294 Q2583.15 893.747 2581.58 892.312 Q2580.03 890.877 2576.47 890.159 L2573.62 889.604 Q2568.39 888.562 2566.05 886.34 Q2563.71 884.118 2563.71 880.159 Q2563.71 875.576 2566.93 872.937 Q2570.17 870.298 2575.84 870.298 Q2578.27 870.298 2580.79 870.738 Q2583.32 871.178 2585.96 872.058 Z" fill="#000000" fill-rule="nonzero" fill-opacity="1" /><path clip-path="url(#clip430)" d="M2595.33 870.923 L2617.18 870.923 L2617.18 874.858 L2600.01 874.858 L2600.01 885.09 L2616.46 885.09 L2616.46 889.025 L2600.01 889.025 L2600.01 901.548 L2617.6 901.548 L2617.6 905.483 L2595.33 905.483 L2595.33 870.923 Z" fill="#000000" fill-rule="nonzero" fill-opacity="1" /><polyline clip-path="url(#clip432)" style="stroke:#000000; stroke-linecap:round; stroke-linejoin:round; stroke-width:2; stroke-opacity:0.1; fill:none" points="174.895,820.076 2640.76,820.076 "/>
<polyline clip-path="url(#clip432)" style="stroke:#000000; stroke-linecap:round; stroke-linejoin:round; stroke-width:2; stroke-opacity:0.1; fill:none" points="174.895,711.997 2640.76,711.997 "/>
<polyline clip-path="url(#clip432)" style="stroke:#000000; stroke-linecap:round; stroke-linejoin:round; stroke-width:2; stroke-opacity:0.1; fill:none" points="174.895,603.917 2640.76,603.917 "/>
<polyline clip-path="url(#clip432)" style="stroke:#000000; stroke-linecap:round; stroke-linejoin:round; stroke-width:2; stroke-opacity:0.1; fill:none" points="174.895,495.837 2640.76,495.837 "/>
<polyline clip-path="url(#clip432)" style="stroke:#000000; stroke-linecap:round; stroke-linejoin:round; stroke-width:2; stroke-opacity:0.1; fill:none" points="174.895,387.757 2640.76,387.757 "/>
<polyline clip-path="url(#clip432)" style="stroke:#000000; stroke-linecap:round; stroke-linejoin:round; stroke-width:2; stroke-opacity:0.1; fill:none" points="174.895,279.677 2640.76,279.677 "/>
<polyline clip-path="url(#clip432)" style="stroke:#000000; stroke-linecap:round; stroke-linejoin:round; stroke-width:2; stroke-opacity:0.1; fill:none" points="174.895,171.597 2640.76,171.597 "/>
<polyline clip-path="url(#clip430)" style="stroke:#000000; stroke-linecap:round; stroke-linejoin:round; stroke-width:4; stroke-opacity:1; fill:none" points="174.895,840.779 174.895,109.278 "/>
<polyline clip-path="url(#clip430)" style="stroke:#000000; stroke-linecap:round; stroke-linejoin:round; stroke-width:4; stroke-opacity:1; fill:none" points="174.895,820.076 193.792,820.076 "/>
<polyline clip-path="url(#clip430)" style="stroke:#000000; stroke-linecap:round; stroke-linejoin:round; stroke-width:4; stroke-opacity:1; fill:none" points="174.895,711.997 193.792,711.997 "/>
<polyline clip-path="url(#clip430)" style="stroke:#000000; stroke-linecap:round; stroke-linejoin:round; stroke-width:4; stroke-opacity:1; fill:none" points="174.895,603.917 193.792,603.917 "/>
<polyline clip-path="url(#clip430)" style="stroke:#000000; stroke-linecap:round; stroke-linejoin:round; stroke-width:4; stroke-opacity:1; fill:none" points="174.895,495.837 193.792,495.837 "/>
<polyline clip-path="url(#clip430)" style="stroke:#000000; stroke-linecap:round; stroke-linejoin:round; stroke-width:4; stroke-opacity:1; fill:none" points="174.895,387.757 193.792,387.757 "/>
<polyline clip-path="url(#clip430)" style="stroke:#000000; stroke-linecap:round; stroke-linejoin:round; stroke-width:4; stroke-opacity:1; fill:none" points="174.895,279.677 193.792,279.677 "/>
<polyline clip-path="url(#clip430)" style="stroke:#000000; stroke-linecap:round; stroke-linejoin:round; stroke-width:4; stroke-opacity:1; fill:none" points="174.895,171.597 193.792,171.597 "/>
<path clip-path="url(#clip430)" d="M122.63 805.875 Q119.019 805.875 117.191 809.44 Q115.385 812.982 115.385 820.111 Q115.385 827.218 117.191 830.782 Q119.019 834.324 122.63 834.324 Q126.265 834.324 128.07 830.782 Q129.899 827.218 129.899 820.111 Q129.899 812.982 128.07 809.44 Q126.265 805.875 122.63 805.875 M122.63 802.171 Q128.441 802.171 131.496 806.778 Q134.575 811.361 134.575 820.111 Q134.575 828.838 131.496 833.444 Q128.441 838.028 122.63 838.028 Q116.82 838.028 113.742 833.444 Q110.686 828.838 110.686 820.111 Q110.686 811.361 113.742 806.778 Q116.82 802.171 122.63 802.171 Z" fill="#000000" fill-rule="nonzero" fill-opacity="1" /><path clip-path="url(#clip430)" d="M53.1169 725.341 L60.7558 725.341 L60.7558 698.976 L52.4456 700.642 L52.4456 696.383 L60.7095 694.717 L65.3854 694.717 L65.3854 725.341 L73.0242 725.341 L73.0242 729.277 L53.1169 729.277 L53.1169 725.341 Z" fill="#000000" fill-rule="nonzero" fill-opacity="1" /><path clip-path="url(#clip430)" d="M92.4686 697.795 Q88.8575 697.795 87.0288 701.36 Q85.2232 704.902 85.2232 712.031 Q85.2232 719.138 87.0288 722.703 Q88.8575 726.244 92.4686 726.244 Q96.1028 726.244 97.9083 722.703 Q99.737 719.138 99.737 712.031 Q99.737 704.902 97.9083 701.36 Q96.1028 697.795 92.4686 697.795 M92.4686 694.092 Q98.2787 694.092 101.334 698.698 Q104.413 703.281 104.413 712.031 Q104.413 720.758 101.334 725.365 Q98.2787 729.948 92.4686 729.948 Q86.6584 729.948 83.5797 725.365 Q80.5242 720.758 80.5242 712.031 Q80.5242 703.281 83.5797 698.698 Q86.6584 694.092 92.4686 694.092 Z" fill="#000000" fill-rule="nonzero" fill-opacity="1" /><path clip-path="url(#clip430)" d="M122.63 697.795 Q119.019 697.795 117.191 701.36 Q115.385 704.902 115.385 712.031 Q115.385 719.138 117.191 722.703 Q119.019 726.244 122.63 726.244 Q126.265 726.244 128.07 722.703 Q129.899 719.138 129.899 712.031 Q129.899 704.902 128.07 701.36 Q126.265 697.795 122.63 697.795 M122.63 694.092 Q128.441 694.092 131.496 698.698 Q134.575 703.281 134.575 712.031 Q134.575 720.758 131.496 725.365 Q128.441 729.948 122.63 729.948 Q116.82 729.948 113.742 725.365 Q110.686 720.758 110.686 712.031 Q110.686 703.281 113.742 698.698 Q116.82 694.092 122.63 694.092 Z" fill="#000000" fill-rule="nonzero" fill-opacity="1" /><path clip-path="url(#clip430)" d="M56.3345 617.262 L72.6539 617.262 L72.6539 621.197 L50.7095 621.197 L50.7095 617.262 Q53.3715 614.507 57.9549 609.877 Q62.5613 605.225 63.7419 603.882 Q65.9872 601.359 66.8668 599.623 Q67.7696 597.863 67.7696 596.174 Q67.7696 593.419 65.8252 591.683 Q63.9039 589.947 60.8021 589.947 Q58.603 589.947 56.1493 590.711 Q53.7188 591.475 50.941 593.026 L50.941 588.303 Q53.7651 587.169 56.2188 586.59 Q58.6724 586.012 60.7095 586.012 Q66.0798 586.012 69.2742 588.697 Q72.4687 591.382 72.4687 595.873 Q72.4687 598.002 71.6585 599.924 Q70.8715 601.822 68.765 604.414 Q68.1863 605.086 65.0845 608.303 Q61.9826 611.498 56.3345 617.262 Z" fill="#000000" fill-rule="nonzero" fill-opacity="1" /><path clip-path="url(#clip430)" d="M92.4686 589.715 Q88.8575 589.715 87.0288 593.28 Q85.2232 596.822 85.2232 603.951 Q85.2232 611.058 87.0288 614.623 Q88.8575 618.164 92.4686 618.164 Q96.1028 618.164 97.9083 614.623 Q99.737 611.058 99.737 603.951 Q99.737 596.822 97.9083 593.28 Q96.1028 589.715 92.4686 589.715 M92.4686 586.012 Q98.2787 586.012 101.334 590.618 Q104.413 595.201 104.413 603.951 Q104.413 612.678 101.334 617.285 Q98.2787 621.868 92.4686 621.868 Q86.6584 621.868 83.5797 617.285 Q80.5242 612.678 80.5242 603.951 Q80.5242 595.201 83.5797 590.618 Q86.6584 586.012 92.4686 586.012 Z" fill="#000000" fill-rule="nonzero" fill-opacity="1" /><path clip-path="url(#clip430)" d="M122.63 589.715 Q119.019 589.715 117.191 593.28 Q115.385 596.822 115.385 603.951 Q115.385 611.058 117.191 614.623 Q119.019 618.164 122.63 618.164 Q126.265 618.164 128.07 614.623 Q129.899 611.058 129.899 603.951 Q129.899 596.822 128.07 593.28 Q126.265 589.715 122.63 589.715 M122.63 586.012 Q128.441 586.012 131.496 590.618 Q134.575 595.201 134.575 603.951 Q134.575 612.678 131.496 617.285 Q128.441 621.868 122.63 621.868 Q116.82 621.868 113.742 617.285 Q110.686 612.678 110.686 603.951 Q110.686 595.201 113.742 590.618 Q116.82 586.012 122.63 586.012 Z" fill="#000000" fill-rule="nonzero" fill-opacity="1" /><path clip-path="url(#clip430)" d="M66.4733 494.483 Q69.8298 495.2 71.7048 497.469 Q73.6029 499.737 73.6029 503.071 Q73.6029 508.186 70.0844 510.987 Q66.5659 513.788 60.0845 513.788 Q57.9086 513.788 55.5938 513.348 Q53.3021 512.932 50.8484 512.075 L50.8484 507.561 Q52.7928 508.696 55.1077 509.274 Q57.4225 509.853 59.9456 509.853 Q64.3437 509.853 66.6354 508.117 Q68.9502 506.381 68.9502 503.071 Q68.9502 500.015 66.7974 498.302 Q64.6678 496.566 60.8484 496.566 L56.8206 496.566 L56.8206 492.723 L61.0335 492.723 Q64.4826 492.723 66.3113 491.358 Q68.14 489.969 68.14 487.376 Q68.14 484.714 66.2419 483.302 Q64.3669 481.867 60.8484 481.867 Q58.9271 481.867 56.728 482.284 Q54.529 482.7 51.8901 483.58 L51.8901 479.413 Q54.5521 478.673 56.8669 478.302 Q59.2049 477.932 61.265 477.932 Q66.5891 477.932 69.6909 480.362 Q72.7927 482.77 72.7927 486.89 Q72.7927 489.76 71.1492 491.751 Q69.5057 493.719 66.4733 494.483 Z" fill="#000000" fill-rule="nonzero" fill-opacity="1" /><path clip-path="url(#clip430)" d="M92.4686 481.636 Q88.8575 481.636 87.0288 485.2 Q85.2232 488.742 85.2232 495.872 Q85.2232 502.978 87.0288 506.543 Q88.8575 510.084 92.4686 510.084 Q96.1028 510.084 97.9083 506.543 Q99.737 502.978 99.737 495.872 Q99.737 488.742 97.9083 485.2 Q96.1028 481.636 92.4686 481.636 M92.4686 477.932 Q98.2787 477.932 101.334 482.538 Q104.413 487.122 104.413 495.872 Q104.413 504.598 101.334 509.205 Q98.2787 513.788 92.4686 513.788 Q86.6584 513.788 83.5797 509.205 Q80.5242 504.598 80.5242 495.872 Q80.5242 487.122 83.5797 482.538 Q86.6584 477.932 92.4686 477.932 Z" fill="#000000" fill-rule="nonzero" fill-opacity="1" /><path clip-path="url(#clip430)" d="M122.63 481.636 Q119.019 481.636 117.191 485.2 Q115.385 488.742 115.385 495.872 Q115.385 502.978 117.191 506.543 Q119.019 510.084 122.63 510.084 Q126.265 510.084 128.07 506.543 Q129.899 502.978 129.899 495.872 Q129.899 488.742 128.07 485.2 Q126.265 481.636 122.63 481.636 M122.63 477.932 Q128.441 477.932 131.496 482.538 Q134.575 487.122 134.575 495.872 Q134.575 504.598 131.496 509.205 Q128.441 513.788 122.63 513.788 Q116.82 513.788 113.742 509.205 Q110.686 504.598 110.686 495.872 Q110.686 487.122 113.742 482.538 Q116.82 477.932 122.63 477.932 Z" fill="#000000" fill-rule="nonzero" fill-opacity="1" /><path clip-path="url(#clip430)" d="M65.1539 374.551 L53.3484 393 L65.1539 393 L65.1539 374.551 M63.927 370.477 L69.8066 370.477 L69.8066 393 L74.7372 393 L74.7372 396.889 L69.8066 396.889 L69.8066 405.037 L65.1539 405.037 L65.1539 396.889 L49.5521 396.889 L49.5521 392.375 L63.927 370.477 Z" fill="#000000" fill-rule="nonzero" fill-opacity="1" /><path clip-path="url(#clip430)" d="M92.4686 373.556 Q88.8575 373.556 87.0288 377.12 Q85.2232 380.662 85.2232 387.792 Q85.2232 394.898 87.0288 398.463 Q88.8575 402.005 92.4686 402.005 Q96.1028 402.005 97.9083 398.463 Q99.737 394.898 99.737 387.792 Q99.737 380.662 97.9083 377.12 Q96.1028 373.556 92.4686 373.556 M92.4686 369.852 Q98.2787 369.852 101.334 374.458 Q104.413 379.042 104.413 387.792 Q104.413 396.518 101.334 401.125 Q98.2787 405.708 92.4686 405.708 Q86.6584 405.708 83.5797 401.125 Q80.5242 396.518 80.5242 387.792 Q80.5242 379.042 83.5797 374.458 Q86.6584 369.852 92.4686 369.852 Z" fill="#000000" fill-rule="nonzero" fill-opacity="1" /><path clip-path="url(#clip430)" d="M122.63 373.556 Q119.019 373.556 117.191 377.12 Q115.385 380.662 115.385 387.792 Q115.385 394.898 117.191 398.463 Q119.019 402.005 122.63 402.005 Q126.265 402.005 128.07 398.463 Q129.899 394.898 129.899 387.792 Q129.899 380.662 128.07 377.12 Q126.265 373.556 122.63 373.556 M122.63 369.852 Q128.441 369.852 131.496 374.458 Q134.575 379.042 134.575 387.792 Q134.575 396.518 131.496 401.125 Q128.441 405.708 122.63 405.708 Q116.82 405.708 113.742 401.125 Q110.686 396.518 110.686 387.792 Q110.686 379.042 113.742 374.458 Q116.82 369.852 122.63 369.852 Z" fill="#000000" fill-rule="nonzero" fill-opacity="1" /><path clip-path="url(#clip430)" d="M52.353 262.397 L70.7094 262.397 L70.7094 266.332 L56.6354 266.332 L56.6354 274.804 Q57.6539 274.457 58.6724 274.295 Q59.691 274.11 60.7095 274.11 Q66.4965 274.11 69.8761 277.281 Q73.2557 280.453 73.2557 285.869 Q73.2557 291.448 69.7835 294.55 Q66.3113 297.628 59.9919 297.628 Q57.816 297.628 55.5475 297.258 Q53.3021 296.888 50.8947 296.147 L50.8947 291.448 Q52.978 292.582 55.2002 293.138 Q57.4225 293.693 59.8993 293.693 Q63.9039 293.693 66.2419 291.587 Q68.5798 289.48 68.5798 285.869 Q68.5798 282.258 66.2419 280.152 Q63.9039 278.045 59.8993 278.045 Q58.0243 278.045 56.1493 278.462 Q54.2975 278.878 52.353 279.758 L52.353 262.397 Z" fill="#000000" fill-rule="nonzero" fill-opacity="1" /><path clip-path="url(#clip430)" d="M92.4686 265.476 Q88.8575 265.476 87.0288 269.041 Q85.2232 272.582 85.2232 279.712 Q85.2232 286.818 87.0288 290.383 Q88.8575 293.925 92.4686 293.925 Q96.1028 293.925 97.9083 290.383 Q99.737 286.818 99.737 279.712 Q99.737 272.582 97.9083 269.041 Q96.1028 265.476 92.4686 265.476 M92.4686 261.772 Q98.2787 261.772 101.334 266.379 Q104.413 270.962 104.413 279.712 Q104.413 288.439 101.334 293.045 Q98.2787 297.628 92.4686 297.628 Q86.6584 297.628 83.5797 293.045 Q80.5242 288.439 80.5242 279.712 Q80.5242 270.962 83.5797 266.379 Q86.6584 261.772 92.4686 261.772 Z" fill="#000000" fill-rule="nonzero" fill-opacity="1" /><path clip-path="url(#clip430)" d="M122.63 265.476 Q119.019 265.476 117.191 269.041 Q115.385 272.582 115.385 279.712 Q115.385 286.818 117.191 290.383 Q119.019 293.925 122.63 293.925 Q126.265 293.925 128.07 290.383 Q129.899 286.818 129.899 279.712 Q129.899 272.582 128.07 269.041 Q126.265 265.476 122.63 265.476 M122.63 261.772 Q128.441 261.772 131.496 266.379 Q134.575 270.962 134.575 279.712 Q134.575 288.439 131.496 293.045 Q128.441 297.628 122.63 297.628 Q116.82 297.628 113.742 293.045 Q110.686 288.439 110.686 279.712 Q110.686 270.962 113.742 266.379 Q116.82 261.772 122.63 261.772 Z" fill="#000000" fill-rule="nonzero" fill-opacity="1" /><path clip-path="url(#clip430)" d="M62.8854 169.734 Q59.7373 169.734 57.8854 171.887 Q56.0567 174.039 56.0567 177.789 Q56.0567 181.516 57.8854 183.692 Q59.7373 185.845 62.8854 185.845 Q66.0335 185.845 67.8622 183.692 Q69.7141 181.516 69.7141 177.789 Q69.7141 174.039 67.8622 171.887 Q66.0335 169.734 62.8854 169.734 M72.1677 155.081 L72.1677 159.34 Q70.4085 158.507 68.6029 158.067 Q66.8206 157.627 65.0613 157.627 Q60.4317 157.627 57.978 160.752 Q55.5475 163.877 55.2002 170.197 Q56.566 168.183 58.6262 167.118 Q60.6863 166.03 63.1632 166.03 Q68.3715 166.03 71.3807 169.201 Q74.4131 172.35 74.4131 177.789 Q74.4131 183.113 71.265 186.331 Q68.1168 189.548 62.8854 189.548 Q56.89 189.548 53.7188 184.965 Q50.5475 180.359 50.5475 171.632 Q50.5475 163.438 54.4364 158.576 Q58.3252 153.692 64.8761 153.692 Q66.6354 153.692 68.4178 154.039 Q70.2233 154.387 72.1677 155.081 Z" fill="#000000" fill-rule="nonzero" fill-opacity="1" /><path clip-path="url(#clip430)" d="M92.4686 157.396 Q88.8575 157.396 87.0288 160.961 Q85.2232 164.502 85.2232 171.632 Q85.2232 178.738 87.0288 182.303 Q88.8575 185.845 92.4686 185.845 Q96.1028 185.845 97.9083 182.303 Q99.737 178.738 99.737 171.632 Q99.737 164.502 97.9083 160.961 Q96.1028 157.396 92.4686 157.396 M92.4686 153.692 Q98.2787 153.692 101.334 158.299 Q104.413 162.882 104.413 171.632 Q104.413 180.359 101.334 184.965 Q98.2787 189.548 92.4686 189.548 Q86.6584 189.548 83.5797 184.965 Q80.5242 180.359 80.5242 171.632 Q80.5242 162.882 83.5797 158.299 Q86.6584 153.692 92.4686 153.692 Z" fill="#000000" fill-rule="nonzero" fill-opacity="1" /><path clip-path="url(#clip430)" d="M122.63 157.396 Q119.019 157.396 117.191 160.961 Q115.385 164.502 115.385 171.632 Q115.385 178.738 117.191 182.303 Q119.019 185.845 122.63 185.845 Q126.265 185.845 128.07 182.303 Q129.899 178.738 129.899 171.632 Q129.899 164.502 128.07 160.961 Q126.265 157.396 122.63 157.396 M122.63 153.692 Q128.441 153.692 131.496 158.299 Q134.575 162.882 134.575 171.632 Q134.575 180.359 131.496 184.965 Q128.441 189.548 122.63 189.548 Q116.82 189.548 113.742 184.965 Q110.686 180.359 110.686 171.632 Q110.686 162.882 113.742 158.299 Q116.82 153.692 122.63 153.692 Z" fill="#000000" fill-rule="nonzero" fill-opacity="1" /><path clip-path="url(#clip430)" d="M1166.03 8.64 L1172.31 8.64 L1183.04 24.6989 L1193.84 8.64 L1200.12 8.64 L1186.23 29.3864 L1201.04 51.84 L1194.76 51.84 L1182.61 33.4663 L1170.37 51.84 L1164.06 51.84 L1179.48 28.7788 L1166.03 8.64 Z" fill="#000000" fill-rule="nonzero" fill-opacity="1" /><path clip-path="url(#clip430)" d="M1246.27 28.2001 L1246.27 33.3505 Q1243.23 35.6364 1240.62 36.6202 Q1238.05 37.604 1235.24 37.604 Q1232.06 37.604 1227.84 35.8968 Q1227.52 35.7811 1227.37 35.7232 Q1227.17 35.6364 1226.74 35.4917 Q1222.25 33.6977 1219.53 33.6977 Q1216.98 33.6977 1214.5 34.8262 Q1212.01 35.9257 1209.17 38.3273 L1209.17 33.1769 Q1212.21 30.891 1214.79 29.9072 Q1217.39 28.8945 1220.2 28.8945 Q1223.38 28.8945 1227.63 30.6306 Q1227.92 30.7464 1228.07 30.8042 Q1228.3 30.891 1228.7 31.0357 Q1233.19 32.8297 1235.91 32.8297 Q1238.4 32.8297 1240.83 31.7302 Q1243.29 30.6306 1246.27 28.2001 Z" fill="#000000" fill-rule="nonzero" fill-opacity="1" /><path clip-path="url(#clip430)" d="M1287.82 45.6768 L1287.82 34.0739 L1278.27 34.0739 L1278.27 29.2707 L1293.6 29.2707 L1293.6 47.818 Q1290.22 50.2196 1286.14 51.4638 Q1282.06 52.6791 1277.43 52.6791 Q1267.3 52.6791 1261.57 46.7764 Q1255.87 40.8447 1255.87 30.2834 Q1255.87 19.6932 1261.57 13.7904 Q1267.3 7.85875 1277.43 7.85875 Q1281.65 7.85875 1285.44 8.90042 Q1289.26 9.94208 1292.48 11.9675 L1292.48 18.1886 Q1289.24 15.4397 1285.59 14.0509 Q1281.94 12.662 1277.92 12.662 Q1269.99 12.662 1266 17.089 Q1262.04 21.5161 1262.04 30.2834 Q1262.04 39.0218 1266 43.4488 Q1269.99 47.8759 1277.92 47.8759 Q1281.02 47.8759 1283.45 47.3551 Q1285.88 46.8053 1287.82 45.6768 Z" fill="#000000" fill-rule="nonzero" fill-opacity="1" /><path clip-path="url(#clip430)" d="M1310.13 13.4432 L1310.13 29.6758 L1317.48 29.6758 Q1321.56 29.6758 1323.78 27.5635 Q1326.01 25.4513 1326.01 21.545 Q1326.01 17.6677 1323.78 15.5555 Q1321.56 13.4432 1317.48 13.4432 L1310.13 13.4432 M1304.28 8.64 L1317.48 8.64 Q1324.74 8.64 1328.44 11.9386 Q1332.17 15.2083 1332.17 21.545 Q1332.17 27.9397 1328.44 31.2093 Q1324.74 34.479 1317.48 34.479 L1310.13 34.479 L1310.13 51.84 L1304.28 51.84 L1304.28 8.64 Z" fill="#000000" fill-rule="nonzero" fill-opacity="1" /><path clip-path="url(#clip430)" d="M1345.86 13.4432 L1345.86 47.0368 L1352.92 47.0368 Q1361.86 47.0368 1366 42.9859 Q1370.17 38.935 1370.17 30.1966 Q1370.17 21.5161 1366 17.4941 Q1361.86 13.4432 1352.92 13.4432 L1345.86 13.4432 M1340.02 8.64 L1352.02 8.64 Q1364.58 8.64 1370.46 13.8772 Q1376.33 19.0855 1376.33 30.1966 Q1376.33 41.3655 1370.43 46.6028 Q1364.52 51.84 1352.02 51.84 L1340.02 51.84 L1340.02 8.64 Z" fill="#000000" fill-rule="nonzero" fill-opacity="1" /><path clip-path="url(#clip430)" d="M1386.78 44.4905 L1392.88 44.4905 L1392.88 49.4673 L1388.14 58.7265 L1384.4 58.7265 L1386.78 49.4673 L1386.78 44.4905 Z" fill="#000000" fill-rule="nonzero" fill-opacity="1" /><path clip-path="url(#clip430)" d="M1450.03 32.2799 L1450.03 51.84 L1444.7 51.84 L1444.7 32.4535 Q1444.7 27.8529 1442.91 25.567 Q1441.12 23.2811 1437.53 23.2811 Q1433.22 23.2811 1430.73 26.03 Q1428.24 28.7788 1428.24 33.5241 L1428.24 51.84 L1422.89 51.84 L1422.89 19.4328 L1428.24 19.4328 L1428.24 24.4675 Q1430.15 21.545 1432.72 20.0983 Q1435.33 18.6515 1438.71 18.6515 Q1444.3 18.6515 1447.16 22.1237 Q1450.03 25.567 1450.03 32.2799 Z" fill="#000000" fill-rule="nonzero" fill-opacity="1" /><path clip-path="url(#clip430)" d="M1461.34 24.9304 L1498.44 24.9304 L1498.44 29.7915 L1461.34 29.7915 L1461.34 24.9304 M1461.34 36.7359 L1498.44 36.7359 L1498.44 41.6549 L1461.34 41.6549 L1461.34 36.7359 Z" fill="#000000" fill-rule="nonzero" fill-opacity="1" /><path clip-path="url(#clip430)" d="M1512.06 46.921 L1521.61 46.921 L1521.61 13.964 L1511.22 16.0474 L1511.22 10.7233 L1521.55 8.64 L1527.4 8.64 L1527.4 46.921 L1536.95 46.921 L1536.95 51.84 L1512.06 51.84 L1512.06 46.921 Z" fill="#000000" fill-rule="nonzero" fill-opacity="1" /><path clip-path="url(#clip430)" d="M1561.25 12.4884 Q1556.74 12.4884 1554.45 16.9444 Q1552.2 21.3714 1552.2 30.2834 Q1552.2 39.1665 1554.45 43.6225 Q1556.74 48.0495 1561.25 48.0495 Q1565.8 48.0495 1568.05 43.6225 Q1570.34 39.1665 1570.34 30.2834 Q1570.34 21.3714 1568.05 16.9444 Q1565.8 12.4884 1561.25 12.4884 M1561.25 7.85875 Q1568.52 7.85875 1572.34 13.6168 Q1576.18 19.346 1576.18 30.2834 Q1576.18 41.1919 1572.34 46.95 Q1568.52 52.6791 1561.25 52.6791 Q1553.99 52.6791 1550.14 46.95 Q1546.32 41.1919 1546.32 30.2834 Q1546.32 19.346 1550.14 13.6168 Q1553.99 7.85875 1561.25 7.85875 Z" fill="#000000" fill-rule="nonzero" fill-opacity="1" /><path clip-path="url(#clip430)" d="M1598.96 12.4884 Q1594.44 12.4884 1592.16 16.9444 Q1589.9 21.3714 1589.9 30.2834 Q1589.9 39.1665 1592.16 43.6225 Q1594.44 48.0495 1598.96 48.0495 Q1603.5 48.0495 1605.76 43.6225 Q1608.04 39.1665 1608.04 30.2834 Q1608.04 21.3714 1605.76 16.9444 Q1603.5 12.4884 1598.96 12.4884 M1598.96 7.85875 Q1606.22 7.85875 1610.04 13.6168 Q1613.89 19.346 1613.89 30.2834 Q1613.89 41.1919 1610.04 46.95 Q1606.22 52.6791 1598.96 52.6791 Q1591.69 52.6791 1587.84 46.95 Q1584.03 41.1919 1584.03 30.2834 Q1584.03 19.346 1587.84 13.6168 Q1591.69 7.85875 1598.96 7.85875 Z" fill="#000000" fill-rule="nonzero" fill-opacity="1" /><path clip-path="url(#clip430)" d="M1636.66 12.4884 Q1632.14 12.4884 1629.86 16.9444 Q1627.6 21.3714 1627.6 30.2834 Q1627.6 39.1665 1629.86 43.6225 Q1632.14 48.0495 1636.66 48.0495 Q1641.2 48.0495 1643.46 43.6225 Q1645.74 39.1665 1645.74 30.2834 Q1645.74 21.3714 1643.46 16.9444 Q1641.2 12.4884 1636.66 12.4884 M1636.66 7.85875 Q1643.92 7.85875 1647.74 13.6168 Q1651.59 19.346 1651.59 30.2834 Q1651.59 41.1919 1647.74 46.95 Q1643.92 52.6791 1636.66 52.6791 Q1629.4 52.6791 1625.55 46.95 Q1621.73 41.1919 1621.73 30.2834 Q1621.73 19.346 1625.55 13.6168 Q1629.4 7.85875 1636.66 7.85875 Z" fill="#000000" fill-rule="nonzero" fill-opacity="1" /><polyline clip-path="url(#clip432)" style="stroke:#009af9; stroke-linecap:round; stroke-linejoin:round; stroke-width:0; stroke-opacity:1; fill:none" points="244.683,820.016 1407.83,129.981 2570.97,130.058 "/>
<circle clip-path="url(#clip432)" cx="244.683" cy="820.016" r="14.4" fill="#009af9" fill-rule="evenodd" fill-opacity="1" stroke="#000000" stroke-opacity="1" stroke-width="3.84"/>
<circle clip-path="url(#clip432)" cx="1407.83" cy="129.981" r="14.4" fill="#009af9" fill-rule="evenodd" fill-opacity="1" stroke="#000000" stroke-opacity="1" stroke-width="3.84"/>
<circle clip-path="url(#clip432)" cx="2570.97" cy="130.058" r="14.4" fill="#009af9" fill-rule="evenodd" fill-opacity="1" stroke="#000000" stroke-opacity="1" stroke-width="3.84"/>
<polyline clip-path="url(#clip432)" style="stroke:#e26f46; stroke-linecap:round; stroke-linejoin:round; stroke-width:0; stroke-opacity:1; fill:none" points="244.683,512.446 1407.83,812.53 2570.97,504.901 "/>
<circle clip-path="url(#clip432)" cx="244.683" cy="512.446" r="14.4" fill="#e26f46" fill-rule="evenodd" fill-opacity="1" stroke="#000000" stroke-opacity="1" stroke-width="3.84"/>
<circle clip-path="url(#clip432)" cx="1407.83" cy="812.53" r="14.4" fill="#e26f46" fill-rule="evenodd" fill-opacity="1" stroke="#000000" stroke-opacity="1" stroke-width="3.84"/>
<circle clip-path="url(#clip432)" cx="2570.97" cy="504.901" r="14.4" fill="#e26f46" fill-rule="evenodd" fill-opacity="1" stroke="#000000" stroke-opacity="1" stroke-width="3.84"/>
<polyline clip-path="url(#clip432)" style="stroke:#3da44d; stroke-linecap:round; stroke-linejoin:round; stroke-width:0; stroke-opacity:1; fill:none" points="244.683,817.137 1407.83,727.522 2570.97,724.601 "/>
<circle clip-path="url(#clip432)" cx="244.683" cy="817.137" r="14.4" fill="#3da44d" fill-rule="evenodd" fill-opacity="1" stroke="#000000" stroke-opacity="1" stroke-width="3.84"/>
<circle clip-path="url(#clip432)" cx="1407.83" cy="727.522" r="14.4" fill="#3da44d" fill-rule="evenodd" fill-opacity="1" stroke="#000000" stroke-opacity="1" stroke-width="3.84"/>
<circle clip-path="url(#clip432)" cx="2570.97" cy="724.601" r="14.4" fill="#3da44d" fill-rule="evenodd" fill-opacity="1" stroke="#000000" stroke-opacity="1" stroke-width="3.84"/>
<polyline clip-path="url(#clip432)" style="stroke:#000000; stroke-linecap:round; stroke-linejoin:round; stroke-width:4; stroke-opacity:1; fill:none" points="-2290.97,820.076 5106.62,820.076 "/>
<path clip-path="url(#clip430)" d="M257.09 341.021 L945.942 341.021 L945.942 133.661 L257.09 133.661  Z" fill="#ffffff" fill-rule="evenodd" fill-opacity="1"/>
<polyline clip-path="url(#clip430)" style="stroke:#000000; stroke-linecap:round; stroke-linejoin:round; stroke-width:4; stroke-opacity:1; fill:none" points="257.09,341.021 945.942,341.021 945.942,133.661 257.09,133.661 257.09,341.021 "/>
<polyline clip-path="url(#clip430)" style="stroke:#009af9; stroke-linecap:round; stroke-linejoin:round; stroke-width:0.8; stroke-opacity:1; fill:none" points="284.489,185.501 448.879,185.501 "/>
<circle clip-path="url(#clip430)" cx="366.684" cy="185.501" r="20.48" fill="#009af9" fill-rule="evenodd" fill-opacity="1" stroke="#000000" stroke-opacity="1" stroke-width="5.46133"/>
<path clip-path="url(#clip430)" d="M498.523 169.355 L498.523 173.916 Q495.861 172.642 493.5 172.017 Q491.139 171.393 488.94 171.393 Q485.12 171.393 483.037 172.874 Q480.977 174.355 480.977 177.087 Q480.977 179.379 482.343 180.559 Q483.732 181.717 487.574 182.434 L490.398 183.013 Q495.63 184.008 498.106 186.531 Q500.606 189.031 500.606 193.244 Q500.606 198.267 497.227 200.86 Q493.87 203.453 487.366 203.453 Q484.912 203.453 482.134 202.897 Q479.38 202.341 476.417 201.253 L476.417 196.439 Q479.264 198.036 481.995 198.846 Q484.727 199.656 487.366 199.656 Q491.37 199.656 493.546 198.082 Q495.722 196.508 495.722 193.591 Q495.722 191.045 494.148 189.61 Q492.597 188.175 489.032 187.457 L486.185 186.902 Q480.954 185.86 478.616 183.638 Q476.278 181.416 476.278 177.457 Q476.278 172.874 479.495 170.235 Q482.736 167.596 488.407 167.596 Q490.838 167.596 493.361 168.036 Q495.884 168.476 498.523 169.355 Z" fill="#000000" fill-rule="nonzero" fill-opacity="1" /><path clip-path="url(#clip430)" d="M519.495 189.749 Q514.333 189.749 512.342 190.929 Q510.352 192.11 510.352 194.957 Q510.352 197.226 511.833 198.568 Q513.338 199.888 515.907 199.888 Q519.449 199.888 521.579 197.388 Q523.731 194.865 523.731 190.698 L523.731 189.749 L519.495 189.749 M527.991 187.99 L527.991 202.781 L523.731 202.781 L523.731 198.846 Q522.273 201.207 520.097 202.341 Q517.921 203.453 514.773 203.453 Q510.792 203.453 508.43 201.23 Q506.092 198.985 506.092 195.235 Q506.092 190.86 509.009 188.638 Q511.949 186.416 517.759 186.416 L523.731 186.416 L523.731 185.999 Q523.731 183.059 521.787 181.462 Q519.866 179.842 516.37 179.842 Q514.148 179.842 512.042 180.374 Q509.935 180.906 507.991 181.971 L507.991 178.036 Q510.329 177.133 512.528 176.693 Q514.727 176.23 516.81 176.23 Q522.435 176.23 525.213 179.147 Q527.991 182.064 527.991 187.99 Z" fill="#000000" fill-rule="nonzero" fill-opacity="1" /><path clip-path="url(#clip430)" d="M556.949 181.832 Q558.546 178.962 560.768 177.596 Q562.99 176.23 566 176.23 Q570.05 176.23 572.25 179.078 Q574.449 181.902 574.449 187.133 L574.449 202.781 L570.166 202.781 L570.166 187.272 Q570.166 183.545 568.847 181.74 Q567.527 179.934 564.819 179.934 Q561.509 179.934 559.588 182.133 Q557.666 184.332 557.666 188.129 L557.666 202.781 L553.384 202.781 L553.384 187.272 Q553.384 183.522 552.064 181.74 Q550.745 179.934 547.99 179.934 Q544.727 179.934 542.805 182.156 Q540.884 184.355 540.884 188.129 L540.884 202.781 L536.602 202.781 L536.602 176.855 L540.884 176.855 L540.884 180.883 Q542.342 178.499 544.379 177.365 Q546.416 176.23 549.217 176.23 Q552.041 176.23 554.009 177.666 Q556 179.101 556.949 181.832 Z" fill="#000000" fill-rule="nonzero" fill-opacity="1" /><path clip-path="url(#clip430)" d="M587.064 198.892 L587.064 212.642 L582.782 212.642 L582.782 176.855 L587.064 176.855 L587.064 180.791 Q588.407 178.476 590.444 177.365 Q592.504 176.23 595.351 176.23 Q600.073 176.23 603.013 179.98 Q605.976 183.73 605.976 189.841 Q605.976 195.953 603.013 199.703 Q600.073 203.453 595.351 203.453 Q592.504 203.453 590.444 202.341 Q588.407 201.207 587.064 198.892 M601.555 189.841 Q601.555 185.142 599.611 182.48 Q597.689 179.795 594.31 179.795 Q590.93 179.795 588.986 182.48 Q587.064 185.142 587.064 189.841 Q587.064 194.541 588.986 197.226 Q590.93 199.888 594.31 199.888 Q597.689 199.888 599.611 197.226 Q601.555 194.541 601.555 189.841 Z" fill="#000000" fill-rule="nonzero" fill-opacity="1" /><path clip-path="url(#clip430)" d="M613.036 166.763 L617.296 166.763 L617.296 202.781 L613.036 202.781 L613.036 166.763 Z" fill="#000000" fill-rule="nonzero" fill-opacity="1" /><path clip-path="url(#clip430)" d="M648.383 188.754 L648.383 190.837 L628.8 190.837 Q629.078 195.235 631.439 197.55 Q633.823 199.841 638.059 199.841 Q640.513 199.841 642.805 199.24 Q645.12 198.638 647.388 197.434 L647.388 201.462 Q645.096 202.434 642.689 202.943 Q640.282 203.453 637.805 203.453 Q631.601 203.453 627.967 199.841 Q624.356 196.23 624.356 190.073 Q624.356 183.707 627.782 179.98 Q631.231 176.23 637.064 176.23 Q642.295 176.23 645.328 179.61 Q648.383 182.967 648.383 188.754 M644.124 187.504 Q644.078 184.008 642.157 181.925 Q640.258 179.842 637.11 179.842 Q633.546 179.842 631.393 181.855 Q629.263 183.869 628.939 187.527 L644.124 187.504 Z" fill="#000000" fill-rule="nonzero" fill-opacity="1" /><path clip-path="url(#clip430)" d="M670.629 168.221 L677.596 168.221 L686.416 191.74 L695.281 168.221 L702.249 168.221 L702.249 202.781 L697.689 202.781 L697.689 172.434 L688.777 196.138 L684.078 196.138 L675.166 172.434 L675.166 202.781 L670.629 202.781 L670.629 168.221 Z" fill="#000000" fill-rule="nonzero" fill-opacity="1" /><path clip-path="url(#clip430)" d="M733.522 188.754 L733.522 190.837 L713.939 190.837 Q714.216 195.235 716.577 197.55 Q718.962 199.841 723.198 199.841 Q725.652 199.841 727.943 199.24 Q730.258 198.638 732.526 197.434 L732.526 201.462 Q730.235 202.434 727.827 202.943 Q725.42 203.453 722.943 203.453 Q716.74 203.453 713.105 199.841 Q709.494 196.23 709.494 190.073 Q709.494 183.707 712.92 179.98 Q716.369 176.23 722.202 176.23 Q727.434 176.23 730.466 179.61 Q733.522 182.967 733.522 188.754 M729.263 187.504 Q729.216 184.008 727.295 181.925 Q725.397 179.842 722.249 179.842 Q718.684 179.842 716.531 181.855 Q714.402 183.869 714.077 187.527 L729.263 187.504 Z" fill="#000000" fill-rule="nonzero" fill-opacity="1" /><path clip-path="url(#clip430)" d="M752.295 189.749 Q747.133 189.749 745.142 190.929 Q743.151 192.11 743.151 194.957 Q743.151 197.226 744.633 198.568 Q746.138 199.888 748.707 199.888 Q752.249 199.888 754.378 197.388 Q756.531 194.865 756.531 190.698 L756.531 189.749 L752.295 189.749 M760.79 187.99 L760.79 202.781 L756.531 202.781 L756.531 198.846 Q755.073 201.207 752.897 202.341 Q750.721 203.453 747.573 203.453 Q743.591 203.453 741.23 201.23 Q738.892 198.985 738.892 195.235 Q738.892 190.86 741.809 188.638 Q744.749 186.416 750.559 186.416 L756.531 186.416 L756.531 185.999 Q756.531 183.059 754.587 181.462 Q752.665 179.842 749.17 179.842 Q746.948 179.842 744.841 180.374 Q742.735 180.906 740.79 181.971 L740.79 178.036 Q743.128 177.133 745.327 176.693 Q747.526 176.23 749.61 176.23 Q755.235 176.23 758.012 179.147 Q760.79 182.064 760.79 187.99 Z" fill="#000000" fill-rule="nonzero" fill-opacity="1" /><path clip-path="url(#clip430)" d="M791.114 187.133 L791.114 202.781 L786.855 202.781 L786.855 187.272 Q786.855 183.592 785.42 181.763 Q783.985 179.934 781.114 179.934 Q777.665 179.934 775.674 182.133 Q773.684 184.332 773.684 188.129 L773.684 202.781 L769.401 202.781 L769.401 176.855 L773.684 176.855 L773.684 180.883 Q775.211 178.545 777.272 177.388 Q779.355 176.23 782.063 176.23 Q786.531 176.23 788.822 179.008 Q791.114 181.763 791.114 187.133 Z" fill="#000000" fill-rule="nonzero" fill-opacity="1" /><path clip-path="url(#clip430)" d="M822.248 168.221 L826.183 168.221 L814.146 207.179 L810.211 207.179 L822.248 168.221 Z" fill="#000000" fill-rule="nonzero" fill-opacity="1" /><path clip-path="url(#clip430)" d="M854.817 202.781 L841.623 168.221 L846.507 168.221 L857.456 197.318 L868.429 168.221 L873.29 168.221 L860.118 202.781 L854.817 202.781 Z" fill="#000000" fill-rule="nonzero" fill-opacity="1" /><path clip-path="url(#clip430)" d="M886.252 189.749 Q881.09 189.749 879.1 190.929 Q877.109 192.11 877.109 194.957 Q877.109 197.226 878.59 198.568 Q880.095 199.888 882.665 199.888 Q886.206 199.888 888.336 197.388 Q890.489 194.865 890.489 190.698 L890.489 189.749 L886.252 189.749 M894.748 187.99 L894.748 202.781 L890.489 202.781 L890.489 198.846 Q889.03 201.207 886.854 202.341 Q884.678 203.453 881.53 203.453 Q877.549 203.453 875.188 201.23 Q872.85 198.985 872.85 195.235 Q872.85 190.86 875.766 188.638 Q878.706 186.416 884.516 186.416 L890.489 186.416 L890.489 185.999 Q890.489 183.059 888.544 181.462 Q886.623 179.842 883.128 179.842 Q880.905 179.842 878.799 180.374 Q876.692 180.906 874.748 181.971 L874.748 178.036 Q877.086 177.133 879.285 176.693 Q881.484 176.23 883.567 176.23 Q889.192 176.23 891.97 179.147 Q894.748 182.064 894.748 187.99 Z" fill="#000000" fill-rule="nonzero" fill-opacity="1" /><path clip-path="url(#clip430)" d="M918.544 180.837 Q917.826 180.42 916.97 180.235 Q916.137 180.027 915.118 180.027 Q911.507 180.027 909.563 182.388 Q907.641 184.726 907.641 189.124 L907.641 202.781 L903.359 202.781 L903.359 176.855 L907.641 176.855 L907.641 180.883 Q908.984 178.522 911.137 177.388 Q913.289 176.23 916.368 176.23 Q916.808 176.23 917.34 176.3 Q917.873 176.346 918.521 176.462 L918.544 180.837 Z" fill="#000000" fill-rule="nonzero" fill-opacity="1" /><polyline clip-path="url(#clip430)" style="stroke:#e26f46; stroke-linecap:round; stroke-linejoin:round; stroke-width:0.8; stroke-opacity:1; fill:none" points="284.489,237.341 448.879,237.341 "/>
<circle clip-path="url(#clip430)" cx="366.684" cy="237.341" r="20.48" fill="#e26f46" fill-rule="evenodd" fill-opacity="1" stroke="#000000" stroke-opacity="1" stroke-width="5.46133"/>
<path clip-path="url(#clip430)" d="M476.278 220.061 L480.954 220.061 L480.954 234.228 L497.944 234.228 L497.944 220.061 L502.62 220.061 L502.62 254.621 L497.944 254.621 L497.944 238.163 L480.954 238.163 L480.954 254.621 L476.278 254.621 L476.278 220.061 Z" fill="#000000" fill-rule="nonzero" fill-opacity="1" /><path clip-path="url(#clip430)" d="M511.741 228.695 L516 228.695 L516 254.621 L511.741 254.621 L511.741 228.695 M511.741 218.603 L516 218.603 L516 223.996 L511.741 223.996 L511.741 218.603 Z" fill="#000000" fill-rule="nonzero" fill-opacity="1" /><path clip-path="url(#clip430)" d="M524.912 218.603 L529.171 218.603 L529.171 254.621 L524.912 254.621 L524.912 218.603 Z" fill="#000000" fill-rule="nonzero" fill-opacity="1" /><path clip-path="url(#clip430)" d="M538.083 218.603 L542.342 218.603 L542.342 254.621 L538.083 254.621 L538.083 218.603 Z" fill="#000000" fill-rule="nonzero" fill-opacity="1" /><polyline clip-path="url(#clip430)" style="stroke:#3da44d; stroke-linecap:round; stroke-linejoin:round; stroke-width:0.8; stroke-opacity:1; fill:none" points="284.489,289.181 448.879,289.181 "/>
<circle clip-path="url(#clip430)" cx="366.684" cy="289.181" r="20.48" fill="#3da44d" fill-rule="evenodd" fill-opacity="1" stroke="#000000" stroke-opacity="1" stroke-width="5.46133"/>
<path clip-path="url(#clip430)" d="M501.833 301.531 L501.833 292.248 L494.194 292.248 L494.194 288.406 L506.463 288.406 L506.463 303.244 Q503.755 305.165 500.491 306.16 Q497.227 307.133 493.523 307.133 Q485.421 307.133 480.838 302.41 Q476.278 297.665 476.278 289.216 Q476.278 280.744 480.838 276.022 Q485.421 271.276 493.523 271.276 Q496.903 271.276 499.935 272.11 Q502.991 272.943 505.56 274.563 L505.56 279.54 Q502.968 277.341 500.051 276.23 Q497.134 275.119 493.917 275.119 Q487.574 275.119 484.38 278.66 Q481.208 282.202 481.208 289.216 Q481.208 296.207 484.38 299.748 Q487.574 303.29 493.917 303.29 Q496.393 303.29 498.338 302.873 Q500.282 302.433 501.833 301.531 Z" fill="#000000" fill-rule="nonzero" fill-opacity="1" /><path clip-path="url(#clip430)" d="M519.68 275.744 L519.68 288.73 L525.56 288.73 Q528.824 288.73 530.606 287.04 Q532.389 285.35 532.389 282.225 Q532.389 279.123 530.606 277.434 Q528.824 275.744 525.56 275.744 L519.68 275.744 M515.004 271.901 L525.56 271.901 Q531.37 271.901 534.333 274.54 Q537.319 277.156 537.319 282.225 Q537.319 287.341 534.333 289.957 Q531.37 292.572 525.56 292.572 L519.68 292.572 L519.68 306.461 L515.004 306.461 L515.004 271.901 Z" fill="#000000" fill-rule="nonzero" fill-opacity="1" /><path clip-path="url(#clip430)" d="M548.268 275.744 L548.268 302.619 L553.916 302.619 Q561.069 302.619 564.379 299.378 Q567.713 296.137 567.713 289.147 Q567.713 282.202 564.379 278.985 Q561.069 275.744 553.916 275.744 L548.268 275.744 M543.592 271.901 L553.199 271.901 Q563.245 271.901 567.944 276.091 Q572.643 280.258 572.643 289.147 Q572.643 298.082 567.921 302.271 Q563.199 306.461 553.199 306.461 L543.592 306.461 L543.592 271.901 Z" fill="#000000" fill-rule="nonzero" fill-opacity="1" /><path clip-path="url(#clip430)" d="M174.895 1800.78 L2640.76 1800.78 L2640.76 1069.28 L174.895 1069.28  Z" fill="#ffffff" fill-rule="evenodd" fill-opacity="1"/>
<defs>
  <clipPath id="clip433">
    <rect x="174" y="1069" width="2467" height="733"/>
  </clipPath>
</defs>
<polyline clip-path="url(#clip433)" style="stroke:#000000; stroke-linecap:round; stroke-linejoin:round; stroke-width:2; stroke-opacity:0.1; fill:none" points="244.683,1800.78 244.683,1069.28 "/>
<polyline clip-path="url(#clip433)" style="stroke:#000000; stroke-linecap:round; stroke-linejoin:round; stroke-width:2; stroke-opacity:0.1; fill:none" points="1407.83,1800.78 1407.83,1069.28 "/>
<polyline clip-path="url(#clip433)" style="stroke:#000000; stroke-linecap:round; stroke-linejoin:round; stroke-width:2; stroke-opacity:0.1; fill:none" points="2570.97,1800.78 2570.97,1069.28 "/>
<polyline clip-path="url(#clip430)" style="stroke:#000000; stroke-linecap:round; stroke-linejoin:round; stroke-width:4; stroke-opacity:1; fill:none" points="174.895,1800.78 2640.76,1800.78 "/>
<polyline clip-path="url(#clip430)" style="stroke:#000000; stroke-linecap:round; stroke-linejoin:round; stroke-width:4; stroke-opacity:1; fill:none" points="244.683,1800.78 244.683,1781.88 "/>
<polyline clip-path="url(#clip430)" style="stroke:#000000; stroke-linecap:round; stroke-linejoin:round; stroke-width:4; stroke-opacity:1; fill:none" points="1407.83,1800.78 1407.83,1781.88 "/>
<polyline clip-path="url(#clip430)" style="stroke:#000000; stroke-linecap:round; stroke-linejoin:round; stroke-width:4; stroke-opacity:1; fill:none" points="2570.97,1800.78 2570.97,1781.88 "/>
<path clip-path="url(#clip430)" d="M203.121 1848.98 L203.121 1861.64 L210.621 1861.64 Q214.394 1861.64 216.2 1860.09 Q218.028 1858.52 218.028 1855.3 Q218.028 1852.06 216.2 1850.53 Q214.394 1848.98 210.621 1848.98 L203.121 1848.98 M203.121 1834.77 L203.121 1845.18 L210.042 1845.18 Q213.468 1845.18 215.135 1843.91 Q216.825 1842.61 216.825 1839.97 Q216.825 1837.36 215.135 1836.06 Q213.468 1834.77 210.042 1834.77 L203.121 1834.77 M198.445 1830.92 L210.39 1830.92 Q215.737 1830.92 218.63 1833.15 Q221.524 1835.37 221.524 1839.46 Q221.524 1842.64 220.042 1844.51 Q218.561 1846.39 215.69 1846.85 Q219.139 1847.59 221.038 1849.95 Q222.959 1852.29 222.959 1855.81 Q222.959 1860.44 219.811 1862.96 Q216.663 1865.48 210.853 1865.48 L198.445 1865.48 L198.445 1830.92 Z" fill="#000000" fill-rule="nonzero" fill-opacity="1" /><path clip-path="url(#clip430)" d="M230.783 1839.56 L235.042 1839.56 L235.042 1865.48 L230.783 1865.48 L230.783 1839.56 M230.783 1829.46 L235.042 1829.46 L235.042 1834.86 L230.783 1834.86 L230.783 1829.46 Z" fill="#000000" fill-rule="nonzero" fill-opacity="1" /><path clip-path="url(#clip430)" d="M255.737 1852.45 Q250.575 1852.45 248.584 1853.63 Q246.593 1854.81 246.593 1857.66 Q246.593 1859.93 248.075 1861.27 Q249.579 1862.59 252.149 1862.59 Q255.69 1862.59 257.82 1860.09 Q259.973 1857.57 259.973 1853.4 L259.973 1852.45 L255.737 1852.45 M264.232 1850.69 L264.232 1865.48 L259.973 1865.48 L259.973 1861.55 Q258.514 1863.91 256.338 1865.04 Q254.162 1866.15 251.014 1866.15 Q247.033 1866.15 244.672 1863.93 Q242.334 1861.69 242.334 1857.94 Q242.334 1853.56 245.25 1851.34 Q248.19 1849.12 254 1849.12 L259.973 1849.12 L259.973 1848.7 Q259.973 1845.76 258.028 1844.16 Q256.107 1842.54 252.612 1842.54 Q250.389 1842.54 248.283 1843.08 Q246.176 1843.61 244.232 1844.67 L244.232 1840.74 Q246.57 1839.84 248.769 1839.4 Q250.968 1838.93 253.051 1838.93 Q258.676 1838.93 261.454 1841.85 Q264.232 1844.77 264.232 1850.69 Z" fill="#000000" fill-rule="nonzero" fill-opacity="1" /><path clip-path="url(#clip430)" d="M289.533 1840.32 L289.533 1844.35 Q287.727 1843.42 285.783 1842.96 Q283.838 1842.5 281.755 1842.5 Q278.584 1842.5 276.986 1843.47 Q275.412 1844.44 275.412 1846.39 Q275.412 1847.87 276.547 1848.72 Q277.681 1849.56 281.107 1850.32 L282.565 1850.65 Q287.102 1851.62 289 1853.4 Q290.922 1855.16 290.922 1858.33 Q290.922 1861.94 288.051 1864.05 Q285.204 1866.15 280.204 1866.15 Q278.121 1866.15 275.852 1865.74 Q273.607 1865.34 271.107 1864.53 L271.107 1860.14 Q273.468 1861.36 275.76 1861.99 Q278.051 1862.59 280.297 1862.59 Q283.306 1862.59 284.926 1861.57 Q286.547 1860.53 286.547 1858.65 Q286.547 1856.92 285.366 1855.99 Q284.209 1855.07 280.25 1854.21 L278.769 1853.86 Q274.81 1853.03 273.051 1851.32 Q271.292 1849.58 271.292 1846.57 Q271.292 1842.91 273.885 1840.92 Q276.477 1838.93 281.246 1838.93 Q283.607 1838.93 285.69 1839.28 Q287.773 1839.63 289.533 1840.32 Z" fill="#000000" fill-rule="nonzero" fill-opacity="1" /><path clip-path="url(#clip430)" d="M1320.07 1865.48 L1306.88 1830.92 L1311.76 1830.92 L1322.71 1860.02 L1333.68 1830.92 L1338.54 1830.92 L1325.37 1865.48 L1320.07 1865.48 Z" fill="#000000" fill-rule="nonzero" fill-opacity="1" /><path clip-path="url(#clip430)" d="M1351.51 1852.45 Q1346.34 1852.45 1344.35 1853.63 Q1342.36 1854.81 1342.36 1857.66 Q1342.36 1859.93 1343.84 1861.27 Q1345.35 1862.59 1347.92 1862.59 Q1351.46 1862.59 1353.59 1860.09 Q1355.74 1857.57 1355.74 1853.4 L1355.74 1852.45 L1351.51 1852.45 M1360 1850.69 L1360 1865.48 L1355.74 1865.48 L1355.74 1861.55 Q1354.28 1863.91 1352.11 1865.04 Q1349.93 1866.15 1346.78 1866.15 Q1342.8 1866.15 1340.44 1863.93 Q1338.1 1861.69 1338.1 1857.94 Q1338.1 1853.56 1341.02 1851.34 Q1343.96 1849.12 1349.77 1849.12 L1355.74 1849.12 L1355.74 1848.7 Q1355.74 1845.76 1353.8 1844.16 Q1351.88 1842.54 1348.38 1842.54 Q1346.16 1842.54 1344.05 1843.08 Q1341.95 1843.61 1340 1844.67 L1340 1840.74 Q1342.34 1839.84 1344.54 1839.4 Q1346.74 1838.93 1348.82 1838.93 Q1354.45 1838.93 1357.22 1841.85 Q1360 1844.77 1360 1850.69 Z" fill="#000000" fill-rule="nonzero" fill-opacity="1" /><path clip-path="url(#clip430)" d="M1383.8 1843.54 Q1383.08 1843.12 1382.22 1842.94 Q1381.39 1842.73 1380.37 1842.73 Q1376.76 1842.73 1374.82 1845.09 Q1372.89 1847.43 1372.89 1851.83 L1372.89 1865.48 L1368.61 1865.48 L1368.61 1839.56 L1372.89 1839.56 L1372.89 1843.59 Q1374.24 1841.22 1376.39 1840.09 Q1378.54 1838.93 1381.62 1838.93 Q1382.06 1838.93 1382.59 1839 Q1383.13 1839.05 1383.77 1839.16 L1383.8 1843.54 Z" fill="#000000" fill-rule="nonzero" fill-opacity="1" /><path clip-path="url(#clip430)" d="M1388.27 1839.56 L1392.52 1839.56 L1392.52 1865.48 L1388.27 1865.48 L1388.27 1839.56 M1388.27 1829.46 L1392.52 1829.46 L1392.52 1834.86 L1388.27 1834.86 L1388.27 1829.46 Z" fill="#000000" fill-rule="nonzero" fill-opacity="1" /><path clip-path="url(#clip430)" d="M1413.22 1852.45 Q1408.06 1852.45 1406.07 1853.63 Q1404.08 1854.81 1404.08 1857.66 Q1404.08 1859.93 1405.56 1861.27 Q1407.06 1862.59 1409.63 1862.59 Q1413.17 1862.59 1415.3 1860.09 Q1417.45 1857.57 1417.45 1853.4 L1417.45 1852.45 L1413.22 1852.45 M1421.71 1850.69 L1421.71 1865.48 L1417.45 1865.48 L1417.45 1861.55 Q1416 1863.91 1413.82 1865.04 Q1411.64 1866.15 1408.5 1866.15 Q1404.52 1866.15 1402.15 1863.93 Q1399.82 1861.69 1399.82 1857.94 Q1399.82 1853.56 1402.73 1851.34 Q1405.67 1849.12 1411.48 1849.12 L1417.45 1849.12 L1417.45 1848.7 Q1417.45 1845.76 1415.51 1844.16 Q1413.59 1842.54 1410.09 1842.54 Q1407.87 1842.54 1405.77 1843.08 Q1403.66 1843.61 1401.71 1844.67 L1401.71 1840.74 Q1404.05 1839.84 1406.25 1839.4 Q1408.45 1838.93 1410.53 1838.93 Q1416.16 1838.93 1418.94 1841.85 Q1421.71 1844.77 1421.71 1850.69 Z" fill="#000000" fill-rule="nonzero" fill-opacity="1" /><path clip-path="url(#clip430)" d="M1452.04 1849.84 L1452.04 1865.48 L1447.78 1865.48 L1447.78 1849.97 Q1447.78 1846.29 1446.34 1844.46 Q1444.91 1842.64 1442.04 1842.64 Q1438.59 1842.64 1436.6 1844.84 Q1434.61 1847.03 1434.61 1850.83 L1434.61 1865.48 L1430.33 1865.48 L1430.33 1839.56 L1434.61 1839.56 L1434.61 1843.59 Q1436.14 1841.25 1438.2 1840.09 Q1440.28 1838.93 1442.99 1838.93 Q1447.45 1838.93 1449.75 1841.71 Q1452.04 1844.46 1452.04 1849.84 Z" fill="#000000" fill-rule="nonzero" fill-opacity="1" /><path clip-path="url(#clip430)" d="M1479.19 1840.55 L1479.19 1844.53 Q1477.39 1843.54 1475.56 1843.05 Q1473.75 1842.54 1471.9 1842.54 Q1467.76 1842.54 1465.46 1845.18 Q1463.17 1847.8 1463.17 1852.54 Q1463.17 1857.29 1465.46 1859.93 Q1467.76 1862.54 1471.9 1862.54 Q1473.75 1862.54 1475.56 1862.06 Q1477.39 1861.55 1479.19 1860.55 L1479.19 1864.49 Q1477.41 1865.32 1475.49 1865.74 Q1473.59 1866.15 1471.44 1866.15 Q1465.58 1866.15 1462.13 1862.47 Q1458.68 1858.79 1458.68 1852.54 Q1458.68 1846.2 1462.15 1842.57 Q1465.65 1838.93 1471.71 1838.93 Q1473.68 1838.93 1475.56 1839.35 Q1477.43 1839.74 1479.19 1840.55 Z" fill="#000000" fill-rule="nonzero" fill-opacity="1" /><path clip-path="url(#clip430)" d="M1508.77 1851.46 L1508.77 1853.54 L1489.19 1853.54 Q1489.47 1857.94 1491.83 1860.25 Q1494.21 1862.54 1498.45 1862.54 Q1500.9 1862.54 1503.2 1861.94 Q1505.51 1861.34 1507.78 1860.14 L1507.78 1864.16 Q1505.49 1865.14 1503.08 1865.65 Q1500.67 1866.15 1498.2 1866.15 Q1491.99 1866.15 1488.36 1862.54 Q1484.75 1858.93 1484.75 1852.78 Q1484.75 1846.41 1488.17 1842.68 Q1491.62 1838.93 1497.45 1838.93 Q1502.69 1838.93 1505.72 1842.31 Q1508.77 1845.67 1508.77 1851.46 M1504.51 1850.21 Q1504.47 1846.71 1502.55 1844.63 Q1500.65 1842.54 1497.5 1842.54 Q1493.94 1842.54 1491.78 1844.56 Q1489.65 1846.57 1489.33 1850.23 L1504.51 1850.21 Z" fill="#000000" fill-rule="nonzero" fill-opacity="1" /><path clip-path="url(#clip430)" d="M2524.34 1830.92 L2531.3 1830.92 L2540.12 1854.44 L2548.99 1830.92 L2555.96 1830.92 L2555.96 1865.48 L2551.4 1865.48 L2551.4 1835.14 L2542.48 1858.84 L2537.78 1858.84 L2528.87 1835.14 L2528.87 1865.48 L2524.34 1865.48 L2524.34 1830.92 Z" fill="#000000" fill-rule="nonzero" fill-opacity="1" /><path clip-path="url(#clip430)" d="M2585.96 1832.06 L2585.96 1836.62 Q2583.29 1835.34 2580.93 1834.72 Q2578.57 1834.09 2576.37 1834.09 Q2572.55 1834.09 2570.47 1835.58 Q2568.41 1837.06 2568.41 1839.79 Q2568.41 1842.08 2569.78 1843.26 Q2571.16 1844.42 2575.01 1845.14 L2577.83 1845.71 Q2583.06 1846.71 2585.54 1849.23 Q2588.04 1851.73 2588.04 1855.95 Q2588.04 1860.97 2584.66 1863.56 Q2581.3 1866.15 2574.8 1866.15 Q2572.34 1866.15 2569.57 1865.6 Q2566.81 1865.04 2563.85 1863.96 L2563.85 1859.14 Q2566.7 1860.74 2569.43 1861.55 Q2572.16 1862.36 2574.8 1862.36 Q2578.8 1862.36 2580.98 1860.78 Q2583.15 1859.21 2583.15 1856.29 Q2583.15 1853.75 2581.58 1852.31 Q2580.03 1850.88 2576.47 1850.16 L2573.62 1849.6 Q2568.39 1848.56 2566.05 1846.34 Q2563.71 1844.12 2563.71 1840.16 Q2563.71 1835.58 2566.93 1832.94 Q2570.17 1830.3 2575.84 1830.3 Q2578.27 1830.3 2580.79 1830.74 Q2583.32 1831.18 2585.96 1832.06 Z" fill="#000000" fill-rule="nonzero" fill-opacity="1" /><path clip-path="url(#clip430)" d="M2595.33 1830.92 L2617.18 1830.92 L2617.18 1834.86 L2600.01 1834.86 L2600.01 1845.09 L2616.46 1845.09 L2616.46 1849.03 L2600.01 1849.03 L2600.01 1861.55 L2617.6 1861.55 L2617.6 1865.48 L2595.33 1865.48 L2595.33 1830.92 Z" fill="#000000" fill-rule="nonzero" fill-opacity="1" /><polyline clip-path="url(#clip433)" style="stroke:#000000; stroke-linecap:round; stroke-linejoin:round; stroke-width:2; stroke-opacity:0.1; fill:none" points="174.895,1780.08 2640.76,1780.08 "/>
<polyline clip-path="url(#clip433)" style="stroke:#000000; stroke-linecap:round; stroke-linejoin:round; stroke-width:2; stroke-opacity:0.1; fill:none" points="174.895,1548.68 2640.76,1548.68 "/>
<polyline clip-path="url(#clip433)" style="stroke:#000000; stroke-linecap:round; stroke-linejoin:round; stroke-width:2; stroke-opacity:0.1; fill:none" points="174.895,1317.28 2640.76,1317.28 "/>
<polyline clip-path="url(#clip433)" style="stroke:#000000; stroke-linecap:round; stroke-linejoin:round; stroke-width:2; stroke-opacity:0.1; fill:none" points="174.895,1085.88 2640.76,1085.88 "/>
<polyline clip-path="url(#clip430)" style="stroke:#000000; stroke-linecap:round; stroke-linejoin:round; stroke-width:4; stroke-opacity:1; fill:none" points="174.895,1800.78 174.895,1069.28 "/>
<polyline clip-path="url(#clip430)" style="stroke:#000000; stroke-linecap:round; stroke-linejoin:round; stroke-width:4; stroke-opacity:1; fill:none" points="174.895,1780.08 193.792,1780.08 "/>
<polyline clip-path="url(#clip430)" style="stroke:#000000; stroke-linecap:round; stroke-linejoin:round; stroke-width:4; stroke-opacity:1; fill:none" points="174.895,1548.68 193.792,1548.68 "/>
<polyline clip-path="url(#clip430)" style="stroke:#000000; stroke-linecap:round; stroke-linejoin:round; stroke-width:4; stroke-opacity:1; fill:none" points="174.895,1317.28 193.792,1317.28 "/>
<polyline clip-path="url(#clip430)" style="stroke:#000000; stroke-linecap:round; stroke-linejoin:round; stroke-width:4; stroke-opacity:1; fill:none" points="174.895,1085.88 193.792,1085.88 "/>
<path clip-path="url(#clip430)" d="M122.63 1765.88 Q119.019 1765.88 117.191 1769.44 Q115.385 1772.98 115.385 1780.11 Q115.385 1787.22 117.191 1790.78 Q119.019 1794.32 122.63 1794.32 Q126.265 1794.32 128.07 1790.78 Q129.899 1787.22 129.899 1780.11 Q129.899 1772.98 128.07 1769.44 Q126.265 1765.88 122.63 1765.88 M122.63 1762.17 Q128.441 1762.17 131.496 1766.78 Q134.575 1771.36 134.575 1780.11 Q134.575 1788.84 131.496 1793.44 Q128.441 1798.03 122.63 1798.03 Q116.82 1798.03 113.742 1793.44 Q110.686 1788.84 110.686 1780.11 Q110.686 1771.36 113.742 1766.78 Q116.82 1762.17 122.63 1762.17 Z" fill="#000000" fill-rule="nonzero" fill-opacity="1" /><path clip-path="url(#clip430)" d="M53.1169 1562.02 L60.7558 1562.02 L60.7558 1535.66 L52.4456 1537.32 L52.4456 1533.06 L60.7095 1531.4 L65.3854 1531.4 L65.3854 1562.02 L73.0242 1562.02 L73.0242 1565.96 L53.1169 1565.96 L53.1169 1562.02 Z" fill="#000000" fill-rule="nonzero" fill-opacity="1" /><path clip-path="url(#clip430)" d="M92.4686 1534.48 Q88.8575 1534.48 87.0288 1538.04 Q85.2232 1541.58 85.2232 1548.71 Q85.2232 1555.82 87.0288 1559.38 Q88.8575 1562.93 92.4686 1562.93 Q96.1028 1562.93 97.9083 1559.38 Q99.737 1555.82 99.737 1548.71 Q99.737 1541.58 97.9083 1538.04 Q96.1028 1534.48 92.4686 1534.48 M92.4686 1530.77 Q98.2787 1530.77 101.334 1535.38 Q104.413 1539.96 104.413 1548.71 Q104.413 1557.44 101.334 1562.05 Q98.2787 1566.63 92.4686 1566.63 Q86.6584 1566.63 83.5797 1562.05 Q80.5242 1557.44 80.5242 1548.71 Q80.5242 1539.96 83.5797 1535.38 Q86.6584 1530.77 92.4686 1530.77 Z" fill="#000000" fill-rule="nonzero" fill-opacity="1" /><path clip-path="url(#clip430)" d="M122.63 1534.48 Q119.019 1534.48 117.191 1538.04 Q115.385 1541.58 115.385 1548.71 Q115.385 1555.82 117.191 1559.38 Q119.019 1562.93 122.63 1562.93 Q126.265 1562.93 128.07 1559.38 Q129.899 1555.82 129.899 1548.71 Q129.899 1541.58 128.07 1538.04 Q126.265 1534.48 122.63 1534.48 M122.63 1530.77 Q128.441 1530.77 131.496 1535.38 Q134.575 1539.96 134.575 1548.71 Q134.575 1557.44 131.496 1562.05 Q128.441 1566.63 122.63 1566.63 Q116.82 1566.63 113.742 1562.05 Q110.686 1557.44 110.686 1548.71 Q110.686 1539.96 113.742 1535.38 Q116.82 1530.77 122.63 1530.77 Z" fill="#000000" fill-rule="nonzero" fill-opacity="1" /><path clip-path="url(#clip430)" d="M56.3345 1330.62 L72.6539 1330.62 L72.6539 1334.56 L50.7095 1334.56 L50.7095 1330.62 Q53.3715 1327.87 57.9549 1323.24 Q62.5613 1318.59 63.7419 1317.24 Q65.9872 1314.72 66.8668 1312.98 Q67.7696 1311.23 67.7696 1309.54 Q67.7696 1306.78 65.8252 1305.04 Q63.9039 1303.31 60.8021 1303.31 Q58.603 1303.31 56.1493 1304.07 Q53.7188 1304.84 50.941 1306.39 L50.941 1301.67 Q53.7651 1300.53 56.2188 1299.95 Q58.6724 1299.37 60.7095 1299.37 Q66.0798 1299.37 69.2742 1302.06 Q72.4687 1304.74 72.4687 1309.23 Q72.4687 1311.36 71.6585 1313.29 Q70.8715 1315.18 68.765 1317.78 Q68.1863 1318.45 65.0845 1321.66 Q61.9826 1324.86 56.3345 1330.62 Z" fill="#000000" fill-rule="nonzero" fill-opacity="1" /><path clip-path="url(#clip430)" d="M92.4686 1303.08 Q88.8575 1303.08 87.0288 1306.64 Q85.2232 1310.18 85.2232 1317.31 Q85.2232 1324.42 87.0288 1327.98 Q88.8575 1331.53 92.4686 1331.53 Q96.1028 1331.53 97.9083 1327.98 Q99.737 1324.42 99.737 1317.31 Q99.737 1310.18 97.9083 1306.64 Q96.1028 1303.08 92.4686 1303.08 M92.4686 1299.37 Q98.2787 1299.37 101.334 1303.98 Q104.413 1308.56 104.413 1317.31 Q104.413 1326.04 101.334 1330.65 Q98.2787 1335.23 92.4686 1335.23 Q86.6584 1335.23 83.5797 1330.65 Q80.5242 1326.04 80.5242 1317.31 Q80.5242 1308.56 83.5797 1303.98 Q86.6584 1299.37 92.4686 1299.37 Z" fill="#000000" fill-rule="nonzero" fill-opacity="1" /><path clip-path="url(#clip430)" d="M122.63 1303.08 Q119.019 1303.08 117.191 1306.64 Q115.385 1310.18 115.385 1317.31 Q115.385 1324.42 117.191 1327.98 Q119.019 1331.53 122.63 1331.53 Q126.265 1331.53 128.07 1327.98 Q129.899 1324.42 129.899 1317.31 Q129.899 1310.18 128.07 1306.64 Q126.265 1303.08 122.63 1303.08 M122.63 1299.37 Q128.441 1299.37 131.496 1303.98 Q134.575 1308.56 134.575 1317.31 Q134.575 1326.04 131.496 1330.65 Q128.441 1335.23 122.63 1335.23 Q116.82 1335.23 113.742 1330.65 Q110.686 1326.04 110.686 1317.31 Q110.686 1308.56 113.742 1303.98 Q116.82 1299.37 122.63 1299.37 Z" fill="#000000" fill-rule="nonzero" fill-opacity="1" /><path clip-path="url(#clip430)" d="M66.4733 1084.53 Q69.8298 1085.24 71.7048 1087.51 Q73.6029 1089.78 73.6029 1093.11 Q73.6029 1098.23 70.0844 1101.03 Q66.5659 1103.83 60.0845 1103.83 Q57.9086 1103.83 55.5938 1103.39 Q53.3021 1102.97 50.8484 1102.12 L50.8484 1097.6 Q52.7928 1098.74 55.1077 1099.32 Q57.4225 1099.9 59.9456 1099.9 Q64.3437 1099.9 66.6354 1098.16 Q68.9502 1096.42 68.9502 1093.11 Q68.9502 1090.06 66.7974 1088.34 Q64.6678 1086.61 60.8484 1086.61 L56.8206 1086.61 L56.8206 1082.77 L61.0335 1082.77 Q64.4826 1082.77 66.3113 1081.4 Q68.14 1080.01 68.14 1077.42 Q68.14 1074.76 66.2419 1073.34 Q64.3669 1071.91 60.8484 1071.91 Q58.9271 1071.91 56.728 1072.33 Q54.529 1072.74 51.8901 1073.62 L51.8901 1069.46 Q54.5521 1068.72 56.8669 1068.34 Q59.2049 1067.97 61.265 1067.97 Q66.5891 1067.97 69.6909 1070.4 Q72.7927 1072.81 72.7927 1076.93 Q72.7927 1079.8 71.1492 1081.79 Q69.5057 1083.76 66.4733 1084.53 Z" fill="#000000" fill-rule="nonzero" fill-opacity="1" /><path clip-path="url(#clip430)" d="M92.4686 1071.68 Q88.8575 1071.68 87.0288 1075.24 Q85.2232 1078.78 85.2232 1085.91 Q85.2232 1093.02 87.0288 1096.59 Q88.8575 1100.13 92.4686 1100.13 Q96.1028 1100.13 97.9083 1096.59 Q99.737 1093.02 99.737 1085.91 Q99.737 1078.78 97.9083 1075.24 Q96.1028 1071.68 92.4686 1071.68 M92.4686 1067.97 Q98.2787 1067.97 101.334 1072.58 Q104.413 1077.16 104.413 1085.91 Q104.413 1094.64 101.334 1099.25 Q98.2787 1103.83 92.4686 1103.83 Q86.6584 1103.83 83.5797 1099.25 Q80.5242 1094.64 80.5242 1085.91 Q80.5242 1077.16 83.5797 1072.58 Q86.6584 1067.97 92.4686 1067.97 Z" fill="#000000" fill-rule="nonzero" fill-opacity="1" /><path clip-path="url(#clip430)" d="M122.63 1071.68 Q119.019 1071.68 117.191 1075.24 Q115.385 1078.78 115.385 1085.91 Q115.385 1093.02 117.191 1096.59 Q119.019 1100.13 122.63 1100.13 Q126.265 1100.13 128.07 1096.59 Q129.899 1093.02 129.899 1085.91 Q129.899 1078.78 128.07 1075.24 Q126.265 1071.68 122.63 1071.68 M122.63 1067.97 Q128.441 1067.97 131.496 1072.58 Q134.575 1077.16 134.575 1085.91 Q134.575 1094.64 131.496 1099.25 Q128.441 1103.83 122.63 1103.83 Q116.82 1103.83 113.742 1099.25 Q110.686 1094.64 110.686 1085.91 Q110.686 1077.16 113.742 1072.58 Q116.82 1067.97 122.63 1067.97 Z" fill="#000000" fill-rule="nonzero" fill-opacity="1" /><path clip-path="url(#clip430)" d="M1147.18 968.64 L1153.46 968.64 L1164.19 984.699 L1174.99 968.64 L1181.26 968.64 L1167.38 989.386 L1182.19 1011.84 L1175.91 1011.84 L1163.76 993.466 L1151.52 1011.84 L1145.21 1011.84 L1160.63 988.779 L1147.18 968.64 Z" fill="#000000" fill-rule="nonzero" fill-opacity="1" /><path clip-path="url(#clip430)" d="M1227.42 988.2 L1227.42 993.351 Q1224.38 995.636 1221.77 996.62 Q1219.2 997.604 1216.39 997.604 Q1213.21 997.604 1208.98 995.897 Q1208.67 995.781 1208.52 995.723 Q1208.32 995.636 1207.88 995.492 Q1203.4 993.698 1200.68 993.698 Q1198.13 993.698 1195.64 994.826 Q1193.16 995.926 1190.32 998.327 L1190.32 993.177 Q1193.36 990.891 1195.93 989.907 Q1198.54 988.895 1201.34 988.895 Q1204.53 988.895 1208.78 990.631 Q1209.07 990.746 1209.22 990.804 Q1209.45 990.891 1209.85 991.036 Q1214.34 992.83 1217.06 992.83 Q1219.55 992.83 1221.98 991.73 Q1224.44 990.631 1227.42 988.2 Z" fill="#000000" fill-rule="nonzero" fill-opacity="1" /><path clip-path="url(#clip430)" d="M1268.97 1005.68 L1268.97 994.074 L1259.42 994.074 L1259.42 989.271 L1274.75 989.271 L1274.75 1007.82 Q1271.37 1010.22 1267.29 1011.46 Q1263.21 1012.68 1258.58 1012.68 Q1248.45 1012.68 1242.72 1006.78 Q1237.02 1000.84 1237.02 990.283 Q1237.02 979.693 1242.72 973.79 Q1248.45 967.859 1258.58 967.859 Q1262.8 967.859 1266.59 968.9 Q1270.41 969.942 1273.62 971.968 L1273.62 978.189 Q1270.38 975.44 1266.74 974.051 Q1263.09 972.662 1259.07 972.662 Q1251.14 972.662 1247.15 977.089 Q1243.19 981.516 1243.19 990.283 Q1243.19 999.022 1247.15 1003.45 Q1251.14 1007.88 1259.07 1007.88 Q1262.17 1007.88 1264.6 1007.36 Q1267.03 1006.81 1268.97 1005.68 Z" fill="#000000" fill-rule="nonzero" fill-opacity="1" /><path clip-path="url(#clip430)" d="M1291.28 973.443 L1291.28 989.676 L1298.62 989.676 Q1302.7 989.676 1304.93 987.564 Q1307.16 985.451 1307.16 981.545 Q1307.16 977.668 1304.93 975.555 Q1302.7 973.443 1298.62 973.443 L1291.28 973.443 M1285.43 968.64 L1298.62 968.64 Q1305.89 968.64 1309.59 971.939 Q1313.32 975.208 1313.32 981.545 Q1313.32 987.94 1309.59 991.209 Q1305.89 994.479 1298.62 994.479 L1291.28 994.479 L1291.28 1011.84 L1285.43 1011.84 L1285.43 968.64 Z" fill="#000000" fill-rule="nonzero" fill-opacity="1" /><path clip-path="url(#clip430)" d="M1327.01 973.443 L1327.01 1007.04 L1334.07 1007.04 Q1343.01 1007.04 1347.15 1002.99 Q1351.32 998.935 1351.32 990.197 Q1351.32 981.516 1347.15 977.494 Q1343.01 973.443 1334.07 973.443 L1327.01 973.443 M1321.16 968.64 L1333.17 968.64 Q1345.73 968.64 1351.6 973.877 Q1357.48 979.086 1357.48 990.197 Q1357.48 1001.37 1351.58 1006.6 Q1345.67 1011.84 1333.17 1011.84 L1321.16 1011.84 L1321.16 968.64 Z" fill="#000000" fill-rule="nonzero" fill-opacity="1" /><path clip-path="url(#clip430)" d="M1367.92 1004.49 L1374.03 1004.49 L1374.03 1009.47 L1369.28 1018.73 L1365.55 1018.73 L1367.92 1009.47 L1367.92 1004.49 Z" fill="#000000" fill-rule="nonzero" fill-opacity="1" /><path clip-path="url(#clip430)" d="M1431.18 992.28 L1431.18 1011.84 L1425.85 1011.84 L1425.85 992.454 Q1425.85 987.853 1424.06 985.567 Q1422.26 983.281 1418.68 983.281 Q1414.36 983.281 1411.88 986.03 Q1409.39 988.779 1409.39 993.524 L1409.39 1011.84 L1404.03 1011.84 L1404.03 979.433 L1409.39 979.433 L1409.39 984.467 Q1411.3 981.545 1413.87 980.098 Q1416.48 978.652 1419.86 978.652 Q1425.45 978.652 1428.31 982.124 Q1431.18 985.567 1431.18 992.28 Z" fill="#000000" fill-rule="nonzero" fill-opacity="1" /><path clip-path="url(#clip430)" d="M1442.49 984.93 L1479.58 984.93 L1479.58 989.792 L1442.49 989.792 L1442.49 984.93 M1442.49 996.736 L1479.58 996.736 L1479.58 1001.65 L1442.49 1001.65 L1442.49 996.736 Z" fill="#000000" fill-rule="nonzero" fill-opacity="1" /><path clip-path="url(#clip430)" d="M1493.21 1006.92 L1502.76 1006.92 L1502.76 973.964 L1492.37 976.047 L1492.37 970.723 L1502.7 968.64 L1508.55 968.64 L1508.55 1006.92 L1518.1 1006.92 L1518.1 1011.84 L1493.21 1011.84 L1493.21 1006.92 Z" fill="#000000" fill-rule="nonzero" fill-opacity="1" /><path clip-path="url(#clip430)" d="M1542.4 972.488 Q1537.89 972.488 1535.6 976.944 Q1533.35 981.371 1533.35 990.283 Q1533.35 999.166 1535.6 1003.62 Q1537.89 1008.05 1542.4 1008.05 Q1546.94 1008.05 1549.2 1003.62 Q1551.49 999.166 1551.49 990.283 Q1551.49 981.371 1549.2 976.944 Q1546.94 972.488 1542.4 972.488 M1542.4 967.859 Q1549.66 967.859 1553.48 973.617 Q1557.33 979.346 1557.33 990.283 Q1557.33 1001.19 1553.48 1006.95 Q1549.66 1012.68 1542.4 1012.68 Q1535.14 1012.68 1531.29 1006.95 Q1527.47 1001.19 1527.47 990.283 Q1527.47 979.346 1531.29 973.617 Q1535.14 967.859 1542.4 967.859 Z" fill="#000000" fill-rule="nonzero" fill-opacity="1" /><path clip-path="url(#clip430)" d="M1580.1 972.488 Q1575.59 972.488 1573.3 976.944 Q1571.05 981.371 1571.05 990.283 Q1571.05 999.166 1573.3 1003.62 Q1575.59 1008.05 1580.1 1008.05 Q1584.65 1008.05 1586.9 1003.62 Q1589.19 999.166 1589.19 990.283 Q1589.19 981.371 1586.9 976.944 Q1584.65 972.488 1580.1 972.488 M1580.1 967.859 Q1587.37 967.859 1591.19 973.617 Q1595.04 979.346 1595.04 990.283 Q1595.04 1001.19 1591.19 1006.95 Q1587.37 1012.68 1580.1 1012.68 Q1572.84 1012.68 1568.99 1006.95 Q1565.17 1001.19 1565.17 990.283 Q1565.17 979.346 1568.99 973.617 Q1572.84 967.859 1580.1 967.859 Z" fill="#000000" fill-rule="nonzero" fill-opacity="1" /><path clip-path="url(#clip430)" d="M1617.81 972.488 Q1613.29 972.488 1611.01 976.944 Q1608.75 981.371 1608.75 990.283 Q1608.75 999.166 1611.01 1003.62 Q1613.29 1008.05 1617.81 1008.05 Q1622.35 1008.05 1624.61 1003.62 Q1626.89 999.166 1626.89 990.283 Q1626.89 981.371 1624.61 976.944 Q1622.35 972.488 1617.81 972.488 M1617.81 967.859 Q1625.07 967.859 1628.89 973.617 Q1632.74 979.346 1632.74 990.283 Q1632.74 1001.19 1628.89 1006.95 Q1625.07 1012.68 1617.81 1012.68 Q1610.54 1012.68 1606.7 1006.95 Q1602.88 1001.19 1602.88 990.283 Q1602.88 979.346 1606.7 973.617 Q1610.54 967.859 1617.81 967.859 Z" fill="#000000" fill-rule="nonzero" fill-opacity="1" /><path clip-path="url(#clip430)" d="M1655.51 972.488 Q1651 972.488 1648.71 976.944 Q1646.45 981.371 1646.45 990.283 Q1646.45 999.166 1648.71 1003.62 Q1651 1008.05 1655.51 1008.05 Q1660.05 1008.05 1662.31 1003.62 Q1664.59 999.166 1664.59 990.283 Q1664.59 981.371 1662.31 976.944 Q1660.05 972.488 1655.51 972.488 M1655.51 967.859 Q1662.77 967.859 1666.59 973.617 Q1670.44 979.346 1670.44 990.283 Q1670.44 1001.19 1666.59 1006.95 Q1662.77 1012.68 1655.51 1012.68 Q1648.25 1012.68 1644.4 1006.95 Q1640.58 1001.19 1640.58 990.283 Q1640.58 979.346 1644.4 973.617 Q1648.25 967.859 1655.51 967.859 Z" fill="#000000" fill-rule="nonzero" fill-opacity="1" /><polyline clip-path="url(#clip433)" style="stroke:#009af9; stroke-linecap:round; stroke-linejoin:round; stroke-width:0; stroke-opacity:1; fill:none" points="244.683,1780.02 1407.83,1089.98 2570.97,1090.07 "/>
<circle clip-path="url(#clip433)" cx="244.683" cy="1780.02" r="14.4" fill="#009af9" fill-rule="evenodd" fill-opacity="1" stroke="#000000" stroke-opacity="1" stroke-width="3.84"/>
<circle clip-path="url(#clip433)" cx="1407.83" cy="1089.98" r="14.4" fill="#009af9" fill-rule="evenodd" fill-opacity="1" stroke="#000000" stroke-opacity="1" stroke-width="3.84"/>
<circle clip-path="url(#clip433)" cx="2570.97" cy="1090.07" r="14.4" fill="#009af9" fill-rule="evenodd" fill-opacity="1" stroke="#000000" stroke-opacity="1" stroke-width="3.84"/>
<polyline clip-path="url(#clip433)" style="stroke:#e26f46; stroke-linecap:round; stroke-linejoin:round; stroke-width:0; stroke-opacity:1; fill:none" points="244.683,1117.68 1407.83,1778.52 2570.97,1116.12 "/>
<circle clip-path="url(#clip433)" cx="244.683" cy="1117.68" r="14.4" fill="#e26f46" fill-rule="evenodd" fill-opacity="1" stroke="#000000" stroke-opacity="1" stroke-width="3.84"/>
<circle clip-path="url(#clip433)" cx="1407.83" cy="1778.52" r="14.4" fill="#e26f46" fill-rule="evenodd" fill-opacity="1" stroke="#000000" stroke-opacity="1" stroke-width="3.84"/>
<circle clip-path="url(#clip433)" cx="2570.97" cy="1116.12" r="14.4" fill="#e26f46" fill-rule="evenodd" fill-opacity="1" stroke="#000000" stroke-opacity="1" stroke-width="3.84"/>
<polyline clip-path="url(#clip433)" style="stroke:#3da44d; stroke-linecap:round; stroke-linejoin:round; stroke-width:0; stroke-opacity:1; fill:none" points="244.683,1780.01 1407.83,1764.58 2570.97,1764.51 "/>
<circle clip-path="url(#clip433)" cx="244.683" cy="1780.01" r="14.4" fill="#3da44d" fill-rule="evenodd" fill-opacity="1" stroke="#000000" stroke-opacity="1" stroke-width="3.84"/>
<circle clip-path="url(#clip433)" cx="1407.83" cy="1764.58" r="14.4" fill="#3da44d" fill-rule="evenodd" fill-opacity="1" stroke="#000000" stroke-opacity="1" stroke-width="3.84"/>
<circle clip-path="url(#clip433)" cx="2570.97" cy="1764.51" r="14.4" fill="#3da44d" fill-rule="evenodd" fill-opacity="1" stroke="#000000" stroke-opacity="1" stroke-width="3.84"/>
<polyline clip-path="url(#clip433)" style="stroke:#000000; stroke-linecap:round; stroke-linejoin:round; stroke-width:4; stroke-opacity:1; fill:none" points="-2290.97,1780.08 5106.62,1780.08 "/>
</svg>
