<?xml version="1.0" encoding="utf-8"?>
<svg xmlns="http://www.w3.org/2000/svg" xmlns:xlink="http://www.w3.org/1999/xlink" width="400" height="200" viewBox="0 0 1600 800">
<defs>
  <clipPath id="clip220">
    <rect x="0" y="0" width="1600" height="800"/>
  </clipPath>
</defs>
<path clip-path="url(#clip220)" d="M0 800 L1600 800 L1600 0 L0 0  Z" fill="#ffffff" fill-rule="evenodd" fill-opacity="1"/>
<defs>
  <clipPath id="clip221">
    <rect x="320" y="0" width="1121" height="800"/>
  </clipPath>
</defs>
<path clip-path="url(#clip220)" d="M269.239 642.487 L1552.76 642.487 L1552.76 47.2441 L269.239 47.2441  Z" fill="#ffffff" fill-rule="evenodd" fill-opacity="1"/>
<defs>
  <clipPath id="clip222">
    <rect x="269" y="47" width="1285" height="596"/>
  </clipPath>
</defs>
<polyline clip-path="url(#clip222)" style="stroke:#000000; stroke-linecap:round; stroke-linejoin:round; stroke-width:2; stroke-opacity:0.1; fill:none" points="269.239,642.487 269.239,47.2441 "/>
<polyline clip-path="url(#clip222)" style="stroke:#000000; stroke-linecap:round; stroke-linejoin:round; stroke-width:2; stroke-opacity:0.1; fill:none" points="590.119,642.487 590.119,47.2441 "/>
<polyline clip-path="url(#clip222)" style="stroke:#000000; stroke-linecap:round; stroke-linejoin:round; stroke-width:2; stroke-opacity:0.1; fill:none" points="910.998,642.487 910.998,47.2441 "/>
<polyline clip-path="url(#clip222)" style="stroke:#000000; stroke-linecap:round; stroke-linejoin:round; stroke-width:2; stroke-opacity:0.1; fill:none" points="1231.88,642.487 1231.88,47.2441 "/>
<polyline clip-path="url(#clip222)" style="stroke:#000000; stroke-linecap:round; stroke-linejoin:round; stroke-width:2; stroke-opacity:0.1; fill:none" points="1552.76,642.487 1552.76,47.2441 "/>
<polyline clip-path="url(#clip220)" style="stroke:#000000; stroke-linecap:round; stroke-linejoin:round; stroke-width:4; stroke-opacity:1; fill:none" points="269.239,642.487 1552.76,642.487 "/>
<polyline clip-path="url(#clip220)" style="stroke:#000000; stroke-linecap:round; stroke-linejoin:round; stroke-width:4; stroke-opacity:1; fill:none" points="269.239,642.487 269.239,623.59 "/>
<polyline clip-path="url(#clip220)" style="stroke:#000000; stroke-linecap:round; stroke-linejoin:round; stroke-width:4; stroke-opacity:1; fill:none" points="590.119,642.487 590.119,623.59 "/>
<polyline clip-path="url(#clip220)" style="stroke:#000000; stroke-linecap:round; stroke-linejoin:round; stroke-width:4; stroke-opacity:1; fill:none" points="910.998,642.487 910.998,623.59 "/>
<polyline clip-path="url(#clip220)" style="stroke:#000000; stroke-linecap:round; stroke-linejoin:round; stroke-width:4; stroke-opacity:1; fill:none" points="1231.88,642.487 1231.88,623.59 "/>
<polyline clip-path="url(#clip220)" style="stroke:#000000; stroke-linecap:round; stroke-linejoin:round; stroke-width:4; stroke-opacity:1; fill:none" points="1552.76,642.487 1552.76,623.59 "/>
<path clip-path="url(#clip220)" d="M234.222 710.212 L241.861 710.212 L241.861 683.847 L233.551 685.513 L233.551 681.254 L241.815 679.587 L246.491 679.587 L246.491 710.212 L254.129 710.212 L254.129 714.147 L234.222 714.147 L234.222 710.212 Z" fill="#000000" fill-rule="nonzero" fill-opacity="1" /><path clip-path="url(#clip220)" d="M273.574 682.666 Q269.963 682.666 268.134 686.231 Q266.329 689.773 266.329 696.902 Q266.329 704.009 268.134 707.573 Q269.963 711.115 273.574 711.115 Q277.208 711.115 279.014 707.573 Q280.842 704.009 280.842 696.902 Q280.842 689.773 279.014 686.231 Q277.208 682.666 273.574 682.666 M273.574 678.962 Q279.384 678.962 282.44 683.569 Q285.518 688.152 285.518 696.902 Q285.518 705.629 282.44 710.235 Q279.384 714.819 273.574 714.819 Q267.764 714.819 264.685 710.235 Q261.629 705.629 261.629 696.902 Q261.629 688.152 264.685 683.569 Q267.764 678.962 273.574 678.962 Z" fill="#000000" fill-rule="nonzero" fill-opacity="1" /><path clip-path="url(#clip220)" d="M295.223 661.158 Q292.289 661.158 290.803 664.055 Q289.336 666.932 289.336 672.725 Q289.336 678.499 290.803 681.396 Q292.289 684.273 295.223 684.273 Q298.176 684.273 299.643 681.396 Q301.129 678.499 301.129 672.725 Q301.129 666.932 299.643 664.055 Q298.176 661.158 295.223 661.158 M295.223 658.149 Q299.944 658.149 302.426 661.892 Q304.928 665.616 304.928 672.725 Q304.928 679.816 302.426 683.559 Q299.944 687.282 295.223 687.282 Q290.502 687.282 288.001 683.559 Q285.518 679.816 285.518 672.725 Q285.518 665.616 288.001 661.892 Q290.502 658.149 295.223 658.149 Z" fill="#000000" fill-rule="nonzero" fill-opacity="1" /><path clip-path="url(#clip220)" d="M556.446 710.212 L564.085 710.212 L564.085 683.847 L555.775 685.513 L555.775 681.254 L564.039 679.587 L568.715 679.587 L568.715 710.212 L576.353 710.212 L576.353 714.147 L556.446 714.147 L556.446 710.212 Z" fill="#000000" fill-rule="nonzero" fill-opacity="1" /><path clip-path="url(#clip220)" d="M595.798 682.666 Q592.187 682.666 590.358 686.231 Q588.552 689.773 588.552 696.902 Q588.552 704.009 590.358 707.573 Q592.187 711.115 595.798 711.115 Q599.432 711.115 601.238 707.573 Q603.066 704.009 603.066 696.902 Q603.066 689.773 601.238 686.231 Q599.432 682.666 595.798 682.666 M595.798 678.962 Q601.608 678.962 604.663 683.569 Q607.742 688.152 607.742 696.902 Q607.742 705.629 604.663 710.235 Q601.608 714.819 595.798 714.819 Q589.988 714.819 586.909 710.235 Q583.853 705.629 583.853 696.902 Q583.853 688.152 586.909 683.569 Q589.988 678.962 595.798 678.962 Z" fill="#000000" fill-rule="nonzero" fill-opacity="1" /><path clip-path="url(#clip220)" d="M608.288 683.54 L614.494 683.54 L614.494 662.118 L607.742 663.472 L607.742 660.011 L614.456 658.657 L618.256 658.657 L618.256 683.54 L624.462 683.54 L624.462 686.737 L608.288 686.737 L608.288 683.54 Z" fill="#000000" fill-rule="nonzero" fill-opacity="1" /><path clip-path="url(#clip220)" d="M876.77 710.212 L884.409 710.212 L884.409 683.847 L876.099 685.513 L876.099 681.254 L884.363 679.587 L889.039 679.587 L889.039 710.212 L896.678 710.212 L896.678 714.147 L876.77 714.147 L876.77 710.212 Z" fill="#000000" fill-rule="nonzero" fill-opacity="1" /><path clip-path="url(#clip220)" d="M916.122 682.666 Q912.511 682.666 910.682 686.231 Q908.877 689.773 908.877 696.902 Q908.877 704.009 910.682 707.573 Q912.511 711.115 916.122 711.115 Q919.756 711.115 921.562 707.573 Q923.391 704.009 923.391 696.902 Q923.391 689.773 921.562 686.231 Q919.756 682.666 916.122 682.666 M916.122 678.962 Q921.932 678.962 924.988 683.569 Q928.066 688.152 928.066 696.902 Q928.066 705.629 924.988 710.235 Q921.932 714.819 916.122 714.819 Q910.312 714.819 907.233 710.235 Q904.178 705.629 904.178 696.902 Q904.178 688.152 907.233 683.569 Q910.312 678.962 916.122 678.962 Z" fill="#000000" fill-rule="nonzero" fill-opacity="1" /><path clip-path="url(#clip220)" d="M932.637 683.54 L945.896 683.54 L945.896 686.737 L928.066 686.737 L928.066 683.54 Q930.229 681.302 933.953 677.54 Q937.696 673.76 938.655 672.669 Q940.48 670.619 941.194 669.208 Q941.928 667.779 941.928 666.406 Q941.928 664.168 940.348 662.757 Q938.787 661.347 936.267 661.347 Q934.48 661.347 932.486 661.967 Q930.511 662.588 928.254 663.848 L928.254 660.011 Q930.549 659.09 932.543 658.619 Q934.536 658.149 936.191 658.149 Q940.555 658.149 943.15 660.331 Q945.746 662.513 945.746 666.161 Q945.746 667.892 945.087 669.453 Q944.448 670.995 942.736 673.101 Q942.266 673.647 939.746 676.261 Q937.226 678.857 932.637 683.54 Z" fill="#000000" fill-rule="nonzero" fill-opacity="1" /><path clip-path="url(#clip220)" d="M1197.32 710.212 L1204.96 710.212 L1204.96 683.847 L1196.65 685.513 L1196.65 681.254 L1204.91 679.587 L1209.59 679.587 L1209.59 710.212 L1217.23 710.212 L1217.23 714.147 L1197.32 714.147 L1197.32 710.212 Z" fill="#000000" fill-rule="nonzero" fill-opacity="1" /><path clip-path="url(#clip220)" d="M1236.67 682.666 Q1233.06 682.666 1231.23 686.231 Q1229.43 689.773 1229.43 696.902 Q1229.43 704.009 1231.23 707.573 Q1233.06 711.115 1236.67 711.115 Q1240.31 711.115 1242.11 707.573 Q1243.94 704.009 1243.94 696.902 Q1243.94 689.773 1242.11 686.231 Q1240.31 682.666 1236.67 682.666 M1236.67 678.962 Q1242.48 678.962 1245.54 683.569 Q1248.62 688.152 1248.62 696.902 Q1248.62 705.629 1245.54 710.235 Q1242.48 714.819 1236.67 714.819 Q1230.86 714.819 1227.78 710.235 Q1224.73 705.629 1224.73 696.902 Q1224.73 688.152 1227.78 683.569 Q1230.86 678.962 1236.67 678.962 Z" fill="#000000" fill-rule="nonzero" fill-opacity="1" /><path clip-path="url(#clip220)" d="M1261.31 671.597 Q1264.04 672.18 1265.56 674.023 Q1267.1 675.866 1267.1 678.574 Q1267.1 682.731 1264.25 685.007 Q1261.39 687.282 1256.12 687.282 Q1254.35 687.282 1252.47 686.925 Q1250.61 686.587 1248.62 685.891 L1248.62 682.223 Q1250.2 683.145 1252.08 683.615 Q1253.96 684.085 1256.01 684.085 Q1259.58 684.085 1261.44 682.675 Q1263.32 681.264 1263.32 678.574 Q1263.32 676.092 1261.57 674.7 Q1259.84 673.289 1256.74 673.289 L1253.47 673.289 L1253.47 670.167 L1256.89 670.167 Q1259.69 670.167 1261.18 669.058 Q1262.67 667.929 1262.67 665.823 Q1262.67 663.66 1261.12 662.513 Q1259.6 661.347 1256.74 661.347 Q1255.18 661.347 1253.39 661.685 Q1251.61 662.024 1249.46 662.738 L1249.46 659.353 Q1251.63 658.751 1253.51 658.45 Q1255.41 658.149 1257.08 658.149 Q1261.41 658.149 1263.93 660.124 Q1266.45 662.08 1266.45 665.428 Q1266.45 667.76 1265.11 669.377 Q1263.78 670.976 1261.31 671.597 Z" fill="#000000" fill-rule="nonzero" fill-opacity="1" /><path clip-path="url(#clip220)" d="M1517.21 710.212 L1524.85 710.212 L1524.85 683.847 L1516.54 685.513 L1516.54 681.254 L1524.8 679.587 L1529.48 679.587 L1529.48 710.212 L1537.12 710.212 L1537.12 714.147 L1517.21 714.147 L1517.21 710.212 Z" fill="#000000" fill-rule="nonzero" fill-opacity="1" /><path clip-path="url(#clip220)" d="M1556.56 682.666 Q1552.95 682.666 1551.12 686.231 Q1549.32 689.773 1549.32 696.902 Q1549.32 704.009 1551.12 707.573 Q1552.95 711.115 1556.56 711.115 Q1560.2 711.115 1562 707.573 Q1563.83 704.009 1563.83 696.902 Q1563.83 689.773 1562 686.231 Q1560.2 682.666 1556.56 682.666 M1556.56 678.962 Q1562.37 678.962 1565.43 683.569 Q1568.51 688.152 1568.51 696.902 Q1568.51 705.629 1565.43 710.235 Q1562.37 714.819 1556.56 714.819 Q1550.75 714.819 1547.67 710.235 Q1544.62 705.629 1544.62 696.902 Q1544.62 688.152 1547.67 683.569 Q1550.75 678.962 1556.56 678.962 Z" fill="#000000" fill-rule="nonzero" fill-opacity="1" /><path clip-path="url(#clip220)" d="M1581.18 661.967 L1571.59 676.957 L1581.18 676.957 L1581.18 661.967 M1580.19 658.657 L1584.96 658.657 L1584.96 676.957 L1588.97 676.957 L1588.97 680.117 L1584.96 680.117 L1584.96 686.737 L1581.18 686.737 L1581.18 680.117 L1568.51 680.117 L1568.51 676.449 L1580.19 658.657 Z" fill="#000000" fill-rule="nonzero" fill-opacity="1" /><path clip-path="url(#clip220)" d="M927.612 758.128 L914.722 775.475 L928.281 793.776 L921.374 793.776 L910.998 779.772 L900.622 793.776 L893.715 793.776 L907.56 775.125 L894.892 758.128 L901.799 758.128 L911.252 770.828 L920.705 758.128 L927.612 758.128 Z" fill="#000000" fill-rule="nonzero" fill-opacity="1" /><polyline clip-path="url(#clip222)" style="stroke:#000000; stroke-linecap:round; stroke-linejoin:round; stroke-width:2; stroke-opacity:0.1; fill:none" points="269.239,462.167 1552.76,462.167 "/>
<polyline clip-path="url(#clip222)" style="stroke:#000000; stroke-linecap:round; stroke-linejoin:round; stroke-width:2; stroke-opacity:0.1; fill:none" points="269.239,236.766 1552.76,236.766 "/>
<polyline clip-path="url(#clip220)" style="stroke:#000000; stroke-linecap:round; stroke-linejoin:round; stroke-width:4; stroke-opacity:1; fill:none" points="269.239,642.487 269.239,47.2441 "/>
<polyline clip-path="url(#clip220)" style="stroke:#000000; stroke-linecap:round; stroke-linejoin:round; stroke-width:4; stroke-opacity:1; fill:none" points="269.239,462.167 288.137,462.167 "/>
<polyline clip-path="url(#clip220)" style="stroke:#000000; stroke-linecap:round; stroke-linejoin:round; stroke-width:4; stroke-opacity:1; fill:none" points="269.239,236.766 288.137,236.766 "/>
<path clip-path="url(#clip220)" d="M107.051 481.959 L114.69 481.959 L114.69 455.594 L106.38 457.26 L106.38 453.001 L114.644 451.335 L119.32 451.335 L119.32 481.959 L126.959 481.959 L126.959 485.895 L107.051 485.895 L107.051 481.959 Z" fill="#000000" fill-rule="nonzero" fill-opacity="1" /><path clip-path="url(#clip220)" d="M146.403 454.413 Q142.792 454.413 140.963 457.978 Q139.158 461.52 139.158 468.649 Q139.158 475.756 140.963 479.321 Q142.792 482.862 146.403 482.862 Q150.037 482.862 151.843 479.321 Q153.672 475.756 153.672 468.649 Q153.672 461.52 151.843 457.978 Q150.037 454.413 146.403 454.413 M146.403 450.71 Q152.213 450.71 155.269 455.316 Q158.347 459.899 158.347 468.649 Q158.347 477.376 155.269 481.983 Q152.213 486.566 146.403 486.566 Q140.593 486.566 137.514 481.983 Q134.459 477.376 134.459 468.649 Q134.459 459.899 137.514 455.316 Q140.593 450.71 146.403 450.71 Z" fill="#000000" fill-rule="nonzero" fill-opacity="1" /><path clip-path="url(#clip220)" d="M158.347 444.811 L182.459 444.811 L182.459 448.008 L158.347 448.008 L158.347 444.811 Z" fill="#000000" fill-rule="nonzero" fill-opacity="1" /><path clip-path="url(#clip220)" d="M190.697 430.404 L205.611 430.404 L205.611 433.601 L194.176 433.601 L194.176 440.485 Q195.004 440.203 195.831 440.071 Q196.659 439.921 197.486 439.921 Q202.188 439.921 204.934 442.498 Q207.68 445.074 207.68 449.475 Q207.68 454.008 204.859 456.528 Q202.038 459.03 196.903 459.03 Q195.135 459.03 193.292 458.729 Q191.468 458.428 189.512 457.826 L189.512 454.008 Q191.205 454.929 193.01 455.381 Q194.816 455.832 196.828 455.832 Q200.082 455.832 201.981 454.121 Q203.881 452.409 203.881 449.475 Q203.881 446.541 201.981 444.83 Q200.082 443.118 196.828 443.118 Q195.305 443.118 193.781 443.457 Q192.277 443.795 190.697 444.51 L190.697 430.404 Z" fill="#000000" fill-rule="nonzero" fill-opacity="1" /><path clip-path="url(#clip220)" d="M215.166 453.707 L219.134 453.707 L219.134 458.484 L215.166 458.484 L215.166 453.707 Z" fill="#000000" fill-rule="nonzero" fill-opacity="1" /><path clip-path="url(#clip220)" d="M235.535 432.906 Q232.601 432.906 231.115 435.802 Q229.648 438.68 229.648 444.472 Q229.648 450.246 231.115 453.143 Q232.601 456.02 235.535 456.02 Q238.487 456.02 239.954 453.143 Q241.44 450.246 241.44 444.472 Q241.44 438.68 239.954 435.802 Q238.487 432.906 235.535 432.906 M235.535 429.896 Q240.255 429.896 242.738 433.639 Q245.239 437.363 245.239 444.472 Q245.239 451.563 242.738 455.306 Q240.255 459.03 235.535 459.03 Q230.814 459.03 228.312 455.306 Q225.83 451.563 225.83 444.472 Q225.83 437.363 228.312 433.639 Q230.814 429.896 235.535 429.896 Z" fill="#000000" fill-rule="nonzero" fill-opacity="1" /><path clip-path="url(#clip220)" d="M107.86 256.559 L115.499 256.559 L115.499 230.193 L107.189 231.86 L107.189 227.601 L115.453 225.934 L120.129 225.934 L120.129 256.559 L127.767 256.559 L127.767 260.494 L107.86 260.494 L107.86 256.559 Z" fill="#000000" fill-rule="nonzero" fill-opacity="1" /><path clip-path="url(#clip220)" d="M147.212 229.013 Q143.601 229.013 141.772 232.577 Q139.966 236.119 139.966 243.249 Q139.966 250.355 141.772 253.92 Q143.601 257.462 147.212 257.462 Q150.846 257.462 152.652 253.92 Q154.48 250.355 154.48 243.249 Q154.48 236.119 152.652 232.577 Q150.846 229.013 147.212 229.013 M147.212 225.309 Q153.022 225.309 156.078 229.915 Q159.156 234.499 159.156 243.249 Q159.156 251.975 156.078 256.582 Q153.022 261.165 147.212 261.165 Q141.402 261.165 138.323 256.582 Q135.267 251.975 135.267 243.249 Q135.267 234.499 138.323 229.915 Q141.402 225.309 147.212 225.309 Z" fill="#000000" fill-rule="nonzero" fill-opacity="1" /><path clip-path="url(#clip220)" d="M159.156 219.41 L183.268 219.41 L183.268 222.608 L159.156 222.608 L159.156 219.41 Z" fill="#000000" fill-rule="nonzero" fill-opacity="1" /><path clip-path="url(#clip220)" d="M194.741 229.886 L208 229.886 L208 233.084 L190.17 233.084 L190.17 229.886 Q192.333 227.648 196.057 223.887 Q199.8 220.106 200.759 219.015 Q202.583 216.965 203.298 215.555 Q204.032 214.125 204.032 212.752 Q204.032 210.514 202.452 209.104 Q200.891 207.693 198.37 207.693 Q196.584 207.693 194.59 208.314 Q192.615 208.934 190.358 210.194 L190.358 206.358 Q192.653 205.436 194.646 204.966 Q196.64 204.496 198.295 204.496 Q202.659 204.496 205.254 206.677 Q207.85 208.859 207.85 212.508 Q207.85 214.238 207.191 215.799 Q206.552 217.341 204.84 219.448 Q204.37 219.993 201.85 222.608 Q199.33 225.203 194.741 229.886 Z" fill="#000000" fill-rule="nonzero" fill-opacity="1" /><path clip-path="url(#clip220)" d="M215.974 228.306 L219.943 228.306 L219.943 233.084 L215.974 233.084 L215.974 228.306 Z" fill="#000000" fill-rule="nonzero" fill-opacity="1" /><path clip-path="url(#clip220)" d="M228.256 205.004 L243.171 205.004 L243.171 208.201 L231.735 208.201 L231.735 215.085 Q232.563 214.802 233.39 214.671 Q234.218 214.52 235.046 214.52 Q239.747 214.52 242.493 217.097 Q245.239 219.674 245.239 224.075 Q245.239 228.607 242.418 231.128 Q239.597 233.629 234.463 233.629 Q232.695 233.629 230.851 233.328 Q229.027 233.027 227.071 232.425 L227.071 228.607 Q228.764 229.529 230.569 229.98 Q232.375 230.432 234.387 230.432 Q237.641 230.432 239.541 228.72 Q241.44 227.009 241.44 224.075 Q241.44 221.141 239.541 219.429 Q237.641 217.718 234.387 217.718 Q232.864 217.718 231.34 218.056 Q229.836 218.395 228.256 219.109 L228.256 205.004 Z" fill="#000000" fill-rule="nonzero" fill-opacity="1" /><path clip-path="url(#clip220)" d="M25.8877 396.81 L43.7435 396.81 L43.7435 388.725 Q43.7435 384.238 41.42 381.787 Q39.0965 379.336 34.7997 379.336 Q30.5347 379.336 28.2112 381.787 Q25.8877 384.238 25.8877 388.725 L25.8877 396.81 M20.6042 403.239 L20.6042 388.725 Q20.6042 380.737 24.2326 376.662 Q27.8292 372.557 34.7997 372.557 Q41.8338 372.557 45.4304 376.662 Q49.027 380.737 49.027 388.725 L49.027 396.81 L68.1242 396.81 L68.1242 403.239 L20.6042 403.239 Z" fill="#000000" fill-rule="nonzero" fill-opacity="1" /><path clip-path="url(#clip220)" d="M18.6626 350.117 Q25.9832 354.382 33.1446 356.451 Q40.306 358.52 47.6584 358.52 Q55.0108 358.52 62.2359 356.451 Q69.4291 354.351 76.7179 350.117 L76.7179 355.21 Q69.2382 359.984 62.0131 362.371 Q54.788 364.727 47.6584 364.727 Q40.5606 364.727 33.3674 362.371 Q26.1742 360.016 18.6626 355.21 L18.6626 350.117 Z" fill="#000000" fill-rule="nonzero" fill-opacity="1" /><path clip-path="url(#clip220)" d="M32.4762 309.122 L49.8228 322.013 L68.1242 308.454 L68.1242 315.361 L54.1196 325.737 L68.1242 336.113 L68.1242 343.02 L49.4726 329.174 L32.4762 341.842 L32.4762 334.935 L45.1758 325.482 L32.4762 316.029 L32.4762 309.122 Z" fill="#000000" fill-rule="nonzero" fill-opacity="1" /><path clip-path="url(#clip220)" d="M18.6626 301.102 L18.6626 296.009 Q26.1742 291.235 33.3674 288.879 Q40.5606 286.492 47.6584 286.492 Q54.788 286.492 62.0131 288.879 Q69.2382 291.235 76.7179 296.009 L76.7179 301.102 Q69.4291 296.868 62.2359 294.799 Q55.0108 292.699 47.6584 292.699 Q40.306 292.699 33.1446 294.799 Q25.9832 296.868 18.6626 301.102 Z" fill="#000000" fill-rule="nonzero" fill-opacity="1" /><polyline clip-path="url(#clip222)" style="stroke:#009af9; stroke-linecap:round; stroke-linejoin:round; stroke-width:4; stroke-opacity:1; fill:none" points="910.998,128.667 911.979,130.946 912.954,133.174 913.921,135.352 914.883,137.482 915.837,139.567 916.785,141.609 917.727,143.609 918.662,145.569 919.591,147.49 920.514,149.375 921.431,151.223 922.342,153.038 923.247,154.82 924.146,156.569 925.039,158.288 925.927,159.978 926.809,161.638 927.685,163.271 928.556,164.877 929.422,166.457 930.282,168.013 931.137,169.543 931.987,171.051 932.831,172.535 934.505,175.438 936.16,178.257 937.794,180.997 939.41,183.663 941.007,186.258 942.587,188.786 944.148,191.251 945.692,193.654 947.219,196.001 948.73,198.292 950.225,200.531 951.703,202.72 954.614,206.956 957.466,211.016 960.26,214.915 962.999,218.664 965.686,222.275 968.322,225.758 970.908,229.121 973.448,232.372 978.393,238.567 983.168,244.393 987.784,249.892 992.253,255.099 994.435,257.602 996.583,260.042 998.699,262.424 1000.78,264.748 1010.03,274.831 1018.7,283.972 1026.87,292.332 1034.58,300.033 1048.83,313.827 1061.76,325.915 1084.5,346.365 1104.04,363.272 1136.43,390.245 1162.69,411.368 1203.85,443.477 1235.58,467.614 1266.09,490.443 1291.1,508.943 1309.23,522.248 1325.27,533.959 1354.82,555.408 1377.43,571.727 1398.18,586.645 1418.9,601.492 1435.04,613.027 1447.8,622.131 1460.5,631.179 1472.2,639.508 1484.09,647.961 1494.53,655.377 1504.61,662.536 1512.57,668.181 1521.71,674.658 1529.59,680.238 1536.49,685.123 1543.14,689.835 1550.24,694.86 1556.38,699.2 1563.09,703.944 1569.02,708.141 1574.64,712.109 1579.88,715.814 1585.06,719.472 1590.52,723.329 1598.09,728.674 1599.59,729.735 "/>
<polyline clip-path="url(#clip222)" style="stroke:#e26f46; stroke-linecap:round; stroke-linejoin:round; stroke-width:4; stroke-opacity:1; fill:none" points="686.713,112.79 689.958,115.07 693.129,117.297 696.229,119.475 699.262,121.606 702.23,123.691 705.137,125.733 707.984,127.732 710.774,129.692 713.509,131.614 716.192,133.498 718.824,135.347 721.407,137.162 723.944,138.943 726.434,140.693 728.881,142.412 731.286,144.101 733.65,145.762 735.975,147.395 738.262,149.001 740.511,150.581 742.725,152.136 744.904,153.667 747.05,155.174 749.163,156.659 753.296,159.561 757.309,162.381 761.21,165.121 765.005,167.787 768.699,170.382 772.298,172.91 775.807,175.374 779.229,177.778 782.569,180.124 785.831,182.416 789.018,184.655 792.134,186.843 798.165,191.079 803.945,195.14 809.495,199.038 814.832,202.788 819.973,206.399 824.931,209.881 829.718,213.244 834.346,216.495 843.166,222.691 851.46,228.517 859.289,234.016 866.701,239.222 870.264,241.725 873.738,244.166 877.128,246.547 880.437,248.872 894.792,258.955 907.804,268.096 919.705,276.455 930.669,284.157 950.306,297.95 967.514,310.038 996.626,330.488 1020.7,347.395 1059.09,374.368 1089.17,395.492 1134.87,427.6 1169.24,451.738 1201.74,474.567 1228.07,493.066 1247.01,506.372 1263.68,518.083 1294.22,539.532 1317.45,555.851 1338.69,570.769 1359.82,585.615 1376.24,597.15 1389.21,606.255 1402.09,615.303 1413.94,623.632 1425.98,632.084 1436.53,639.501 1446.73,646.659 1454.76,652.304 1463.98,658.782 1471.93,664.362 1478.88,669.247 1485.59,673.959 1492.74,678.983 1498.92,683.324 1505.67,688.068 1511.65,692.265 1517.3,696.233 1522.57,699.938 1527.78,703.596 1533.27,707.452 1540.88,712.797 1542.39,713.859 "/>
<polyline clip-path="url(#clip222)" style="stroke:#3da44d; stroke-linecap:round; stroke-linejoin:round; stroke-width:4; stroke-opacity:1; fill:none" points="133.479,595.894 230.073,483.867 286.577,427.056 326.667,390.652 343.081,376.682 357.764,364.646 371.046,354.133 383.171,344.846 404.653,329.12 423.262,316.25 439.675,305.477 454.358,296.3 467.64,288.374 479.766,281.448 501.247,269.906 519.856,260.66 536.27,253.084 550.952,246.767 564.234,241.427 576.36,236.863 587.514,232.926 597.842,229.505 607.456,226.513 616.45,223.883 624.899,221.561 632.864,219.504 640.399,217.675 647.547,216.046 654.346,214.593 660.829,213.294 667.023,212.131 672.954,211.091 678.643,210.16 684.109,209.326 689.368,208.581 694.436,207.916 699.326,207.324 704.051,206.797 706.354,206.557 708.62,206.33 710.85,206.118 713.044,205.919 722.764,205.153 731.85,204.609 740.38,204.25 748.417,204.046 756.016,203.973 763.222,204.011 770.074,204.145 776.604,204.36 782.842,204.646 788.813,204.993 794.539,205.394 800.038,205.841 805.329,206.328 810.426,206.851 815.343,207.405 820.093,207.987 837.621,210.527 853.189,213.303 860.366,214.747 867.191,216.216 873.698,217.705 879.914,219.207 885.865,220.717 891.572,222.233 897.055,223.751 902.329,225.269 907.412,226.784 912.316,228.296 917.053,229.802 921.634,231.302 926.069,232.794 930.368,234.278 934.538,235.753 938.587,237.219 942.521,238.676 946.348,240.122 950.072,241.558 953.699,242.983 960.682,245.802 967.332,248.577 973.678,251.31 979.749,253.999 985.566,256.646 991.149,259.251 996.518,261.815 1001.69,264.338 1006.67,266.822 1011.48,269.269 1016.14,271.677 1020.64,274.05 1029.23,278.69 1037.32,283.197 1041.96,285.844 1046.46,288.447 1050.81,291.008 1055.03,293.528 1063.11,298.449 1070.75,303.222 1077.99,307.855 1084.87,312.357 1091.43,316.737 1097.7,321 1107.69,327.964 1117.01,334.643 1125.75,341.063 1133.97,347.244 1150.32,359.939 1164.95,371.757 1177.19,381.984 1188.45,391.651 1209.91,410.778 1231.23,430.705 1247.77,446.802 1260.82,459.887 1273.78,473.223 1285.71,485.791 1297.8,498.833 1308.41,510.515 1318.65,522.001 1326.72,531.205 1335.97,541.926 1343.95,551.298 1350.93,559.606 1357.66,567.712 1364.83,576.454 1371.03,584.088 1377.8,592.52 1383.79,600.055 1389.46,607.246 1394.75,614.018 1399.97,620.758 1405.47,627.923 1413.09,637.953 1414.61,639.958 "/>
<path clip-path="url(#clip220)" d="M312.023 622.646 L704.586 622.646 L704.586 415.286 L312.023 415.286  Z" fill="#ffffff" fill-rule="evenodd" fill-opacity="1"/>
<polyline clip-path="url(#clip220)" style="stroke:#000000; stroke-linecap:round; stroke-linejoin:round; stroke-width:4; stroke-opacity:1; fill:none" points="312.023,622.646 704.586,622.646 704.586,415.286 312.023,415.286 312.023,622.646 "/>
<polyline clip-path="url(#clip220)" style="stroke:#009af9; stroke-linecap:round; stroke-linejoin:round; stroke-width:4; stroke-opacity:1; fill:none" points="326.285,467.126 411.852,467.126 "/>
<path clip-path="url(#clip220)" d="M451.669 479.475 L451.669 470.193 L444.03 470.193 L444.03 466.351 L456.299 466.351 L456.299 481.188 Q453.59 483.11 450.326 484.105 Q447.063 485.077 443.359 485.077 Q435.257 485.077 430.674 480.355 Q426.114 475.61 426.114 467.161 Q426.114 458.689 430.674 453.966 Q435.257 449.221 443.359 449.221 Q446.739 449.221 449.771 450.054 Q452.826 450.888 455.396 452.508 L455.396 457.485 Q452.803 455.286 449.887 454.175 Q446.97 453.064 443.752 453.064 Q437.41 453.064 434.215 456.605 Q431.044 460.147 431.044 467.161 Q431.044 474.151 434.215 477.693 Q437.41 481.235 443.752 481.235 Q446.229 481.235 448.174 480.818 Q450.118 480.378 451.669 479.475 Z" fill="#000000" fill-rule="nonzero" fill-opacity="1" /><path clip-path="url(#clip220)" d="M469.516 453.689 L469.516 466.675 L475.396 466.675 Q478.66 466.675 480.442 464.985 Q482.224 463.295 482.224 460.17 Q482.224 457.068 480.442 455.378 Q478.66 453.689 475.396 453.689 L469.516 453.689 M464.84 449.846 L475.396 449.846 Q481.206 449.846 484.169 452.485 Q487.155 455.101 487.155 460.17 Q487.155 465.286 484.169 467.901 Q481.206 470.517 475.396 470.517 L469.516 470.517 L469.516 484.406 L464.84 484.406 L464.84 449.846 Z" fill="#000000" fill-rule="nonzero" fill-opacity="1" /><path clip-path="url(#clip220)" d="M498.104 453.689 L498.104 480.563 L503.752 480.563 Q510.905 480.563 514.215 477.323 Q517.548 474.082 517.548 467.091 Q517.548 460.147 514.215 456.929 Q510.905 453.689 503.752 453.689 L498.104 453.689 M493.428 449.846 L503.034 449.846 Q513.081 449.846 517.78 454.036 Q522.479 458.202 522.479 467.091 Q522.479 476.026 517.757 480.216 Q513.034 484.406 503.034 484.406 L493.428 484.406 L493.428 449.846 Z" fill="#000000" fill-rule="nonzero" fill-opacity="1" /><polyline clip-path="url(#clip220)" style="stroke:#e26f46; stroke-linecap:round; stroke-linejoin:round; stroke-width:4; stroke-opacity:1; fill:none" points="326.285,518.966 411.852,518.966 "/>
<path clip-path="url(#clip220)" d="M430.79 505.529 L430.79 518.515 L436.669 518.515 Q439.933 518.515 441.715 516.825 Q443.498 515.135 443.498 512.01 Q443.498 508.908 441.715 507.218 Q439.933 505.529 436.669 505.529 L430.79 505.529 M426.114 501.686 L436.669 501.686 Q442.479 501.686 445.442 504.325 Q448.428 506.941 448.428 512.01 Q448.428 517.126 445.442 519.741 Q442.479 522.357 436.669 522.357 L430.79 522.357 L430.79 536.246 L426.114 536.246 L426.114 501.686 Z" fill="#000000" fill-rule="nonzero" fill-opacity="1" /><path clip-path="url(#clip220)" d="M464.169 523.214 Q459.007 523.214 457.016 524.394 Q455.025 525.575 455.025 528.422 Q455.025 530.69 456.507 532.033 Q458.012 533.352 460.581 533.352 Q464.123 533.352 466.252 530.853 Q468.405 528.329 468.405 524.163 L468.405 523.214 L464.169 523.214 M472.664 521.454 L472.664 536.246 L468.405 536.246 L468.405 532.311 Q466.947 534.672 464.771 535.806 Q462.595 536.917 459.447 536.917 Q455.465 536.917 453.104 534.695 Q450.766 532.45 450.766 528.7 Q450.766 524.325 453.683 522.103 Q456.623 519.88 462.433 519.88 L468.405 519.88 L468.405 519.464 Q468.405 516.524 466.461 514.927 Q464.539 513.306 461.044 513.306 Q458.822 513.306 456.715 513.839 Q454.609 514.371 452.664 515.436 L452.664 511.501 Q455.002 510.598 457.201 510.158 Q459.4 509.695 461.484 509.695 Q467.109 509.695 469.887 512.612 Q472.664 515.529 472.664 521.454 Z" fill="#000000" fill-rule="nonzero" fill-opacity="1" /><path clip-path="url(#clip220)" d="M496.46 514.302 Q495.743 513.885 494.886 513.7 Q494.053 513.491 493.035 513.491 Q489.423 513.491 487.479 515.853 Q485.558 518.191 485.558 522.589 L485.558 536.246 L481.275 536.246 L481.275 510.32 L485.558 510.32 L485.558 514.348 Q486.9 511.987 489.053 510.853 Q491.206 509.695 494.285 509.695 Q494.724 509.695 495.257 509.765 Q495.789 509.811 496.437 509.927 L496.46 514.302 Z" fill="#000000" fill-rule="nonzero" fill-opacity="1" /><path clip-path="url(#clip220)" d="M522.062 522.218 L522.062 524.302 L502.479 524.302 Q502.757 528.7 505.118 531.015 Q507.502 533.306 511.738 533.306 Q514.192 533.306 516.483 532.704 Q518.798 532.103 521.067 530.899 L521.067 534.927 Q518.775 535.899 516.368 536.408 Q513.96 536.917 511.484 536.917 Q505.28 536.917 501.646 533.306 Q498.035 529.695 498.035 523.538 Q498.035 517.172 501.46 513.445 Q504.909 509.695 510.743 509.695 Q515.974 509.695 519.007 513.075 Q522.062 516.431 522.062 522.218 M517.803 520.968 Q517.757 517.473 515.835 515.39 Q513.937 513.306 510.789 513.306 Q507.224 513.306 505.072 515.32 Q502.942 517.334 502.618 520.991 L517.803 520.968 Z" fill="#000000" fill-rule="nonzero" fill-opacity="1" /><path clip-path="url(#clip220)" d="M533.266 502.959 L533.266 510.32 L542.039 510.32 L542.039 513.63 L533.266 513.63 L533.266 527.704 Q533.266 530.876 534.122 531.778 Q535.002 532.681 537.664 532.681 L542.039 532.681 L542.039 536.246 L537.664 536.246 Q532.733 536.246 530.858 534.417 Q528.983 532.565 528.983 527.704 L528.983 513.63 L525.858 513.63 L525.858 510.32 L528.983 510.32 L528.983 502.959 L533.266 502.959 Z" fill="#000000" fill-rule="nonzero" fill-opacity="1" /><path clip-path="url(#clip220)" d="M557.687 513.306 Q554.261 513.306 552.27 515.991 Q550.28 518.653 550.28 523.306 Q550.28 527.959 552.247 530.644 Q554.238 533.306 557.687 533.306 Q561.09 533.306 563.08 530.621 Q565.071 527.936 565.071 523.306 Q565.071 518.7 563.08 516.015 Q561.09 513.306 557.687 513.306 M557.687 509.695 Q563.243 509.695 566.414 513.306 Q569.585 516.917 569.585 523.306 Q569.585 529.672 566.414 533.306 Q563.243 536.917 557.687 536.917 Q552.108 536.917 548.937 533.306 Q545.789 529.672 545.789 523.306 Q545.789 516.917 548.937 513.306 Q552.108 509.695 557.687 509.695 Z" fill="#000000" fill-rule="nonzero" fill-opacity="1" /><polyline clip-path="url(#clip220)" style="stroke:#3da44d; stroke-linecap:round; stroke-linejoin:round; stroke-width:4; stroke-opacity:1; fill:none" points="326.285,570.806 411.852,570.806 "/>
<path clip-path="url(#clip220)" d="M426.114 553.526 L430.79 553.526 L430.79 584.151 L447.618 584.151 L447.618 588.086 L426.114 588.086 L426.114 553.526 Z" fill="#000000" fill-rule="nonzero" fill-opacity="1" /><path clip-path="url(#clip220)" d="M461.553 565.146 Q458.127 565.146 456.137 567.831 Q454.146 570.493 454.146 575.146 Q454.146 579.799 456.113 582.484 Q458.104 585.146 461.553 585.146 Q464.956 585.146 466.947 582.461 Q468.937 579.776 468.937 575.146 Q468.937 570.54 466.947 567.855 Q464.956 565.146 461.553 565.146 M461.553 561.535 Q467.109 561.535 470.28 565.146 Q473.451 568.757 473.451 575.146 Q473.451 581.512 470.28 585.146 Q467.109 588.757 461.553 588.757 Q455.975 588.757 452.803 585.146 Q449.655 581.512 449.655 575.146 Q449.655 568.757 452.803 565.146 Q455.975 561.535 461.553 561.535 Z" fill="#000000" fill-rule="nonzero" fill-opacity="1" /><path clip-path="url(#clip220)" d="M497.572 574.822 Q497.572 570.193 495.65 567.646 Q493.752 565.1 490.303 565.1 Q486.877 565.1 484.956 567.646 Q483.058 570.193 483.058 574.822 Q483.058 579.429 484.956 581.975 Q486.877 584.521 490.303 584.521 Q493.752 584.521 495.65 581.975 Q497.572 579.429 497.572 574.822 M501.831 584.868 Q501.831 591.489 498.891 594.706 Q495.951 597.947 489.886 597.947 Q487.641 597.947 485.65 597.6 Q483.66 597.276 481.785 596.581 L481.785 592.438 Q483.66 593.456 485.488 593.942 Q487.317 594.429 489.215 594.429 Q493.405 594.429 495.488 592.229 Q497.572 590.054 497.572 585.632 L497.572 583.526 Q496.252 585.817 494.192 586.952 Q492.132 588.086 489.261 588.086 Q484.493 588.086 481.576 584.452 Q478.66 580.818 478.66 574.822 Q478.66 568.804 481.576 565.169 Q484.493 561.535 489.261 561.535 Q492.132 561.535 494.192 562.669 Q496.252 563.804 497.572 566.095 L497.572 562.16 L501.831 562.16 L501.831 584.868 Z" fill="#000000" fill-rule="nonzero" fill-opacity="1" /><path clip-path="url(#clip220)" d="M508.451 573.202 L520.928 573.202 L520.928 576.998 L508.451 576.998 L508.451 573.202 Z" fill="#000000" fill-rule="nonzero" fill-opacity="1" /><path clip-path="url(#clip220)" d="M527.895 553.526 L534.192 553.526 L549.516 582.438 L549.516 553.526 L554.053 553.526 L554.053 588.086 L547.756 588.086 L532.432 559.174 L532.432 588.086 L527.895 588.086 L527.895 553.526 Z" fill="#000000" fill-rule="nonzero" fill-opacity="1" /><path clip-path="url(#clip220)" d="M573.219 565.146 Q569.793 565.146 567.803 567.831 Q565.812 570.493 565.812 575.146 Q565.812 579.799 567.78 582.484 Q569.77 585.146 573.219 585.146 Q576.622 585.146 578.613 582.461 Q580.604 579.776 580.604 575.146 Q580.604 570.54 578.613 567.855 Q576.622 565.146 573.219 565.146 M573.219 561.535 Q578.775 561.535 581.946 565.146 Q585.117 568.757 585.117 575.146 Q585.117 581.512 581.946 585.146 Q578.775 588.757 573.219 588.757 Q567.641 588.757 564.469 585.146 Q561.321 581.512 561.321 575.146 Q561.321 568.757 564.469 565.146 Q567.641 561.535 573.219 561.535 Z" fill="#000000" fill-rule="nonzero" fill-opacity="1" /><path clip-path="url(#clip220)" d="M607.201 566.142 Q606.483 565.725 605.627 565.54 Q604.793 565.331 603.775 565.331 Q600.164 565.331 598.219 567.693 Q596.298 570.031 596.298 574.429 L596.298 588.086 L592.015 588.086 L592.015 562.16 L596.298 562.16 L596.298 566.188 Q597.64 563.827 599.793 562.693 Q601.946 561.535 605.025 561.535 Q605.465 561.535 605.997 561.605 Q606.529 561.651 607.177 561.767 L607.201 566.142 Z" fill="#000000" fill-rule="nonzero" fill-opacity="1" /><path clip-path="url(#clip220)" d="M631.02 567.137 Q632.617 564.267 634.839 562.901 Q637.062 561.535 640.071 561.535 Q644.122 561.535 646.321 564.382 Q648.52 567.206 648.52 572.438 L648.52 588.086 L644.237 588.086 L644.237 572.577 Q644.237 568.85 642.918 567.044 Q641.599 565.239 638.89 565.239 Q635.58 565.239 633.659 567.438 Q631.738 569.637 631.738 573.433 L631.738 588.086 L627.455 588.086 L627.455 572.577 Q627.455 568.827 626.136 567.044 Q624.816 565.239 622.062 565.239 Q618.798 565.239 616.876 567.461 Q614.955 569.66 614.955 573.433 L614.955 588.086 L610.673 588.086 L610.673 562.16 L614.955 562.16 L614.955 566.188 Q616.414 563.804 618.451 562.669 Q620.488 561.535 623.288 561.535 Q626.113 561.535 628.08 562.97 Q630.071 564.406 631.02 567.137 Z" fill="#000000" fill-rule="nonzero" fill-opacity="1" /><path clip-path="url(#clip220)" d="M668.797 575.054 Q663.635 575.054 661.645 576.234 Q659.654 577.415 659.654 580.262 Q659.654 582.53 661.135 583.873 Q662.64 585.192 665.21 585.192 Q668.751 585.192 670.881 582.693 Q673.034 580.169 673.034 576.003 L673.034 575.054 L668.797 575.054 M677.293 573.294 L677.293 588.086 L673.034 588.086 L673.034 584.151 Q671.575 586.512 669.399 587.646 Q667.223 588.757 664.075 588.757 Q660.094 588.757 657.733 586.535 Q655.395 584.29 655.395 580.54 Q655.395 576.165 658.311 573.943 Q661.251 571.72 667.061 571.72 L673.034 571.72 L673.034 571.304 Q673.034 568.364 671.089 566.767 Q669.168 565.146 665.673 565.146 Q663.45 565.146 661.344 565.679 Q659.237 566.211 657.293 567.276 L657.293 563.341 Q659.631 562.438 661.83 561.998 Q664.029 561.535 666.112 561.535 Q671.737 561.535 674.515 564.452 Q677.293 567.369 677.293 573.294 Z" fill="#000000" fill-rule="nonzero" fill-opacity="1" /><path clip-path="url(#clip220)" d="M686.066 552.068 L690.325 552.068 L690.325 588.086 L686.066 588.086 L686.066 552.068 Z" fill="#000000" fill-rule="nonzero" fill-opacity="1" /></svg>
