<?xml version="1.0" encoding="utf-8"?>
<svg xmlns="http://www.w3.org/2000/svg" xmlns:xlink="http://www.w3.org/1999/xlink" width="672" height="480" viewBox="0 0 2688 1920">
<defs>
  <clipPath id="clip020">
    <rect x="0" y="0" width="2688" height="1920"/>
  </clipPath>
</defs>
<path clip-path="url(#clip020)" d="M0 1920 L2688 1920 L2688 0 L0 0  Z" fill="#ffffff" fill-rule="evenodd" fill-opacity="1"/>
<defs>
  <clipPath id="clip021">
    <rect x="537" y="0" width="1883" height="1883"/>
  </clipPath>
</defs>
<path clip-path="url(#clip020)" d="M172.001 840.779 L2640.76 840.779 L2640.76 109.278 L172.001 109.278  Z" fill="#ffffff" fill-rule="evenodd" fill-opacity="1"/>
<defs>
  <clipPath id="clip022">
    <rect x="172" y="109" width="2470" height="733"/>
  </clipPath>
</defs>
<polyline clip-path="url(#clip022)" style="stroke:#000000; stroke-linecap:round; stroke-linejoin:round; stroke-width:2; stroke-opacity:0.1; fill:none" points="241.872,840.779 241.872,109.278 "/>
<polyline clip-path="url(#clip022)" style="stroke:#000000; stroke-linecap:round; stroke-linejoin:round; stroke-width:2; stroke-opacity:0.1; fill:none" points="1406.38,840.779 1406.38,109.278 "/>
<polyline clip-path="url(#clip022)" style="stroke:#000000; stroke-linecap:round; stroke-linejoin:round; stroke-width:2; stroke-opacity:0.1; fill:none" points="2570.89,840.779 2570.89,109.278 "/>
<polyline clip-path="url(#clip020)" style="stroke:#000000; stroke-linecap:round; stroke-linejoin:round; stroke-width:4; stroke-opacity:1; fill:none" points="172.001,840.779 2640.76,840.779 "/>
<polyline clip-path="url(#clip020)" style="stroke:#000000; stroke-linecap:round; stroke-linejoin:round; stroke-width:4; stroke-opacity:1; fill:none" points="241.872,840.779 241.872,821.882 "/>
<polyline clip-path="url(#clip020)" style="stroke:#000000; stroke-linecap:round; stroke-linejoin:round; stroke-width:4; stroke-opacity:1; fill:none" points="1406.38,840.779 1406.38,821.882 "/>
<polyline clip-path="url(#clip020)" style="stroke:#000000; stroke-linecap:round; stroke-linejoin:round; stroke-width:4; stroke-opacity:1; fill:none" points="2570.89,840.779 2570.89,821.882 "/>
<path clip-path="url(#clip020)" d="M200.309 888.979 L200.309 901.641 L207.809 901.641 Q211.583 901.641 213.388 900.09 Q215.217 898.516 215.217 895.298 Q215.217 892.057 213.388 890.53 Q211.583 888.979 207.809 888.979 L200.309 888.979 M200.309 874.766 L200.309 885.182 L207.231 885.182 Q210.657 885.182 212.323 883.909 Q214.013 882.613 214.013 879.974 Q214.013 877.358 212.323 876.062 Q210.657 874.766 207.231 874.766 L200.309 874.766 M195.634 870.923 L207.578 870.923 Q212.925 870.923 215.819 873.146 Q218.712 875.368 218.712 879.465 Q218.712 882.636 217.231 884.511 Q215.749 886.386 212.879 886.849 Q216.328 887.59 218.226 889.951 Q220.147 892.289 220.147 895.807 Q220.147 900.437 216.999 902.96 Q213.851 905.483 208.041 905.483 L195.634 905.483 L195.634 870.923 Z" fill="#000000" fill-rule="nonzero" fill-opacity="1" /><path clip-path="url(#clip020)" d="M227.971 879.558 L232.231 879.558 L232.231 905.483 L227.971 905.483 L227.971 879.558 M227.971 869.465 L232.231 869.465 L232.231 874.858 L227.971 874.858 L227.971 869.465 Z" fill="#000000" fill-rule="nonzero" fill-opacity="1" /><path clip-path="url(#clip020)" d="M252.925 892.451 Q247.763 892.451 245.772 893.632 Q243.781 894.812 243.781 897.659 Q243.781 899.928 245.263 901.27 Q246.768 902.59 249.337 902.59 Q252.879 902.59 255.008 900.09 Q257.161 897.567 257.161 893.4 L257.161 892.451 L252.925 892.451 M261.42 890.692 L261.42 905.483 L257.161 905.483 L257.161 901.548 Q255.703 903.909 253.527 905.043 Q251.351 906.155 248.203 906.155 Q244.221 906.155 241.86 903.932 Q239.522 901.687 239.522 897.937 Q239.522 893.562 242.439 891.34 Q245.379 889.118 251.189 889.118 L257.161 889.118 L257.161 888.701 Q257.161 885.761 255.217 884.164 Q253.295 882.544 249.8 882.544 Q247.578 882.544 245.471 883.076 Q243.365 883.608 241.42 884.673 L241.42 880.738 Q243.758 879.835 245.957 879.395 Q248.156 878.933 250.24 878.933 Q255.865 878.933 258.642 881.849 Q261.42 884.766 261.42 890.692 Z" fill="#000000" fill-rule="nonzero" fill-opacity="1" /><path clip-path="url(#clip020)" d="M286.721 880.321 L286.721 884.349 Q284.915 883.423 282.971 882.96 Q281.027 882.497 278.943 882.497 Q275.772 882.497 274.175 883.47 Q272.601 884.442 272.601 886.386 Q272.601 887.868 273.735 888.724 Q274.869 889.557 278.295 890.321 L279.753 890.645 Q284.29 891.618 286.189 893.4 Q288.11 895.159 288.11 898.331 Q288.11 901.942 285.24 904.048 Q282.392 906.155 277.392 906.155 Q275.309 906.155 273.041 905.738 Q270.795 905.344 268.295 904.534 L268.295 900.136 Q270.656 901.363 272.948 901.988 Q275.24 902.59 277.485 902.59 Q280.494 902.59 282.115 901.571 Q283.735 900.53 283.735 898.655 Q283.735 896.919 282.554 895.993 Q281.397 895.067 277.439 894.21 L275.957 893.863 Q271.999 893.03 270.24 891.317 Q268.48 889.581 268.48 886.571 Q268.48 882.914 271.073 880.923 Q273.666 878.933 278.434 878.933 Q280.795 878.933 282.878 879.28 Q284.962 879.627 286.721 880.321 Z" fill="#000000" fill-rule="nonzero" fill-opacity="1" /><path clip-path="url(#clip020)" d="M1318.62 905.483 L1305.43 870.923 L1310.31 870.923 L1321.26 900.02 L1332.24 870.923 L1337.1 870.923 L1323.93 905.483 L1318.62 905.483 Z" fill="#000000" fill-rule="nonzero" fill-opacity="1" /><path clip-path="url(#clip020)" d="M1350.06 892.451 Q1344.9 892.451 1342.91 893.632 Q1340.92 894.812 1340.92 897.659 Q1340.92 899.928 1342.4 901.27 Q1343.9 902.59 1346.47 902.59 Q1350.01 902.59 1352.14 900.09 Q1354.3 897.567 1354.3 893.4 L1354.3 892.451 L1350.06 892.451 M1358.55 890.692 L1358.55 905.483 L1354.3 905.483 L1354.3 901.548 Q1352.84 903.909 1350.66 905.043 Q1348.49 906.155 1345.34 906.155 Q1341.36 906.155 1338.99 903.932 Q1336.66 901.687 1336.66 897.937 Q1336.66 893.562 1339.57 891.34 Q1342.51 889.118 1348.32 889.118 L1354.3 889.118 L1354.3 888.701 Q1354.3 885.761 1352.35 884.164 Q1350.43 882.544 1346.93 882.544 Q1344.71 882.544 1342.61 883.076 Q1340.5 883.608 1338.55 884.673 L1338.55 880.738 Q1340.89 879.835 1343.09 879.395 Q1345.29 878.933 1347.37 878.933 Q1353 878.933 1355.78 881.849 Q1358.55 884.766 1358.55 890.692 Z" fill="#000000" fill-rule="nonzero" fill-opacity="1" /><path clip-path="url(#clip020)" d="M1382.35 883.539 Q1381.63 883.122 1380.78 882.937 Q1379.94 882.729 1378.93 882.729 Q1375.31 882.729 1373.37 885.09 Q1371.45 887.428 1371.45 891.826 L1371.45 905.483 L1367.17 905.483 L1367.17 879.558 L1371.45 879.558 L1371.45 883.585 Q1372.79 881.224 1374.94 880.09 Q1377.1 878.933 1380.18 878.933 Q1380.61 878.933 1381.15 879.002 Q1381.68 879.048 1382.33 879.164 L1382.35 883.539 Z" fill="#000000" fill-rule="nonzero" fill-opacity="1" /><path clip-path="url(#clip020)" d="M1386.82 879.558 L1391.08 879.558 L1391.08 905.483 L1386.82 905.483 L1386.82 879.558 M1386.82 869.465 L1391.08 869.465 L1391.08 874.858 L1386.82 874.858 L1386.82 869.465 Z" fill="#000000" fill-rule="nonzero" fill-opacity="1" /><path clip-path="url(#clip020)" d="M1411.77 892.451 Q1406.61 892.451 1404.62 893.632 Q1402.63 894.812 1402.63 897.659 Q1402.63 899.928 1404.11 901.27 Q1405.61 902.59 1408.18 902.59 Q1411.73 902.59 1413.86 900.09 Q1416.01 897.567 1416.01 893.4 L1416.01 892.451 L1411.77 892.451 M1420.27 890.692 L1420.27 905.483 L1416.01 905.483 L1416.01 901.548 Q1414.55 903.909 1412.37 905.043 Q1410.2 906.155 1407.05 906.155 Q1403.07 906.155 1400.71 903.932 Q1398.37 901.687 1398.37 897.937 Q1398.37 893.562 1401.29 891.34 Q1404.23 889.118 1410.04 889.118 L1416.01 889.118 L1416.01 888.701 Q1416.01 885.761 1414.06 884.164 Q1412.14 882.544 1408.65 882.544 Q1406.42 882.544 1404.32 883.076 Q1402.21 883.608 1400.27 884.673 L1400.27 880.738 Q1402.61 879.835 1404.8 879.395 Q1407 878.933 1409.09 878.933 Q1414.71 878.933 1417.49 881.849 Q1420.27 884.766 1420.27 890.692 Z" fill="#000000" fill-rule="nonzero" fill-opacity="1" /><path clip-path="url(#clip020)" d="M1450.59 889.835 L1450.59 905.483 L1446.33 905.483 L1446.33 889.974 Q1446.33 886.294 1444.9 884.465 Q1443.46 882.636 1440.59 882.636 Q1437.14 882.636 1435.15 884.835 Q1433.16 887.034 1433.16 890.831 L1433.16 905.483 L1428.88 905.483 L1428.88 879.558 L1433.16 879.558 L1433.16 883.585 Q1434.69 881.247 1436.75 880.09 Q1438.83 878.933 1441.54 878.933 Q1446.01 878.933 1448.3 881.71 Q1450.59 884.465 1450.59 889.835 Z" fill="#000000" fill-rule="nonzero" fill-opacity="1" /><path clip-path="url(#clip020)" d="M1477.74 880.553 L1477.74 884.534 Q1475.94 883.539 1474.11 883.053 Q1472.3 882.544 1470.45 882.544 Q1466.31 882.544 1464.02 885.182 Q1461.73 887.798 1461.73 892.544 Q1461.73 897.289 1464.02 899.928 Q1466.31 902.544 1470.45 902.544 Q1472.3 902.544 1474.11 902.057 Q1475.94 901.548 1477.74 900.553 L1477.74 904.488 Q1475.96 905.321 1474.04 905.738 Q1472.14 906.155 1469.99 906.155 Q1464.13 906.155 1460.68 902.474 Q1457.23 898.794 1457.23 892.544 Q1457.23 886.201 1460.71 882.567 Q1464.2 878.933 1470.27 878.933 Q1472.23 878.933 1474.11 879.349 Q1475.98 879.743 1477.74 880.553 Z" fill="#000000" fill-rule="nonzero" fill-opacity="1" /><path clip-path="url(#clip020)" d="M1507.33 891.456 L1507.33 893.539 L1487.74 893.539 Q1488.02 897.937 1490.38 900.252 Q1492.77 902.544 1497 902.544 Q1499.46 902.544 1501.75 901.942 Q1504.06 901.34 1506.33 900.136 L1506.33 904.164 Q1504.04 905.136 1501.63 905.645 Q1499.23 906.155 1496.75 906.155 Q1490.54 906.155 1486.91 902.544 Q1483.3 898.932 1483.3 892.775 Q1483.3 886.409 1486.73 882.682 Q1490.17 878.933 1496.01 878.933 Q1501.24 878.933 1504.27 882.312 Q1507.33 885.669 1507.33 891.456 M1503.07 890.206 Q1503.02 886.71 1501.1 884.627 Q1499.2 882.544 1496.05 882.544 Q1492.49 882.544 1490.34 884.557 Q1488.21 886.571 1487.88 890.229 L1503.07 890.206 Z" fill="#000000" fill-rule="nonzero" fill-opacity="1" /><path clip-path="url(#clip020)" d="M2524.25 870.923 L2531.22 870.923 L2540.04 894.442 L2548.91 870.923 L2555.87 870.923 L2555.87 905.483 L2551.31 905.483 L2551.31 875.136 L2542.4 898.84 L2537.7 898.84 L2528.79 875.136 L2528.79 905.483 L2524.25 905.483 L2524.25 870.923 Z" fill="#000000" fill-rule="nonzero" fill-opacity="1" /><path clip-path="url(#clip020)" d="M2585.87 872.058 L2585.87 876.618 Q2583.21 875.345 2580.85 874.72 Q2578.49 874.095 2576.29 874.095 Q2572.47 874.095 2570.39 875.576 Q2568.33 877.058 2568.33 879.789 Q2568.33 882.081 2569.69 883.261 Q2571.08 884.419 2574.92 885.136 L2577.75 885.715 Q2582.98 886.71 2585.46 889.233 Q2587.96 891.733 2587.96 895.946 Q2587.96 900.969 2584.58 903.562 Q2581.22 906.155 2574.72 906.155 Q2572.26 906.155 2569.49 905.599 Q2566.73 905.043 2563.77 903.956 L2563.77 899.141 Q2566.61 900.738 2569.35 901.548 Q2572.08 902.358 2574.72 902.358 Q2578.72 902.358 2580.9 900.784 Q2583.07 899.21 2583.07 896.294 Q2583.07 893.747 2581.5 892.312 Q2579.95 890.877 2576.38 890.159 L2573.54 889.604 Q2568.3 888.562 2565.97 886.34 Q2563.63 884.118 2563.63 880.159 Q2563.63 875.576 2566.85 872.937 Q2570.09 870.298 2575.76 870.298 Q2578.19 870.298 2580.71 870.738 Q2583.23 871.178 2585.87 872.058 Z" fill="#000000" fill-rule="nonzero" fill-opacity="1" /><path clip-path="url(#clip020)" d="M2595.25 870.923 L2617.1 870.923 L2617.1 874.858 L2599.92 874.858 L2599.92 885.09 L2616.38 885.09 L2616.38 889.025 L2599.92 889.025 L2599.92 901.548 L2617.52 901.548 L2617.52 905.483 L2595.25 905.483 L2595.25 870.923 Z" fill="#000000" fill-rule="nonzero" fill-opacity="1" /><polyline clip-path="url(#clip022)" style="stroke:#000000; stroke-linecap:round; stroke-linejoin:round; stroke-width:2; stroke-opacity:0.1; fill:none" points="172.001,820.076 2640.76,820.076 "/>
<polyline clip-path="url(#clip022)" style="stroke:#000000; stroke-linecap:round; stroke-linejoin:round; stroke-width:2; stroke-opacity:0.1; fill:none" points="172.001,636.606 2640.76,636.606 "/>
<polyline clip-path="url(#clip022)" style="stroke:#000000; stroke-linecap:round; stroke-linejoin:round; stroke-width:2; stroke-opacity:0.1; fill:none" points="172.001,453.136 2640.76,453.136 "/>
<polyline clip-path="url(#clip022)" style="stroke:#000000; stroke-linecap:round; stroke-linejoin:round; stroke-width:2; stroke-opacity:0.1; fill:none" points="172.001,269.665 2640.76,269.665 "/>
<polyline clip-path="url(#clip020)" style="stroke:#000000; stroke-linecap:round; stroke-linejoin:round; stroke-width:4; stroke-opacity:1; fill:none" points="172.001,840.779 172.001,109.278 "/>
<polyline clip-path="url(#clip020)" style="stroke:#000000; stroke-linecap:round; stroke-linejoin:round; stroke-width:4; stroke-opacity:1; fill:none" points="172.001,820.076 190.899,820.076 "/>
<polyline clip-path="url(#clip020)" style="stroke:#000000; stroke-linecap:round; stroke-linejoin:round; stroke-width:4; stroke-opacity:1; fill:none" points="172.001,636.606 190.899,636.606 "/>
<polyline clip-path="url(#clip020)" style="stroke:#000000; stroke-linecap:round; stroke-linejoin:round; stroke-width:4; stroke-opacity:1; fill:none" points="172.001,453.136 190.899,453.136 "/>
<polyline clip-path="url(#clip020)" style="stroke:#000000; stroke-linecap:round; stroke-linejoin:round; stroke-width:4; stroke-opacity:1; fill:none" points="172.001,269.665 190.899,269.665 "/>
<path clip-path="url(#clip020)" d="M119.737 805.875 Q116.126 805.875 114.297 809.44 Q112.492 812.982 112.492 820.111 Q112.492 827.218 114.297 830.782 Q116.126 834.324 119.737 834.324 Q123.371 834.324 125.177 830.782 Q127.005 827.218 127.005 820.111 Q127.005 812.982 125.177 809.44 Q123.371 805.875 119.737 805.875 M119.737 802.171 Q125.547 802.171 128.603 806.778 Q131.681 811.361 131.681 820.111 Q131.681 828.838 128.603 833.444 Q125.547 838.028 119.737 838.028 Q113.927 838.028 110.848 833.444 Q107.793 828.838 107.793 820.111 Q107.793 811.361 110.848 806.778 Q113.927 802.171 119.737 802.171 Z" fill="#000000" fill-rule="nonzero" fill-opacity="1" /><path clip-path="url(#clip020)" d="M79.6214 619.326 L97.9778 619.326 L97.9778 623.261 L83.9038 623.261 L83.9038 631.733 Q84.9223 631.386 85.9408 631.224 Q86.9593 631.039 87.9778 631.039 Q93.7649 631.039 97.1445 634.21 Q100.524 637.381 100.524 642.798 Q100.524 648.377 97.0519 651.479 Q93.5797 654.557 87.2603 654.557 Q85.0843 654.557 82.8158 654.187 Q80.5705 653.817 78.1631 653.076 L78.1631 648.377 Q80.2464 649.511 82.4686 650.067 Q84.6908 650.622 87.1677 650.622 Q91.1723 650.622 93.5102 648.516 Q95.8482 646.409 95.8482 642.798 Q95.8482 639.187 93.5102 637.081 Q91.1723 634.974 87.1677 634.974 Q85.2927 634.974 83.4177 635.391 Q81.5658 635.807 79.6214 636.687 L79.6214 619.326 Z" fill="#000000" fill-rule="nonzero" fill-opacity="1" /><path clip-path="url(#clip020)" d="M119.737 622.405 Q116.126 622.405 114.297 625.97 Q112.492 629.511 112.492 636.641 Q112.492 643.747 114.297 647.312 Q116.126 650.854 119.737 650.854 Q123.371 650.854 125.177 647.312 Q127.005 643.747 127.005 636.641 Q127.005 629.511 125.177 625.97 Q123.371 622.405 119.737 622.405 M119.737 618.701 Q125.547 618.701 128.603 623.307 Q131.681 627.891 131.681 636.641 Q131.681 645.368 128.603 649.974 Q125.547 654.557 119.737 654.557 Q113.927 654.557 110.848 649.974 Q107.793 645.368 107.793 636.641 Q107.793 627.891 110.848 623.307 Q113.927 618.701 119.737 618.701 Z" fill="#000000" fill-rule="nonzero" fill-opacity="1" /><path clip-path="url(#clip020)" d="M50.2234 466.48 L57.8623 466.48 L57.8623 440.115 L49.5521 441.782 L49.5521 437.522 L57.816 435.856 L62.4919 435.856 L62.4919 466.48 L70.1307 466.48 L70.1307 470.416 L50.2234 470.416 L50.2234 466.48 Z" fill="#000000" fill-rule="nonzero" fill-opacity="1" /><path clip-path="url(#clip020)" d="M89.5751 438.934 Q85.964 438.934 84.1353 442.499 Q82.3297 446.041 82.3297 453.17 Q82.3297 460.277 84.1353 463.842 Q85.964 467.383 89.5751 467.383 Q93.2093 467.383 95.0148 463.842 Q96.8435 460.277 96.8435 453.17 Q96.8435 446.041 95.0148 442.499 Q93.2093 438.934 89.5751 438.934 M89.5751 435.231 Q95.3852 435.231 98.4408 439.837 Q101.519 444.42 101.519 453.17 Q101.519 461.897 98.4408 466.504 Q95.3852 471.087 89.5751 471.087 Q83.7649 471.087 80.6862 466.504 Q77.6307 461.897 77.6307 453.17 Q77.6307 444.42 80.6862 439.837 Q83.7649 435.231 89.5751 435.231 Z" fill="#000000" fill-rule="nonzero" fill-opacity="1" /><path clip-path="url(#clip020)" d="M119.737 438.934 Q116.126 438.934 114.297 442.499 Q112.492 446.041 112.492 453.17 Q112.492 460.277 114.297 463.842 Q116.126 467.383 119.737 467.383 Q123.371 467.383 125.177 463.842 Q127.005 460.277 127.005 453.17 Q127.005 446.041 125.177 442.499 Q123.371 438.934 119.737 438.934 M119.737 435.231 Q125.547 435.231 128.603 439.837 Q131.681 444.42 131.681 453.17 Q131.681 461.897 128.603 466.504 Q125.547 471.087 119.737 471.087 Q113.927 471.087 110.848 466.504 Q107.793 461.897 107.793 453.17 Q107.793 444.42 110.848 439.837 Q113.927 435.231 119.737 435.231 Z" fill="#000000" fill-rule="nonzero" fill-opacity="1" /><path clip-path="url(#clip020)" d="M50.2234 283.01 L57.8623 283.01 L57.8623 256.644 L49.5521 258.311 L49.5521 254.052 L57.816 252.385 L62.4919 252.385 L62.4919 283.01 L70.1307 283.01 L70.1307 286.945 L50.2234 286.945 L50.2234 283.01 Z" fill="#000000" fill-rule="nonzero" fill-opacity="1" /><path clip-path="url(#clip020)" d="M79.6214 252.385 L97.9778 252.385 L97.9778 256.32 L83.9038 256.32 L83.9038 264.793 Q84.9223 264.445 85.9408 264.283 Q86.9593 264.098 87.9778 264.098 Q93.7649 264.098 97.1445 267.269 Q100.524 270.441 100.524 275.857 Q100.524 281.436 97.0519 284.538 Q93.5797 287.616 87.2603 287.616 Q85.0843 287.616 82.8158 287.246 Q80.5705 286.876 78.1631 286.135 L78.1631 281.436 Q80.2464 282.57 82.4686 283.126 Q84.6908 283.681 87.1677 283.681 Q91.1723 283.681 93.5102 281.575 Q95.8482 279.468 95.8482 275.857 Q95.8482 272.246 93.5102 270.14 Q91.1723 268.033 87.1677 268.033 Q85.2927 268.033 83.4177 268.45 Q81.5658 268.867 79.6214 269.746 L79.6214 252.385 Z" fill="#000000" fill-rule="nonzero" fill-opacity="1" /><path clip-path="url(#clip020)" d="M119.737 255.464 Q116.126 255.464 114.297 259.029 Q112.492 262.57 112.492 269.7 Q112.492 276.806 114.297 280.371 Q116.126 283.913 119.737 283.913 Q123.371 283.913 125.177 280.371 Q127.005 276.806 127.005 269.7 Q127.005 262.57 125.177 259.029 Q123.371 255.464 119.737 255.464 M119.737 251.76 Q125.547 251.76 128.603 256.367 Q131.681 260.95 131.681 269.7 Q131.681 278.427 128.603 283.033 Q125.547 287.616 119.737 287.616 Q113.927 287.616 110.848 283.033 Q107.793 278.427 107.793 269.7 Q107.793 260.95 110.848 256.367 Q113.927 251.76 119.737 251.76 Z" fill="#000000" fill-rule="nonzero" fill-opacity="1" /><path clip-path="url(#clip020)" d="M1134.03 8.64 L1140.31 8.64 L1151.04 24.6989 L1161.83 8.64 L1168.11 8.64 L1154.22 29.3864 L1169.04 51.84 L1162.76 51.84 L1150.61 33.4663 L1138.37 51.84 L1132.06 51.84 L1147.48 28.7788 L1134.03 8.64 Z" fill="#000000" fill-rule="nonzero" fill-opacity="1" /><path clip-path="url(#clip020)" d="M1214.26 28.2001 L1214.26 33.3505 Q1211.23 35.6364 1208.62 36.6202 Q1206.05 37.604 1203.24 37.604 Q1200.06 37.604 1195.83 35.8968 Q1195.51 35.7811 1195.37 35.7232 Q1195.17 35.6364 1194.73 35.4917 Q1190.25 33.6977 1187.53 33.6977 Q1184.98 33.6977 1182.49 34.8262 Q1180.01 35.9257 1177.17 38.3273 L1177.17 33.1769 Q1180.21 30.891 1182.78 29.9072 Q1185.39 28.8945 1188.19 28.8945 Q1191.38 28.8945 1195.63 30.6306 Q1195.92 30.7464 1196.06 30.8042 Q1196.3 30.891 1196.7 31.0357 Q1201.19 32.8297 1203.91 32.8297 Q1206.39 32.8297 1208.82 31.7302 Q1211.28 30.6306 1214.26 28.2001 Z" fill="#000000" fill-rule="nonzero" fill-opacity="1" /><path clip-path="url(#clip020)" d="M1232.2 13.4432 L1232.2 29.6758 L1239.55 29.6758 Q1243.63 29.6758 1245.86 27.5635 Q1248.09 25.4513 1248.09 21.545 Q1248.09 17.6677 1245.86 15.5555 Q1243.63 13.4432 1239.55 13.4432 L1232.2 13.4432 M1226.36 8.64 L1239.55 8.64 Q1246.82 8.64 1250.52 11.9386 Q1254.25 15.2083 1254.25 21.545 Q1254.25 27.9397 1250.52 31.2093 Q1246.82 34.479 1239.55 34.479 L1232.2 34.479 L1232.2 51.84 L1226.36 51.84 L1226.36 8.64 Z" fill="#000000" fill-rule="nonzero" fill-opacity="1" /><path clip-path="url(#clip020)" d="M1273.93 35.5496 Q1267.48 35.5496 1264.99 37.0253 Q1262.5 38.501 1262.5 42.06 Q1262.5 44.8956 1264.35 46.5738 Q1266.23 48.2231 1269.44 48.2231 Q1273.87 48.2231 1276.53 45.0981 Q1279.22 41.9442 1279.22 36.7359 L1279.22 35.5496 L1273.93 35.5496 M1284.55 33.3505 L1284.55 51.84 L1279.22 51.84 L1279.22 46.921 Q1277.4 49.8724 1274.68 51.2902 Q1271.96 52.6791 1268.03 52.6791 Q1263.05 52.6791 1260.1 49.9014 Q1257.18 47.0947 1257.18 42.4072 Q1257.18 36.9385 1260.82 34.1607 Q1264.5 31.3829 1271.76 31.3829 L1279.22 31.3829 L1279.22 30.8621 Q1279.22 27.1874 1276.79 25.1908 Q1274.39 23.1654 1270.02 23.1654 Q1267.24 23.1654 1264.61 23.8309 Q1261.98 24.4964 1259.55 25.8274 L1259.55 20.9085 Q1262.47 19.78 1265.22 19.2302 Q1267.97 18.6515 1270.57 18.6515 Q1277.6 18.6515 1281.08 22.2973 Q1284.55 25.9431 1284.55 33.3505 Z" fill="#000000" fill-rule="nonzero" fill-opacity="1" /><path clip-path="url(#clip020)" d="M1314.29 24.4096 Q1313.4 23.8888 1312.33 23.6573 Q1311.28 23.3969 1310.01 23.3969 Q1305.5 23.3969 1303.07 26.3482 Q1300.66 29.2707 1300.66 34.7683 L1300.66 51.84 L1295.31 51.84 L1295.31 19.4328 L1300.66 19.4328 L1300.66 24.4675 Q1302.34 21.5161 1305.03 20.0983 Q1307.72 18.6515 1311.57 18.6515 Q1312.12 18.6515 1312.79 18.7383 Q1313.45 18.7962 1314.26 18.9409 L1314.29 24.4096 Z" fill="#000000" fill-rule="nonzero" fill-opacity="1" /><path clip-path="url(#clip020)" d="M1346.3 34.3054 L1346.3 36.9095 L1321.82 36.9095 Q1322.16 42.4072 1325.11 45.3007 Q1328.09 48.1653 1333.39 48.1653 Q1336.46 48.1653 1339.32 47.4129 Q1342.22 46.6606 1345.05 45.156 L1345.05 50.1907 Q1342.19 51.406 1339.18 52.0425 Q1336.17 52.6791 1333.07 52.6791 Q1325.32 52.6791 1320.77 48.1653 Q1316.26 43.6514 1316.26 35.9547 Q1316.26 27.9975 1320.54 23.339 Q1324.85 18.6515 1332.15 18.6515 Q1338.69 18.6515 1342.48 22.876 Q1346.3 27.0716 1346.3 34.3054 M1340.97 32.7429 Q1340.91 28.3737 1338.51 25.7695 Q1336.14 23.1654 1332.2 23.1654 Q1327.75 23.1654 1325.06 25.6827 Q1322.39 28.2001 1321.99 32.7718 L1340.97 32.7429 Z" fill="#000000" fill-rule="nonzero" fill-opacity="1" /><path clip-path="url(#clip020)" d="M1360.3 10.2314 L1360.3 19.4328 L1371.27 19.4328 L1371.27 23.5705 L1360.3 23.5705 L1360.3 41.163 Q1360.3 45.1271 1361.37 46.2555 Q1362.47 47.384 1365.8 47.384 L1371.27 47.384 L1371.27 51.84 L1365.8 51.84 Q1359.63 51.84 1357.29 49.5541 Q1354.95 47.2393 1354.95 41.163 L1354.95 23.5705 L1351.04 23.5705 L1351.04 19.4328 L1354.95 19.4328 L1354.95 10.2314 L1360.3 10.2314 Z" fill="#000000" fill-rule="nonzero" fill-opacity="1" /><path clip-path="url(#clip020)" d="M1390.83 23.1654 Q1386.54 23.1654 1384.06 26.5218 Q1381.57 29.8494 1381.57 35.6653 Q1381.57 41.4813 1384.03 44.8377 Q1386.51 48.1653 1390.83 48.1653 Q1395.08 48.1653 1397.57 44.8088 Q1400.06 41.4523 1400.06 35.6653 Q1400.06 29.9072 1397.57 26.5508 Q1395.08 23.1654 1390.83 23.1654 M1390.83 18.6515 Q1397.77 18.6515 1401.73 23.1654 Q1405.7 27.6792 1405.7 35.6653 Q1405.7 43.6225 1401.73 48.1653 Q1397.77 52.6791 1390.83 52.6791 Q1383.85 52.6791 1379.89 48.1653 Q1375.95 43.6225 1375.95 35.6653 Q1375.95 27.6792 1379.89 23.1654 Q1383.85 18.6515 1390.83 18.6515 Z" fill="#000000" fill-rule="nonzero" fill-opacity="1" /><path clip-path="url(#clip020)" d="M1415.88 44.4905 L1421.99 44.4905 L1421.99 49.4673 L1417.24 58.7265 L1413.51 58.7265 L1415.88 49.4673 L1415.88 44.4905 Z" fill="#000000" fill-rule="nonzero" fill-opacity="1" /><path clip-path="url(#clip020)" d="M1479.14 32.2799 L1479.14 51.84 L1473.81 51.84 L1473.81 32.4535 Q1473.81 27.8529 1472.02 25.567 Q1470.22 23.2811 1466.64 23.2811 Q1462.32 23.2811 1459.84 26.03 Q1457.35 28.7788 1457.35 33.5241 L1457.35 51.84 L1451.99 51.84 L1451.99 19.4328 L1457.35 19.4328 L1457.35 24.4675 Q1459.26 21.545 1461.83 20.0983 Q1464.44 18.6515 1467.82 18.6515 Q1473.41 18.6515 1476.27 22.1237 Q1479.14 25.567 1479.14 32.2799 Z" fill="#000000" fill-rule="nonzero" fill-opacity="1" /><path clip-path="url(#clip020)" d="M1490.45 24.9304 L1527.54 24.9304 L1527.54 29.7915 L1490.45 29.7915 L1490.45 24.9304 M1490.45 36.7359 L1527.54 36.7359 L1527.54 41.6549 L1490.45 41.6549 L1490.45 36.7359 Z" fill="#000000" fill-rule="nonzero" fill-opacity="1" /><path clip-path="url(#clip020)" d="M1541.17 46.921 L1550.72 46.921 L1550.72 13.964 L1540.33 16.0474 L1540.33 10.7233 L1550.66 8.64 L1556.51 8.64 L1556.51 46.921 L1566.06 46.921 L1566.06 51.84 L1541.17 51.84 L1541.17 46.921 Z" fill="#000000" fill-rule="nonzero" fill-opacity="1" /><path clip-path="url(#clip020)" d="M1590.36 12.4884 Q1585.85 12.4884 1583.56 16.9444 Q1581.31 21.3714 1581.31 30.2834 Q1581.31 39.1665 1583.56 43.6225 Q1585.85 48.0495 1590.36 48.0495 Q1594.9 48.0495 1597.16 43.6225 Q1599.45 39.1665 1599.45 30.2834 Q1599.45 21.3714 1597.16 16.9444 Q1594.9 12.4884 1590.36 12.4884 M1590.36 7.85875 Q1597.62 7.85875 1601.44 13.6168 Q1605.29 19.346 1605.29 30.2834 Q1605.29 41.1919 1601.44 46.95 Q1597.62 52.6791 1590.36 52.6791 Q1583.1 52.6791 1579.25 46.95 Q1575.43 41.1919 1575.43 30.2834 Q1575.43 19.346 1579.25 13.6168 Q1583.1 7.85875 1590.36 7.85875 Z" fill="#000000" fill-rule="nonzero" fill-opacity="1" /><path clip-path="url(#clip020)" d="M1628.06 12.4884 Q1623.55 12.4884 1621.26 16.9444 Q1619.01 21.3714 1619.01 30.2834 Q1619.01 39.1665 1621.26 43.6225 Q1623.55 48.0495 1628.06 48.0495 Q1632.61 48.0495 1634.86 43.6225 Q1637.15 39.1665 1637.15 30.2834 Q1637.15 21.3714 1634.86 16.9444 Q1632.61 12.4884 1628.06 12.4884 M1628.06 7.85875 Q1635.33 7.85875 1639.15 13.6168 Q1642.99 19.346 1642.99 30.2834 Q1642.99 41.1919 1639.15 46.95 Q1635.33 52.6791 1628.06 52.6791 Q1620.8 52.6791 1616.95 46.95 Q1613.13 41.1919 1613.13 30.2834 Q1613.13 19.346 1616.95 13.6168 Q1620.8 7.85875 1628.06 7.85875 Z" fill="#000000" fill-rule="nonzero" fill-opacity="1" /><path clip-path="url(#clip020)" d="M1665.77 12.4884 Q1661.25 12.4884 1658.97 16.9444 Q1656.71 21.3714 1656.71 30.2834 Q1656.71 39.1665 1658.97 43.6225 Q1661.25 48.0495 1665.77 48.0495 Q1670.31 48.0495 1672.57 43.6225 Q1674.85 39.1665 1674.85 30.2834 Q1674.85 21.3714 1672.57 16.9444 Q1670.31 12.4884 1665.77 12.4884 M1665.77 7.85875 Q1673.03 7.85875 1676.85 13.6168 Q1680.7 19.346 1680.7 30.2834 Q1680.7 41.1919 1676.85 46.95 Q1673.03 52.6791 1665.77 52.6791 Q1658.5 52.6791 1654.66 46.95 Q1650.84 41.1919 1650.84 30.2834 Q1650.84 19.346 1654.66 13.6168 Q1658.5 7.85875 1665.77 7.85875 Z" fill="#000000" fill-rule="nonzero" fill-opacity="1" /><polyline clip-path="url(#clip022)" style="stroke:#009af9; stroke-linecap:round; stroke-linejoin:round; stroke-width:0; stroke-opacity:1; fill:none" points="241.872,819.715 1406.38,130.204 2570.89,129.981 "/>
<circle clip-path="url(#clip022)" cx="241.872" cy="819.715" r="14.4" fill="#009af9" fill-rule="evenodd" fill-opacity="1" stroke="#000000" stroke-opacity="1" stroke-width="3.84"/>
<circle clip-path="url(#clip022)" cx="1406.38" cy="130.204" r="14.4" fill="#009af9" fill-rule="evenodd" fill-opacity="1" stroke="#000000" stroke-opacity="1" stroke-width="3.84"/>
<circle clip-path="url(#clip022)" cx="2570.89" cy="129.981" r="14.4" fill="#009af9" fill-rule="evenodd" fill-opacity="1" stroke="#000000" stroke-opacity="1" stroke-width="3.84"/>
<polyline clip-path="url(#clip022)" style="stroke:#e26f46; stroke-linecap:round; stroke-linejoin:round; stroke-width:0; stroke-opacity:1; fill:none" points="241.872,819.846 1406.38,764.034 2570.89,763.815 "/>
<circle clip-path="url(#clip022)" cx="241.872" cy="819.846" r="14.4" fill="#e26f46" fill-rule="evenodd" fill-opacity="1" stroke="#000000" stroke-opacity="1" stroke-width="3.84"/>
<circle clip-path="url(#clip022)" cx="1406.38" cy="764.034" r="14.4" fill="#e26f46" fill-rule="evenodd" fill-opacity="1" stroke="#000000" stroke-opacity="1" stroke-width="3.84"/>
<circle clip-path="url(#clip022)" cx="2570.89" cy="763.815" r="14.4" fill="#e26f46" fill-rule="evenodd" fill-opacity="1" stroke="#000000" stroke-opacity="1" stroke-width="3.84"/>
<polyline clip-path="url(#clip022)" style="stroke:#3da44d; stroke-linecap:round; stroke-linejoin:round; stroke-width:0; stroke-opacity:1; fill:none" points="241.872,817.534 1406.38,686.653 2570.89,684.136 "/>
<circle clip-path="url(#clip022)" cx="241.872" cy="817.534" r="14.4" fill="#3da44d" fill-rule="evenodd" fill-opacity="1" stroke="#000000" stroke-opacity="1" stroke-width="3.84"/>
<circle clip-path="url(#clip022)" cx="1406.38" cy="686.653" r="14.4" fill="#3da44d" fill-rule="evenodd" fill-opacity="1" stroke="#000000" stroke-opacity="1" stroke-width="3.84"/>
<circle clip-path="url(#clip022)" cx="2570.89" cy="684.136" r="14.4" fill="#3da44d" fill-rule="evenodd" fill-opacity="1" stroke="#000000" stroke-opacity="1" stroke-width="3.84"/>
<polyline clip-path="url(#clip022)" style="stroke:#000000; stroke-linecap:round; stroke-linejoin:round; stroke-width:4; stroke-opacity:1; fill:none" points="-2296.75,820.076 5109.51,820.076 "/>
<path clip-path="url(#clip020)" d="M254.293 341.021 L943.435 341.021 L943.435 133.661 L254.293 133.661  Z" fill="#ffffff" fill-rule="evenodd" fill-opacity="1"/>
<polyline clip-path="url(#clip020)" style="stroke:#000000; stroke-linecap:round; stroke-linejoin:round; stroke-width:4; stroke-opacity:1; fill:none" points="254.293,341.021 943.435,341.021 943.435,133.661 254.293,133.661 254.293,341.021 "/>
<polyline clip-path="url(#clip020)" style="stroke:#009af9; stroke-linecap:round; stroke-linejoin:round; stroke-width:0.8; stroke-opacity:1; fill:none" points="281.724,185.501 446.307,185.501 "/>
<circle clip-path="url(#clip020)" cx="364.016" cy="185.501" r="20.48" fill="#009af9" fill-rule="evenodd" fill-opacity="1" stroke="#000000" stroke-opacity="1" stroke-width="5.46133"/>
<path clip-path="url(#clip020)" d="M495.983 169.355 L495.983 173.916 Q493.321 172.642 490.96 172.017 Q488.599 171.393 486.4 171.393 Q482.581 171.393 480.497 172.874 Q478.437 174.355 478.437 177.087 Q478.437 179.379 479.803 180.559 Q481.192 181.717 485.034 182.434 L487.858 183.013 Q493.09 184.008 495.567 186.531 Q498.067 189.031 498.067 193.244 Q498.067 198.267 494.687 200.86 Q491.33 203.453 484.826 203.453 Q482.372 203.453 479.594 202.897 Q476.84 202.341 473.877 201.253 L473.877 196.439 Q476.724 198.036 479.456 198.846 Q482.187 199.656 484.826 199.656 Q488.83 199.656 491.006 198.082 Q493.182 196.508 493.182 193.591 Q493.182 191.045 491.608 189.61 Q490.057 188.175 486.493 187.457 L483.645 186.902 Q478.414 185.86 476.076 183.638 Q473.738 181.416 473.738 177.457 Q473.738 172.874 476.956 170.235 Q480.196 167.596 485.868 167.596 Q488.298 167.596 490.821 168.036 Q493.344 168.476 495.983 169.355 Z" fill="#000000" fill-rule="nonzero" fill-opacity="1" /><path clip-path="url(#clip020)" d="M516.955 189.749 Q511.793 189.749 509.803 190.929 Q507.812 192.11 507.812 194.957 Q507.812 197.226 509.293 198.568 Q510.798 199.888 513.367 199.888 Q516.909 199.888 519.039 197.388 Q521.191 194.865 521.191 190.698 L521.191 189.749 L516.955 189.749 M525.451 187.99 L525.451 202.781 L521.191 202.781 L521.191 198.846 Q519.733 201.207 517.557 202.341 Q515.381 203.453 512.233 203.453 Q508.252 203.453 505.891 201.23 Q503.553 198.985 503.553 195.235 Q503.553 190.86 506.469 188.638 Q509.409 186.416 515.219 186.416 L521.191 186.416 L521.191 185.999 Q521.191 183.059 519.247 181.462 Q517.326 179.842 513.83 179.842 Q511.608 179.842 509.502 180.374 Q507.395 180.906 505.451 181.971 L505.451 178.036 Q507.789 177.133 509.988 176.693 Q512.187 176.23 514.27 176.23 Q519.895 176.23 522.673 179.147 Q525.451 182.064 525.451 187.99 Z" fill="#000000" fill-rule="nonzero" fill-opacity="1" /><path clip-path="url(#clip020)" d="M554.409 181.832 Q556.006 178.962 558.228 177.596 Q560.45 176.23 563.46 176.23 Q567.511 176.23 569.71 179.078 Q571.909 181.902 571.909 187.133 L571.909 202.781 L567.626 202.781 L567.626 187.272 Q567.626 183.545 566.307 181.74 Q564.987 179.934 562.279 179.934 Q558.969 179.934 557.048 182.133 Q555.126 184.332 555.126 188.129 L555.126 202.781 L550.844 202.781 L550.844 187.272 Q550.844 183.522 549.525 181.74 Q548.205 179.934 545.451 179.934 Q542.187 179.934 540.265 182.156 Q538.344 184.355 538.344 188.129 L538.344 202.781 L534.062 202.781 L534.062 176.855 L538.344 176.855 L538.344 180.883 Q539.802 178.499 541.839 177.365 Q543.877 176.23 546.677 176.23 Q549.501 176.23 551.469 177.666 Q553.46 179.101 554.409 181.832 Z" fill="#000000" fill-rule="nonzero" fill-opacity="1" /><path clip-path="url(#clip020)" d="M584.524 198.892 L584.524 212.642 L580.242 212.642 L580.242 176.855 L584.524 176.855 L584.524 180.791 Q585.867 178.476 587.904 177.365 Q589.964 176.23 592.811 176.23 Q597.534 176.23 600.473 179.98 Q603.436 183.73 603.436 189.841 Q603.436 195.953 600.473 199.703 Q597.534 203.453 592.811 203.453 Q589.964 203.453 587.904 202.341 Q585.867 201.207 584.524 198.892 M599.015 189.841 Q599.015 185.142 597.071 182.48 Q595.149 179.795 591.77 179.795 Q588.39 179.795 586.446 182.48 Q584.524 185.142 584.524 189.841 Q584.524 194.541 586.446 197.226 Q588.39 199.888 591.77 199.888 Q595.149 199.888 597.071 197.226 Q599.015 194.541 599.015 189.841 Z" fill="#000000" fill-rule="nonzero" fill-opacity="1" /><path clip-path="url(#clip020)" d="M610.497 166.763 L614.756 166.763 L614.756 202.781 L610.497 202.781 L610.497 166.763 Z" fill="#000000" fill-rule="nonzero" fill-opacity="1" /><path clip-path="url(#clip020)" d="M645.844 188.754 L645.844 190.837 L626.26 190.837 Q626.538 195.235 628.899 197.55 Q631.283 199.841 635.52 199.841 Q637.973 199.841 640.265 199.24 Q642.58 198.638 644.848 197.434 L644.848 201.462 Q642.557 202.434 640.149 202.943 Q637.742 203.453 635.265 203.453 Q629.061 203.453 625.427 199.841 Q621.816 196.23 621.816 190.073 Q621.816 183.707 625.242 179.98 Q628.691 176.23 634.524 176.23 Q639.756 176.23 642.788 179.61 Q645.844 182.967 645.844 188.754 M641.584 187.504 Q641.538 184.008 639.617 181.925 Q637.719 179.842 634.57 179.842 Q631.006 179.842 628.853 181.855 Q626.723 183.869 626.399 187.527 L641.584 187.504 Z" fill="#000000" fill-rule="nonzero" fill-opacity="1" /><path clip-path="url(#clip020)" d="M668.089 168.221 L675.056 168.221 L683.876 191.74 L692.741 168.221 L699.709 168.221 L699.709 202.781 L695.149 202.781 L695.149 172.434 L686.237 196.138 L681.538 196.138 L672.626 172.434 L672.626 202.781 L668.089 202.781 L668.089 168.221 Z" fill="#000000" fill-rule="nonzero" fill-opacity="1" /><path clip-path="url(#clip020)" d="M730.982 188.754 L730.982 190.837 L711.399 190.837 Q711.677 195.235 714.038 197.55 Q716.422 199.841 720.658 199.841 Q723.112 199.841 725.403 199.24 Q727.718 198.638 729.987 197.434 L729.987 201.462 Q727.695 202.434 725.288 202.943 Q722.88 203.453 720.403 203.453 Q714.2 203.453 710.565 199.841 Q706.954 196.23 706.954 190.073 Q706.954 183.707 710.38 179.98 Q713.829 176.23 719.663 176.23 Q724.894 176.23 727.926 179.61 Q730.982 182.967 730.982 188.754 M726.723 187.504 Q726.676 184.008 724.755 181.925 Q722.857 179.842 719.709 179.842 Q716.144 179.842 713.991 181.855 Q711.862 183.869 711.538 187.527 L726.723 187.504 Z" fill="#000000" fill-rule="nonzero" fill-opacity="1" /><path clip-path="url(#clip020)" d="M749.755 189.749 Q744.593 189.749 742.602 190.929 Q740.612 192.11 740.612 194.957 Q740.612 197.226 742.093 198.568 Q743.598 199.888 746.167 199.888 Q749.709 199.888 751.838 197.388 Q753.991 194.865 753.991 190.698 L753.991 189.749 L749.755 189.749 M758.25 187.99 L758.25 202.781 L753.991 202.781 L753.991 198.846 Q752.533 201.207 750.357 202.341 Q748.181 203.453 745.033 203.453 Q741.051 203.453 738.69 201.23 Q736.352 198.985 736.352 195.235 Q736.352 190.86 739.269 188.638 Q742.209 186.416 748.019 186.416 L753.991 186.416 L753.991 185.999 Q753.991 183.059 752.047 181.462 Q750.125 179.842 746.63 179.842 Q744.408 179.842 742.301 180.374 Q740.195 180.906 738.25 181.971 L738.25 178.036 Q740.588 177.133 742.787 176.693 Q744.987 176.23 747.07 176.23 Q752.695 176.23 755.473 179.147 Q758.25 182.064 758.25 187.99 Z" fill="#000000" fill-rule="nonzero" fill-opacity="1" /><path clip-path="url(#clip020)" d="M788.574 187.133 L788.574 202.781 L784.315 202.781 L784.315 187.272 Q784.315 183.592 782.88 181.763 Q781.445 179.934 778.574 179.934 Q775.125 179.934 773.135 182.133 Q771.144 184.332 771.144 188.129 L771.144 202.781 L766.861 202.781 L766.861 176.855 L771.144 176.855 L771.144 180.883 Q772.672 178.545 774.732 177.388 Q776.815 176.23 779.523 176.23 Q783.991 176.23 786.283 179.008 Q788.574 181.763 788.574 187.133 Z" fill="#000000" fill-rule="nonzero" fill-opacity="1" /><path clip-path="url(#clip020)" d="M819.708 168.221 L823.644 168.221 L811.607 207.179 L807.671 207.179 L819.708 168.221 Z" fill="#000000" fill-rule="nonzero" fill-opacity="1" /><path clip-path="url(#clip020)" d="M852.278 202.781 L839.083 168.221 L843.967 168.221 L854.917 197.318 L865.889 168.221 L870.75 168.221 L857.579 202.781 L852.278 202.781 Z" fill="#000000" fill-rule="nonzero" fill-opacity="1" /><path clip-path="url(#clip020)" d="M883.713 189.749 Q878.551 189.749 876.56 190.929 Q874.569 192.11 874.569 194.957 Q874.569 197.226 876.051 198.568 Q877.555 199.888 880.125 199.888 Q883.666 199.888 885.796 197.388 Q887.949 194.865 887.949 190.698 L887.949 189.749 L883.713 189.749 M892.208 187.99 L892.208 202.781 L887.949 202.781 L887.949 198.846 Q886.49 201.207 884.314 202.341 Q882.139 203.453 878.99 203.453 Q875.009 203.453 872.648 201.23 Q870.31 198.985 870.31 195.235 Q870.31 190.86 873.227 188.638 Q876.166 186.416 881.977 186.416 L887.949 186.416 L887.949 185.999 Q887.949 183.059 886.004 181.462 Q884.083 179.842 880.588 179.842 Q878.365 179.842 876.259 180.374 Q874.153 180.906 872.208 181.971 L872.208 178.036 Q874.546 177.133 876.745 176.693 Q878.944 176.23 881.027 176.23 Q886.652 176.23 889.43 179.147 Q892.208 182.064 892.208 187.99 Z" fill="#000000" fill-rule="nonzero" fill-opacity="1" /><path clip-path="url(#clip020)" d="M916.004 180.837 Q915.287 180.42 914.43 180.235 Q913.597 180.027 912.578 180.027 Q908.967 180.027 907.023 182.388 Q905.101 184.726 905.101 189.124 L905.101 202.781 L900.819 202.781 L900.819 176.855 L905.101 176.855 L905.101 180.883 Q906.444 178.522 908.597 177.388 Q910.75 176.23 913.828 176.23 Q914.268 176.23 914.8 176.3 Q915.333 176.346 915.981 176.462 L916.004 180.837 Z" fill="#000000" fill-rule="nonzero" fill-opacity="1" /><polyline clip-path="url(#clip020)" style="stroke:#e26f46; stroke-linecap:round; stroke-linejoin:round; stroke-width:0.8; stroke-opacity:1; fill:none" points="281.724,237.341 446.307,237.341 "/>
<circle clip-path="url(#clip020)" cx="364.016" cy="237.341" r="20.48" fill="#e26f46" fill-rule="evenodd" fill-opacity="1" stroke="#000000" stroke-opacity="1" stroke-width="5.46133"/>
<path clip-path="url(#clip020)" d="M473.738 220.061 L478.414 220.061 L478.414 234.228 L495.405 234.228 L495.405 220.061 L500.08 220.061 L500.08 254.621 L495.405 254.621 L495.405 238.163 L478.414 238.163 L478.414 254.621 L473.738 254.621 L473.738 220.061 Z" fill="#000000" fill-rule="nonzero" fill-opacity="1" /><path clip-path="url(#clip020)" d="M509.201 228.695 L513.46 228.695 L513.46 254.621 L509.201 254.621 L509.201 228.695 M509.201 218.603 L513.46 218.603 L513.46 223.996 L509.201 223.996 L509.201 218.603 Z" fill="#000000" fill-rule="nonzero" fill-opacity="1" /><path clip-path="url(#clip020)" d="M522.372 218.603 L526.631 218.603 L526.631 254.621 L522.372 254.621 L522.372 218.603 Z" fill="#000000" fill-rule="nonzero" fill-opacity="1" /><path clip-path="url(#clip020)" d="M535.543 218.603 L539.802 218.603 L539.802 254.621 L535.543 254.621 L535.543 218.603 Z" fill="#000000" fill-rule="nonzero" fill-opacity="1" /><polyline clip-path="url(#clip020)" style="stroke:#3da44d; stroke-linecap:round; stroke-linejoin:round; stroke-width:0.8; stroke-opacity:1; fill:none" points="281.724,289.181 446.307,289.181 "/>
<circle clip-path="url(#clip020)" cx="364.016" cy="289.181" r="20.48" fill="#3da44d" fill-rule="evenodd" fill-opacity="1" stroke="#000000" stroke-opacity="1" stroke-width="5.46133"/>
<path clip-path="url(#clip020)" d="M499.293 301.531 L499.293 292.248 L491.655 292.248 L491.655 288.406 L503.923 288.406 L503.923 303.244 Q501.215 305.165 497.951 306.16 Q494.687 307.133 490.983 307.133 Q482.881 307.133 478.298 302.41 Q473.738 297.665 473.738 289.216 Q473.738 280.744 478.298 276.022 Q482.881 271.276 490.983 271.276 Q494.363 271.276 497.395 272.11 Q500.451 272.943 503.02 274.563 L503.02 279.54 Q500.428 277.341 497.511 276.23 Q494.594 275.119 491.377 275.119 Q485.034 275.119 481.84 278.66 Q478.669 282.202 478.669 289.216 Q478.669 296.207 481.84 299.748 Q485.034 303.29 491.377 303.29 Q493.854 303.29 495.798 302.873 Q497.742 302.433 499.293 301.531 Z" fill="#000000" fill-rule="nonzero" fill-opacity="1" /><path clip-path="url(#clip020)" d="M517.141 275.744 L517.141 288.73 L523.02 288.73 Q526.284 288.73 528.066 287.04 Q529.849 285.35 529.849 282.225 Q529.849 279.123 528.066 277.434 Q526.284 275.744 523.02 275.744 L517.141 275.744 M512.465 271.901 L523.02 271.901 Q528.83 271.901 531.793 274.54 Q534.779 277.156 534.779 282.225 Q534.779 287.341 531.793 289.957 Q528.83 292.572 523.02 292.572 L517.141 292.572 L517.141 306.461 L512.465 306.461 L512.465 271.901 Z" fill="#000000" fill-rule="nonzero" fill-opacity="1" /><path clip-path="url(#clip020)" d="M545.728 275.744 L545.728 302.619 L551.376 302.619 Q558.529 302.619 561.839 299.378 Q565.173 296.137 565.173 289.147 Q565.173 282.202 561.839 278.985 Q558.529 275.744 551.376 275.744 L545.728 275.744 M541.052 271.901 L550.659 271.901 Q560.705 271.901 565.404 276.091 Q570.103 280.258 570.103 289.147 Q570.103 298.082 565.381 302.271 Q560.659 306.461 550.659 306.461 L541.052 306.461 L541.052 271.901 Z" fill="#000000" fill-rule="nonzero" fill-opacity="1" /><path clip-path="url(#clip020)" d="M172.001 1800.78 L2640.76 1800.78 L2640.76 1069.28 L172.001 1069.28  Z" fill="#ffffff" fill-rule="evenodd" fill-opacity="1"/>
<defs>
  <clipPath id="clip023">
    <rect x="172" y="1069" width="2470" height="733"/>
  </clipPath>
</defs>
<polyline clip-path="url(#clip023)" style="stroke:#000000; stroke-linecap:round; stroke-linejoin:round; stroke-width:2; stroke-opacity:0.1; fill:none" points="241.872,1800.78 241.872,1069.28 "/>
<polyline clip-path="url(#clip023)" style="stroke:#000000; stroke-linecap:round; stroke-linejoin:round; stroke-width:2; stroke-opacity:0.1; fill:none" points="1406.38,1800.78 1406.38,1069.28 "/>
<polyline clip-path="url(#clip023)" style="stroke:#000000; stroke-linecap:round; stroke-linejoin:round; stroke-width:2; stroke-opacity:0.1; fill:none" points="2570.89,1800.78 2570.89,1069.28 "/>
<polyline clip-path="url(#clip020)" style="stroke:#000000; stroke-linecap:round; stroke-linejoin:round; stroke-width:4; stroke-opacity:1; fill:none" points="172.001,1800.78 2640.76,1800.78 "/>
<polyline clip-path="url(#clip020)" style="stroke:#000000; stroke-linecap:round; stroke-linejoin:round; stroke-width:4; stroke-opacity:1; fill:none" points="241.872,1800.78 241.872,1781.88 "/>
<polyline clip-path="url(#clip020)" style="stroke:#000000; stroke-linecap:round; stroke-linejoin:round; stroke-width:4; stroke-opacity:1; fill:none" points="1406.38,1800.78 1406.38,1781.88 "/>
<polyline clip-path="url(#clip020)" style="stroke:#000000; stroke-linecap:round; stroke-linejoin:round; stroke-width:4; stroke-opacity:1; fill:none" points="2570.89,1800.78 2570.89,1781.88 "/>
<path clip-path="url(#clip020)" d="M200.309 1848.98 L200.309 1861.64 L207.809 1861.64 Q211.583 1861.64 213.388 1860.09 Q215.217 1858.52 215.217 1855.3 Q215.217 1852.06 213.388 1850.53 Q211.583 1848.98 207.809 1848.98 L200.309 1848.98 M200.309 1834.77 L200.309 1845.18 L207.231 1845.18 Q210.657 1845.18 212.323 1843.91 Q214.013 1842.61 214.013 1839.97 Q214.013 1837.36 212.323 1836.06 Q210.657 1834.77 207.231 1834.77 L200.309 1834.77 M195.634 1830.92 L207.578 1830.92 Q212.925 1830.92 215.819 1833.15 Q218.712 1835.37 218.712 1839.46 Q218.712 1842.64 217.231 1844.51 Q215.749 1846.39 212.879 1846.85 Q216.328 1847.59 218.226 1849.95 Q220.147 1852.29 220.147 1855.81 Q220.147 1860.44 216.999 1862.96 Q213.851 1865.48 208.041 1865.48 L195.634 1865.48 L195.634 1830.92 Z" fill="#000000" fill-rule="nonzero" fill-opacity="1" /><path clip-path="url(#clip020)" d="M227.971 1839.56 L232.231 1839.56 L232.231 1865.48 L227.971 1865.48 L227.971 1839.56 M227.971 1829.46 L232.231 1829.46 L232.231 1834.86 L227.971 1834.86 L227.971 1829.46 Z" fill="#000000" fill-rule="nonzero" fill-opacity="1" /><path clip-path="url(#clip020)" d="M252.925 1852.45 Q247.763 1852.45 245.772 1853.63 Q243.781 1854.81 243.781 1857.66 Q243.781 1859.93 245.263 1861.27 Q246.768 1862.59 249.337 1862.59 Q252.879 1862.59 255.008 1860.09 Q257.161 1857.57 257.161 1853.4 L257.161 1852.45 L252.925 1852.45 M261.42 1850.69 L261.42 1865.48 L257.161 1865.48 L257.161 1861.55 Q255.703 1863.91 253.527 1865.04 Q251.351 1866.15 248.203 1866.15 Q244.221 1866.15 241.86 1863.93 Q239.522 1861.69 239.522 1857.94 Q239.522 1853.56 242.439 1851.34 Q245.379 1849.12 251.189 1849.12 L257.161 1849.12 L257.161 1848.7 Q257.161 1845.76 255.217 1844.16 Q253.295 1842.54 249.8 1842.54 Q247.578 1842.54 245.471 1843.08 Q243.365 1843.61 241.42 1844.67 L241.42 1840.74 Q243.758 1839.84 245.957 1839.4 Q248.156 1838.93 250.24 1838.93 Q255.865 1838.93 258.642 1841.85 Q261.42 1844.77 261.42 1850.69 Z" fill="#000000" fill-rule="nonzero" fill-opacity="1" /><path clip-path="url(#clip020)" d="M286.721 1840.32 L286.721 1844.35 Q284.915 1843.42 282.971 1842.96 Q281.027 1842.5 278.943 1842.5 Q275.772 1842.5 274.175 1843.47 Q272.601 1844.44 272.601 1846.39 Q272.601 1847.87 273.735 1848.72 Q274.869 1849.56 278.295 1850.32 L279.753 1850.65 Q284.29 1851.62 286.189 1853.4 Q288.11 1855.16 288.11 1858.33 Q288.11 1861.94 285.24 1864.05 Q282.392 1866.15 277.392 1866.15 Q275.309 1866.15 273.041 1865.74 Q270.795 1865.34 268.295 1864.53 L268.295 1860.14 Q270.656 1861.36 272.948 1861.99 Q275.24 1862.59 277.485 1862.59 Q280.494 1862.59 282.115 1861.57 Q283.735 1860.53 283.735 1858.65 Q283.735 1856.92 282.554 1855.99 Q281.397 1855.07 277.439 1854.21 L275.957 1853.86 Q271.999 1853.03 270.24 1851.32 Q268.48 1849.58 268.48 1846.57 Q268.48 1842.91 271.073 1840.92 Q273.666 1838.93 278.434 1838.93 Q280.795 1838.93 282.878 1839.28 Q284.962 1839.63 286.721 1840.32 Z" fill="#000000" fill-rule="nonzero" fill-opacity="1" /><path clip-path="url(#clip020)" d="M1318.62 1865.48 L1305.43 1830.92 L1310.31 1830.92 L1321.26 1860.02 L1332.24 1830.92 L1337.1 1830.92 L1323.93 1865.48 L1318.62 1865.48 Z" fill="#000000" fill-rule="nonzero" fill-opacity="1" /><path clip-path="url(#clip020)" d="M1350.06 1852.45 Q1344.9 1852.45 1342.91 1853.63 Q1340.92 1854.81 1340.92 1857.66 Q1340.92 1859.93 1342.4 1861.27 Q1343.9 1862.59 1346.47 1862.59 Q1350.01 1862.59 1352.14 1860.09 Q1354.3 1857.57 1354.3 1853.4 L1354.3 1852.45 L1350.06 1852.45 M1358.55 1850.69 L1358.55 1865.48 L1354.3 1865.48 L1354.3 1861.55 Q1352.84 1863.91 1350.66 1865.04 Q1348.49 1866.15 1345.34 1866.15 Q1341.36 1866.15 1338.99 1863.93 Q1336.66 1861.69 1336.66 1857.94 Q1336.66 1853.56 1339.57 1851.34 Q1342.51 1849.12 1348.32 1849.12 L1354.3 1849.12 L1354.3 1848.7 Q1354.3 1845.76 1352.35 1844.16 Q1350.43 1842.54 1346.93 1842.54 Q1344.71 1842.54 1342.61 1843.08 Q1340.5 1843.61 1338.55 1844.67 L1338.55 1840.74 Q1340.89 1839.84 1343.09 1839.4 Q1345.29 1838.93 1347.37 1838.93 Q1353 1838.93 1355.78 1841.85 Q1358.55 1844.77 1358.55 1850.69 Z" fill="#000000" fill-rule="nonzero" fill-opacity="1" /><path clip-path="url(#clip020)" d="M1382.35 1843.54 Q1381.63 1843.12 1380.78 1842.94 Q1379.94 1842.73 1378.93 1842.73 Q1375.31 1842.73 1373.37 1845.09 Q1371.45 1847.43 1371.45 1851.83 L1371.45 1865.48 L1367.17 1865.48 L1367.17 1839.56 L1371.45 1839.56 L1371.45 1843.59 Q1372.79 1841.22 1374.94 1840.09 Q1377.1 1838.93 1380.18 1838.93 Q1380.61 1838.93 1381.15 1839 Q1381.68 1839.05 1382.33 1839.16 L1382.35 1843.54 Z" fill="#000000" fill-rule="nonzero" fill-opacity="1" /><path clip-path="url(#clip020)" d="M1386.82 1839.56 L1391.08 1839.56 L1391.08 1865.48 L1386.82 1865.48 L1386.82 1839.56 M1386.82 1829.46 L1391.08 1829.46 L1391.08 1834.86 L1386.82 1834.86 L1386.82 1829.46 Z" fill="#000000" fill-rule="nonzero" fill-opacity="1" /><path clip-path="url(#clip020)" d="M1411.77 1852.45 Q1406.61 1852.45 1404.62 1853.63 Q1402.63 1854.81 1402.63 1857.66 Q1402.63 1859.93 1404.11 1861.27 Q1405.61 1862.59 1408.18 1862.59 Q1411.73 1862.59 1413.86 1860.09 Q1416.01 1857.57 1416.01 1853.4 L1416.01 1852.45 L1411.77 1852.45 M1420.27 1850.69 L1420.27 1865.48 L1416.01 1865.48 L1416.01 1861.55 Q1414.55 1863.91 1412.37 1865.04 Q1410.2 1866.15 1407.05 1866.15 Q1403.07 1866.15 1400.71 1863.93 Q1398.37 1861.69 1398.37 1857.94 Q1398.37 1853.56 1401.29 1851.34 Q1404.23 1849.12 1410.04 1849.12 L1416.01 1849.12 L1416.01 1848.7 Q1416.01 1845.76 1414.06 1844.16 Q1412.14 1842.54 1408.65 1842.54 Q1406.42 1842.54 1404.32 1843.08 Q1402.21 1843.61 1400.27 1844.67 L1400.27 1840.74 Q1402.61 1839.84 1404.8 1839.4 Q1407 1838.93 1409.09 1838.93 Q1414.71 1838.93 1417.49 1841.85 Q1420.27 1844.77 1420.27 1850.69 Z" fill="#000000" fill-rule="nonzero" fill-opacity="1" /><path clip-path="url(#clip020)" d="M1450.59 1849.84 L1450.59 1865.48 L1446.33 1865.48 L1446.33 1849.97 Q1446.33 1846.29 1444.9 1844.46 Q1443.46 1842.64 1440.59 1842.64 Q1437.14 1842.64 1435.15 1844.84 Q1433.16 1847.03 1433.16 1850.83 L1433.16 1865.48 L1428.88 1865.48 L1428.88 1839.56 L1433.16 1839.56 L1433.16 1843.59 Q1434.69 1841.25 1436.75 1840.09 Q1438.83 1838.93 1441.54 1838.93 Q1446.01 1838.93 1448.3 1841.71 Q1450.59 1844.46 1450.59 1849.84 Z" fill="#000000" fill-rule="nonzero" fill-opacity="1" /><path clip-path="url(#clip020)" d="M1477.74 1840.55 L1477.74 1844.53 Q1475.94 1843.54 1474.11 1843.05 Q1472.3 1842.54 1470.45 1842.54 Q1466.31 1842.54 1464.02 1845.18 Q1461.73 1847.8 1461.73 1852.54 Q1461.73 1857.29 1464.02 1859.93 Q1466.31 1862.54 1470.45 1862.54 Q1472.3 1862.54 1474.11 1862.06 Q1475.94 1861.55 1477.74 1860.55 L1477.74 1864.49 Q1475.96 1865.32 1474.04 1865.74 Q1472.14 1866.15 1469.99 1866.15 Q1464.13 1866.15 1460.68 1862.47 Q1457.23 1858.79 1457.23 1852.54 Q1457.23 1846.2 1460.71 1842.57 Q1464.2 1838.93 1470.27 1838.93 Q1472.23 1838.93 1474.11 1839.35 Q1475.98 1839.74 1477.74 1840.55 Z" fill="#000000" fill-rule="nonzero" fill-opacity="1" /><path clip-path="url(#clip020)" d="M1507.33 1851.46 L1507.33 1853.54 L1487.74 1853.54 Q1488.02 1857.94 1490.38 1860.25 Q1492.77 1862.54 1497 1862.54 Q1499.46 1862.54 1501.75 1861.94 Q1504.06 1861.34 1506.33 1860.14 L1506.33 1864.16 Q1504.04 1865.14 1501.63 1865.65 Q1499.23 1866.15 1496.75 1866.15 Q1490.54 1866.15 1486.91 1862.54 Q1483.3 1858.93 1483.3 1852.78 Q1483.3 1846.41 1486.73 1842.68 Q1490.17 1838.93 1496.01 1838.93 Q1501.24 1838.93 1504.27 1842.31 Q1507.33 1845.67 1507.33 1851.46 M1503.07 1850.21 Q1503.02 1846.71 1501.1 1844.63 Q1499.2 1842.54 1496.05 1842.54 Q1492.49 1842.54 1490.34 1844.56 Q1488.21 1846.57 1487.88 1850.23 L1503.07 1850.21 Z" fill="#000000" fill-rule="nonzero" fill-opacity="1" /><path clip-path="url(#clip020)" d="M2524.25 1830.92 L2531.22 1830.92 L2540.04 1854.44 L2548.91 1830.92 L2555.87 1830.92 L2555.87 1865.48 L2551.31 1865.48 L2551.31 1835.14 L2542.4 1858.84 L2537.7 1858.84 L2528.79 1835.14 L2528.79 1865.48 L2524.25 1865.48 L2524.25 1830.92 Z" fill="#000000" fill-rule="nonzero" fill-opacity="1" /><path clip-path="url(#clip020)" d="M2585.87 1832.06 L2585.87 1836.62 Q2583.21 1835.34 2580.85 1834.72 Q2578.49 1834.09 2576.29 1834.09 Q2572.47 1834.09 2570.39 1835.58 Q2568.33 1837.06 2568.33 1839.79 Q2568.33 1842.08 2569.69 1843.26 Q2571.08 1844.42 2574.92 1845.14 L2577.75 1845.71 Q2582.98 1846.71 2585.46 1849.23 Q2587.96 1851.73 2587.96 1855.95 Q2587.96 1860.97 2584.58 1863.56 Q2581.22 1866.15 2574.72 1866.15 Q2572.26 1866.15 2569.49 1865.6 Q2566.73 1865.04 2563.77 1863.96 L2563.77 1859.14 Q2566.61 1860.74 2569.35 1861.55 Q2572.08 1862.36 2574.72 1862.36 Q2578.72 1862.36 2580.9 1860.78 Q2583.07 1859.21 2583.07 1856.29 Q2583.07 1853.75 2581.5 1852.31 Q2579.95 1850.88 2576.38 1850.16 L2573.54 1849.6 Q2568.3 1848.56 2565.97 1846.34 Q2563.63 1844.12 2563.63 1840.16 Q2563.63 1835.58 2566.85 1832.94 Q2570.09 1830.3 2575.76 1830.3 Q2578.19 1830.3 2580.71 1830.74 Q2583.23 1831.18 2585.87 1832.06 Z" fill="#000000" fill-rule="nonzero" fill-opacity="1" /><path clip-path="url(#clip020)" d="M2595.25 1830.92 L2617.1 1830.92 L2617.1 1834.86 L2599.92 1834.86 L2599.92 1845.09 L2616.38 1845.09 L2616.38 1849.03 L2599.92 1849.03 L2599.92 1861.55 L2617.52 1861.55 L2617.52 1865.48 L2595.25 1865.48 L2595.25 1830.92 Z" fill="#000000" fill-rule="nonzero" fill-opacity="1" /><polyline clip-path="url(#clip023)" style="stroke:#000000; stroke-linecap:round; stroke-linejoin:round; stroke-width:2; stroke-opacity:0.1; fill:none" points="172.001,1780.08 2640.76,1780.08 "/>
<polyline clip-path="url(#clip023)" style="stroke:#000000; stroke-linecap:round; stroke-linejoin:round; stroke-width:2; stroke-opacity:0.1; fill:none" points="172.001,1629.45 2640.76,1629.45 "/>
<polyline clip-path="url(#clip023)" style="stroke:#000000; stroke-linecap:round; stroke-linejoin:round; stroke-width:2; stroke-opacity:0.1; fill:none" points="172.001,1478.83 2640.76,1478.83 "/>
<polyline clip-path="url(#clip023)" style="stroke:#000000; stroke-linecap:round; stroke-linejoin:round; stroke-width:2; stroke-opacity:0.1; fill:none" points="172.001,1328.2 2640.76,1328.2 "/>
<polyline clip-path="url(#clip023)" style="stroke:#000000; stroke-linecap:round; stroke-linejoin:round; stroke-width:2; stroke-opacity:0.1; fill:none" points="172.001,1177.58 2640.76,1177.58 "/>
<polyline clip-path="url(#clip020)" style="stroke:#000000; stroke-linecap:round; stroke-linejoin:round; stroke-width:4; stroke-opacity:1; fill:none" points="172.001,1800.78 172.001,1069.28 "/>
<polyline clip-path="url(#clip020)" style="stroke:#000000; stroke-linecap:round; stroke-linejoin:round; stroke-width:4; stroke-opacity:1; fill:none" points="172.001,1780.08 190.899,1780.08 "/>
<polyline clip-path="url(#clip020)" style="stroke:#000000; stroke-linecap:round; stroke-linejoin:round; stroke-width:4; stroke-opacity:1; fill:none" points="172.001,1629.45 190.899,1629.45 "/>
<polyline clip-path="url(#clip020)" style="stroke:#000000; stroke-linecap:round; stroke-linejoin:round; stroke-width:4; stroke-opacity:1; fill:none" points="172.001,1478.83 190.899,1478.83 "/>
<polyline clip-path="url(#clip020)" style="stroke:#000000; stroke-linecap:round; stroke-linejoin:round; stroke-width:4; stroke-opacity:1; fill:none" points="172.001,1328.2 190.899,1328.2 "/>
<polyline clip-path="url(#clip020)" style="stroke:#000000; stroke-linecap:round; stroke-linejoin:round; stroke-width:4; stroke-opacity:1; fill:none" points="172.001,1177.58 190.899,1177.58 "/>
<path clip-path="url(#clip020)" d="M119.737 1765.88 Q116.126 1765.88 114.297 1769.44 Q112.492 1772.98 112.492 1780.11 Q112.492 1787.22 114.297 1790.78 Q116.126 1794.32 119.737 1794.32 Q123.371 1794.32 125.177 1790.78 Q127.005 1787.22 127.005 1780.11 Q127.005 1772.98 125.177 1769.44 Q123.371 1765.88 119.737 1765.88 M119.737 1762.17 Q125.547 1762.17 128.603 1766.78 Q131.681 1771.36 131.681 1780.11 Q131.681 1788.84 128.603 1793.44 Q125.547 1798.03 119.737 1798.03 Q113.927 1798.03 110.848 1793.44 Q107.793 1788.84 107.793 1780.11 Q107.793 1771.36 110.848 1766.78 Q113.927 1762.17 119.737 1762.17 Z" fill="#000000" fill-rule="nonzero" fill-opacity="1" /><path clip-path="url(#clip020)" d="M80.3853 1642.8 L88.0241 1642.8 L88.0241 1616.43 L79.714 1618.1 L79.714 1613.84 L87.9778 1612.17 L92.6537 1612.17 L92.6537 1642.8 L100.293 1642.8 L100.293 1646.73 L80.3853 1646.73 L80.3853 1642.8 Z" fill="#000000" fill-rule="nonzero" fill-opacity="1" /><path clip-path="url(#clip020)" d="M119.737 1615.25 Q116.126 1615.25 114.297 1618.82 Q112.492 1622.36 112.492 1629.49 Q112.492 1636.59 114.297 1640.16 Q116.126 1643.7 119.737 1643.7 Q123.371 1643.7 125.177 1640.16 Q127.005 1636.59 127.005 1629.49 Q127.005 1622.36 125.177 1618.82 Q123.371 1615.25 119.737 1615.25 M119.737 1611.55 Q125.547 1611.55 128.603 1616.15 Q131.681 1620.74 131.681 1629.49 Q131.681 1638.21 128.603 1642.82 Q125.547 1647.4 119.737 1647.4 Q113.927 1647.4 110.848 1642.82 Q107.793 1638.21 107.793 1629.49 Q107.793 1620.74 110.848 1616.15 Q113.927 1611.55 119.737 1611.55 Z" fill="#000000" fill-rule="nonzero" fill-opacity="1" /><path clip-path="url(#clip020)" d="M83.6029 1492.17 L99.9222 1492.17 L99.9222 1496.11 L77.9779 1496.11 L77.9779 1492.17 Q80.6399 1489.42 85.2232 1484.79 Q89.8297 1480.14 91.0102 1478.79 Q93.2556 1476.27 94.1352 1474.53 Q95.038 1472.77 95.038 1471.09 Q95.038 1468.33 93.0936 1466.59 Q91.1723 1464.86 88.0704 1464.86 Q85.8714 1464.86 83.4177 1465.62 Q80.9871 1466.39 78.2094 1467.94 L78.2094 1463.21 Q81.0334 1462.08 83.4871 1461.5 Q85.9408 1460.92 87.9778 1460.92 Q93.3482 1460.92 96.5426 1463.61 Q99.737 1466.29 99.737 1470.78 Q99.737 1472.91 98.9269 1474.84 Q98.1398 1476.73 96.0334 1479.33 Q95.4547 1480 92.3528 1483.21 Q89.251 1486.41 83.6029 1492.17 Z" fill="#000000" fill-rule="nonzero" fill-opacity="1" /><path clip-path="url(#clip020)" d="M119.737 1464.63 Q116.126 1464.63 114.297 1468.19 Q112.492 1471.73 112.492 1478.86 Q112.492 1485.97 114.297 1489.53 Q116.126 1493.08 119.737 1493.08 Q123.371 1493.08 125.177 1489.53 Q127.005 1485.97 127.005 1478.86 Q127.005 1471.73 125.177 1468.19 Q123.371 1464.63 119.737 1464.63 M119.737 1460.92 Q125.547 1460.92 128.603 1465.53 Q131.681 1470.11 131.681 1478.86 Q131.681 1487.59 128.603 1492.2 Q125.547 1496.78 119.737 1496.78 Q113.927 1496.78 110.848 1492.2 Q107.793 1487.59 107.793 1478.86 Q107.793 1470.11 110.848 1465.53 Q113.927 1460.92 119.737 1460.92 Z" fill="#000000" fill-rule="nonzero" fill-opacity="1" /><path clip-path="url(#clip020)" d="M93.7417 1326.85 Q97.0982 1327.57 98.9732 1329.84 Q100.871 1332.1 100.871 1335.44 Q100.871 1340.55 97.3528 1343.35 Q93.8343 1346.16 87.3528 1346.16 Q85.1769 1346.16 82.8621 1345.72 Q80.5705 1345.3 78.1168 1344.44 L78.1168 1339.93 Q80.0612 1341.06 82.376 1341.64 Q84.6908 1342.22 87.214 1342.22 Q91.6121 1342.22 93.9037 1340.48 Q96.2185 1338.75 96.2185 1335.44 Q96.2185 1332.38 94.0658 1330.67 Q91.9362 1328.93 88.1167 1328.93 L84.089 1328.93 L84.089 1325.09 L88.3019 1325.09 Q91.751 1325.09 93.5797 1323.72 Q95.4084 1322.34 95.4084 1319.74 Q95.4084 1317.08 93.5102 1315.67 Q91.6352 1314.23 88.1167 1314.23 Q86.1954 1314.23 83.9964 1314.65 Q81.7973 1315.07 79.1584 1315.95 L79.1584 1311.78 Q81.8205 1311.04 84.1353 1310.67 Q86.4732 1310.3 88.5334 1310.3 Q93.8574 1310.3 96.9593 1312.73 Q100.061 1315.14 100.061 1319.26 Q100.061 1322.13 98.4176 1324.12 Q96.7741 1326.09 93.7417 1326.85 Z" fill="#000000" fill-rule="nonzero" fill-opacity="1" /><path clip-path="url(#clip020)" d="M119.737 1314 Q116.126 1314 114.297 1317.57 Q112.492 1321.11 112.492 1328.24 Q112.492 1335.35 114.297 1338.91 Q116.126 1342.45 119.737 1342.45 Q123.371 1342.45 125.177 1338.91 Q127.005 1335.35 127.005 1328.24 Q127.005 1321.11 125.177 1317.57 Q123.371 1314 119.737 1314 M119.737 1310.3 Q125.547 1310.3 128.603 1314.91 Q131.681 1319.49 131.681 1328.24 Q131.681 1336.97 128.603 1341.57 Q125.547 1346.16 119.737 1346.16 Q113.927 1346.16 110.848 1341.57 Q107.793 1336.97 107.793 1328.24 Q107.793 1319.49 110.848 1314.91 Q113.927 1310.3 119.737 1310.3 Z" fill="#000000" fill-rule="nonzero" fill-opacity="1" /><path clip-path="url(#clip020)" d="M92.4223 1164.37 L80.6168 1182.82 L92.4223 1182.82 L92.4223 1164.37 M91.1954 1160.3 L97.075 1160.3 L97.075 1182.82 L102.006 1182.82 L102.006 1186.71 L97.075 1186.71 L97.075 1194.86 L92.4223 1194.86 L92.4223 1186.71 L76.8205 1186.71 L76.8205 1182.2 L91.1954 1160.3 Z" fill="#000000" fill-rule="nonzero" fill-opacity="1" /><path clip-path="url(#clip020)" d="M119.737 1163.38 Q116.126 1163.38 114.297 1166.94 Q112.492 1170.48 112.492 1177.61 Q112.492 1184.72 114.297 1188.29 Q116.126 1191.83 119.737 1191.83 Q123.371 1191.83 125.177 1188.29 Q127.005 1184.72 127.005 1177.61 Q127.005 1170.48 125.177 1166.94 Q123.371 1163.38 119.737 1163.38 M119.737 1159.67 Q125.547 1159.67 128.603 1164.28 Q131.681 1168.86 131.681 1177.61 Q131.681 1186.34 128.603 1190.95 Q125.547 1195.53 119.737 1195.53 Q113.927 1195.53 110.848 1190.95 Q107.793 1186.34 107.793 1177.61 Q107.793 1168.86 110.848 1164.28 Q113.927 1159.67 119.737 1159.67 Z" fill="#000000" fill-rule="nonzero" fill-opacity="1" /><path clip-path="url(#clip020)" d="M1115.18 968.64 L1121.46 968.64 L1132.19 984.699 L1142.98 968.64 L1149.26 968.64 L1135.37 989.386 L1150.19 1011.84 L1143.91 1011.84 L1131.76 993.466 L1119.52 1011.84 L1113.21 1011.84 L1128.63 988.779 L1115.18 968.64 Z" fill="#000000" fill-rule="nonzero" fill-opacity="1" /><path clip-path="url(#clip020)" d="M1195.41 988.2 L1195.41 993.351 Q1192.38 995.636 1189.77 996.62 Q1187.2 997.604 1184.39 997.604 Q1181.21 997.604 1176.98 995.897 Q1176.66 995.781 1176.52 995.723 Q1176.32 995.636 1175.88 995.492 Q1171.4 993.698 1168.68 993.698 Q1166.13 993.698 1163.64 994.826 Q1161.15 995.926 1158.32 998.327 L1158.32 993.177 Q1161.36 990.891 1163.93 989.907 Q1166.54 988.895 1169.34 988.895 Q1172.53 988.895 1176.78 990.631 Q1177.07 990.746 1177.21 990.804 Q1177.44 990.891 1177.85 991.036 Q1182.33 992.83 1185.05 992.83 Q1187.54 992.83 1189.97 991.73 Q1192.43 990.631 1195.41 988.2 Z" fill="#000000" fill-rule="nonzero" fill-opacity="1" /><path clip-path="url(#clip020)" d="M1213.35 973.443 L1213.35 989.676 L1220.7 989.676 Q1224.78 989.676 1227.01 987.564 Q1229.24 985.451 1229.24 981.545 Q1229.24 977.668 1227.01 975.555 Q1224.78 973.443 1220.7 973.443 L1213.35 973.443 M1207.51 968.64 L1220.7 968.64 Q1227.97 968.64 1231.67 971.939 Q1235.4 975.208 1235.4 981.545 Q1235.4 987.94 1231.67 991.209 Q1227.97 994.479 1220.7 994.479 L1213.35 994.479 L1213.35 1011.84 L1207.51 1011.84 L1207.51 968.64 Z" fill="#000000" fill-rule="nonzero" fill-opacity="1" /><path clip-path="url(#clip020)" d="M1255.08 995.55 Q1248.62 995.55 1246.14 997.025 Q1243.65 998.501 1243.65 1002.06 Q1243.65 1004.9 1245.5 1006.57 Q1247.38 1008.22 1250.59 1008.22 Q1255.02 1008.22 1257.68 1005.1 Q1260.37 1001.94 1260.37 996.736 L1260.37 995.55 L1255.08 995.55 M1265.7 993.351 L1265.7 1011.84 L1260.37 1011.84 L1260.37 1006.92 Q1258.55 1009.87 1255.83 1011.29 Q1253.11 1012.68 1249.17 1012.68 Q1244.2 1012.68 1241.25 1009.9 Q1238.32 1007.09 1238.32 1002.41 Q1238.32 996.938 1241.97 994.161 Q1245.64 991.383 1252.91 991.383 L1260.37 991.383 L1260.37 990.862 Q1260.37 987.187 1257.94 985.191 Q1255.54 983.165 1251.17 983.165 Q1248.39 983.165 1245.76 983.831 Q1243.13 984.496 1240.7 985.827 L1240.7 980.908 Q1243.62 979.78 1246.37 979.23 Q1249.12 978.652 1251.72 978.652 Q1258.75 978.652 1262.22 982.297 Q1265.7 985.943 1265.7 993.351 Z" fill="#000000" fill-rule="nonzero" fill-opacity="1" /><path clip-path="url(#clip020)" d="M1295.44 984.41 Q1294.54 983.889 1293.47 983.657 Q1292.43 983.397 1291.16 983.397 Q1286.65 983.397 1284.21 986.348 Q1281.81 989.271 1281.81 994.768 L1281.81 1011.84 L1276.46 1011.84 L1276.46 979.433 L1281.81 979.433 L1281.81 984.467 Q1283.49 981.516 1286.18 980.098 Q1288.87 978.652 1292.72 978.652 Q1293.27 978.652 1293.94 978.738 Q1294.6 978.796 1295.41 978.941 L1295.44 984.41 Z" fill="#000000" fill-rule="nonzero" fill-opacity="1" /><path clip-path="url(#clip020)" d="M1327.44 994.305 L1327.44 996.91 L1302.96 996.91 Q1303.31 1002.41 1306.26 1005.3 Q1309.24 1008.17 1314.54 1008.17 Q1317.61 1008.17 1320.47 1007.41 Q1323.36 1006.66 1326.2 1005.16 L1326.2 1010.19 Q1323.34 1011.41 1320.33 1012.04 Q1317.32 1012.68 1314.22 1012.68 Q1306.47 1012.68 1301.92 1008.17 Q1297.41 1003.65 1297.41 995.955 Q1297.41 987.998 1301.69 983.339 Q1306 978.652 1313.29 978.652 Q1319.83 978.652 1323.62 982.876 Q1327.44 987.072 1327.44 994.305 M1322.12 992.743 Q1322.06 988.374 1319.66 985.77 Q1317.29 983.165 1313.35 983.165 Q1308.9 983.165 1306.21 985.683 Q1303.54 988.2 1303.14 992.772 L1322.12 992.743 Z" fill="#000000" fill-rule="nonzero" fill-opacity="1" /><path clip-path="url(#clip020)" d="M1341.45 970.231 L1341.45 979.433 L1352.41 979.433 L1352.41 983.57 L1341.45 983.57 L1341.45 1001.16 Q1341.45 1005.13 1342.52 1006.26 Q1343.62 1007.38 1346.95 1007.38 L1352.41 1007.38 L1352.41 1011.84 L1346.95 1011.84 Q1340.78 1011.84 1338.44 1009.55 Q1336.1 1007.24 1336.1 1001.16 L1336.1 983.57 L1332.19 983.57 L1332.19 979.433 L1336.1 979.433 L1336.1 970.231 L1341.45 970.231 Z" fill="#000000" fill-rule="nonzero" fill-opacity="1" /><path clip-path="url(#clip020)" d="M1371.97 983.165 Q1367.69 983.165 1365.2 986.522 Q1362.72 989.849 1362.72 995.665 Q1362.72 1001.48 1365.18 1004.84 Q1367.66 1008.17 1371.97 1008.17 Q1376.23 1008.17 1378.72 1004.81 Q1381.21 1001.45 1381.21 995.665 Q1381.21 989.907 1378.72 986.551 Q1376.23 983.165 1371.97 983.165 M1371.97 978.652 Q1378.92 978.652 1382.88 983.165 Q1386.85 987.679 1386.85 995.665 Q1386.85 1003.62 1382.88 1008.17 Q1378.92 1012.68 1371.97 1012.68 Q1365 1012.68 1361.04 1008.17 Q1357.1 1003.62 1357.1 995.665 Q1357.1 987.679 1361.04 983.165 Q1365 978.652 1371.97 978.652 Z" fill="#000000" fill-rule="nonzero" fill-opacity="1" /><path clip-path="url(#clip020)" d="M1397.03 1004.49 L1403.14 1004.49 L1403.14 1009.47 L1398.39 1018.73 L1394.66 1018.73 L1397.03 1009.47 L1397.03 1004.49 Z" fill="#000000" fill-rule="nonzero" fill-opacity="1" /><path clip-path="url(#clip020)" d="M1460.28 992.28 L1460.28 1011.84 L1454.96 1011.84 L1454.96 992.454 Q1454.96 987.853 1453.17 985.567 Q1451.37 983.281 1447.78 983.281 Q1443.47 983.281 1440.98 986.03 Q1438.5 988.779 1438.5 993.524 L1438.5 1011.84 L1433.14 1011.84 L1433.14 979.433 L1438.5 979.433 L1438.5 984.467 Q1440.41 981.545 1442.98 980.098 Q1445.59 978.652 1448.97 978.652 Q1454.56 978.652 1457.42 982.124 Q1460.28 985.567 1460.28 992.28 Z" fill="#000000" fill-rule="nonzero" fill-opacity="1" /><path clip-path="url(#clip020)" d="M1471.6 984.93 L1508.69 984.93 L1508.69 989.792 L1471.6 989.792 L1471.6 984.93 M1471.6 996.736 L1508.69 996.736 L1508.69 1001.65 L1471.6 1001.65 L1471.6 996.736 Z" fill="#000000" fill-rule="nonzero" fill-opacity="1" /><path clip-path="url(#clip020)" d="M1522.32 1006.92 L1531.87 1006.92 L1531.87 973.964 L1521.48 976.047 L1521.48 970.723 L1531.81 968.64 L1537.66 968.64 L1537.66 1006.92 L1547.21 1006.92 L1547.21 1011.84 L1522.32 1011.84 L1522.32 1006.92 Z" fill="#000000" fill-rule="nonzero" fill-opacity="1" /><path clip-path="url(#clip020)" d="M1571.51 972.488 Q1567 972.488 1564.71 976.944 Q1562.45 981.371 1562.45 990.283 Q1562.45 999.166 1564.71 1003.62 Q1567 1008.05 1571.51 1008.05 Q1576.05 1008.05 1578.31 1003.62 Q1580.6 999.166 1580.6 990.283 Q1580.6 981.371 1578.31 976.944 Q1576.05 972.488 1571.51 972.488 M1571.51 967.859 Q1578.77 967.859 1582.59 973.617 Q1586.44 979.346 1586.44 990.283 Q1586.44 1001.19 1582.59 1006.95 Q1578.77 1012.68 1571.51 1012.68 Q1564.25 1012.68 1560.4 1006.95 Q1556.58 1001.19 1556.58 990.283 Q1556.58 979.346 1560.4 973.617 Q1564.25 967.859 1571.51 967.859 Z" fill="#000000" fill-rule="nonzero" fill-opacity="1" /><path clip-path="url(#clip020)" d="M1609.21 972.488 Q1604.7 972.488 1602.41 976.944 Q1600.16 981.371 1600.16 990.283 Q1600.16 999.166 1602.41 1003.62 Q1604.7 1008.05 1609.21 1008.05 Q1613.76 1008.05 1616.01 1003.62 Q1618.3 999.166 1618.3 990.283 Q1618.3 981.371 1616.01 976.944 Q1613.76 972.488 1609.21 972.488 M1609.21 967.859 Q1616.48 967.859 1620.3 973.617 Q1624.14 979.346 1624.14 990.283 Q1624.14 1001.19 1620.3 1006.95 Q1616.48 1012.68 1609.21 1012.68 Q1601.95 1012.68 1598.1 1006.95 Q1594.28 1001.19 1594.28 990.283 Q1594.28 979.346 1598.1 973.617 Q1601.95 967.859 1609.21 967.859 Z" fill="#000000" fill-rule="nonzero" fill-opacity="1" /><path clip-path="url(#clip020)" d="M1646.92 972.488 Q1642.4 972.488 1640.12 976.944 Q1637.86 981.371 1637.86 990.283 Q1637.86 999.166 1640.12 1003.62 Q1642.4 1008.05 1646.92 1008.05 Q1651.46 1008.05 1653.72 1003.62 Q1656 999.166 1656 990.283 Q1656 981.371 1653.72 976.944 Q1651.46 972.488 1646.92 972.488 M1646.92 967.859 Q1654.18 967.859 1658 973.617 Q1661.85 979.346 1661.85 990.283 Q1661.85 1001.19 1658 1006.95 Q1654.18 1012.68 1646.92 1012.68 Q1639.65 1012.68 1635.8 1006.95 Q1631.99 1001.19 1631.99 990.283 Q1631.99 979.346 1635.8 973.617 Q1639.65 967.859 1646.92 967.859 Z" fill="#000000" fill-rule="nonzero" fill-opacity="1" /><path clip-path="url(#clip020)" d="M1684.62 972.488 Q1680.1 972.488 1677.82 976.944 Q1675.56 981.371 1675.56 990.283 Q1675.56 999.166 1677.82 1003.62 Q1680.1 1008.05 1684.62 1008.05 Q1689.16 1008.05 1691.42 1003.62 Q1693.7 999.166 1693.7 990.283 Q1693.7 981.371 1691.42 976.944 Q1689.16 972.488 1684.62 972.488 M1684.62 967.859 Q1691.88 967.859 1695.7 973.617 Q1699.55 979.346 1699.55 990.283 Q1699.55 1001.19 1695.7 1006.95 Q1691.88 1012.68 1684.62 1012.68 Q1677.36 1012.68 1673.51 1006.95 Q1669.69 1001.19 1669.69 990.283 Q1669.69 979.346 1673.51 973.617 Q1677.36 967.859 1684.62 967.859 Z" fill="#000000" fill-rule="nonzero" fill-opacity="1" /><polyline clip-path="url(#clip023)" style="stroke:#009af9; stroke-linecap:round; stroke-linejoin:round; stroke-width:0; stroke-opacity:1; fill:none" points="241.872,1780.07 1406.38,1089.98 2570.89,1090.11 "/>
<circle clip-path="url(#clip023)" cx="241.872" cy="1780.07" r="14.4" fill="#009af9" fill-rule="evenodd" fill-opacity="1" stroke="#000000" stroke-opacity="1" stroke-width="3.84"/>
<circle clip-path="url(#clip023)" cx="1406.38" cy="1089.98" r="14.4" fill="#009af9" fill-rule="evenodd" fill-opacity="1" stroke="#000000" stroke-opacity="1" stroke-width="3.84"/>
<circle clip-path="url(#clip023)" cx="2570.89" cy="1090.11" r="14.4" fill="#009af9" fill-rule="evenodd" fill-opacity="1" stroke="#000000" stroke-opacity="1" stroke-width="3.84"/>
<polyline clip-path="url(#clip023)" style="stroke:#e26f46; stroke-linecap:round; stroke-linejoin:round; stroke-width:0; stroke-opacity:1; fill:none" points="241.872,1780.07 1406.38,1758.65 2570.89,1758.66 "/>
<circle clip-path="url(#clip023)" cx="241.872" cy="1780.07" r="14.4" fill="#e26f46" fill-rule="evenodd" fill-opacity="1" stroke="#000000" stroke-opacity="1" stroke-width="3.84"/>
<circle clip-path="url(#clip023)" cx="1406.38" cy="1758.65" r="14.4" fill="#e26f46" fill-rule="evenodd" fill-opacity="1" stroke="#000000" stroke-opacity="1" stroke-width="3.84"/>
<circle clip-path="url(#clip023)" cx="2570.89" cy="1758.66" r="14.4" fill="#e26f46" fill-rule="evenodd" fill-opacity="1" stroke="#000000" stroke-opacity="1" stroke-width="3.84"/>
<polyline clip-path="url(#clip023)" style="stroke:#3da44d; stroke-linecap:round; stroke-linejoin:round; stroke-width:0; stroke-opacity:1; fill:none" points="241.872,1780.01 1406.38,1734.31 2570.89,1734.25 "/>
<circle clip-path="url(#clip023)" cx="241.872" cy="1780.01" r="14.4" fill="#3da44d" fill-rule="evenodd" fill-opacity="1" stroke="#000000" stroke-opacity="1" stroke-width="3.84"/>
<circle clip-path="url(#clip023)" cx="1406.38" cy="1734.31" r="14.4" fill="#3da44d" fill-rule="evenodd" fill-opacity="1" stroke="#000000" stroke-opacity="1" stroke-width="3.84"/>
<circle clip-path="url(#clip023)" cx="2570.89" cy="1734.25" r="14.4" fill="#3da44d" fill-rule="evenodd" fill-opacity="1" stroke="#000000" stroke-opacity="1" stroke-width="3.84"/>
<polyline clip-path="url(#clip023)" style="stroke:#000000; stroke-linecap:round; stroke-linejoin:round; stroke-width:4; stroke-opacity:1; fill:none" points="-2296.75,1780.08 5109.51,1780.08 "/>
</svg>
