<?xml version="1.0" encoding="utf-8"?>
<svg xmlns="http://www.w3.org/2000/svg" xmlns:xlink="http://www.w3.org/1999/xlink" width="672" height="480" viewBox="0 0 2688 1920">
<defs>
  <clipPath id="clip920">
    <rect x="0" y="0" width="2688" height="1920"/>
  </clipPath>
</defs>
<path clip-path="url(#clip920)" d="
M0 1920 L2688 1920 L2688 0 L0 0  Z
  " fill="#ffffff" fill-rule="evenodd" fill-opacity="1"/>
<defs>
  <clipPath id="clip921">
    <rect x="537" y="0" width="1883" height="1883"/>
  </clipPath>
</defs>
<path clip-path="url(#clip920)" d="
M187.071 840.779 L2640.76 840.779 L2640.76 109.278 L187.071 109.278  Z
  " fill="#ffffff" fill-rule="evenodd" fill-opacity="1"/>
<defs>
  <clipPath id="clip922">
    <rect x="187" y="109" width="2455" height="733"/>
  </clipPath>
</defs>
<polyline clip-path="url(#clip922)" style="stroke:#000000; stroke-linecap:round; stroke-linejoin:round; stroke-width:2; stroke-opacity:0.1; fill:none" points="
  256.515,840.779 256.515,109.278 
  "/>
<polyline clip-path="url(#clip922)" style="stroke:#000000; stroke-linecap:round; stroke-linejoin:round; stroke-width:2; stroke-opacity:0.1; fill:none" points="
  1413.91,840.779 1413.91,109.278 
  "/>
<polyline clip-path="url(#clip922)" style="stroke:#000000; stroke-linecap:round; stroke-linejoin:round; stroke-width:2; stroke-opacity:0.1; fill:none" points="
  2571.31,840.779 2571.31,109.278 
  "/>
<polyline clip-path="url(#clip920)" style="stroke:#000000; stroke-linecap:round; stroke-linejoin:round; stroke-width:4; stroke-opacity:1; fill:none" points="
  187.071,840.779 2640.76,840.779 
  "/>
<polyline clip-path="url(#clip920)" style="stroke:#000000; stroke-linecap:round; stroke-linejoin:round; stroke-width:4; stroke-opacity:1; fill:none" points="
  256.515,840.779 256.515,821.882 
  "/>
<polyline clip-path="url(#clip920)" style="stroke:#000000; stroke-linecap:round; stroke-linejoin:round; stroke-width:4; stroke-opacity:1; fill:none" points="
  1413.91,840.779 1413.91,821.882 
  "/>
<polyline clip-path="url(#clip920)" style="stroke:#000000; stroke-linecap:round; stroke-linejoin:round; stroke-width:4; stroke-opacity:1; fill:none" points="
  2571.31,840.779 2571.31,821.882 
  "/>
<path clip-path="url(#clip920)" d="M200.774 869.257 L200.774 916.664 L196.839 916.664 L196.839 869.257 L200.774 869.257 Z" fill="#000000" fill-rule="evenodd" fill-opacity="1" /><path clip-path="url(#clip920)" d="M216.121 888.979 L216.121 901.641 L223.621 901.641 Q227.394 901.641 229.2 900.09 Q231.029 898.516 231.029 895.298 Q231.029 892.057 229.2 890.53 Q227.394 888.979 223.621 888.979 L216.121 888.979 M216.121 874.766 L216.121 885.182 L223.043 885.182 Q226.468 885.182 228.135 883.909 Q229.825 882.613 229.825 879.974 Q229.825 877.358 228.135 876.062 Q226.468 874.766 223.043 874.766 L216.121 874.766 M211.445 870.923 L223.39 870.923 Q228.737 870.923 231.63 873.146 Q234.524 875.368 234.524 879.465 Q234.524 882.636 233.043 884.511 Q231.561 886.386 228.691 886.849 Q232.14 887.59 234.038 889.951 Q235.959 892.289 235.959 895.807 Q235.959 900.437 232.811 902.96 Q229.663 905.483 223.853 905.483 L211.445 905.483 L211.445 870.923 Z" fill="#000000" fill-rule="evenodd" fill-opacity="1" /><path clip-path="url(#clip920)" d="M243.783 879.558 L248.042 879.558 L248.042 905.483 L243.783 905.483 L243.783 879.558 M243.783 869.465 L248.042 869.465 L248.042 874.858 L243.783 874.858 L243.783 869.465 Z" fill="#000000" fill-rule="evenodd" fill-opacity="1" /><path clip-path="url(#clip920)" d="M268.737 892.451 Q263.575 892.451 261.584 893.632 Q259.593 894.812 259.593 897.659 Q259.593 899.928 261.075 901.27 Q262.579 902.59 265.149 902.59 Q268.69 902.59 270.82 900.09 Q272.973 897.567 272.973 893.4 L272.973 892.451 L268.737 892.451 M277.232 890.692 L277.232 905.483 L272.973 905.483 L272.973 901.548 Q271.515 903.909 269.339 905.043 Q267.163 906.155 264.015 906.155 Q260.033 906.155 257.672 903.932 Q255.334 901.687 255.334 897.937 Q255.334 893.562 258.251 891.34 Q261.191 889.118 267.001 889.118 L272.973 889.118 L272.973 888.701 Q272.973 885.761 271.028 884.164 Q269.107 882.544 265.612 882.544 Q263.39 882.544 261.283 883.076 Q259.177 883.608 257.232 884.673 L257.232 880.738 Q259.57 879.835 261.769 879.395 Q263.968 878.933 266.052 878.933 Q271.677 878.933 274.454 881.849 Q277.232 884.766 277.232 890.692 Z" fill="#000000" fill-rule="evenodd" fill-opacity="1" /><path clip-path="url(#clip920)" d="M302.533 880.321 L302.533 884.349 Q300.727 883.423 298.783 882.96 Q296.838 882.497 294.755 882.497 Q291.584 882.497 289.987 883.47 Q288.413 884.442 288.413 886.386 Q288.413 887.868 289.547 888.724 Q290.681 889.557 294.107 890.321 L295.565 890.645 Q300.102 891.618 302 893.4 Q303.922 895.159 303.922 898.331 Q303.922 901.942 301.051 904.048 Q298.204 906.155 293.204 906.155 Q291.121 906.155 288.852 905.738 Q286.607 905.344 284.107 904.534 L284.107 900.136 Q286.468 901.363 288.76 901.988 Q291.051 902.59 293.297 902.59 Q296.306 902.59 297.926 901.571 Q299.547 900.53 299.547 898.655 Q299.547 896.919 298.366 895.993 Q297.209 895.067 293.251 894.21 L291.769 893.863 Q287.811 893.03 286.051 891.317 Q284.292 889.581 284.292 886.571 Q284.292 882.914 286.885 880.923 Q289.477 878.933 294.246 878.933 Q296.607 878.933 298.69 879.28 Q300.774 879.627 302.533 880.321 Z" fill="#000000" fill-rule="evenodd" fill-opacity="1" /><path clip-path="url(#clip920)" d="M316.19 869.257 L316.19 916.664 L312.255 916.664 L312.255 869.257 L316.19 869.257 Z" fill="#000000" fill-rule="evenodd" fill-opacity="1" /><path clip-path="url(#clip920)" d="M1210.99 872.058 L1210.99 876.618 Q1208.32 875.345 1205.96 874.72 Q1203.6 874.095 1201.4 874.095 Q1197.58 874.095 1195.5 875.576 Q1193.44 877.058 1193.44 879.789 Q1193.44 882.081 1194.81 883.261 Q1196.19 884.419 1200.04 885.136 L1202.86 885.715 Q1208.09 886.71 1210.57 889.233 Q1213.07 891.733 1213.07 895.946 Q1213.07 900.969 1209.69 903.562 Q1206.33 906.155 1199.83 906.155 Q1197.38 906.155 1194.6 905.599 Q1191.84 905.043 1188.88 903.956 L1188.88 899.141 Q1191.73 900.738 1194.46 901.548 Q1197.19 902.358 1199.83 902.358 Q1203.83 902.358 1206.01 900.784 Q1208.19 899.21 1208.19 896.294 Q1208.19 893.747 1206.61 892.312 Q1205.06 890.877 1201.5 890.159 L1198.65 889.604 Q1193.42 888.562 1191.08 886.34 Q1188.74 884.118 1188.74 880.159 Q1188.74 875.576 1191.96 872.937 Q1195.2 870.298 1200.87 870.298 Q1203.3 870.298 1205.82 870.738 Q1208.35 871.178 1210.99 872.058 Z" fill="#000000" fill-rule="evenodd" fill-opacity="1" /><path clip-path="url(#clip920)" d="M1224.39 872.196 L1224.39 879.558 L1233.16 879.558 L1233.16 882.868 L1224.39 882.868 L1224.39 896.942 Q1224.39 900.113 1225.25 901.016 Q1226.12 901.919 1228.79 901.919 L1233.16 901.919 L1233.16 905.483 L1228.79 905.483 Q1223.86 905.483 1221.98 903.655 Q1220.11 901.803 1220.11 896.942 L1220.11 882.868 L1216.98 882.868 L1216.98 879.558 L1220.11 879.558 L1220.11 872.196 L1224.39 872.196 Z" fill="#000000" fill-rule="evenodd" fill-opacity="1" /><path clip-path="url(#clip920)" d="M1250.55 892.451 Q1245.38 892.451 1243.39 893.632 Q1241.4 894.812 1241.4 897.659 Q1241.4 899.928 1242.88 901.27 Q1244.39 902.59 1246.96 902.59 Q1250.5 902.59 1252.63 900.09 Q1254.78 897.567 1254.78 893.4 L1254.78 892.451 L1250.55 892.451 M1259.04 890.692 L1259.04 905.483 L1254.78 905.483 L1254.78 901.548 Q1253.32 903.909 1251.15 905.043 Q1248.97 906.155 1245.82 906.155 Q1241.84 906.155 1239.48 903.932 Q1237.14 901.687 1237.14 897.937 Q1237.14 893.562 1240.06 891.34 Q1243 889.118 1248.81 889.118 L1254.78 889.118 L1254.78 888.701 Q1254.78 885.761 1252.84 884.164 Q1250.92 882.544 1247.42 882.544 Q1245.2 882.544 1243.09 883.076 Q1240.99 883.608 1239.04 884.673 L1239.04 880.738 Q1241.38 879.835 1243.58 879.395 Q1245.78 878.933 1247.86 878.933 Q1253.49 878.933 1256.26 881.849 Q1259.04 884.766 1259.04 890.692 Z" fill="#000000" fill-rule="evenodd" fill-opacity="1" /><path clip-path="url(#clip920)" d="M1289.37 889.835 L1289.37 905.483 L1285.11 905.483 L1285.11 889.974 Q1285.11 886.294 1283.67 884.465 Q1282.24 882.636 1279.37 882.636 Q1275.92 882.636 1273.93 884.835 Q1271.93 887.034 1271.93 890.831 L1271.93 905.483 L1267.65 905.483 L1267.65 879.558 L1271.93 879.558 L1271.93 883.585 Q1273.46 881.247 1275.52 880.09 Q1277.61 878.933 1280.31 878.933 Q1284.78 878.933 1287.07 881.71 Q1289.37 884.465 1289.37 889.835 Z" fill="#000000" fill-rule="evenodd" fill-opacity="1" /><path clip-path="url(#clip920)" d="M1314.92 883.493 L1314.92 869.465 L1319.18 869.465 L1319.18 905.483 L1314.92 905.483 L1314.92 901.594 Q1313.58 903.909 1311.52 905.043 Q1309.48 906.155 1306.61 906.155 Q1301.91 906.155 1298.95 902.405 Q1296.01 898.655 1296.01 892.544 Q1296.01 886.432 1298.95 882.682 Q1301.91 878.933 1306.61 878.933 Q1309.48 878.933 1311.52 880.067 Q1313.58 881.178 1314.92 883.493 M1300.41 892.544 Q1300.41 897.243 1302.33 899.928 Q1304.27 902.59 1307.65 902.59 Q1311.03 902.59 1312.98 899.928 Q1314.92 897.243 1314.92 892.544 Q1314.92 887.845 1312.98 885.182 Q1311.03 882.497 1307.65 882.497 Q1304.27 882.497 1302.33 885.182 Q1300.41 887.845 1300.41 892.544 Z" fill="#000000" fill-rule="evenodd" fill-opacity="1" /><path clip-path="url(#clip920)" d="M1339.74 892.451 Q1334.57 892.451 1332.58 893.632 Q1330.59 894.812 1330.59 897.659 Q1330.59 899.928 1332.07 901.27 Q1333.58 902.59 1336.15 902.59 Q1339.69 902.59 1341.82 900.09 Q1343.97 897.567 1343.97 893.4 L1343.97 892.451 L1339.74 892.451 M1348.23 890.692 L1348.23 905.483 L1343.97 905.483 L1343.97 901.548 Q1342.51 903.909 1340.34 905.043 Q1338.16 906.155 1335.01 906.155 Q1331.03 906.155 1328.67 903.932 Q1326.33 901.687 1326.33 897.937 Q1326.33 893.562 1329.25 891.34 Q1332.19 889.118 1338 889.118 L1343.97 889.118 L1343.97 888.701 Q1343.97 885.761 1342.03 884.164 Q1340.11 882.544 1336.61 882.544 Q1334.39 882.544 1332.28 883.076 Q1330.18 883.608 1328.23 884.673 L1328.23 880.738 Q1330.57 879.835 1332.77 879.395 Q1334.97 878.933 1337.05 878.933 Q1342.68 878.933 1345.45 881.849 Q1348.23 884.766 1348.23 890.692 Z" fill="#000000" fill-rule="evenodd" fill-opacity="1" /><path clip-path="url(#clip920)" d="M1372.03 883.539 Q1371.31 883.122 1370.45 882.937 Q1369.62 882.729 1368.6 882.729 Q1364.99 882.729 1363.05 885.09 Q1361.12 887.428 1361.12 891.826 L1361.12 905.483 L1356.84 905.483 L1356.84 879.558 L1361.12 879.558 L1361.12 883.585 Q1362.47 881.224 1364.62 880.09 Q1366.77 878.933 1369.85 878.933 Q1370.29 878.933 1370.82 879.002 Q1371.36 879.048 1372 879.164 L1372.03 883.539 Z" fill="#000000" fill-rule="evenodd" fill-opacity="1" /><path clip-path="url(#clip920)" d="M1392.72 883.493 L1392.72 869.465 L1396.98 869.465 L1396.98 905.483 L1392.72 905.483 L1392.72 901.594 Q1391.38 903.909 1389.32 905.043 Q1387.28 906.155 1384.41 906.155 Q1379.71 906.155 1376.75 902.405 Q1373.81 898.655 1373.81 892.544 Q1373.81 886.432 1376.75 882.682 Q1379.71 878.933 1384.41 878.933 Q1387.28 878.933 1389.32 880.067 Q1391.38 881.178 1392.72 883.493 M1378.21 892.544 Q1378.21 897.243 1380.13 899.928 Q1382.07 902.59 1385.45 902.59 Q1388.83 902.59 1390.78 899.928 Q1392.72 897.243 1392.72 892.544 Q1392.72 887.845 1390.78 885.182 Q1388.83 882.497 1385.45 882.497 Q1382.07 882.497 1380.13 885.182 Q1378.21 887.845 1378.21 892.544 Z" fill="#000000" fill-rule="evenodd" fill-opacity="1" /><path clip-path="url(#clip920)" d="M1425.68 874.766 L1425.68 901.641 L1431.33 901.641 Q1438.48 901.641 1441.8 898.4 Q1445.13 895.159 1445.13 888.169 Q1445.13 881.224 1441.8 878.007 Q1438.48 874.766 1431.33 874.766 L1425.68 874.766 M1421.01 870.923 L1430.61 870.923 Q1440.66 870.923 1445.36 875.113 Q1450.06 879.28 1450.06 888.169 Q1450.06 897.104 1445.34 901.294 Q1440.61 905.483 1430.61 905.483 L1421.01 905.483 L1421.01 870.923 Z" fill="#000000" fill-rule="evenodd" fill-opacity="1" /><path clip-path="url(#clip920)" d="M1479.5 891.456 L1479.5 893.539 L1459.92 893.539 Q1460.2 897.937 1462.56 900.252 Q1464.94 902.544 1469.18 902.544 Q1471.63 902.544 1473.92 901.942 Q1476.24 901.34 1478.51 900.136 L1478.51 904.164 Q1476.22 905.136 1473.81 905.645 Q1471.4 906.155 1468.92 906.155 Q1462.72 906.155 1459.09 902.544 Q1455.48 898.932 1455.48 892.775 Q1455.48 886.409 1458.9 882.682 Q1462.35 878.933 1468.18 878.933 Q1473.42 878.933 1476.45 882.312 Q1479.5 885.669 1479.5 891.456 M1475.24 890.206 Q1475.2 886.71 1473.28 884.627 Q1471.38 882.544 1468.23 882.544 Q1464.67 882.544 1462.51 884.557 Q1460.38 886.571 1460.06 890.229 L1475.24 890.206 Z" fill="#000000" fill-rule="evenodd" fill-opacity="1" /><path clip-path="url(#clip920)" d="M1483.44 879.558 L1487.95 879.558 L1496.05 901.317 L1504.16 879.558 L1508.67 879.558 L1498.95 905.483 L1493.16 905.483 L1483.44 879.558 Z" fill="#000000" fill-rule="evenodd" fill-opacity="1" /><path clip-path="url(#clip920)" d="M1514.55 879.558 L1518.81 879.558 L1518.81 905.483 L1514.55 905.483 L1514.55 879.558 M1514.55 869.465 L1518.81 869.465 L1518.81 874.858 L1514.55 874.858 L1514.55 869.465 Z" fill="#000000" fill-rule="evenodd" fill-opacity="1" /><path clip-path="url(#clip920)" d="M1539.5 892.451 Q1534.34 892.451 1532.35 893.632 Q1530.36 894.812 1530.36 897.659 Q1530.36 899.928 1531.84 901.27 Q1533.35 902.59 1535.91 902.59 Q1539.46 902.59 1541.59 900.09 Q1543.74 897.567 1543.74 893.4 L1543.74 892.451 L1539.5 892.451 M1548 890.692 L1548 905.483 L1543.74 905.483 L1543.74 901.548 Q1542.28 903.909 1540.1 905.043 Q1537.93 906.155 1534.78 906.155 Q1530.8 906.155 1528.44 903.932 Q1526.1 901.687 1526.1 897.937 Q1526.1 893.562 1529.02 891.34 Q1531.96 889.118 1537.77 889.118 L1543.74 889.118 L1543.74 888.701 Q1543.74 885.761 1541.79 884.164 Q1539.87 882.544 1536.38 882.544 Q1534.16 882.544 1532.05 883.076 Q1529.94 883.608 1528 884.673 L1528 880.738 Q1530.34 879.835 1532.54 879.395 Q1534.73 878.933 1536.82 878.933 Q1542.44 878.933 1545.22 881.849 Q1548 884.766 1548 890.692 Z" fill="#000000" fill-rule="evenodd" fill-opacity="1" /><path clip-path="url(#clip920)" d="M1560.98 872.196 L1560.98 879.558 L1569.76 879.558 L1569.76 882.868 L1560.98 882.868 L1560.98 896.942 Q1560.98 900.113 1561.84 901.016 Q1562.72 901.919 1565.38 901.919 L1569.76 901.919 L1569.76 905.483 L1565.38 905.483 Q1560.45 905.483 1558.58 903.655 Q1556.7 901.803 1556.7 896.942 L1556.7 882.868 L1553.58 882.868 L1553.58 879.558 L1556.7 879.558 L1556.7 872.196 L1560.98 872.196 Z" fill="#000000" fill-rule="evenodd" fill-opacity="1" /><path clip-path="url(#clip920)" d="M1575.36 879.558 L1579.62 879.558 L1579.62 905.483 L1575.36 905.483 L1575.36 879.558 M1575.36 869.465 L1579.62 869.465 L1579.62 874.858 L1575.36 874.858 L1575.36 869.465 Z" fill="#000000" fill-rule="evenodd" fill-opacity="1" /><path clip-path="url(#clip920)" d="M1598.58 882.544 Q1595.15 882.544 1593.16 885.229 Q1591.17 887.891 1591.17 892.544 Q1591.17 897.196 1593.14 899.881 Q1595.13 902.544 1598.58 902.544 Q1601.98 902.544 1603.97 899.858 Q1605.96 897.173 1605.96 892.544 Q1605.96 887.937 1603.97 885.252 Q1601.98 882.544 1598.58 882.544 M1598.58 878.933 Q1604.13 878.933 1607.3 882.544 Q1610.47 886.155 1610.47 892.544 Q1610.47 898.909 1607.3 902.544 Q1604.13 906.155 1598.58 906.155 Q1593 906.155 1589.83 902.544 Q1586.68 898.909 1586.68 892.544 Q1586.68 886.155 1589.83 882.544 Q1593 878.933 1598.58 878.933 Z" fill="#000000" fill-rule="evenodd" fill-opacity="1" /><path clip-path="url(#clip920)" d="M1639.09 889.835 L1639.09 905.483 L1634.83 905.483 L1634.83 889.974 Q1634.83 886.294 1633.39 884.465 Q1631.96 882.636 1629.09 882.636 Q1625.64 882.636 1623.65 884.835 Q1621.66 887.034 1621.66 890.831 L1621.66 905.483 L1617.37 905.483 L1617.37 879.558 L1621.66 879.558 L1621.66 883.585 Q1623.18 881.247 1625.24 880.09 Q1627.33 878.933 1630.03 878.933 Q1634.5 878.933 1636.79 881.71 Q1639.09 884.465 1639.09 889.835 Z" fill="#000000" fill-rule="evenodd" fill-opacity="1" /><path clip-path="url(#clip920)" d="M2524.6 889.28 Q2526.1 889.789 2527.52 891.456 Q2528.95 893.122 2530.39 896.039 L2535.13 905.483 L2530.11 905.483 L2525.69 896.618 Q2523.97 893.145 2522.35 892.011 Q2520.76 890.877 2517.98 890.877 L2512.89 890.877 L2512.89 905.483 L2508.21 905.483 L2508.21 870.923 L2518.77 870.923 Q2524.69 870.923 2527.61 873.4 Q2530.53 875.877 2530.53 880.877 Q2530.53 884.141 2529 886.294 Q2527.49 888.446 2524.6 889.28 M2512.89 874.766 L2512.89 887.034 L2518.77 887.034 Q2522.15 887.034 2523.86 885.483 Q2525.59 883.909 2525.59 880.877 Q2525.59 877.845 2523.86 876.317 Q2522.15 874.766 2518.77 874.766 L2512.89 874.766 Z" fill="#000000" fill-rule="evenodd" fill-opacity="1" /><path clip-path="url(#clip920)" d="M2541.15 870.923 L2548.12 870.923 L2556.94 894.442 L2565.8 870.923 L2572.77 870.923 L2572.77 905.483 L2568.21 905.483 L2568.21 875.136 L2559.3 898.84 L2554.6 898.84 L2545.69 875.136 L2545.69 905.483 L2541.15 905.483 L2541.15 870.923 Z" fill="#000000" fill-rule="evenodd" fill-opacity="1" /><path clip-path="url(#clip920)" d="M2602.77 872.058 L2602.77 876.618 Q2600.11 875.345 2597.75 874.72 Q2595.39 874.095 2593.19 874.095 Q2589.37 874.095 2587.28 875.576 Q2585.22 877.058 2585.22 879.789 Q2585.22 882.081 2586.59 883.261 Q2587.98 884.419 2591.82 885.136 L2594.65 885.715 Q2599.88 886.71 2602.35 889.233 Q2604.85 891.733 2604.85 895.946 Q2604.85 900.969 2601.47 903.562 Q2598.12 906.155 2591.61 906.155 Q2589.16 906.155 2586.38 905.599 Q2583.63 905.043 2580.66 903.956 L2580.66 899.141 Q2583.51 900.738 2586.24 901.548 Q2588.97 902.358 2591.61 902.358 Q2595.62 902.358 2597.79 900.784 Q2599.97 899.21 2599.97 896.294 Q2599.97 893.747 2598.4 892.312 Q2596.84 890.877 2593.28 890.159 L2590.43 889.604 Q2585.2 888.562 2582.86 886.34 Q2580.52 884.118 2580.52 880.159 Q2580.52 875.576 2583.74 872.937 Q2586.98 870.298 2592.65 870.298 Q2595.09 870.298 2597.61 870.738 Q2600.13 871.178 2602.77 872.058 Z" fill="#000000" fill-rule="evenodd" fill-opacity="1" /><path clip-path="url(#clip920)" d="M2612.15 870.923 L2634 870.923 L2634 874.858 L2616.82 874.858 L2616.82 885.09 L2633.28 885.09 L2633.28 889.025 L2616.82 889.025 L2616.82 901.548 L2634.41 901.548 L2634.41 905.483 L2612.15 905.483 L2612.15 870.923 Z" fill="#000000" fill-rule="evenodd" fill-opacity="1" /><polyline clip-path="url(#clip922)" style="stroke:#000000; stroke-linecap:round; stroke-linejoin:round; stroke-width:2; stroke-opacity:0.1; fill:none" points="
  187.071,820.076 2640.76,820.076 
  "/>
<polyline clip-path="url(#clip922)" style="stroke:#000000; stroke-linecap:round; stroke-linejoin:round; stroke-width:2; stroke-opacity:0.1; fill:none" points="
  187.071,694.273 2640.76,694.273 
  "/>
<polyline clip-path="url(#clip922)" style="stroke:#000000; stroke-linecap:round; stroke-linejoin:round; stroke-width:2; stroke-opacity:0.1; fill:none" points="
  187.071,568.469 2640.76,568.469 
  "/>
<polyline clip-path="url(#clip922)" style="stroke:#000000; stroke-linecap:round; stroke-linejoin:round; stroke-width:2; stroke-opacity:0.1; fill:none" points="
  187.071,442.666 2640.76,442.666 
  "/>
<polyline clip-path="url(#clip922)" style="stroke:#000000; stroke-linecap:round; stroke-linejoin:round; stroke-width:2; stroke-opacity:0.1; fill:none" points="
  187.071,316.862 2640.76,316.862 
  "/>
<polyline clip-path="url(#clip922)" style="stroke:#000000; stroke-linecap:round; stroke-linejoin:round; stroke-width:2; stroke-opacity:0.1; fill:none" points="
  187.071,191.059 2640.76,191.059 
  "/>
<polyline clip-path="url(#clip920)" style="stroke:#000000; stroke-linecap:round; stroke-linejoin:round; stroke-width:4; stroke-opacity:1; fill:none" points="
  187.071,840.779 187.071,109.278 
  "/>
<polyline clip-path="url(#clip920)" style="stroke:#000000; stroke-linecap:round; stroke-linejoin:round; stroke-width:4; stroke-opacity:1; fill:none" points="
  187.071,820.076 205.968,820.076 
  "/>
<polyline clip-path="url(#clip920)" style="stroke:#000000; stroke-linecap:round; stroke-linejoin:round; stroke-width:4; stroke-opacity:1; fill:none" points="
  187.071,694.273 205.968,694.273 
  "/>
<polyline clip-path="url(#clip920)" style="stroke:#000000; stroke-linecap:round; stroke-linejoin:round; stroke-width:4; stroke-opacity:1; fill:none" points="
  187.071,568.469 205.968,568.469 
  "/>
<polyline clip-path="url(#clip920)" style="stroke:#000000; stroke-linecap:round; stroke-linejoin:round; stroke-width:4; stroke-opacity:1; fill:none" points="
  187.071,442.666 205.968,442.666 
  "/>
<polyline clip-path="url(#clip920)" style="stroke:#000000; stroke-linecap:round; stroke-linejoin:round; stroke-width:4; stroke-opacity:1; fill:none" points="
  187.071,316.862 205.968,316.862 
  "/>
<polyline clip-path="url(#clip920)" style="stroke:#000000; stroke-linecap:round; stroke-linejoin:round; stroke-width:4; stroke-opacity:1; fill:none" points="
  187.071,191.059 205.968,191.059 
  "/>
<path clip-path="url(#clip920)" d="M89.5751 805.875 Q85.964 805.875 84.1353 809.44 Q82.3297 812.982 82.3297 820.111 Q82.3297 827.218 84.1353 830.782 Q85.964 834.324 89.5751 834.324 Q93.2093 834.324 95.0148 830.782 Q96.8435 827.218 96.8435 820.111 Q96.8435 812.982 95.0148 809.44 Q93.2093 805.875 89.5751 805.875 M89.5751 802.171 Q95.3852 802.171 98.4408 806.778 Q101.519 811.361 101.519 820.111 Q101.519 828.838 98.4408 833.444 Q95.3852 838.028 89.5751 838.028 Q83.7649 838.028 80.6862 833.444 Q77.6307 828.838 77.6307 820.111 Q77.6307 811.361 80.6862 806.778 Q83.7649 802.171 89.5751 802.171 Z" fill="#000000" fill-rule="evenodd" fill-opacity="1" /><path clip-path="url(#clip920)" d="M109.737 831.477 L114.621 831.477 L114.621 837.356 L109.737 837.356 L109.737 831.477 Z" fill="#000000" fill-rule="evenodd" fill-opacity="1" /><path clip-path="url(#clip920)" d="M134.806 805.875 Q131.195 805.875 129.367 809.44 Q127.561 812.982 127.561 820.111 Q127.561 827.218 129.367 830.782 Q131.195 834.324 134.806 834.324 Q138.441 834.324 140.246 830.782 Q142.075 827.218 142.075 820.111 Q142.075 812.982 140.246 809.44 Q138.441 805.875 134.806 805.875 M134.806 802.171 Q140.616 802.171 143.672 806.778 Q146.751 811.361 146.751 820.111 Q146.751 828.838 143.672 833.444 Q140.616 838.028 134.806 838.028 Q128.996 838.028 125.917 833.444 Q122.862 828.838 122.862 820.111 Q122.862 811.361 125.917 806.778 Q128.996 802.171 134.806 802.171 Z" fill="#000000" fill-rule="evenodd" fill-opacity="1" /><path clip-path="url(#clip920)" d="M84.5982 707.618 L100.918 707.618 L100.918 711.553 L78.9733 711.553 L78.9733 707.618 Q81.6353 704.863 86.2186 700.234 Q90.8251 695.581 92.0056 694.238 Q94.251 691.715 95.1306 689.979 Q96.0334 688.22 96.0334 686.53 Q96.0334 683.775 94.0889 682.039 Q92.1676 680.303 89.0658 680.303 Q86.8667 680.303 84.4131 681.067 Q81.9825 681.831 79.2047 683.382 L79.2047 678.66 Q82.0288 677.525 84.4825 676.947 Q86.9362 676.368 88.9732 676.368 Q94.3436 676.368 97.538 679.053 Q100.732 681.738 100.732 686.229 Q100.732 688.359 99.9222 690.28 Q99.1352 692.178 97.0287 694.771 Q96.45 695.442 93.3482 698.659 Q90.2464 701.854 84.5982 707.618 Z" fill="#000000" fill-rule="evenodd" fill-opacity="1" /><path clip-path="url(#clip920)" d="M110.732 705.673 L115.617 705.673 L115.617 711.553 L110.732 711.553 L110.732 705.673 Z" fill="#000000" fill-rule="evenodd" fill-opacity="1" /><path clip-path="url(#clip920)" d="M125.848 676.993 L144.204 676.993 L144.204 680.928 L130.13 680.928 L130.13 689.4 Q131.149 689.053 132.167 688.891 Q133.186 688.706 134.204 688.706 Q139.991 688.706 143.371 691.877 Q146.751 695.048 146.751 700.465 Q146.751 706.044 143.278 709.146 Q139.806 712.224 133.487 712.224 Q131.311 712.224 129.042 711.854 Q126.797 711.483 124.39 710.743 L124.39 706.044 Q126.473 707.178 128.695 707.734 Q130.917 708.289 133.394 708.289 Q137.399 708.289 139.737 706.183 Q142.075 704.076 142.075 700.465 Q142.075 696.854 139.737 694.747 Q137.399 692.641 133.394 692.641 Q131.519 692.641 129.644 693.058 Q127.792 693.474 125.848 694.354 L125.848 676.993 Z" fill="#000000" fill-rule="evenodd" fill-opacity="1" /><path clip-path="url(#clip920)" d="M79.6214 551.189 L97.9778 551.189 L97.9778 555.125 L83.9038 555.125 L83.9038 563.597 Q84.9223 563.25 85.9408 563.088 Q86.9593 562.902 87.9778 562.902 Q93.7649 562.902 97.1445 566.074 Q100.524 569.245 100.524 574.662 Q100.524 580.24 97.0519 583.342 Q93.5797 586.421 87.2603 586.421 Q85.0843 586.421 82.8158 586.05 Q80.5705 585.68 78.1631 584.939 L78.1631 580.24 Q80.2464 581.374 82.4686 581.93 Q84.6908 582.486 87.1677 582.486 Q91.1723 582.486 93.5102 580.379 Q95.8482 578.273 95.8482 574.662 Q95.8482 571.05 93.5102 568.944 Q91.1723 566.838 87.1677 566.838 Q85.2927 566.838 83.4177 567.254 Q81.5658 567.671 79.6214 568.55 L79.6214 551.189 Z" fill="#000000" fill-rule="evenodd" fill-opacity="1" /><path clip-path="url(#clip920)" d="M109.737 579.87 L114.621 579.87 L114.621 585.749 L109.737 585.749 L109.737 579.87 Z" fill="#000000" fill-rule="evenodd" fill-opacity="1" /><path clip-path="url(#clip920)" d="M134.806 554.268 Q131.195 554.268 129.367 557.833 Q127.561 561.375 127.561 568.504 Q127.561 575.611 129.367 579.175 Q131.195 582.717 134.806 582.717 Q138.441 582.717 140.246 579.175 Q142.075 575.611 142.075 568.504 Q142.075 561.375 140.246 557.833 Q138.441 554.268 134.806 554.268 M134.806 550.564 Q140.616 550.564 143.672 555.171 Q146.751 559.754 146.751 568.504 Q146.751 577.231 143.672 581.837 Q140.616 586.421 134.806 586.421 Q128.996 586.421 125.917 581.837 Q122.862 577.231 122.862 568.504 Q122.862 559.754 125.917 555.171 Q128.996 550.564 134.806 550.564 Z" fill="#000000" fill-rule="evenodd" fill-opacity="1" /><path clip-path="url(#clip920)" d="M79.3899 425.386 L101.612 425.386 L101.612 427.377 L89.0658 459.946 L84.1816 459.946 L95.9871 429.321 L79.3899 429.321 L79.3899 425.386 Z" fill="#000000" fill-rule="evenodd" fill-opacity="1" /><path clip-path="url(#clip920)" d="M110.732 454.066 L115.617 454.066 L115.617 459.946 L110.732 459.946 L110.732 454.066 Z" fill="#000000" fill-rule="evenodd" fill-opacity="1" /><path clip-path="url(#clip920)" d="M125.848 425.386 L144.204 425.386 L144.204 429.321 L130.13 429.321 L130.13 437.793 Q131.149 437.446 132.167 437.284 Q133.186 437.099 134.204 437.099 Q139.991 437.099 143.371 440.27 Q146.751 443.441 146.751 448.858 Q146.751 454.437 143.278 457.539 Q139.806 460.617 133.487 460.617 Q131.311 460.617 129.042 460.247 Q126.797 459.877 124.39 459.136 L124.39 454.437 Q126.473 455.571 128.695 456.127 Q130.917 456.682 133.394 456.682 Q137.399 456.682 139.737 454.576 Q142.075 452.469 142.075 448.858 Q142.075 445.247 139.737 443.14 Q137.399 441.034 133.394 441.034 Q131.519 441.034 129.644 441.451 Q127.792 441.867 125.848 442.747 L125.848 425.386 Z" fill="#000000" fill-rule="evenodd" fill-opacity="1" /><path clip-path="url(#clip920)" d="M50.2234 330.207 L57.8623 330.207 L57.8623 303.842 L49.5521 305.508 L49.5521 301.249 L57.816 299.582 L62.4919 299.582 L62.4919 330.207 L70.1307 330.207 L70.1307 334.142 L50.2234 334.142 L50.2234 330.207 Z" fill="#000000" fill-rule="evenodd" fill-opacity="1" /><path clip-path="url(#clip920)" d="M89.5751 302.661 Q85.964 302.661 84.1353 306.226 Q82.3297 309.768 82.3297 316.897 Q82.3297 324.004 84.1353 327.568 Q85.964 331.11 89.5751 331.11 Q93.2093 331.11 95.0148 327.568 Q96.8435 324.004 96.8435 316.897 Q96.8435 309.768 95.0148 306.226 Q93.2093 302.661 89.5751 302.661 M89.5751 298.957 Q95.3852 298.957 98.4408 303.564 Q101.519 308.147 101.519 316.897 Q101.519 325.624 98.4408 330.23 Q95.3852 334.814 89.5751 334.814 Q83.7649 334.814 80.6862 330.23 Q77.6307 325.624 77.6307 316.897 Q77.6307 308.147 80.6862 303.564 Q83.7649 298.957 89.5751 298.957 Z" fill="#000000" fill-rule="evenodd" fill-opacity="1" /><path clip-path="url(#clip920)" d="M109.737 328.263 L114.621 328.263 L114.621 334.142 L109.737 334.142 L109.737 328.263 Z" fill="#000000" fill-rule="evenodd" fill-opacity="1" /><path clip-path="url(#clip920)" d="M134.806 302.661 Q131.195 302.661 129.367 306.226 Q127.561 309.768 127.561 316.897 Q127.561 324.004 129.367 327.568 Q131.195 331.11 134.806 331.11 Q138.441 331.11 140.246 327.568 Q142.075 324.004 142.075 316.897 Q142.075 309.768 140.246 306.226 Q138.441 302.661 134.806 302.661 M134.806 298.957 Q140.616 298.957 143.672 303.564 Q146.751 308.147 146.751 316.897 Q146.751 325.624 143.672 330.23 Q140.616 334.814 134.806 334.814 Q128.996 334.814 125.917 330.23 Q122.862 325.624 122.862 316.897 Q122.862 308.147 125.917 303.564 Q128.996 298.957 134.806 298.957 Z" fill="#000000" fill-rule="evenodd" fill-opacity="1" /><path clip-path="url(#clip920)" d="M51.2188 204.404 L58.8576 204.404 L58.8576 178.038 L50.5475 179.705 L50.5475 175.446 L58.8113 173.779 L63.4872 173.779 L63.4872 204.404 L71.1261 204.404 L71.1261 208.339 L51.2188 208.339 L51.2188 204.404 Z" fill="#000000" fill-rule="evenodd" fill-opacity="1" /><path clip-path="url(#clip920)" d="M84.5982 204.404 L100.918 204.404 L100.918 208.339 L78.9733 208.339 L78.9733 204.404 Q81.6353 201.649 86.2186 197.02 Q90.8251 192.367 92.0056 191.024 Q94.251 188.501 95.1306 186.765 Q96.0334 185.006 96.0334 183.316 Q96.0334 180.561 94.0889 178.825 Q92.1676 177.089 89.0658 177.089 Q86.8667 177.089 84.4131 177.853 Q81.9825 178.617 79.2047 180.168 L79.2047 175.446 Q82.0288 174.311 84.4825 173.733 Q86.9362 173.154 88.9732 173.154 Q94.3436 173.154 97.538 175.839 Q100.732 178.524 100.732 183.015 Q100.732 185.145 99.9222 187.066 Q99.1352 188.964 97.0287 191.557 Q96.45 192.228 93.3482 195.446 Q90.2464 198.64 84.5982 204.404 Z" fill="#000000" fill-rule="evenodd" fill-opacity="1" /><path clip-path="url(#clip920)" d="M110.732 202.459 L115.617 202.459 L115.617 208.339 L110.732 208.339 L110.732 202.459 Z" fill="#000000" fill-rule="evenodd" fill-opacity="1" /><path clip-path="url(#clip920)" d="M125.848 173.779 L144.204 173.779 L144.204 177.714 L130.13 177.714 L130.13 186.186 Q131.149 185.839 132.167 185.677 Q133.186 185.492 134.204 185.492 Q139.991 185.492 143.371 188.663 Q146.751 191.834 146.751 197.251 Q146.751 202.83 143.278 205.932 Q139.806 209.01 133.487 209.01 Q131.311 209.01 129.042 208.64 Q126.797 208.27 124.39 207.529 L124.39 202.83 Q126.473 203.964 128.695 204.52 Q130.917 205.075 133.394 205.075 Q137.399 205.075 139.737 202.969 Q142.075 200.862 142.075 197.251 Q142.075 193.64 139.737 191.534 Q137.399 189.427 133.394 189.427 Q131.519 189.427 129.644 189.844 Q127.792 190.26 125.848 191.14 L125.848 173.779 Z" fill="#000000" fill-rule="evenodd" fill-opacity="1" /><path clip-path="url(#clip920)" d="M1141.56 8.64 L1147.84 8.64 L1158.58 24.6989 L1169.37 8.64 L1175.65 8.64 L1161.76 29.3864 L1176.57 51.84 L1170.29 51.84 L1158.14 33.4663 L1145.9 51.84 L1139.59 51.84 L1155.02 28.7788 L1141.56 8.64 Z" fill="#000000" fill-rule="evenodd" fill-opacity="1" /><path clip-path="url(#clip920)" d="M1221.8 28.2001 L1221.8 33.3505 Q1218.76 35.6364 1216.16 36.6202 Q1213.58 37.604 1210.77 37.604 Q1207.59 37.604 1203.37 35.8968 Q1203.05 35.7811 1202.9 35.7232 Q1202.7 35.6364 1202.27 35.4917 Q1197.78 33.6977 1195.06 33.6977 Q1192.52 33.6977 1190.03 34.8262 Q1187.54 35.9257 1184.7 38.3273 L1184.7 33.1769 Q1187.74 30.891 1190.32 29.9072 Q1192.92 28.8945 1195.73 28.8945 Q1198.91 28.8945 1203.17 30.6306 Q1203.45 30.7464 1203.6 30.8042 Q1203.83 30.891 1204.24 31.0357 Q1208.72 32.8297 1211.44 32.8297 Q1213.93 32.8297 1216.36 31.7302 Q1218.82 30.6306 1221.8 28.2001 Z" fill="#000000" fill-rule="evenodd" fill-opacity="1" /><path clip-path="url(#clip920)" d="M1239.74 13.4432 L1239.74 29.6758 L1247.09 29.6758 Q1251.17 29.6758 1253.4 27.5635 Q1255.62 25.4513 1255.62 21.545 Q1255.62 17.6677 1253.4 15.5555 Q1251.17 13.4432 1247.09 13.4432 L1239.74 13.4432 M1233.89 8.64 L1247.09 8.64 Q1254.35 8.64 1258.05 11.9386 Q1261.79 15.2083 1261.79 21.545 Q1261.79 27.9397 1258.05 31.2093 Q1254.35 34.479 1247.09 34.479 L1239.74 34.479 L1239.74 51.84 L1233.89 51.84 L1233.89 8.64 Z" fill="#000000" fill-rule="evenodd" fill-opacity="1" /><path clip-path="url(#clip920)" d="M1281.46 35.5496 Q1275.01 35.5496 1272.52 37.0253 Q1270.03 38.501 1270.03 42.06 Q1270.03 44.8956 1271.89 46.5738 Q1273.77 48.2231 1276.98 48.2231 Q1281.41 48.2231 1284.07 45.0981 Q1286.76 41.9442 1286.76 36.7359 L1286.76 35.5496 L1281.46 35.5496 M1292.08 33.3505 L1292.08 51.84 L1286.76 51.84 L1286.76 46.921 Q1284.94 49.8724 1282.22 51.2902 Q1279.5 52.6791 1275.56 52.6791 Q1270.58 52.6791 1267.63 49.9014 Q1264.71 47.0947 1264.71 42.4072 Q1264.71 36.9385 1268.36 34.1607 Q1272.03 31.3829 1279.29 31.3829 L1286.76 31.3829 L1286.76 30.8621 Q1286.76 27.1874 1284.33 25.1908 Q1281.93 23.1654 1277.56 23.1654 Q1274.78 23.1654 1272.15 23.8309 Q1269.51 24.4964 1267.08 25.8274 L1267.08 20.9085 Q1270 19.78 1272.75 19.2302 Q1275.5 18.6515 1278.11 18.6515 Q1285.14 18.6515 1288.61 22.2973 Q1292.08 25.9431 1292.08 33.3505 Z" fill="#000000" fill-rule="evenodd" fill-opacity="1" /><path clip-path="url(#clip920)" d="M1321.83 24.4096 Q1320.93 23.8888 1319.86 23.6573 Q1318.82 23.3969 1317.55 23.3969 Q1313.03 23.3969 1310.6 26.3482 Q1308.2 29.2707 1308.2 34.7683 L1308.2 51.84 L1302.85 51.84 L1302.85 19.4328 L1308.2 19.4328 L1308.2 24.4675 Q1309.88 21.5161 1312.57 20.0983 Q1315.26 18.6515 1319.11 18.6515 Q1319.66 18.6515 1320.32 18.7383 Q1320.99 18.7962 1321.8 18.9409 L1321.83 24.4096 Z" fill="#000000" fill-rule="evenodd" fill-opacity="1" /><path clip-path="url(#clip920)" d="M1353.83 34.3054 L1353.83 36.9095 L1329.35 36.9095 Q1329.7 42.4072 1332.65 45.3007 Q1335.63 48.1653 1340.92 48.1653 Q1343.99 48.1653 1346.86 47.4129 Q1349.75 46.6606 1352.59 45.156 L1352.59 50.1907 Q1349.72 51.406 1346.71 52.0425 Q1343.7 52.6791 1340.61 52.6791 Q1332.85 52.6791 1328.31 48.1653 Q1323.8 43.6514 1323.8 35.9547 Q1323.8 27.9975 1328.08 23.339 Q1332.39 18.6515 1339.68 18.6515 Q1346.22 18.6515 1350.01 22.876 Q1353.83 27.0716 1353.83 34.3054 M1348.51 32.7429 Q1348.45 28.3737 1346.05 25.7695 Q1343.67 23.1654 1339.74 23.1654 Q1335.28 23.1654 1332.59 25.6827 Q1329.93 28.2001 1329.52 32.7718 L1348.51 32.7429 Z" fill="#000000" fill-rule="evenodd" fill-opacity="1" /><path clip-path="url(#clip920)" d="M1367.83 10.2314 L1367.83 19.4328 L1378.8 19.4328 L1378.8 23.5705 L1367.83 23.5705 L1367.83 41.163 Q1367.83 45.1271 1368.9 46.2555 Q1370 47.384 1373.33 47.384 L1378.8 47.384 L1378.8 51.84 L1373.33 51.84 Q1367.17 51.84 1364.83 49.5541 Q1362.48 47.2393 1362.48 41.163 L1362.48 23.5705 L1358.58 23.5705 L1358.58 19.4328 L1362.48 19.4328 L1362.48 10.2314 L1367.83 10.2314 Z" fill="#000000" fill-rule="evenodd" fill-opacity="1" /><path clip-path="url(#clip920)" d="M1398.36 23.1654 Q1394.08 23.1654 1391.59 26.5218 Q1389.1 29.8494 1389.1 35.6653 Q1389.1 41.4813 1391.56 44.8377 Q1394.05 48.1653 1398.36 48.1653 Q1402.61 48.1653 1405.1 44.8088 Q1407.59 41.4523 1407.59 35.6653 Q1407.59 29.9072 1405.1 26.5508 Q1402.61 23.1654 1398.36 23.1654 M1398.36 18.6515 Q1405.31 18.6515 1409.27 23.1654 Q1413.23 27.6792 1413.23 35.6653 Q1413.23 43.6225 1409.27 48.1653 Q1405.31 52.6791 1398.36 52.6791 Q1391.39 52.6791 1387.42 48.1653 Q1383.49 43.6225 1383.49 35.6653 Q1383.49 27.6792 1387.42 23.1654 Q1391.39 18.6515 1398.36 18.6515 Z" fill="#000000" fill-rule="evenodd" fill-opacity="1" /><path clip-path="url(#clip920)" d="M1423.42 44.4905 L1429.52 44.4905 L1429.52 49.4673 L1424.78 58.7265 L1421.05 58.7265 L1423.42 49.4673 L1423.42 44.4905 Z" fill="#000000" fill-rule="evenodd" fill-opacity="1" /><path clip-path="url(#clip920)" d="M1486.67 32.2799 L1486.67 51.84 L1481.35 51.84 L1481.35 32.4535 Q1481.35 27.8529 1479.55 25.567 Q1477.76 23.2811 1474.17 23.2811 Q1469.86 23.2811 1467.37 26.03 Q1464.88 28.7788 1464.88 33.5241 L1464.88 51.84 L1459.53 51.84 L1459.53 19.4328 L1464.88 19.4328 L1464.88 24.4675 Q1466.79 21.545 1469.37 20.0983 Q1471.97 18.6515 1475.36 18.6515 Q1480.94 18.6515 1483.81 22.1237 Q1486.67 25.567 1486.67 32.2799 Z" fill="#000000" fill-rule="evenodd" fill-opacity="1" /><path clip-path="url(#clip920)" d="M1497.98 24.9304 L1535.08 24.9304 L1535.08 29.7915 L1497.98 29.7915 L1497.98 24.9304 M1497.98 36.7359 L1535.08 36.7359 L1535.08 41.6549 L1497.98 41.6549 L1497.98 36.7359 Z" fill="#000000" fill-rule="evenodd" fill-opacity="1" /><path clip-path="url(#clip920)" d="M1548.71 46.921 L1558.26 46.921 L1558.26 13.964 L1547.87 16.0474 L1547.87 10.7233 L1558.2 8.64 L1564.04 8.64 L1564.04 46.921 L1573.59 46.921 L1573.59 51.84 L1548.71 51.84 L1548.71 46.921 Z" fill="#000000" fill-rule="evenodd" fill-opacity="1" /><path clip-path="url(#clip920)" d="M1597.9 12.4884 Q1593.38 12.4884 1591.1 16.9444 Q1588.84 21.3714 1588.84 30.2834 Q1588.84 39.1665 1591.1 43.6225 Q1593.38 48.0495 1597.9 48.0495 Q1602.44 48.0495 1604.7 43.6225 Q1606.98 39.1665 1606.98 30.2834 Q1606.98 21.3714 1604.7 16.9444 Q1602.44 12.4884 1597.9 12.4884 M1597.9 7.85875 Q1605.16 7.85875 1608.98 13.6168 Q1612.83 19.346 1612.83 30.2834 Q1612.83 41.1919 1608.98 46.95 Q1605.16 52.6791 1597.9 52.6791 Q1590.63 52.6791 1586.79 46.95 Q1582.97 41.1919 1582.97 30.2834 Q1582.97 19.346 1586.79 13.6168 Q1590.63 7.85875 1597.9 7.85875 Z" fill="#000000" fill-rule="evenodd" fill-opacity="1" /><path clip-path="url(#clip920)" d="M1635.6 12.4884 Q1631.09 12.4884 1628.8 16.9444 Q1626.54 21.3714 1626.54 30.2834 Q1626.54 39.1665 1628.8 43.6225 Q1631.09 48.0495 1635.6 48.0495 Q1640.14 48.0495 1642.4 43.6225 Q1644.68 39.1665 1644.68 30.2834 Q1644.68 21.3714 1642.4 16.9444 Q1640.14 12.4884 1635.6 12.4884 M1635.6 7.85875 Q1642.86 7.85875 1646.68 13.6168 Q1650.53 19.346 1650.53 30.2834 Q1650.53 41.1919 1646.68 46.95 Q1642.86 52.6791 1635.6 52.6791 Q1628.34 52.6791 1624.49 46.95 Q1620.67 41.1919 1620.67 30.2834 Q1620.67 19.346 1624.49 13.6168 Q1628.34 7.85875 1635.6 7.85875 Z" fill="#000000" fill-rule="evenodd" fill-opacity="1" /><path clip-path="url(#clip920)" d="M1673.3 12.4884 Q1668.79 12.4884 1666.5 16.9444 Q1664.24 21.3714 1664.24 30.2834 Q1664.24 39.1665 1666.5 43.6225 Q1668.79 48.0495 1673.3 48.0495 Q1677.84 48.0495 1680.1 43.6225 Q1682.39 39.1665 1682.39 30.2834 Q1682.39 21.3714 1680.1 16.9444 Q1677.84 12.4884 1673.3 12.4884 M1673.3 7.85875 Q1680.56 7.85875 1684.38 13.6168 Q1688.23 19.346 1688.23 30.2834 Q1688.23 41.1919 1684.38 46.95 Q1680.56 52.6791 1673.3 52.6791 Q1666.04 52.6791 1662.19 46.95 Q1658.37 41.1919 1658.37 30.2834 Q1658.37 19.346 1662.19 13.6168 Q1666.04 7.85875 1673.3 7.85875 Z" fill="#000000" fill-rule="evenodd" fill-opacity="1" /><polyline clip-path="url(#clip922)" style="stroke:#009af9; stroke-linecap:round; stroke-linejoin:round; stroke-width:0; stroke-opacity:1; fill:none" points="
  256.515,804.282 1413.91,130.092 2571.31,129.981 
  "/>
<circle clip-path="url(#clip922)" cx="256.515" cy="804.282" r="14.4" fill="#009af9" fill-rule="evenodd" fill-opacity="1" stroke="#000000" stroke-opacity="1" stroke-width="3.84"/>
<circle clip-path="url(#clip922)" cx="1413.91" cy="130.092" r="14.4" fill="#009af9" fill-rule="evenodd" fill-opacity="1" stroke="#000000" stroke-opacity="1" stroke-width="3.84"/>
<circle clip-path="url(#clip922)" cx="2571.31" cy="129.981" r="14.4" fill="#009af9" fill-rule="evenodd" fill-opacity="1" stroke="#000000" stroke-opacity="1" stroke-width="3.84"/>
<polyline clip-path="url(#clip922)" style="stroke:#e26f46; stroke-linecap:round; stroke-linejoin:round; stroke-width:0; stroke-opacity:1; fill:none" points="
  256.515,807.463 1413.91,623.418 2571.31,623.033 
  "/>
<circle clip-path="url(#clip922)" cx="256.515" cy="807.463" r="14.4" fill="#e26f46" fill-rule="evenodd" fill-opacity="1" stroke="#000000" stroke-opacity="1" stroke-width="3.84"/>
<circle clip-path="url(#clip922)" cx="1413.91" cy="623.418" r="14.4" fill="#e26f46" fill-rule="evenodd" fill-opacity="1" stroke="#000000" stroke-opacity="1" stroke-width="3.84"/>
<circle clip-path="url(#clip922)" cx="2571.31" cy="623.033" r="14.4" fill="#e26f46" fill-rule="evenodd" fill-opacity="1" stroke="#000000" stroke-opacity="1" stroke-width="3.84"/>
<polyline clip-path="url(#clip922)" style="stroke:#3da44d; stroke-linecap:round; stroke-linejoin:round; stroke-width:0; stroke-opacity:1; fill:none" points="
  256.515,778.186 1413.91,516.638 2571.31,513.79 
  "/>
<circle clip-path="url(#clip922)" cx="256.515" cy="778.186" r="14.4" fill="#3da44d" fill-rule="evenodd" fill-opacity="1" stroke="#000000" stroke-opacity="1" stroke-width="3.84"/>
<circle clip-path="url(#clip922)" cx="1413.91" cy="516.638" r="14.4" fill="#3da44d" fill-rule="evenodd" fill-opacity="1" stroke="#000000" stroke-opacity="1" stroke-width="3.84"/>
<circle clip-path="url(#clip922)" cx="2571.31" cy="513.79" r="14.4" fill="#3da44d" fill-rule="evenodd" fill-opacity="1" stroke="#000000" stroke-opacity="1" stroke-width="3.84"/>
<polyline clip-path="url(#clip922)" style="stroke:#000000; stroke-linecap:round; stroke-linejoin:round; stroke-width:4; stroke-opacity:1; fill:none" points="
  -2266.61,820.076 5094.44,820.076 
  "/>
<path clip-path="url(#clip920)" d="
M268.86 341.021 L956.495 341.021 L956.495 133.661 L268.86 133.661  Z
  " fill="#ffffff" fill-rule="evenodd" fill-opacity="1"/>
<polyline clip-path="url(#clip920)" style="stroke:#000000; stroke-linecap:round; stroke-linejoin:round; stroke-width:4; stroke-opacity:1; fill:none" points="
  268.86,341.021 956.495,341.021 956.495,133.661 268.86,133.661 268.86,341.021 
  "/>
<polyline clip-path="url(#clip920)" style="stroke:#009af9; stroke-linecap:round; stroke-linejoin:round; stroke-width:0.8; stroke-opacity:1; fill:none" points="
  296.123,185.501 459.702,185.501 
  "/>
<circle clip-path="url(#clip920)" cx="377.913" cy="185.501" r="22.7193" fill="#009af9" fill-rule="evenodd" fill-opacity="1" stroke="#000000" stroke-opacity="1" stroke-width="6.144"/>
<path clip-path="url(#clip920)" d="M509.211 169.355 L509.211 173.916 Q506.549 172.642 504.188 172.017 Q501.827 171.393 499.628 171.393 Q495.808 171.393 493.725 172.874 Q491.665 174.355 491.665 177.087 Q491.665 179.379 493.03 180.559 Q494.419 181.717 498.262 182.434 L501.086 183.013 Q506.317 184.008 508.794 186.531 Q511.294 189.031 511.294 193.244 Q511.294 198.267 507.915 200.86 Q504.558 203.453 498.053 203.453 Q495.6 203.453 492.822 202.897 Q490.067 202.341 487.104 201.253 L487.104 196.439 Q489.952 198.036 492.683 198.846 Q495.415 199.656 498.053 199.656 Q502.058 199.656 504.234 198.082 Q506.41 196.508 506.41 193.591 Q506.41 191.045 504.836 189.61 Q503.285 188.175 499.72 187.457 L496.873 186.902 Q491.641 185.86 489.303 183.638 Q486.966 181.416 486.966 177.457 Q486.966 172.874 490.183 170.235 Q493.424 167.596 499.095 167.596 Q501.526 167.596 504.049 168.036 Q506.572 168.476 509.211 169.355 Z" fill="#000000" fill-rule="evenodd" fill-opacity="1" /><path clip-path="url(#clip920)" d="M530.183 189.749 Q525.021 189.749 523.03 190.929 Q521.039 192.11 521.039 194.957 Q521.039 197.226 522.521 198.568 Q524.026 199.888 526.595 199.888 Q530.137 199.888 532.266 197.388 Q534.419 194.865 534.419 190.698 L534.419 189.749 L530.183 189.749 M538.678 187.99 L538.678 202.781 L534.419 202.781 L534.419 198.846 Q532.961 201.207 530.785 202.341 Q528.609 203.453 525.461 203.453 Q521.479 203.453 519.118 201.23 Q516.78 198.985 516.78 195.235 Q516.78 190.86 519.697 188.638 Q522.637 186.416 528.447 186.416 L534.419 186.416 L534.419 185.999 Q534.419 183.059 532.475 181.462 Q530.553 179.842 527.058 179.842 Q524.836 179.842 522.729 180.374 Q520.623 180.906 518.678 181.971 L518.678 178.036 Q521.016 177.133 523.215 176.693 Q525.414 176.23 527.498 176.23 Q533.123 176.23 535.9 179.147 Q538.678 182.064 538.678 187.99 Z" fill="#000000" fill-rule="evenodd" fill-opacity="1" /><path clip-path="url(#clip920)" d="M567.636 181.832 Q569.234 178.962 571.456 177.596 Q573.678 176.23 576.687 176.23 Q580.738 176.23 582.937 179.078 Q585.136 181.902 585.136 187.133 L585.136 202.781 L580.854 202.781 L580.854 187.272 Q580.854 183.545 579.534 181.74 Q578.215 179.934 575.507 179.934 Q572.197 179.934 570.275 182.133 Q568.354 184.332 568.354 188.129 L568.354 202.781 L564.072 202.781 L564.072 187.272 Q564.072 183.522 562.752 181.74 Q561.433 179.934 558.678 179.934 Q555.414 179.934 553.493 182.156 Q551.572 184.355 551.572 188.129 L551.572 202.781 L547.289 202.781 L547.289 176.855 L551.572 176.855 L551.572 180.883 Q553.03 178.499 555.067 177.365 Q557.104 176.23 559.905 176.23 Q562.729 176.23 564.697 177.666 Q566.687 179.101 567.636 181.832 Z" fill="#000000" fill-rule="evenodd" fill-opacity="1" /><path clip-path="url(#clip920)" d="M597.752 198.892 L597.752 212.642 L593.47 212.642 L593.47 176.855 L597.752 176.855 L597.752 180.791 Q599.095 178.476 601.132 177.365 Q603.192 176.23 606.039 176.23 Q610.761 176.23 613.701 179.98 Q616.664 183.73 616.664 189.841 Q616.664 195.953 613.701 199.703 Q610.761 203.453 606.039 203.453 Q603.192 203.453 601.132 202.341 Q599.095 201.207 597.752 198.892 M612.243 189.841 Q612.243 185.142 610.298 182.48 Q608.377 179.795 604.997 179.795 Q601.618 179.795 599.673 182.48 Q597.752 185.142 597.752 189.841 Q597.752 194.541 599.673 197.226 Q601.618 199.888 604.997 199.888 Q608.377 199.888 610.298 197.226 Q612.243 194.541 612.243 189.841 Z" fill="#000000" fill-rule="evenodd" fill-opacity="1" /><path clip-path="url(#clip920)" d="M623.724 166.763 L627.983 166.763 L627.983 202.781 L623.724 202.781 L623.724 166.763 Z" fill="#000000" fill-rule="evenodd" fill-opacity="1" /><path clip-path="url(#clip920)" d="M659.071 188.754 L659.071 190.837 L639.488 190.837 Q639.766 195.235 642.127 197.55 Q644.511 199.841 648.747 199.841 Q651.201 199.841 653.492 199.24 Q655.807 198.638 658.076 197.434 L658.076 201.462 Q655.784 202.434 653.377 202.943 Q650.969 203.453 648.492 203.453 Q642.289 203.453 638.655 199.841 Q635.043 196.23 635.043 190.073 Q635.043 183.707 638.469 179.98 Q641.918 176.23 647.752 176.23 Q652.983 176.23 656.016 179.61 Q659.071 182.967 659.071 188.754 M654.812 187.504 Q654.766 184.008 652.844 181.925 Q650.946 179.842 647.798 179.842 Q644.233 179.842 642.08 181.855 Q639.951 183.869 639.627 187.527 L654.812 187.504 Z" fill="#000000" fill-rule="evenodd" fill-opacity="1" /><path clip-path="url(#clip920)" d="M681.316 168.221 L688.284 168.221 L697.103 191.74 L705.969 168.221 L712.937 168.221 L712.937 202.781 L708.376 202.781 L708.376 172.434 L699.464 196.138 L694.765 196.138 L685.853 172.434 L685.853 202.781 L681.316 202.781 L681.316 168.221 Z" fill="#000000" fill-rule="evenodd" fill-opacity="1" /><path clip-path="url(#clip920)" d="M744.21 188.754 L744.21 190.837 L724.626 190.837 Q724.904 195.235 727.265 197.55 Q729.649 199.841 733.886 199.841 Q736.339 199.841 738.631 199.24 Q740.946 198.638 743.214 197.434 L743.214 201.462 Q740.923 202.434 738.515 202.943 Q736.108 203.453 733.631 203.453 Q727.427 203.453 723.793 199.841 Q720.182 196.23 720.182 190.073 Q720.182 183.707 723.608 179.98 Q727.057 176.23 732.89 176.23 Q738.122 176.23 741.154 179.61 Q744.21 182.967 744.21 188.754 M739.95 187.504 Q739.904 184.008 737.983 181.925 Q736.085 179.842 732.936 179.842 Q729.372 179.842 727.219 181.855 Q725.089 183.869 724.765 187.527 L739.95 187.504 Z" fill="#000000" fill-rule="evenodd" fill-opacity="1" /><path clip-path="url(#clip920)" d="M762.983 189.749 Q757.821 189.749 755.83 190.929 Q753.839 192.11 753.839 194.957 Q753.839 197.226 755.321 198.568 Q756.825 199.888 759.395 199.888 Q762.936 199.888 765.066 197.388 Q767.219 194.865 767.219 190.698 L767.219 189.749 L762.983 189.749 M771.478 187.99 L771.478 202.781 L767.219 202.781 L767.219 198.846 Q765.76 201.207 763.584 202.341 Q761.409 203.453 758.26 203.453 Q754.279 203.453 751.918 201.23 Q749.58 198.985 749.58 195.235 Q749.58 190.86 752.497 188.638 Q755.436 186.416 761.246 186.416 L767.219 186.416 L767.219 185.999 Q767.219 183.059 765.274 181.462 Q763.353 179.842 759.858 179.842 Q757.635 179.842 755.529 180.374 Q753.422 180.906 751.478 181.971 L751.478 178.036 Q753.816 177.133 756.015 176.693 Q758.214 176.23 760.297 176.23 Q765.922 176.23 768.7 179.147 Q771.478 182.064 771.478 187.99 Z" fill="#000000" fill-rule="evenodd" fill-opacity="1" /><path clip-path="url(#clip920)" d="M801.802 187.133 L801.802 202.781 L797.543 202.781 L797.543 187.272 Q797.543 183.592 796.107 181.763 Q794.672 179.934 791.802 179.934 Q788.353 179.934 786.362 182.133 Q784.371 184.332 784.371 188.129 L784.371 202.781 L780.089 202.781 L780.089 176.855 L784.371 176.855 L784.371 180.883 Q785.899 178.545 787.959 177.388 Q790.043 176.23 792.751 176.23 Q797.219 176.23 799.51 179.008 Q801.802 181.763 801.802 187.133 Z" fill="#000000" fill-rule="evenodd" fill-opacity="1" /><path clip-path="url(#clip920)" d="M832.936 168.221 L836.871 168.221 L824.834 207.179 L820.899 207.179 L832.936 168.221 Z" fill="#000000" fill-rule="evenodd" fill-opacity="1" /><path clip-path="url(#clip920)" d="M865.505 202.781 L852.311 168.221 L857.195 168.221 L868.144 197.318 L879.116 168.221 L883.977 168.221 L870.806 202.781 L865.505 202.781 Z" fill="#000000" fill-rule="evenodd" fill-opacity="1" /><path clip-path="url(#clip920)" d="M896.94 189.749 Q891.778 189.749 889.787 190.929 Q887.797 192.11 887.797 194.957 Q887.797 197.226 889.278 198.568 Q890.783 199.888 893.352 199.888 Q896.894 199.888 899.024 197.388 Q901.176 194.865 901.176 190.698 L901.176 189.749 L896.94 189.749 M905.436 187.99 L905.436 202.781 L901.176 202.781 L901.176 198.846 Q899.718 201.207 897.542 202.341 Q895.366 203.453 892.218 203.453 Q888.237 203.453 885.875 201.23 Q883.537 198.985 883.537 195.235 Q883.537 190.86 886.454 188.638 Q889.394 186.416 895.204 186.416 L901.176 186.416 L901.176 185.999 Q901.176 183.059 899.232 181.462 Q897.311 179.842 893.815 179.842 Q891.593 179.842 889.487 180.374 Q887.38 180.906 885.436 181.971 L885.436 178.036 Q887.774 177.133 889.973 176.693 Q892.172 176.23 894.255 176.23 Q899.88 176.23 902.658 179.147 Q905.436 182.064 905.436 187.99 Z" fill="#000000" fill-rule="evenodd" fill-opacity="1" /><path clip-path="url(#clip920)" d="M929.232 180.837 Q928.514 180.42 927.658 180.235 Q926.824 180.027 925.806 180.027 Q922.195 180.027 920.25 182.388 Q918.329 184.726 918.329 189.124 L918.329 202.781 L914.047 202.781 L914.047 176.855 L918.329 176.855 L918.329 180.883 Q919.672 178.522 921.824 177.388 Q923.977 176.23 927.056 176.23 Q927.496 176.23 928.028 176.3 Q928.56 176.346 929.209 176.462 L929.232 180.837 Z" fill="#000000" fill-rule="evenodd" fill-opacity="1" /><polyline clip-path="url(#clip920)" style="stroke:#e26f46; stroke-linecap:round; stroke-linejoin:round; stroke-width:0.8; stroke-opacity:1; fill:none" points="
  296.123,237.341 459.702,237.341 
  "/>
<circle clip-path="url(#clip920)" cx="377.913" cy="237.341" r="22.7193" fill="#e26f46" fill-rule="evenodd" fill-opacity="1" stroke="#000000" stroke-opacity="1" stroke-width="6.144"/>
<path clip-path="url(#clip920)" d="M486.966 220.061 L491.641 220.061 L491.641 234.228 L508.632 234.228 L508.632 220.061 L513.308 220.061 L513.308 254.621 L508.632 254.621 L508.632 238.163 L491.641 238.163 L491.641 254.621 L486.966 254.621 L486.966 220.061 Z" fill="#000000" fill-rule="evenodd" fill-opacity="1" /><path clip-path="url(#clip920)" d="M522.428 228.695 L526.688 228.695 L526.688 254.621 L522.428 254.621 L522.428 228.695 M522.428 218.603 L526.688 218.603 L526.688 223.996 L522.428 223.996 L522.428 218.603 Z" fill="#000000" fill-rule="evenodd" fill-opacity="1" /><path clip-path="url(#clip920)" d="M535.6 218.603 L539.859 218.603 L539.859 254.621 L535.6 254.621 L535.6 218.603 Z" fill="#000000" fill-rule="evenodd" fill-opacity="1" /><path clip-path="url(#clip920)" d="M548.771 218.603 L553.03 218.603 L553.03 254.621 L548.771 254.621 L548.771 218.603 Z" fill="#000000" fill-rule="evenodd" fill-opacity="1" /><polyline clip-path="url(#clip920)" style="stroke:#3da44d; stroke-linecap:round; stroke-linejoin:round; stroke-width:0.8; stroke-opacity:1; fill:none" points="
  296.123,289.181 459.702,289.181 
  "/>
<circle clip-path="url(#clip920)" cx="377.913" cy="289.181" r="22.7193" fill="#3da44d" fill-rule="evenodd" fill-opacity="1" stroke="#000000" stroke-opacity="1" stroke-width="6.144"/>
<path clip-path="url(#clip920)" d="M512.521 301.531 L512.521 292.248 L504.882 292.248 L504.882 288.406 L517.151 288.406 L517.151 303.244 Q514.442 305.165 511.178 306.16 Q507.915 307.133 504.211 307.133 Q496.109 307.133 491.526 302.41 Q486.966 297.665 486.966 289.216 Q486.966 280.744 491.526 276.022 Q496.109 271.276 504.211 271.276 Q507.59 271.276 510.623 272.11 Q513.678 272.943 516.248 274.563 L516.248 279.54 Q513.655 277.341 510.739 276.23 Q507.822 275.119 504.604 275.119 Q498.262 275.119 495.067 278.66 Q491.896 282.202 491.896 289.216 Q491.896 296.207 495.067 299.748 Q498.262 303.29 504.604 303.29 Q507.081 303.29 509.026 302.873 Q510.97 302.433 512.521 301.531 Z" fill="#000000" fill-rule="evenodd" fill-opacity="1" /><path clip-path="url(#clip920)" d="M530.368 275.744 L530.368 288.73 L536.248 288.73 Q539.512 288.73 541.294 287.04 Q543.076 285.35 543.076 282.225 Q543.076 279.123 541.294 277.434 Q539.512 275.744 536.248 275.744 L530.368 275.744 M525.692 271.901 L536.248 271.901 Q542.058 271.901 545.021 274.54 Q548.007 277.156 548.007 282.225 Q548.007 287.341 545.021 289.957 Q542.058 292.572 536.248 292.572 L530.368 292.572 L530.368 306.461 L525.692 306.461 L525.692 271.901 Z" fill="#000000" fill-rule="evenodd" fill-opacity="1" /><path clip-path="url(#clip920)" d="M558.956 275.744 L558.956 302.619 L564.604 302.619 Q571.757 302.619 575.067 299.378 Q578.4 296.137 578.4 289.147 Q578.4 282.202 575.067 278.985 Q571.757 275.744 564.604 275.744 L558.956 275.744 M554.28 271.901 L563.886 271.901 Q573.933 271.901 578.632 276.091 Q583.331 280.258 583.331 289.147 Q583.331 298.082 578.609 302.271 Q573.886 306.461 563.886 306.461 L554.28 306.461 L554.28 271.901 Z" fill="#000000" fill-rule="evenodd" fill-opacity="1" /><path clip-path="url(#clip920)" d="
M187.071 1800.78 L2640.76 1800.78 L2640.76 1069.28 L187.071 1069.28  Z
  " fill="#ffffff" fill-rule="evenodd" fill-opacity="1"/>
<defs>
  <clipPath id="clip923">
    <rect x="187" y="1069" width="2455" height="733"/>
  </clipPath>
</defs>
<polyline clip-path="url(#clip923)" style="stroke:#000000; stroke-linecap:round; stroke-linejoin:round; stroke-width:2; stroke-opacity:0.1; fill:none" points="
  256.515,1800.78 256.515,1069.28 
  "/>
<polyline clip-path="url(#clip923)" style="stroke:#000000; stroke-linecap:round; stroke-linejoin:round; stroke-width:2; stroke-opacity:0.1; fill:none" points="
  1413.91,1800.78 1413.91,1069.28 
  "/>
<polyline clip-path="url(#clip923)" style="stroke:#000000; stroke-linecap:round; stroke-linejoin:round; stroke-width:2; stroke-opacity:0.1; fill:none" points="
  2571.31,1800.78 2571.31,1069.28 
  "/>
<polyline clip-path="url(#clip920)" style="stroke:#000000; stroke-linecap:round; stroke-linejoin:round; stroke-width:4; stroke-opacity:1; fill:none" points="
  187.071,1800.78 2640.76,1800.78 
  "/>
<polyline clip-path="url(#clip920)" style="stroke:#000000; stroke-linecap:round; stroke-linejoin:round; stroke-width:4; stroke-opacity:1; fill:none" points="
  256.515,1800.78 256.515,1781.88 
  "/>
<polyline clip-path="url(#clip920)" style="stroke:#000000; stroke-linecap:round; stroke-linejoin:round; stroke-width:4; stroke-opacity:1; fill:none" points="
  1413.91,1800.78 1413.91,1781.88 
  "/>
<polyline clip-path="url(#clip920)" style="stroke:#000000; stroke-linecap:round; stroke-linejoin:round; stroke-width:4; stroke-opacity:1; fill:none" points="
  2571.31,1800.78 2571.31,1781.88 
  "/>
<path clip-path="url(#clip920)" d="M200.774 1829.26 L200.774 1876.66 L196.839 1876.66 L196.839 1829.26 L200.774 1829.26 Z" fill="#000000" fill-rule="evenodd" fill-opacity="1" /><path clip-path="url(#clip920)" d="M216.121 1848.98 L216.121 1861.64 L223.621 1861.64 Q227.394 1861.64 229.2 1860.09 Q231.029 1858.52 231.029 1855.3 Q231.029 1852.06 229.2 1850.53 Q227.394 1848.98 223.621 1848.98 L216.121 1848.98 M216.121 1834.77 L216.121 1845.18 L223.043 1845.18 Q226.468 1845.18 228.135 1843.91 Q229.825 1842.61 229.825 1839.97 Q229.825 1837.36 228.135 1836.06 Q226.468 1834.77 223.043 1834.77 L216.121 1834.77 M211.445 1830.92 L223.39 1830.92 Q228.737 1830.92 231.63 1833.15 Q234.524 1835.37 234.524 1839.46 Q234.524 1842.64 233.043 1844.51 Q231.561 1846.39 228.691 1846.85 Q232.14 1847.59 234.038 1849.95 Q235.959 1852.29 235.959 1855.81 Q235.959 1860.44 232.811 1862.96 Q229.663 1865.48 223.853 1865.48 L211.445 1865.48 L211.445 1830.92 Z" fill="#000000" fill-rule="evenodd" fill-opacity="1" /><path clip-path="url(#clip920)" d="M243.783 1839.56 L248.042 1839.56 L248.042 1865.48 L243.783 1865.48 L243.783 1839.56 M243.783 1829.46 L248.042 1829.46 L248.042 1834.86 L243.783 1834.86 L243.783 1829.46 Z" fill="#000000" fill-rule="evenodd" fill-opacity="1" /><path clip-path="url(#clip920)" d="M268.737 1852.45 Q263.575 1852.45 261.584 1853.63 Q259.593 1854.81 259.593 1857.66 Q259.593 1859.93 261.075 1861.27 Q262.579 1862.59 265.149 1862.59 Q268.69 1862.59 270.82 1860.09 Q272.973 1857.57 272.973 1853.4 L272.973 1852.45 L268.737 1852.45 M277.232 1850.69 L277.232 1865.48 L272.973 1865.48 L272.973 1861.55 Q271.515 1863.91 269.339 1865.04 Q267.163 1866.15 264.015 1866.15 Q260.033 1866.15 257.672 1863.93 Q255.334 1861.69 255.334 1857.94 Q255.334 1853.56 258.251 1851.34 Q261.191 1849.12 267.001 1849.12 L272.973 1849.12 L272.973 1848.7 Q272.973 1845.76 271.028 1844.16 Q269.107 1842.54 265.612 1842.54 Q263.39 1842.54 261.283 1843.08 Q259.177 1843.61 257.232 1844.67 L257.232 1840.74 Q259.57 1839.84 261.769 1839.4 Q263.968 1838.93 266.052 1838.93 Q271.677 1838.93 274.454 1841.85 Q277.232 1844.77 277.232 1850.69 Z" fill="#000000" fill-rule="evenodd" fill-opacity="1" /><path clip-path="url(#clip920)" d="M302.533 1840.32 L302.533 1844.35 Q300.727 1843.42 298.783 1842.96 Q296.838 1842.5 294.755 1842.5 Q291.584 1842.5 289.987 1843.47 Q288.413 1844.44 288.413 1846.39 Q288.413 1847.87 289.547 1848.72 Q290.681 1849.56 294.107 1850.32 L295.565 1850.65 Q300.102 1851.62 302 1853.4 Q303.922 1855.16 303.922 1858.33 Q303.922 1861.94 301.051 1864.05 Q298.204 1866.15 293.204 1866.15 Q291.121 1866.15 288.852 1865.74 Q286.607 1865.34 284.107 1864.53 L284.107 1860.14 Q286.468 1861.36 288.76 1861.99 Q291.051 1862.59 293.297 1862.59 Q296.306 1862.59 297.926 1861.57 Q299.547 1860.53 299.547 1858.65 Q299.547 1856.92 298.366 1855.99 Q297.209 1855.07 293.251 1854.21 L291.769 1853.86 Q287.811 1853.03 286.051 1851.32 Q284.292 1849.58 284.292 1846.57 Q284.292 1842.91 286.885 1840.92 Q289.477 1838.93 294.246 1838.93 Q296.607 1838.93 298.69 1839.28 Q300.774 1839.63 302.533 1840.32 Z" fill="#000000" fill-rule="evenodd" fill-opacity="1" /><path clip-path="url(#clip920)" d="M316.19 1829.26 L316.19 1876.66 L312.255 1876.66 L312.255 1829.26 L316.19 1829.26 Z" fill="#000000" fill-rule="evenodd" fill-opacity="1" /><path clip-path="url(#clip920)" d="M1210.99 1832.06 L1210.99 1836.62 Q1208.32 1835.34 1205.96 1834.72 Q1203.6 1834.09 1201.4 1834.09 Q1197.58 1834.09 1195.5 1835.58 Q1193.44 1837.06 1193.44 1839.79 Q1193.44 1842.08 1194.81 1843.26 Q1196.19 1844.42 1200.04 1845.14 L1202.86 1845.71 Q1208.09 1846.71 1210.57 1849.23 Q1213.07 1851.73 1213.07 1855.95 Q1213.07 1860.97 1209.69 1863.56 Q1206.33 1866.15 1199.83 1866.15 Q1197.38 1866.15 1194.6 1865.6 Q1191.84 1865.04 1188.88 1863.96 L1188.88 1859.14 Q1191.73 1860.74 1194.46 1861.55 Q1197.19 1862.36 1199.83 1862.36 Q1203.83 1862.36 1206.01 1860.78 Q1208.19 1859.21 1208.19 1856.29 Q1208.19 1853.75 1206.61 1852.31 Q1205.06 1850.88 1201.5 1850.16 L1198.65 1849.6 Q1193.42 1848.56 1191.08 1846.34 Q1188.74 1844.12 1188.74 1840.16 Q1188.74 1835.58 1191.96 1832.94 Q1195.2 1830.3 1200.87 1830.3 Q1203.3 1830.3 1205.82 1830.74 Q1208.35 1831.18 1210.99 1832.06 Z" fill="#000000" fill-rule="evenodd" fill-opacity="1" /><path clip-path="url(#clip920)" d="M1224.39 1832.2 L1224.39 1839.56 L1233.16 1839.56 L1233.16 1842.87 L1224.39 1842.87 L1224.39 1856.94 Q1224.39 1860.11 1225.25 1861.02 Q1226.12 1861.92 1228.79 1861.92 L1233.16 1861.92 L1233.16 1865.48 L1228.79 1865.48 Q1223.86 1865.48 1221.98 1863.65 Q1220.11 1861.8 1220.11 1856.94 L1220.11 1842.87 L1216.98 1842.87 L1216.98 1839.56 L1220.11 1839.56 L1220.11 1832.2 L1224.39 1832.2 Z" fill="#000000" fill-rule="evenodd" fill-opacity="1" /><path clip-path="url(#clip920)" d="M1250.55 1852.45 Q1245.38 1852.45 1243.39 1853.63 Q1241.4 1854.81 1241.4 1857.66 Q1241.4 1859.93 1242.88 1861.27 Q1244.39 1862.59 1246.96 1862.59 Q1250.5 1862.59 1252.63 1860.09 Q1254.78 1857.57 1254.78 1853.4 L1254.78 1852.45 L1250.55 1852.45 M1259.04 1850.69 L1259.04 1865.48 L1254.78 1865.48 L1254.78 1861.55 Q1253.32 1863.91 1251.15 1865.04 Q1248.97 1866.15 1245.82 1866.15 Q1241.84 1866.15 1239.48 1863.93 Q1237.14 1861.69 1237.14 1857.94 Q1237.14 1853.56 1240.06 1851.34 Q1243 1849.12 1248.81 1849.12 L1254.78 1849.12 L1254.78 1848.7 Q1254.78 1845.76 1252.84 1844.16 Q1250.92 1842.54 1247.42 1842.54 Q1245.2 1842.54 1243.09 1843.08 Q1240.99 1843.61 1239.04 1844.67 L1239.04 1840.74 Q1241.38 1839.84 1243.58 1839.4 Q1245.78 1838.93 1247.86 1838.93 Q1253.49 1838.93 1256.26 1841.85 Q1259.04 1844.77 1259.04 1850.69 Z" fill="#000000" fill-rule="evenodd" fill-opacity="1" /><path clip-path="url(#clip920)" d="M1289.37 1849.84 L1289.37 1865.48 L1285.11 1865.48 L1285.11 1849.97 Q1285.11 1846.29 1283.67 1844.46 Q1282.24 1842.64 1279.37 1842.64 Q1275.92 1842.64 1273.93 1844.84 Q1271.93 1847.03 1271.93 1850.83 L1271.93 1865.48 L1267.65 1865.48 L1267.65 1839.56 L1271.93 1839.56 L1271.93 1843.59 Q1273.46 1841.25 1275.52 1840.09 Q1277.61 1838.93 1280.31 1838.93 Q1284.78 1838.93 1287.07 1841.71 Q1289.37 1844.46 1289.37 1849.84 Z" fill="#000000" fill-rule="evenodd" fill-opacity="1" /><path clip-path="url(#clip920)" d="M1314.92 1843.49 L1314.92 1829.46 L1319.18 1829.46 L1319.18 1865.48 L1314.92 1865.48 L1314.92 1861.59 Q1313.58 1863.91 1311.52 1865.04 Q1309.48 1866.15 1306.61 1866.15 Q1301.91 1866.15 1298.95 1862.4 Q1296.01 1858.65 1296.01 1852.54 Q1296.01 1846.43 1298.95 1842.68 Q1301.91 1838.93 1306.61 1838.93 Q1309.48 1838.93 1311.52 1840.07 Q1313.58 1841.18 1314.92 1843.49 M1300.41 1852.54 Q1300.41 1857.24 1302.33 1859.93 Q1304.27 1862.59 1307.65 1862.59 Q1311.03 1862.59 1312.98 1859.93 Q1314.92 1857.24 1314.92 1852.54 Q1314.92 1847.84 1312.98 1845.18 Q1311.03 1842.5 1307.65 1842.5 Q1304.27 1842.5 1302.33 1845.18 Q1300.41 1847.84 1300.41 1852.54 Z" fill="#000000" fill-rule="evenodd" fill-opacity="1" /><path clip-path="url(#clip920)" d="M1339.74 1852.45 Q1334.57 1852.45 1332.58 1853.63 Q1330.59 1854.81 1330.59 1857.66 Q1330.59 1859.93 1332.07 1861.27 Q1333.58 1862.59 1336.15 1862.59 Q1339.69 1862.59 1341.82 1860.09 Q1343.97 1857.57 1343.97 1853.4 L1343.97 1852.45 L1339.74 1852.45 M1348.23 1850.69 L1348.23 1865.48 L1343.97 1865.48 L1343.97 1861.55 Q1342.51 1863.91 1340.34 1865.04 Q1338.16 1866.15 1335.01 1866.15 Q1331.03 1866.15 1328.67 1863.93 Q1326.33 1861.69 1326.33 1857.94 Q1326.33 1853.56 1329.25 1851.34 Q1332.19 1849.12 1338 1849.12 L1343.97 1849.12 L1343.97 1848.7 Q1343.97 1845.76 1342.03 1844.16 Q1340.11 1842.54 1336.61 1842.54 Q1334.39 1842.54 1332.28 1843.08 Q1330.18 1843.61 1328.23 1844.67 L1328.23 1840.74 Q1330.57 1839.84 1332.77 1839.4 Q1334.97 1838.93 1337.05 1838.93 Q1342.68 1838.93 1345.45 1841.85 Q1348.23 1844.77 1348.23 1850.69 Z" fill="#000000" fill-rule="evenodd" fill-opacity="1" /><path clip-path="url(#clip920)" d="M1372.03 1843.54 Q1371.31 1843.12 1370.45 1842.94 Q1369.62 1842.73 1368.6 1842.73 Q1364.99 1842.73 1363.05 1845.09 Q1361.12 1847.43 1361.12 1851.83 L1361.12 1865.48 L1356.84 1865.48 L1356.84 1839.56 L1361.12 1839.56 L1361.12 1843.59 Q1362.47 1841.22 1364.62 1840.09 Q1366.77 1838.93 1369.85 1838.93 Q1370.29 1838.93 1370.82 1839 Q1371.36 1839.05 1372 1839.16 L1372.03 1843.54 Z" fill="#000000" fill-rule="evenodd" fill-opacity="1" /><path clip-path="url(#clip920)" d="M1392.72 1843.49 L1392.72 1829.46 L1396.98 1829.46 L1396.98 1865.48 L1392.72 1865.48 L1392.72 1861.59 Q1391.38 1863.91 1389.32 1865.04 Q1387.28 1866.15 1384.41 1866.15 Q1379.71 1866.15 1376.75 1862.4 Q1373.81 1858.65 1373.81 1852.54 Q1373.81 1846.43 1376.75 1842.68 Q1379.71 1838.93 1384.41 1838.93 Q1387.28 1838.93 1389.32 1840.07 Q1391.38 1841.18 1392.72 1843.49 M1378.21 1852.54 Q1378.21 1857.24 1380.13 1859.93 Q1382.07 1862.59 1385.45 1862.59 Q1388.83 1862.59 1390.78 1859.93 Q1392.72 1857.24 1392.72 1852.54 Q1392.72 1847.84 1390.78 1845.18 Q1388.83 1842.5 1385.45 1842.5 Q1382.07 1842.5 1380.13 1845.18 Q1378.21 1847.84 1378.21 1852.54 Z" fill="#000000" fill-rule="evenodd" fill-opacity="1" /><path clip-path="url(#clip920)" d="M1425.68 1834.77 L1425.68 1861.64 L1431.33 1861.64 Q1438.48 1861.64 1441.8 1858.4 Q1445.13 1855.16 1445.13 1848.17 Q1445.13 1841.22 1441.8 1838.01 Q1438.48 1834.77 1431.33 1834.77 L1425.68 1834.77 M1421.01 1830.92 L1430.61 1830.92 Q1440.66 1830.92 1445.36 1835.11 Q1450.06 1839.28 1450.06 1848.17 Q1450.06 1857.1 1445.34 1861.29 Q1440.61 1865.48 1430.61 1865.48 L1421.01 1865.48 L1421.01 1830.92 Z" fill="#000000" fill-rule="evenodd" fill-opacity="1" /><path clip-path="url(#clip920)" d="M1479.5 1851.46 L1479.5 1853.54 L1459.92 1853.54 Q1460.2 1857.94 1462.56 1860.25 Q1464.94 1862.54 1469.18 1862.54 Q1471.63 1862.54 1473.92 1861.94 Q1476.24 1861.34 1478.51 1860.14 L1478.51 1864.16 Q1476.22 1865.14 1473.81 1865.65 Q1471.4 1866.15 1468.92 1866.15 Q1462.72 1866.15 1459.09 1862.54 Q1455.48 1858.93 1455.48 1852.78 Q1455.48 1846.41 1458.9 1842.68 Q1462.35 1838.93 1468.18 1838.93 Q1473.42 1838.93 1476.45 1842.31 Q1479.5 1845.67 1479.5 1851.46 M1475.24 1850.21 Q1475.2 1846.71 1473.28 1844.63 Q1471.38 1842.54 1468.23 1842.54 Q1464.67 1842.54 1462.51 1844.56 Q1460.38 1846.57 1460.06 1850.23 L1475.24 1850.21 Z" fill="#000000" fill-rule="evenodd" fill-opacity="1" /><path clip-path="url(#clip920)" d="M1483.44 1839.56 L1487.95 1839.56 L1496.05 1861.32 L1504.16 1839.56 L1508.67 1839.56 L1498.95 1865.48 L1493.16 1865.48 L1483.44 1839.56 Z" fill="#000000" fill-rule="evenodd" fill-opacity="1" /><path clip-path="url(#clip920)" d="M1514.55 1839.56 L1518.81 1839.56 L1518.81 1865.48 L1514.55 1865.48 L1514.55 1839.56 M1514.55 1829.46 L1518.81 1829.46 L1518.81 1834.86 L1514.55 1834.86 L1514.55 1829.46 Z" fill="#000000" fill-rule="evenodd" fill-opacity="1" /><path clip-path="url(#clip920)" d="M1539.5 1852.45 Q1534.34 1852.45 1532.35 1853.63 Q1530.36 1854.81 1530.36 1857.66 Q1530.36 1859.93 1531.84 1861.27 Q1533.35 1862.59 1535.91 1862.59 Q1539.46 1862.59 1541.59 1860.09 Q1543.74 1857.57 1543.74 1853.4 L1543.74 1852.45 L1539.5 1852.45 M1548 1850.69 L1548 1865.48 L1543.74 1865.48 L1543.74 1861.55 Q1542.28 1863.91 1540.1 1865.04 Q1537.93 1866.15 1534.78 1866.15 Q1530.8 1866.15 1528.44 1863.93 Q1526.1 1861.69 1526.1 1857.94 Q1526.1 1853.56 1529.02 1851.34 Q1531.96 1849.12 1537.77 1849.12 L1543.74 1849.12 L1543.74 1848.7 Q1543.74 1845.76 1541.79 1844.16 Q1539.87 1842.54 1536.38 1842.54 Q1534.16 1842.54 1532.05 1843.08 Q1529.94 1843.61 1528 1844.67 L1528 1840.74 Q1530.34 1839.84 1532.54 1839.4 Q1534.73 1838.93 1536.82 1838.93 Q1542.44 1838.93 1545.22 1841.85 Q1548 1844.77 1548 1850.69 Z" fill="#000000" fill-rule="evenodd" fill-opacity="1" /><path clip-path="url(#clip920)" d="M1560.98 1832.2 L1560.98 1839.56 L1569.76 1839.56 L1569.76 1842.87 L1560.98 1842.87 L1560.98 1856.94 Q1560.98 1860.11 1561.84 1861.02 Q1562.72 1861.92 1565.38 1861.92 L1569.76 1861.92 L1569.76 1865.48 L1565.38 1865.48 Q1560.45 1865.48 1558.58 1863.65 Q1556.7 1861.8 1556.7 1856.94 L1556.7 1842.87 L1553.58 1842.87 L1553.58 1839.56 L1556.7 1839.56 L1556.7 1832.2 L1560.98 1832.2 Z" fill="#000000" fill-rule="evenodd" fill-opacity="1" /><path clip-path="url(#clip920)" d="M1575.36 1839.56 L1579.62 1839.56 L1579.62 1865.48 L1575.36 1865.48 L1575.36 1839.56 M1575.36 1829.46 L1579.62 1829.46 L1579.62 1834.86 L1575.36 1834.86 L1575.36 1829.46 Z" fill="#000000" fill-rule="evenodd" fill-opacity="1" /><path clip-path="url(#clip920)" d="M1598.58 1842.54 Q1595.15 1842.54 1593.16 1845.23 Q1591.17 1847.89 1591.17 1852.54 Q1591.17 1857.2 1593.14 1859.88 Q1595.13 1862.54 1598.58 1862.54 Q1601.98 1862.54 1603.97 1859.86 Q1605.96 1857.17 1605.96 1852.54 Q1605.96 1847.94 1603.97 1845.25 Q1601.98 1842.54 1598.58 1842.54 M1598.58 1838.93 Q1604.13 1838.93 1607.3 1842.54 Q1610.47 1846.15 1610.47 1852.54 Q1610.47 1858.91 1607.3 1862.54 Q1604.13 1866.15 1598.58 1866.15 Q1593 1866.15 1589.83 1862.54 Q1586.68 1858.91 1586.68 1852.54 Q1586.68 1846.15 1589.83 1842.54 Q1593 1838.93 1598.58 1838.93 Z" fill="#000000" fill-rule="evenodd" fill-opacity="1" /><path clip-path="url(#clip920)" d="M1639.09 1849.84 L1639.09 1865.48 L1634.83 1865.48 L1634.83 1849.97 Q1634.83 1846.29 1633.39 1844.46 Q1631.96 1842.64 1629.09 1842.64 Q1625.64 1842.64 1623.65 1844.84 Q1621.66 1847.03 1621.66 1850.83 L1621.66 1865.48 L1617.37 1865.48 L1617.37 1839.56 L1621.66 1839.56 L1621.66 1843.59 Q1623.18 1841.25 1625.24 1840.09 Q1627.33 1838.93 1630.03 1838.93 Q1634.5 1838.93 1636.79 1841.71 Q1639.09 1844.46 1639.09 1849.84 Z" fill="#000000" fill-rule="evenodd" fill-opacity="1" /><path clip-path="url(#clip920)" d="M2524.6 1849.28 Q2526.1 1849.79 2527.52 1851.46 Q2528.95 1853.12 2530.39 1856.04 L2535.13 1865.48 L2530.11 1865.48 L2525.69 1856.62 Q2523.97 1853.15 2522.35 1852.01 Q2520.76 1850.88 2517.98 1850.88 L2512.89 1850.88 L2512.89 1865.48 L2508.21 1865.48 L2508.21 1830.92 L2518.77 1830.92 Q2524.69 1830.92 2527.61 1833.4 Q2530.53 1835.88 2530.53 1840.88 Q2530.53 1844.14 2529 1846.29 Q2527.49 1848.45 2524.6 1849.28 M2512.89 1834.77 L2512.89 1847.03 L2518.77 1847.03 Q2522.15 1847.03 2523.86 1845.48 Q2525.59 1843.91 2525.59 1840.88 Q2525.59 1837.84 2523.86 1836.32 Q2522.15 1834.77 2518.77 1834.77 L2512.89 1834.77 Z" fill="#000000" fill-rule="evenodd" fill-opacity="1" /><path clip-path="url(#clip920)" d="M2541.15 1830.92 L2548.12 1830.92 L2556.94 1854.44 L2565.8 1830.92 L2572.77 1830.92 L2572.77 1865.48 L2568.21 1865.48 L2568.21 1835.14 L2559.3 1858.84 L2554.6 1858.84 L2545.69 1835.14 L2545.69 1865.48 L2541.15 1865.48 L2541.15 1830.92 Z" fill="#000000" fill-rule="evenodd" fill-opacity="1" /><path clip-path="url(#clip920)" d="M2602.77 1832.06 L2602.77 1836.62 Q2600.11 1835.34 2597.75 1834.72 Q2595.39 1834.09 2593.19 1834.09 Q2589.37 1834.09 2587.28 1835.58 Q2585.22 1837.06 2585.22 1839.79 Q2585.22 1842.08 2586.59 1843.26 Q2587.98 1844.42 2591.82 1845.14 L2594.65 1845.71 Q2599.88 1846.71 2602.35 1849.23 Q2604.85 1851.73 2604.85 1855.95 Q2604.85 1860.97 2601.47 1863.56 Q2598.12 1866.15 2591.61 1866.15 Q2589.16 1866.15 2586.38 1865.6 Q2583.63 1865.04 2580.66 1863.96 L2580.66 1859.14 Q2583.51 1860.74 2586.24 1861.55 Q2588.97 1862.36 2591.61 1862.36 Q2595.62 1862.36 2597.79 1860.78 Q2599.97 1859.21 2599.97 1856.29 Q2599.97 1853.75 2598.4 1852.31 Q2596.84 1850.88 2593.28 1850.16 L2590.43 1849.6 Q2585.2 1848.56 2582.86 1846.34 Q2580.52 1844.12 2580.52 1840.16 Q2580.52 1835.58 2583.74 1832.94 Q2586.98 1830.3 2592.65 1830.3 Q2595.09 1830.3 2597.61 1830.74 Q2600.13 1831.18 2602.77 1832.06 Z" fill="#000000" fill-rule="evenodd" fill-opacity="1" /><path clip-path="url(#clip920)" d="M2612.15 1830.92 L2634 1830.92 L2634 1834.86 L2616.82 1834.86 L2616.82 1845.09 L2633.28 1845.09 L2633.28 1849.03 L2616.82 1849.03 L2616.82 1861.55 L2634.41 1861.55 L2634.41 1865.48 L2612.15 1865.48 L2612.15 1830.92 Z" fill="#000000" fill-rule="evenodd" fill-opacity="1" /><polyline clip-path="url(#clip923)" style="stroke:#000000; stroke-linecap:round; stroke-linejoin:round; stroke-width:2; stroke-opacity:0.1; fill:none" points="
  187.071,1780.08 2640.76,1780.08 
  "/>
<polyline clip-path="url(#clip923)" style="stroke:#000000; stroke-linecap:round; stroke-linejoin:round; stroke-width:2; stroke-opacity:0.1; fill:none" points="
  187.071,1678.12 2640.76,1678.12 
  "/>
<polyline clip-path="url(#clip923)" style="stroke:#000000; stroke-linecap:round; stroke-linejoin:round; stroke-width:2; stroke-opacity:0.1; fill:none" points="
  187.071,1576.17 2640.76,1576.17 
  "/>
<polyline clip-path="url(#clip923)" style="stroke:#000000; stroke-linecap:round; stroke-linejoin:round; stroke-width:2; stroke-opacity:0.1; fill:none" points="
  187.071,1474.22 2640.76,1474.22 
  "/>
<polyline clip-path="url(#clip923)" style="stroke:#000000; stroke-linecap:round; stroke-linejoin:round; stroke-width:2; stroke-opacity:0.1; fill:none" points="
  187.071,1372.26 2640.76,1372.26 
  "/>
<polyline clip-path="url(#clip923)" style="stroke:#000000; stroke-linecap:round; stroke-linejoin:round; stroke-width:2; stroke-opacity:0.1; fill:none" points="
  187.071,1270.31 2640.76,1270.31 
  "/>
<polyline clip-path="url(#clip923)" style="stroke:#000000; stroke-linecap:round; stroke-linejoin:round; stroke-width:2; stroke-opacity:0.1; fill:none" points="
  187.071,1168.36 2640.76,1168.36 
  "/>
<polyline clip-path="url(#clip920)" style="stroke:#000000; stroke-linecap:round; stroke-linejoin:round; stroke-width:4; stroke-opacity:1; fill:none" points="
  187.071,1800.78 187.071,1069.28 
  "/>
<polyline clip-path="url(#clip920)" style="stroke:#000000; stroke-linecap:round; stroke-linejoin:round; stroke-width:4; stroke-opacity:1; fill:none" points="
  187.071,1780.08 205.968,1780.08 
  "/>
<polyline clip-path="url(#clip920)" style="stroke:#000000; stroke-linecap:round; stroke-linejoin:round; stroke-width:4; stroke-opacity:1; fill:none" points="
  187.071,1678.12 205.968,1678.12 
  "/>
<polyline clip-path="url(#clip920)" style="stroke:#000000; stroke-linecap:round; stroke-linejoin:round; stroke-width:4; stroke-opacity:1; fill:none" points="
  187.071,1576.17 205.968,1576.17 
  "/>
<polyline clip-path="url(#clip920)" style="stroke:#000000; stroke-linecap:round; stroke-linejoin:round; stroke-width:4; stroke-opacity:1; fill:none" points="
  187.071,1474.22 205.968,1474.22 
  "/>
<polyline clip-path="url(#clip920)" style="stroke:#000000; stroke-linecap:round; stroke-linejoin:round; stroke-width:4; stroke-opacity:1; fill:none" points="
  187.071,1372.26 205.968,1372.26 
  "/>
<polyline clip-path="url(#clip920)" style="stroke:#000000; stroke-linecap:round; stroke-linejoin:round; stroke-width:4; stroke-opacity:1; fill:none" points="
  187.071,1270.31 205.968,1270.31 
  "/>
<polyline clip-path="url(#clip920)" style="stroke:#000000; stroke-linecap:round; stroke-linejoin:round; stroke-width:4; stroke-opacity:1; fill:none" points="
  187.071,1168.36 205.968,1168.36 
  "/>
<path clip-path="url(#clip920)" d="M134.806 1765.88 Q131.195 1765.88 129.367 1769.44 Q127.561 1772.98 127.561 1780.11 Q127.561 1787.22 129.367 1790.78 Q131.195 1794.32 134.806 1794.32 Q138.441 1794.32 140.246 1790.78 Q142.075 1787.22 142.075 1780.11 Q142.075 1772.98 140.246 1769.44 Q138.441 1765.88 134.806 1765.88 M134.806 1762.17 Q140.616 1762.17 143.672 1766.78 Q146.751 1771.36 146.751 1780.11 Q146.751 1788.84 143.672 1793.44 Q140.616 1798.03 134.806 1798.03 Q128.996 1798.03 125.917 1793.44 Q122.862 1788.84 122.862 1780.11 Q122.862 1771.36 125.917 1766.78 Q128.996 1762.17 134.806 1762.17 Z" fill="#000000" fill-rule="evenodd" fill-opacity="1" /><path clip-path="url(#clip920)" d="M126.843 1691.47 L134.482 1691.47 L134.482 1665.1 L126.172 1666.77 L126.172 1662.51 L134.436 1660.84 L139.112 1660.84 L139.112 1691.47 L146.751 1691.47 L146.751 1695.4 L126.843 1695.4 L126.843 1691.47 Z" fill="#000000" fill-rule="evenodd" fill-opacity="1" /><path clip-path="url(#clip920)" d="M130.431 1589.51 L146.751 1589.51 L146.751 1593.45 L124.806 1593.45 L124.806 1589.51 Q127.468 1586.76 132.052 1582.13 Q136.658 1577.48 137.839 1576.13 Q140.084 1573.61 140.964 1571.88 Q141.866 1570.12 141.866 1568.43 Q141.866 1565.67 139.922 1563.94 Q138.001 1562.2 134.899 1562.2 Q132.7 1562.2 130.246 1562.96 Q127.816 1563.73 125.038 1565.28 L125.038 1560.56 Q127.862 1559.42 130.316 1558.84 Q132.769 1558.26 134.806 1558.26 Q140.177 1558.26 143.371 1560.95 Q146.565 1563.63 146.565 1568.13 Q146.565 1570.26 145.755 1572.18 Q144.968 1574.07 142.862 1576.67 Q142.283 1577.34 139.181 1580.56 Q136.079 1583.75 130.431 1589.51 Z" fill="#000000" fill-rule="evenodd" fill-opacity="1" /><path clip-path="url(#clip920)" d="M139.621 1472.86 Q142.978 1473.58 144.853 1475.85 Q146.751 1478.12 146.751 1481.45 Q146.751 1486.57 143.232 1489.37 Q139.714 1492.17 133.232 1492.17 Q131.056 1492.17 128.742 1491.73 Q126.45 1491.31 123.996 1490.45 L123.996 1485.94 Q125.941 1487.07 128.255 1487.65 Q130.57 1488.23 133.093 1488.23 Q137.491 1488.23 139.783 1486.5 Q142.098 1484.76 142.098 1481.45 Q142.098 1478.39 139.945 1476.68 Q137.816 1474.95 133.996 1474.95 L129.968 1474.95 L129.968 1471.1 L134.181 1471.1 Q137.63 1471.1 139.459 1469.74 Q141.288 1468.35 141.288 1465.76 Q141.288 1463.09 139.39 1461.68 Q137.515 1460.25 133.996 1460.25 Q132.075 1460.25 129.876 1460.66 Q127.677 1461.08 125.038 1461.96 L125.038 1457.79 Q127.7 1457.05 130.015 1456.68 Q132.353 1456.31 134.413 1456.31 Q139.737 1456.31 142.839 1458.74 Q145.94 1461.15 145.94 1465.27 Q145.94 1468.14 144.297 1470.13 Q142.653 1472.1 139.621 1472.86 Z" fill="#000000" fill-rule="evenodd" fill-opacity="1" /><path clip-path="url(#clip920)" d="M137.167 1359.06 L125.362 1377.51 L137.167 1377.51 L137.167 1359.06 M135.941 1354.98 L141.82 1354.98 L141.82 1377.51 L146.751 1377.51 L146.751 1381.39 L141.82 1381.39 L141.82 1389.54 L137.167 1389.54 L137.167 1381.39 L121.566 1381.39 L121.566 1376.88 L135.941 1354.98 Z" fill="#000000" fill-rule="evenodd" fill-opacity="1" /><path clip-path="url(#clip920)" d="M125.848 1253.03 L144.204 1253.03 L144.204 1256.96 L130.13 1256.96 L130.13 1265.44 Q131.149 1265.09 132.167 1264.93 Q133.186 1264.74 134.204 1264.74 Q139.991 1264.74 143.371 1267.91 Q146.751 1271.08 146.751 1276.5 Q146.751 1282.08 143.278 1285.18 Q139.806 1288.26 133.487 1288.26 Q131.311 1288.26 129.042 1287.89 Q126.797 1287.52 124.39 1286.78 L124.39 1282.08 Q126.473 1283.21 128.695 1283.77 Q130.917 1284.33 133.394 1284.33 Q137.399 1284.33 139.737 1282.22 Q142.075 1280.11 142.075 1276.5 Q142.075 1272.89 139.737 1270.78 Q137.399 1268.68 133.394 1268.68 Q131.519 1268.68 129.644 1269.09 Q127.792 1269.51 125.848 1270.39 L125.848 1253.03 Z" fill="#000000" fill-rule="evenodd" fill-opacity="1" /><path clip-path="url(#clip920)" d="M135.223 1166.49 Q132.075 1166.49 130.223 1168.64 Q128.394 1170.8 128.394 1174.55 Q128.394 1178.27 130.223 1180.45 Q132.075 1182.6 135.223 1182.6 Q138.371 1182.6 140.2 1180.45 Q142.052 1178.27 142.052 1174.55 Q142.052 1170.8 140.2 1168.64 Q138.371 1166.49 135.223 1166.49 M144.505 1151.84 L144.505 1156.1 Q142.746 1155.27 140.941 1154.83 Q139.158 1154.39 137.399 1154.39 Q132.769 1154.39 130.316 1157.51 Q127.885 1160.64 127.538 1166.96 Q128.904 1164.94 130.964 1163.88 Q133.024 1162.79 135.501 1162.79 Q140.709 1162.79 143.718 1165.96 Q146.751 1169.11 146.751 1174.55 Q146.751 1179.87 143.603 1183.09 Q140.454 1186.31 135.223 1186.31 Q129.228 1186.31 126.056 1181.72 Q122.885 1177.12 122.885 1168.39 Q122.885 1160.2 126.774 1155.33 Q130.663 1150.45 137.214 1150.45 Q138.973 1150.45 140.755 1150.8 Q142.561 1151.15 144.505 1151.84 Z" fill="#000000" fill-rule="evenodd" fill-opacity="1" /><path clip-path="url(#clip920)" d="M1122.71 968.64 L1128.99 968.64 L1139.72 984.699 L1150.52 968.64 L1156.8 968.64 L1142.91 989.386 L1157.72 1011.84 L1151.44 1011.84 L1139.29 993.466 L1127.05 1011.84 L1120.74 1011.84 L1136.17 988.779 L1122.71 968.64 Z" fill="#000000" fill-rule="evenodd" fill-opacity="1" /><path clip-path="url(#clip920)" d="M1202.95 988.2 L1202.95 993.351 Q1199.91 995.636 1197.31 996.62 Q1194.73 997.604 1191.92 997.604 Q1188.74 997.604 1184.52 995.897 Q1184.2 995.781 1184.05 995.723 Q1183.85 995.636 1183.42 995.492 Q1178.93 993.698 1176.21 993.698 Q1173.67 993.698 1171.18 994.826 Q1168.69 995.926 1165.85 998.327 L1165.85 993.177 Q1168.89 990.891 1171.47 989.907 Q1174.07 988.895 1176.88 988.895 Q1180.06 988.895 1184.31 990.631 Q1184.6 990.746 1184.75 990.804 Q1184.98 990.891 1185.38 991.036 Q1189.87 992.83 1192.59 992.83 Q1195.08 992.83 1197.51 991.73 Q1199.97 990.631 1202.95 988.2 Z" fill="#000000" fill-rule="evenodd" fill-opacity="1" /><path clip-path="url(#clip920)" d="M1220.89 973.443 L1220.89 989.676 L1228.24 989.676 Q1232.32 989.676 1234.55 987.564 Q1236.77 985.451 1236.77 981.545 Q1236.77 977.668 1234.55 975.555 Q1232.32 973.443 1228.24 973.443 L1220.89 973.443 M1215.04 968.64 L1228.24 968.64 Q1235.5 968.64 1239.2 971.939 Q1242.94 975.208 1242.94 981.545 Q1242.94 987.94 1239.2 991.209 Q1235.5 994.479 1228.24 994.479 L1220.89 994.479 L1220.89 1011.84 L1215.04 1011.84 L1215.04 968.64 Z" fill="#000000" fill-rule="evenodd" fill-opacity="1" /><path clip-path="url(#clip920)" d="M1262.61 995.55 Q1256.16 995.55 1253.67 997.025 Q1251.18 998.501 1251.18 1002.06 Q1251.18 1004.9 1253.03 1006.57 Q1254.92 1008.22 1258.13 1008.22 Q1262.55 1008.22 1265.22 1005.1 Q1267.91 1001.94 1267.91 996.736 L1267.91 995.55 L1262.61 995.55 M1273.23 993.351 L1273.23 1011.84 L1267.91 1011.84 L1267.91 1006.92 Q1266.08 1009.87 1263.36 1011.29 Q1260.64 1012.68 1256.71 1012.68 Q1251.73 1012.68 1248.78 1009.9 Q1245.86 1007.09 1245.86 1002.41 Q1245.86 996.938 1249.5 994.161 Q1253.18 991.383 1260.44 991.383 L1267.91 991.383 L1267.91 990.862 Q1267.91 987.187 1265.48 985.191 Q1263.07 983.165 1258.71 983.165 Q1255.93 983.165 1253.29 983.831 Q1250.66 984.496 1248.23 985.827 L1248.23 980.908 Q1251.15 979.78 1253.9 979.23 Q1256.65 978.652 1259.26 978.652 Q1266.29 978.652 1269.76 982.297 Q1273.23 985.943 1273.23 993.351 Z" fill="#000000" fill-rule="evenodd" fill-opacity="1" /><path clip-path="url(#clip920)" d="M1302.98 984.41 Q1302.08 983.889 1301.01 983.657 Q1299.97 983.397 1298.69 983.397 Q1294.18 983.397 1291.75 986.348 Q1289.35 989.271 1289.35 994.768 L1289.35 1011.84 L1284 1011.84 L1284 979.433 L1289.35 979.433 L1289.35 984.467 Q1291.03 981.516 1293.72 980.098 Q1296.41 978.652 1300.26 978.652 Q1300.81 978.652 1301.47 978.738 Q1302.14 978.796 1302.95 978.941 L1302.98 984.41 Z" fill="#000000" fill-rule="evenodd" fill-opacity="1" /><path clip-path="url(#clip920)" d="M1334.98 994.305 L1334.98 996.91 L1310.5 996.91 Q1310.85 1002.41 1313.8 1005.3 Q1316.78 1008.17 1322.07 1008.17 Q1325.14 1008.17 1328.01 1007.41 Q1330.9 1006.66 1333.73 1005.16 L1333.73 1010.19 Q1330.87 1011.41 1327.86 1012.04 Q1324.85 1012.68 1321.76 1012.68 Q1314 1012.68 1309.46 1008.17 Q1304.94 1003.65 1304.94 995.955 Q1304.94 987.998 1309.23 983.339 Q1313.54 978.652 1320.83 978.652 Q1327.37 978.652 1331.16 982.876 Q1334.98 987.072 1334.98 994.305 M1329.65 992.743 Q1329.6 988.374 1327.2 985.77 Q1324.82 983.165 1320.89 983.165 Q1316.43 983.165 1313.74 985.683 Q1311.08 988.2 1310.67 992.772 L1329.65 992.743 Z" fill="#000000" fill-rule="evenodd" fill-opacity="1" /><path clip-path="url(#clip920)" d="M1348.98 970.231 L1348.98 979.433 L1359.95 979.433 L1359.95 983.57 L1348.98 983.57 L1348.98 1001.16 Q1348.98 1005.13 1350.05 1006.26 Q1351.15 1007.38 1354.48 1007.38 L1359.95 1007.38 L1359.95 1011.84 L1354.48 1011.84 Q1348.32 1011.84 1345.97 1009.55 Q1343.63 1007.24 1343.63 1001.16 L1343.63 983.57 L1339.72 983.57 L1339.72 979.433 L1343.63 979.433 L1343.63 970.231 L1348.98 970.231 Z" fill="#000000" fill-rule="evenodd" fill-opacity="1" /><path clip-path="url(#clip920)" d="M1379.51 983.165 Q1375.23 983.165 1372.74 986.522 Q1370.25 989.849 1370.25 995.665 Q1370.25 1001.48 1372.71 1004.84 Q1375.2 1008.17 1379.51 1008.17 Q1383.76 1008.17 1386.25 1004.81 Q1388.74 1001.45 1388.74 995.665 Q1388.74 989.907 1386.25 986.551 Q1383.76 983.165 1379.51 983.165 M1379.51 978.652 Q1386.45 978.652 1390.42 983.165 Q1394.38 987.679 1394.38 995.665 Q1394.38 1003.62 1390.42 1008.17 Q1386.45 1012.68 1379.51 1012.68 Q1372.54 1012.68 1368.57 1008.17 Q1364.64 1003.62 1364.64 995.665 Q1364.64 987.679 1368.57 983.165 Q1372.54 978.652 1379.51 978.652 Z" fill="#000000" fill-rule="evenodd" fill-opacity="1" /><path clip-path="url(#clip920)" d="M1404.57 1004.49 L1410.67 1004.49 L1410.67 1009.47 L1405.93 1018.73 L1402.19 1018.73 L1404.57 1009.47 L1404.57 1004.49 Z" fill="#000000" fill-rule="evenodd" fill-opacity="1" /><path clip-path="url(#clip920)" d="M1467.82 992.28 L1467.82 1011.84 L1462.5 1011.84 L1462.5 992.454 Q1462.5 987.853 1460.7 985.567 Q1458.91 983.281 1455.32 983.281 Q1451.01 983.281 1448.52 986.03 Q1446.03 988.779 1446.03 993.524 L1446.03 1011.84 L1440.68 1011.84 L1440.68 979.433 L1446.03 979.433 L1446.03 984.467 Q1447.94 981.545 1450.52 980.098 Q1453.12 978.652 1456.51 978.652 Q1462.09 978.652 1464.95 982.124 Q1467.82 985.567 1467.82 992.28 Z" fill="#000000" fill-rule="evenodd" fill-opacity="1" /><path clip-path="url(#clip920)" d="M1479.13 984.93 L1516.23 984.93 L1516.23 989.792 L1479.13 989.792 L1479.13 984.93 M1479.13 996.736 L1516.23 996.736 L1516.23 1001.65 L1479.13 1001.65 L1479.13 996.736 Z" fill="#000000" fill-rule="evenodd" fill-opacity="1" /><path clip-path="url(#clip920)" d="M1529.86 1006.92 L1539.4 1006.92 L1539.4 973.964 L1529.02 976.047 L1529.02 970.723 L1539.35 968.64 L1545.19 968.64 L1545.19 1006.92 L1554.74 1006.92 L1554.74 1011.84 L1529.86 1011.84 L1529.86 1006.92 Z" fill="#000000" fill-rule="evenodd" fill-opacity="1" /><path clip-path="url(#clip920)" d="M1579.05 972.488 Q1574.53 972.488 1572.25 976.944 Q1569.99 981.371 1569.99 990.283 Q1569.99 999.166 1572.25 1003.62 Q1574.53 1008.05 1579.05 1008.05 Q1583.59 1008.05 1585.85 1003.62 Q1588.13 999.166 1588.13 990.283 Q1588.13 981.371 1585.85 976.944 Q1583.59 972.488 1579.05 972.488 M1579.05 967.859 Q1586.31 967.859 1590.13 973.617 Q1593.98 979.346 1593.98 990.283 Q1593.98 1001.19 1590.13 1006.95 Q1586.31 1012.68 1579.05 1012.68 Q1571.78 1012.68 1567.93 1006.95 Q1564.12 1001.19 1564.12 990.283 Q1564.12 979.346 1567.93 973.617 Q1571.78 967.859 1579.05 967.859 Z" fill="#000000" fill-rule="evenodd" fill-opacity="1" /><path clip-path="url(#clip920)" d="M1616.75 972.488 Q1612.23 972.488 1609.95 976.944 Q1607.69 981.371 1607.69 990.283 Q1607.69 999.166 1609.95 1003.62 Q1612.23 1008.05 1616.75 1008.05 Q1621.29 1008.05 1623.55 1003.62 Q1625.83 999.166 1625.83 990.283 Q1625.83 981.371 1623.55 976.944 Q1621.29 972.488 1616.75 972.488 M1616.75 967.859 Q1624.01 967.859 1627.83 973.617 Q1631.68 979.346 1631.68 990.283 Q1631.68 1001.19 1627.83 1006.95 Q1624.01 1012.68 1616.75 1012.68 Q1609.49 1012.68 1605.64 1006.95 Q1601.82 1001.19 1601.82 990.283 Q1601.82 979.346 1605.64 973.617 Q1609.49 967.859 1616.75 967.859 Z" fill="#000000" fill-rule="evenodd" fill-opacity="1" /><path clip-path="url(#clip920)" d="M1654.45 972.488 Q1649.94 972.488 1647.65 976.944 Q1645.39 981.371 1645.39 990.283 Q1645.39 999.166 1647.65 1003.62 Q1649.94 1008.05 1654.45 1008.05 Q1658.99 1008.05 1661.25 1003.62 Q1663.54 999.166 1663.54 990.283 Q1663.54 981.371 1661.25 976.944 Q1658.99 972.488 1654.45 972.488 M1654.45 967.859 Q1661.71 967.859 1665.53 973.617 Q1669.38 979.346 1669.38 990.283 Q1669.38 1001.19 1665.53 1006.95 Q1661.71 1012.68 1654.45 1012.68 Q1647.19 1012.68 1643.34 1006.95 Q1639.52 1001.19 1639.52 990.283 Q1639.52 979.346 1643.34 973.617 Q1647.19 967.859 1654.45 967.859 Z" fill="#000000" fill-rule="evenodd" fill-opacity="1" /><path clip-path="url(#clip920)" d="M1692.15 972.488 Q1687.64 972.488 1685.35 976.944 Q1683.1 981.371 1683.1 990.283 Q1683.1 999.166 1685.35 1003.62 Q1687.64 1008.05 1692.15 1008.05 Q1696.7 1008.05 1698.95 1003.62 Q1701.24 999.166 1701.24 990.283 Q1701.24 981.371 1698.95 976.944 Q1696.7 972.488 1692.15 972.488 M1692.15 967.859 Q1699.42 967.859 1703.23 973.617 Q1707.08 979.346 1707.08 990.283 Q1707.08 1001.19 1703.23 1006.95 Q1699.42 1012.68 1692.15 1012.68 Q1684.89 1012.68 1681.04 1006.95 Q1677.22 1001.19 1677.22 990.283 Q1677.22 979.346 1681.04 973.617 Q1684.89 967.859 1692.15 967.859 Z" fill="#000000" fill-rule="evenodd" fill-opacity="1" /><polyline clip-path="url(#clip923)" style="stroke:#009af9; stroke-linecap:round; stroke-linejoin:round; stroke-width:0; stroke-opacity:1; fill:none" points="
  256.515,1777.9 1413.91,1089.98 2571.31,1090.05 
  "/>
<circle clip-path="url(#clip923)" cx="256.515" cy="1777.9" r="14.4" fill="#009af9" fill-rule="evenodd" fill-opacity="1" stroke="#000000" stroke-opacity="1" stroke-width="3.84"/>
<circle clip-path="url(#clip923)" cx="1413.91" cy="1089.98" r="14.4" fill="#009af9" fill-rule="evenodd" fill-opacity="1" stroke="#000000" stroke-opacity="1" stroke-width="3.84"/>
<circle clip-path="url(#clip923)" cx="2571.31" cy="1090.05" r="14.4" fill="#009af9" fill-rule="evenodd" fill-opacity="1" stroke="#000000" stroke-opacity="1" stroke-width="3.84"/>
<polyline clip-path="url(#clip923)" style="stroke:#e26f46; stroke-linecap:round; stroke-linejoin:round; stroke-width:0; stroke-opacity:1; fill:none" points="
  256.515,1779.08 1413.91,1658.49 2571.31,1658.5 
  "/>
<circle clip-path="url(#clip923)" cx="256.515" cy="1779.08" r="14.4" fill="#e26f46" fill-rule="evenodd" fill-opacity="1" stroke="#000000" stroke-opacity="1" stroke-width="3.84"/>
<circle clip-path="url(#clip923)" cx="1413.91" cy="1658.49" r="14.4" fill="#e26f46" fill-rule="evenodd" fill-opacity="1" stroke="#000000" stroke-opacity="1" stroke-width="3.84"/>
<circle clip-path="url(#clip923)" cx="2571.31" cy="1658.5" r="14.4" fill="#e26f46" fill-rule="evenodd" fill-opacity="1" stroke="#000000" stroke-opacity="1" stroke-width="3.84"/>
<polyline clip-path="url(#clip923)" style="stroke:#3da44d; stroke-linecap:round; stroke-linejoin:round; stroke-width:0; stroke-opacity:1; fill:none" points="
  256.515,1773.2 1413.91,1602.36 2571.31,1602.24 
  "/>
<circle clip-path="url(#clip923)" cx="256.515" cy="1773.2" r="14.4" fill="#3da44d" fill-rule="evenodd" fill-opacity="1" stroke="#000000" stroke-opacity="1" stroke-width="3.84"/>
<circle clip-path="url(#clip923)" cx="1413.91" cy="1602.36" r="14.4" fill="#3da44d" fill-rule="evenodd" fill-opacity="1" stroke="#000000" stroke-opacity="1" stroke-width="3.84"/>
<circle clip-path="url(#clip923)" cx="2571.31" cy="1602.24" r="14.4" fill="#3da44d" fill-rule="evenodd" fill-opacity="1" stroke="#000000" stroke-opacity="1" stroke-width="3.84"/>
<polyline clip-path="url(#clip923)" style="stroke:#000000; stroke-linecap:round; stroke-linejoin:round; stroke-width:4; stroke-opacity:1; fill:none" points="
  -2266.61,1780.08 5094.44,1780.08 
  "/>
</svg>
