<?xml version="1.0" encoding="utf-8"?>
<svg xmlns="http://www.w3.org/2000/svg" xmlns:xlink="http://www.w3.org/1999/xlink" width="672" height="480" viewBox="0 0 2688 1920">
<defs>
  <clipPath id="clip960">
    <rect x="0" y="0" width="2688" height="1920"/>
  </clipPath>
</defs>
<path clip-path="url(#clip960)" d="
M0 1920 L2688 1920 L2688 0 L0 0  Z
  " fill="#ffffff" fill-rule="evenodd" fill-opacity="1"/>
<defs>
  <clipPath id="clip961">
    <rect x="537" y="0" width="1883" height="1883"/>
  </clipPath>
</defs>
<path clip-path="url(#clip960)" d="
M143.576 840.779 L2640.76 840.779 L2640.76 109.278 L143.576 109.278  Z
  " fill="#ffffff" fill-rule="evenodd" fill-opacity="1"/>
<defs>
  <clipPath id="clip962">
    <rect x="143" y="109" width="2498" height="733"/>
  </clipPath>
</defs>
<polyline clip-path="url(#clip962)" style="stroke:#000000; stroke-linecap:round; stroke-linejoin:round; stroke-width:2; stroke-opacity:0.1; fill:none" points="
  214.25,840.779 214.25,109.278 
  "/>
<polyline clip-path="url(#clip962)" style="stroke:#000000; stroke-linecap:round; stroke-linejoin:round; stroke-width:2; stroke-opacity:0.1; fill:none" points="
  1392.17,840.779 1392.17,109.278 
  "/>
<polyline clip-path="url(#clip962)" style="stroke:#000000; stroke-linecap:round; stroke-linejoin:round; stroke-width:2; stroke-opacity:0.1; fill:none" points="
  2570.08,840.779 2570.08,109.278 
  "/>
<polyline clip-path="url(#clip960)" style="stroke:#000000; stroke-linecap:round; stroke-linejoin:round; stroke-width:4; stroke-opacity:1; fill:none" points="
  143.576,840.779 2640.76,840.779 
  "/>
<polyline clip-path="url(#clip960)" style="stroke:#000000; stroke-linecap:round; stroke-linejoin:round; stroke-width:4; stroke-opacity:1; fill:none" points="
  214.25,840.779 214.25,821.882 
  "/>
<polyline clip-path="url(#clip960)" style="stroke:#000000; stroke-linecap:round; stroke-linejoin:round; stroke-width:4; stroke-opacity:1; fill:none" points="
  1392.17,840.779 1392.17,821.882 
  "/>
<polyline clip-path="url(#clip960)" style="stroke:#000000; stroke-linecap:round; stroke-linejoin:round; stroke-width:4; stroke-opacity:1; fill:none" points="
  2570.08,840.779 2570.08,821.882 
  "/>
<path clip-path="url(#clip960)" d="M158.51 869.257 L158.51 916.664 L154.575 916.664 L154.575 869.257 L158.51 869.257 Z" fill="#000000" fill-rule="evenodd" fill-opacity="1" /><path clip-path="url(#clip960)" d="M173.857 888.979 L173.857 901.641 L181.357 901.641 Q185.13 901.641 186.936 900.09 Q188.764 898.516 188.764 895.298 Q188.764 892.057 186.936 890.53 Q185.13 888.979 181.357 888.979 L173.857 888.979 M173.857 874.766 L173.857 885.182 L180.778 885.182 Q184.204 885.182 185.871 883.909 Q187.561 882.613 187.561 879.974 Q187.561 877.358 185.871 876.062 Q184.204 874.766 180.778 874.766 L173.857 874.766 M169.181 870.923 L181.126 870.923 Q186.473 870.923 189.366 873.146 Q192.26 875.368 192.26 879.465 Q192.26 882.636 190.778 884.511 Q189.297 886.386 186.427 886.849 Q189.876 887.59 191.774 889.951 Q193.695 892.289 193.695 895.807 Q193.695 900.437 190.547 902.96 Q187.399 905.483 181.589 905.483 L169.181 905.483 L169.181 870.923 Z" fill="#000000" fill-rule="evenodd" fill-opacity="1" /><path clip-path="url(#clip960)" d="M201.519 879.558 L205.778 879.558 L205.778 905.483 L201.519 905.483 L201.519 879.558 M201.519 869.465 L205.778 869.465 L205.778 874.858 L201.519 874.858 L201.519 869.465 Z" fill="#000000" fill-rule="evenodd" fill-opacity="1" /><path clip-path="url(#clip960)" d="M226.473 892.451 Q221.311 892.451 219.32 893.632 Q217.329 894.812 217.329 897.659 Q217.329 899.928 218.811 901.27 Q220.315 902.59 222.885 902.59 Q226.426 902.59 228.556 900.09 Q230.709 897.567 230.709 893.4 L230.709 892.451 L226.473 892.451 M234.968 890.692 L234.968 905.483 L230.709 905.483 L230.709 901.548 Q229.25 903.909 227.074 905.043 Q224.899 906.155 221.75 906.155 Q217.769 906.155 215.408 903.932 Q213.07 901.687 213.07 897.937 Q213.07 893.562 215.987 891.34 Q218.926 889.118 224.737 889.118 L230.709 889.118 L230.709 888.701 Q230.709 885.761 228.764 884.164 Q226.843 882.544 223.348 882.544 Q221.125 882.544 219.019 883.076 Q216.912 883.608 214.968 884.673 L214.968 880.738 Q217.306 879.835 219.505 879.395 Q221.704 878.933 223.787 878.933 Q229.412 878.933 232.19 881.849 Q234.968 884.766 234.968 890.692 Z" fill="#000000" fill-rule="evenodd" fill-opacity="1" /><path clip-path="url(#clip960)" d="M260.269 880.321 L260.269 884.349 Q258.463 883.423 256.519 882.96 Q254.574 882.497 252.491 882.497 Q249.32 882.497 247.723 883.47 Q246.148 884.442 246.148 886.386 Q246.148 887.868 247.283 888.724 Q248.417 889.557 251.843 890.321 L253.301 890.645 Q257.838 891.618 259.736 893.4 Q261.658 895.159 261.658 898.331 Q261.658 901.942 258.787 904.048 Q255.94 906.155 250.94 906.155 Q248.857 906.155 246.588 905.738 Q244.343 905.344 241.843 904.534 L241.843 900.136 Q244.204 901.363 246.496 901.988 Q248.787 902.59 251.033 902.59 Q254.042 902.59 255.662 901.571 Q257.283 900.53 257.283 898.655 Q257.283 896.919 256.102 895.993 Q254.945 895.067 250.986 894.21 L249.505 893.863 Q245.547 893.03 243.787 891.317 Q242.028 889.581 242.028 886.571 Q242.028 882.914 244.621 880.923 Q247.213 878.933 251.982 878.933 Q254.343 878.933 256.426 879.28 Q258.509 879.627 260.269 880.321 Z" fill="#000000" fill-rule="evenodd" fill-opacity="1" /><path clip-path="url(#clip960)" d="M273.926 869.257 L273.926 916.664 L269.991 916.664 L269.991 869.257 L273.926 869.257 Z" fill="#000000" fill-rule="evenodd" fill-opacity="1" /><path clip-path="url(#clip960)" d="M1189.24 872.058 L1189.24 876.618 Q1186.58 875.345 1184.22 874.72 Q1181.85 874.095 1179.66 874.095 Q1175.84 874.095 1173.75 875.576 Q1171.69 877.058 1171.69 879.789 Q1171.69 882.081 1173.06 883.261 Q1174.45 884.419 1178.29 885.136 L1181.11 885.715 Q1186.35 886.71 1188.82 889.233 Q1191.32 891.733 1191.32 895.946 Q1191.32 900.969 1187.94 903.562 Q1184.59 906.155 1178.08 906.155 Q1175.63 906.155 1172.85 905.599 Q1170.1 905.043 1167.13 903.956 L1167.13 899.141 Q1169.98 900.738 1172.71 901.548 Q1175.44 902.358 1178.08 902.358 Q1182.09 902.358 1184.26 900.784 Q1186.44 899.21 1186.44 896.294 Q1186.44 893.747 1184.86 892.312 Q1183.31 890.877 1179.75 890.159 L1176.9 889.604 Q1171.67 888.562 1169.33 886.34 Q1166.99 884.118 1166.99 880.159 Q1166.99 875.576 1170.21 872.937 Q1173.45 870.298 1179.12 870.298 Q1181.55 870.298 1184.08 870.738 Q1186.6 871.178 1189.24 872.058 Z" fill="#000000" fill-rule="evenodd" fill-opacity="1" /><path clip-path="url(#clip960)" d="M1202.64 872.196 L1202.64 879.558 L1211.41 879.558 L1211.41 882.868 L1202.64 882.868 L1202.64 896.942 Q1202.64 900.113 1203.5 901.016 Q1204.38 901.919 1207.04 901.919 L1211.41 901.919 L1211.41 905.483 L1207.04 905.483 Q1202.11 905.483 1200.23 903.655 Q1198.36 901.803 1198.36 896.942 L1198.36 882.868 L1195.23 882.868 L1195.23 879.558 L1198.36 879.558 L1198.36 872.196 L1202.64 872.196 Z" fill="#000000" fill-rule="evenodd" fill-opacity="1" /><path clip-path="url(#clip960)" d="M1228.8 892.451 Q1223.64 892.451 1221.65 893.632 Q1219.66 894.812 1219.66 897.659 Q1219.66 899.928 1221.14 901.27 Q1222.64 902.59 1225.21 902.59 Q1228.75 902.59 1230.88 900.09 Q1233.03 897.567 1233.03 893.4 L1233.03 892.451 L1228.8 892.451 M1237.29 890.692 L1237.29 905.483 L1233.03 905.483 L1233.03 901.548 Q1231.58 903.909 1229.4 905.043 Q1227.22 906.155 1224.08 906.155 Q1220.09 906.155 1217.73 903.932 Q1215.4 901.687 1215.4 897.937 Q1215.4 893.562 1218.31 891.34 Q1221.25 889.118 1227.06 889.118 L1233.03 889.118 L1233.03 888.701 Q1233.03 885.761 1231.09 884.164 Q1229.17 882.544 1225.67 882.544 Q1223.45 882.544 1221.34 883.076 Q1219.24 883.608 1217.29 884.673 L1217.29 880.738 Q1219.63 879.835 1221.83 879.395 Q1224.03 878.933 1226.11 878.933 Q1231.74 878.933 1234.52 881.849 Q1237.29 884.766 1237.29 890.692 Z" fill="#000000" fill-rule="evenodd" fill-opacity="1" /><path clip-path="url(#clip960)" d="M1267.62 889.835 L1267.62 905.483 L1263.36 905.483 L1263.36 889.974 Q1263.36 886.294 1261.92 884.465 Q1260.49 882.636 1257.62 882.636 Q1254.17 882.636 1252.18 884.835 Q1250.19 887.034 1250.19 890.831 L1250.19 905.483 L1245.9 905.483 L1245.9 879.558 L1250.19 879.558 L1250.19 883.585 Q1251.72 881.247 1253.78 880.09 Q1255.86 878.933 1258.57 878.933 Q1263.03 878.933 1265.33 881.71 Q1267.62 884.465 1267.62 889.835 Z" fill="#000000" fill-rule="evenodd" fill-opacity="1" /><path clip-path="url(#clip960)" d="M1293.17 883.493 L1293.17 869.465 L1297.43 869.465 L1297.43 905.483 L1293.17 905.483 L1293.17 901.594 Q1291.83 903.909 1289.77 905.043 Q1287.73 906.155 1284.86 906.155 Q1280.16 906.155 1277.2 902.405 Q1274.26 898.655 1274.26 892.544 Q1274.26 886.432 1277.2 882.682 Q1280.16 878.933 1284.86 878.933 Q1287.73 878.933 1289.77 880.067 Q1291.83 881.178 1293.17 883.493 M1278.66 892.544 Q1278.66 897.243 1280.58 899.928 Q1282.53 902.59 1285.9 902.59 Q1289.28 902.59 1291.23 899.928 Q1293.17 897.243 1293.17 892.544 Q1293.17 887.845 1291.23 885.182 Q1289.28 882.497 1285.9 882.497 Q1282.53 882.497 1280.58 885.182 Q1278.66 887.845 1278.66 892.544 Z" fill="#000000" fill-rule="evenodd" fill-opacity="1" /><path clip-path="url(#clip960)" d="M1317.99 892.451 Q1312.83 892.451 1310.84 893.632 Q1308.84 894.812 1308.84 897.659 Q1308.84 899.928 1310.33 901.27 Q1311.83 902.59 1314.4 902.59 Q1317.94 902.59 1320.07 900.09 Q1322.22 897.567 1322.22 893.4 L1322.22 892.451 L1317.99 892.451 M1326.48 890.692 L1326.48 905.483 L1322.22 905.483 L1322.22 901.548 Q1320.77 903.909 1318.59 905.043 Q1316.41 906.155 1313.27 906.155 Q1309.28 906.155 1306.92 903.932 Q1304.59 901.687 1304.59 897.937 Q1304.59 893.562 1307.5 891.34 Q1310.44 889.118 1316.25 889.118 L1322.22 889.118 L1322.22 888.701 Q1322.22 885.761 1320.28 884.164 Q1318.36 882.544 1314.86 882.544 Q1312.64 882.544 1310.53 883.076 Q1308.43 883.608 1306.48 884.673 L1306.48 880.738 Q1308.82 879.835 1311.02 879.395 Q1313.22 878.933 1315.3 878.933 Q1320.93 878.933 1323.71 881.849 Q1326.48 884.766 1326.48 890.692 Z" fill="#000000" fill-rule="evenodd" fill-opacity="1" /><path clip-path="url(#clip960)" d="M1350.28 883.539 Q1349.56 883.122 1348.71 882.937 Q1347.87 882.729 1346.85 882.729 Q1343.24 882.729 1341.3 885.09 Q1339.38 887.428 1339.38 891.826 L1339.38 905.483 L1335.09 905.483 L1335.09 879.558 L1339.38 879.558 L1339.38 883.585 Q1340.72 881.224 1342.87 880.09 Q1345.02 878.933 1348.1 878.933 Q1348.54 878.933 1349.08 879.002 Q1349.61 879.048 1350.26 879.164 L1350.28 883.539 Z" fill="#000000" fill-rule="evenodd" fill-opacity="1" /><path clip-path="url(#clip960)" d="M1370.97 883.493 L1370.97 869.465 L1375.23 869.465 L1375.23 905.483 L1370.97 905.483 L1370.97 901.594 Q1369.63 903.909 1367.57 905.043 Q1365.53 906.155 1362.66 906.155 Q1357.96 906.155 1355 902.405 Q1352.06 898.655 1352.06 892.544 Q1352.06 886.432 1355 882.682 Q1357.96 878.933 1362.66 878.933 Q1365.53 878.933 1367.57 880.067 Q1369.63 881.178 1370.97 883.493 M1356.46 892.544 Q1356.46 897.243 1358.38 899.928 Q1360.33 902.59 1363.71 902.59 Q1367.08 902.59 1369.03 899.928 Q1370.97 897.243 1370.97 892.544 Q1370.97 887.845 1369.03 885.182 Q1367.08 882.497 1363.71 882.497 Q1360.33 882.497 1358.38 885.182 Q1356.46 887.845 1356.46 892.544 Z" fill="#000000" fill-rule="evenodd" fill-opacity="1" /><path clip-path="url(#clip960)" d="M1403.94 874.766 L1403.94 901.641 L1409.58 901.641 Q1416.74 901.641 1420.05 898.4 Q1423.38 895.159 1423.38 888.169 Q1423.38 881.224 1420.05 878.007 Q1416.74 874.766 1409.58 874.766 L1403.94 874.766 M1399.26 870.923 L1408.87 870.923 Q1418.91 870.923 1423.61 875.113 Q1428.31 879.28 1428.31 888.169 Q1428.31 897.104 1423.59 901.294 Q1418.87 905.483 1408.87 905.483 L1399.26 905.483 L1399.26 870.923 Z" fill="#000000" fill-rule="evenodd" fill-opacity="1" /><path clip-path="url(#clip960)" d="M1457.76 891.456 L1457.76 893.539 L1438.17 893.539 Q1438.45 897.937 1440.81 900.252 Q1443.2 902.544 1447.43 902.544 Q1449.89 902.544 1452.18 901.942 Q1454.49 901.34 1456.76 900.136 L1456.76 904.164 Q1454.47 905.136 1452.06 905.645 Q1449.65 906.155 1447.18 906.155 Q1440.97 906.155 1437.34 902.544 Q1433.73 898.932 1433.73 892.775 Q1433.73 886.409 1437.15 882.682 Q1440.6 878.933 1446.44 878.933 Q1451.67 878.933 1454.7 882.312 Q1457.76 885.669 1457.76 891.456 M1453.5 890.206 Q1453.45 886.71 1451.53 884.627 Q1449.63 882.544 1446.48 882.544 Q1442.92 882.544 1440.77 884.557 Q1438.64 886.571 1438.31 890.229 L1453.5 890.206 Z" fill="#000000" fill-rule="evenodd" fill-opacity="1" /><path clip-path="url(#clip960)" d="M1461.69 879.558 L1466.2 879.558 L1474.31 901.317 L1482.41 879.558 L1486.92 879.558 L1477.2 905.483 L1471.41 905.483 L1461.69 879.558 Z" fill="#000000" fill-rule="evenodd" fill-opacity="1" /><path clip-path="url(#clip960)" d="M1492.8 879.558 L1497.06 879.558 L1497.06 905.483 L1492.8 905.483 L1492.8 879.558 M1492.8 869.465 L1497.06 869.465 L1497.06 874.858 L1492.8 874.858 L1492.8 869.465 Z" fill="#000000" fill-rule="evenodd" fill-opacity="1" /><path clip-path="url(#clip960)" d="M1517.76 892.451 Q1512.59 892.451 1510.6 893.632 Q1508.61 894.812 1508.61 897.659 Q1508.61 899.928 1510.09 901.27 Q1511.6 902.59 1514.17 902.59 Q1517.71 902.59 1519.84 900.09 Q1521.99 897.567 1521.99 893.4 L1521.99 892.451 L1517.76 892.451 M1526.25 890.692 L1526.25 905.483 L1521.99 905.483 L1521.99 901.548 Q1520.53 903.909 1518.36 905.043 Q1516.18 906.155 1513.03 906.155 Q1509.05 906.155 1506.69 903.932 Q1504.35 901.687 1504.35 897.937 Q1504.35 893.562 1507.27 891.34 Q1510.21 889.118 1516.02 889.118 L1521.99 889.118 L1521.99 888.701 Q1521.99 885.761 1520.05 884.164 Q1518.13 882.544 1514.63 882.544 Q1512.41 882.544 1510.3 883.076 Q1508.2 883.608 1506.25 884.673 L1506.25 880.738 Q1508.59 879.835 1510.79 879.395 Q1512.99 878.933 1515.07 878.933 Q1520.7 878.933 1523.47 881.849 Q1526.25 884.766 1526.25 890.692 Z" fill="#000000" fill-rule="evenodd" fill-opacity="1" /><path clip-path="url(#clip960)" d="M1539.24 872.196 L1539.24 879.558 L1548.01 879.558 L1548.01 882.868 L1539.24 882.868 L1539.24 896.942 Q1539.24 900.113 1540.09 901.016 Q1540.97 901.919 1543.63 901.919 L1548.01 901.919 L1548.01 905.483 L1543.63 905.483 Q1538.7 905.483 1536.83 903.655 Q1534.95 901.803 1534.95 896.942 L1534.95 882.868 L1531.83 882.868 L1531.83 879.558 L1534.95 879.558 L1534.95 872.196 L1539.24 872.196 Z" fill="#000000" fill-rule="evenodd" fill-opacity="1" /><path clip-path="url(#clip960)" d="M1553.61 879.558 L1557.87 879.558 L1557.87 905.483 L1553.61 905.483 L1553.61 879.558 M1553.61 869.465 L1557.87 869.465 L1557.87 874.858 L1553.61 874.858 L1553.61 869.465 Z" fill="#000000" fill-rule="evenodd" fill-opacity="1" /><path clip-path="url(#clip960)" d="M1576.83 882.544 Q1573.4 882.544 1571.41 885.229 Q1569.42 887.891 1569.42 892.544 Q1569.42 897.196 1571.39 899.881 Q1573.38 902.544 1576.83 902.544 Q1580.23 902.544 1582.22 899.858 Q1584.21 897.173 1584.21 892.544 Q1584.21 887.937 1582.22 885.252 Q1580.23 882.544 1576.83 882.544 M1576.83 878.933 Q1582.38 878.933 1585.56 882.544 Q1588.73 886.155 1588.73 892.544 Q1588.73 898.909 1585.56 902.544 Q1582.38 906.155 1576.83 906.155 Q1571.25 906.155 1568.08 902.544 Q1564.93 898.909 1564.93 892.544 Q1564.93 886.155 1568.08 882.544 Q1571.25 878.933 1576.83 878.933 Z" fill="#000000" fill-rule="evenodd" fill-opacity="1" /><path clip-path="url(#clip960)" d="M1617.34 889.835 L1617.34 905.483 L1613.08 905.483 L1613.08 889.974 Q1613.08 886.294 1611.64 884.465 Q1610.21 882.636 1607.34 882.636 Q1603.89 882.636 1601.9 884.835 Q1599.91 887.034 1599.91 890.831 L1599.91 905.483 L1595.63 905.483 L1595.63 879.558 L1599.91 879.558 L1599.91 883.585 Q1601.44 881.247 1603.5 880.09 Q1605.58 878.933 1608.29 878.933 Q1612.75 878.933 1615.05 881.71 Q1617.34 884.465 1617.34 889.835 Z" fill="#000000" fill-rule="evenodd" fill-opacity="1" /><path clip-path="url(#clip960)" d="M2523.37 889.28 Q2524.87 889.789 2526.28 891.456 Q2527.72 893.122 2529.16 896.039 L2533.9 905.483 L2528.88 905.483 L2524.46 896.618 Q2522.74 893.145 2521.12 892.011 Q2519.53 890.877 2516.75 890.877 L2511.66 890.877 L2511.66 905.483 L2506.98 905.483 L2506.98 870.923 L2517.53 870.923 Q2523.46 870.923 2526.38 873.4 Q2529.29 875.877 2529.29 880.877 Q2529.29 884.141 2527.77 886.294 Q2526.26 888.446 2523.37 889.28 M2511.66 874.766 L2511.66 887.034 L2517.53 887.034 Q2520.91 887.034 2522.63 885.483 Q2524.36 883.909 2524.36 880.877 Q2524.36 877.845 2522.63 876.317 Q2520.91 874.766 2517.53 874.766 L2511.66 874.766 Z" fill="#000000" fill-rule="evenodd" fill-opacity="1" /><path clip-path="url(#clip960)" d="M2539.92 870.923 L2546.89 870.923 L2555.71 894.442 L2564.57 870.923 L2571.54 870.923 L2571.54 905.483 L2566.98 905.483 L2566.98 875.136 L2558.07 898.84 L2553.37 898.84 L2544.46 875.136 L2544.46 905.483 L2539.92 905.483 L2539.92 870.923 Z" fill="#000000" fill-rule="evenodd" fill-opacity="1" /><path clip-path="url(#clip960)" d="M2601.54 872.058 L2601.54 876.618 Q2598.88 875.345 2596.52 874.72 Q2594.15 874.095 2591.96 874.095 Q2588.14 874.095 2586.05 875.576 Q2583.99 877.058 2583.99 879.789 Q2583.99 882.081 2585.36 883.261 Q2586.75 884.419 2590.59 885.136 L2593.41 885.715 Q2598.65 886.71 2601.12 889.233 Q2603.62 891.733 2603.62 895.946 Q2603.62 900.969 2600.24 903.562 Q2596.89 906.155 2590.38 906.155 Q2587.93 906.155 2585.15 905.599 Q2582.4 905.043 2579.43 903.956 L2579.43 899.141 Q2582.28 900.738 2585.01 901.548 Q2587.74 902.358 2590.38 902.358 Q2594.39 902.358 2596.56 900.784 Q2598.74 899.21 2598.74 896.294 Q2598.74 893.747 2597.16 892.312 Q2595.61 890.877 2592.05 890.159 L2589.2 889.604 Q2583.97 888.562 2581.63 886.34 Q2579.29 884.118 2579.29 880.159 Q2579.29 875.576 2582.51 872.937 Q2585.75 870.298 2591.42 870.298 Q2593.85 870.298 2596.38 870.738 Q2598.9 871.178 2601.54 872.058 Z" fill="#000000" fill-rule="evenodd" fill-opacity="1" /><path clip-path="url(#clip960)" d="M2610.91 870.923 L2632.77 870.923 L2632.77 874.858 L2615.59 874.858 L2615.59 885.09 L2632.05 885.09 L2632.05 889.025 L2615.59 889.025 L2615.59 901.548 L2633.18 901.548 L2633.18 905.483 L2610.91 905.483 L2610.91 870.923 Z" fill="#000000" fill-rule="evenodd" fill-opacity="1" /><polyline clip-path="url(#clip962)" style="stroke:#000000; stroke-linecap:round; stroke-linejoin:round; stroke-width:2; stroke-opacity:0.1; fill:none" points="
  143.576,820.076 2640.76,820.076 
  "/>
<polyline clip-path="url(#clip962)" style="stroke:#000000; stroke-linecap:round; stroke-linejoin:round; stroke-width:2; stroke-opacity:0.1; fill:none" points="
  143.576,683.525 2640.76,683.525 
  "/>
<polyline clip-path="url(#clip962)" style="stroke:#000000; stroke-linecap:round; stroke-linejoin:round; stroke-width:2; stroke-opacity:0.1; fill:none" points="
  143.576,546.973 2640.76,546.973 
  "/>
<polyline clip-path="url(#clip962)" style="stroke:#000000; stroke-linecap:round; stroke-linejoin:round; stroke-width:2; stroke-opacity:0.1; fill:none" points="
  143.576,410.421 2640.76,410.421 
  "/>
<polyline clip-path="url(#clip962)" style="stroke:#000000; stroke-linecap:round; stroke-linejoin:round; stroke-width:2; stroke-opacity:0.1; fill:none" points="
  143.576,273.87 2640.76,273.87 
  "/>
<polyline clip-path="url(#clip962)" style="stroke:#000000; stroke-linecap:round; stroke-linejoin:round; stroke-width:2; stroke-opacity:0.1; fill:none" points="
  143.576,137.318 2640.76,137.318 
  "/>
<polyline clip-path="url(#clip960)" style="stroke:#000000; stroke-linecap:round; stroke-linejoin:round; stroke-width:4; stroke-opacity:1; fill:none" points="
  143.576,840.779 143.576,109.278 
  "/>
<polyline clip-path="url(#clip960)" style="stroke:#000000; stroke-linecap:round; stroke-linejoin:round; stroke-width:4; stroke-opacity:1; fill:none" points="
  143.576,820.076 162.473,820.076 
  "/>
<polyline clip-path="url(#clip960)" style="stroke:#000000; stroke-linecap:round; stroke-linejoin:round; stroke-width:4; stroke-opacity:1; fill:none" points="
  143.576,683.525 162.473,683.525 
  "/>
<polyline clip-path="url(#clip960)" style="stroke:#000000; stroke-linecap:round; stroke-linejoin:round; stroke-width:4; stroke-opacity:1; fill:none" points="
  143.576,546.973 162.473,546.973 
  "/>
<polyline clip-path="url(#clip960)" style="stroke:#000000; stroke-linecap:round; stroke-linejoin:round; stroke-width:4; stroke-opacity:1; fill:none" points="
  143.576,410.421 162.473,410.421 
  "/>
<polyline clip-path="url(#clip960)" style="stroke:#000000; stroke-linecap:round; stroke-linejoin:round; stroke-width:4; stroke-opacity:1; fill:none" points="
  143.576,273.87 162.473,273.87 
  "/>
<polyline clip-path="url(#clip960)" style="stroke:#000000; stroke-linecap:round; stroke-linejoin:round; stroke-width:4; stroke-opacity:1; fill:none" points="
  143.576,137.318 162.473,137.318 
  "/>
<path clip-path="url(#clip960)" d="M91.3112 805.875 Q87.7001 805.875 85.8714 809.44 Q84.0658 812.982 84.0658 820.111 Q84.0658 827.218 85.8714 830.782 Q87.7001 834.324 91.3112 834.324 Q94.9454 834.324 96.7509 830.782 Q98.5796 827.218 98.5796 820.111 Q98.5796 812.982 96.7509 809.44 Q94.9454 805.875 91.3112 805.875 M91.3112 802.171 Q97.1213 802.171 100.177 806.778 Q103.256 811.361 103.256 820.111 Q103.256 828.838 100.177 833.444 Q97.1213 838.028 91.3112 838.028 Q85.501 838.028 82.4223 833.444 Q79.3668 828.838 79.3668 820.111 Q79.3668 811.361 82.4223 806.778 Q85.501 802.171 91.3112 802.171 Z" fill="#000000" fill-rule="evenodd" fill-opacity="1" /><path clip-path="url(#clip960)" d="M82.3529 666.245 L100.709 666.245 L100.709 670.18 L86.6353 670.18 L86.6353 678.652 Q87.6538 678.305 88.6723 678.143 Q89.6908 677.958 90.7093 677.958 Q96.4963 677.958 99.8759 681.129 Q103.256 684.3 103.256 689.717 Q103.256 695.296 99.7833 698.397 Q96.3111 701.476 89.9917 701.476 Q87.8158 701.476 85.5473 701.106 Q83.3019 700.735 80.8946 699.995 L80.8946 695.296 Q82.9779 696.43 85.2001 696.985 Q87.4223 697.541 89.8991 697.541 Q93.9037 697.541 96.2417 695.434 Q98.5796 693.328 98.5796 689.717 Q98.5796 686.106 96.2417 683.999 Q93.9037 681.893 89.8991 681.893 Q88.0241 681.893 86.1492 682.309 Q84.2973 682.726 82.3529 683.606 L82.3529 666.245 Z" fill="#000000" fill-rule="evenodd" fill-opacity="1" /><path clip-path="url(#clip960)" d="M51.9595 560.318 L59.5984 560.318 L59.5984 533.952 L51.2882 535.619 L51.2882 531.36 L59.5521 529.693 L64.228 529.693 L64.228 560.318 L71.8668 560.318 L71.8668 564.253 L51.9595 564.253 L51.9595 560.318 Z" fill="#000000" fill-rule="evenodd" fill-opacity="1" /><path clip-path="url(#clip960)" d="M91.3112 532.772 Q87.7001 532.772 85.8714 536.337 Q84.0658 539.878 84.0658 547.008 Q84.0658 554.114 85.8714 557.679 Q87.7001 561.221 91.3112 561.221 Q94.9454 561.221 96.7509 557.679 Q98.5796 554.114 98.5796 547.008 Q98.5796 539.878 96.7509 536.337 Q94.9454 532.772 91.3112 532.772 M91.3112 529.068 Q97.1213 529.068 100.177 533.675 Q103.256 538.258 103.256 547.008 Q103.256 555.735 100.177 560.341 Q97.1213 564.924 91.3112 564.924 Q85.501 564.924 82.4223 560.341 Q79.3668 555.735 79.3668 547.008 Q79.3668 538.258 82.4223 533.675 Q85.501 529.068 91.3112 529.068 Z" fill="#000000" fill-rule="evenodd" fill-opacity="1" /><path clip-path="url(#clip960)" d="M52.9549 423.766 L60.5937 423.766 L60.5937 397.401 L52.2836 399.067 L52.2836 394.808 L60.5474 393.141 L65.2233 393.141 L65.2233 423.766 L72.8622 423.766 L72.8622 427.701 L52.9549 427.701 L52.9549 423.766 Z" fill="#000000" fill-rule="evenodd" fill-opacity="1" /><path clip-path="url(#clip960)" d="M82.3529 393.141 L100.709 393.141 L100.709 397.077 L86.6353 397.077 L86.6353 405.549 Q87.6538 405.201 88.6723 405.039 Q89.6908 404.854 90.7093 404.854 Q96.4963 404.854 99.8759 408.026 Q103.256 411.197 103.256 416.613 Q103.256 422.192 99.7833 425.294 Q96.3111 428.373 89.9917 428.373 Q87.8158 428.373 85.5473 428.002 Q83.3019 427.632 80.8946 426.891 L80.8946 422.192 Q82.9779 423.326 85.2001 423.882 Q87.4223 424.437 89.8991 424.437 Q93.9037 424.437 96.2417 422.331 Q98.5796 420.225 98.5796 416.613 Q98.5796 413.002 96.2417 410.896 Q93.9037 408.789 89.8991 408.789 Q88.0241 408.789 86.1492 409.206 Q84.2973 409.623 82.3529 410.502 L82.3529 393.141 Z" fill="#000000" fill-rule="evenodd" fill-opacity="1" /><path clip-path="url(#clip960)" d="M55.1771 287.215 L71.4965 287.215 L71.4965 291.15 L49.5521 291.15 L49.5521 287.215 Q52.2141 284.46 56.7975 279.83 Q61.4039 275.178 62.5845 273.835 Q64.8298 271.312 65.7094 269.576 Q66.6122 267.816 66.6122 266.127 Q66.6122 263.372 64.6678 261.636 Q62.7465 259.9 59.6447 259.9 Q57.4456 259.9 54.9919 260.664 Q52.5614 261.428 49.7836 262.979 L49.7836 258.256 Q52.6077 257.122 55.0614 256.543 Q57.515 255.965 59.5521 255.965 Q64.9224 255.965 68.1168 258.65 Q71.3113 261.335 71.3113 265.826 Q71.3113 267.955 70.5011 269.877 Q69.7141 271.775 67.6076 274.367 Q67.0289 275.039 63.927 278.256 Q60.8252 281.451 55.1771 287.215 Z" fill="#000000" fill-rule="evenodd" fill-opacity="1" /><path clip-path="url(#clip960)" d="M91.3112 259.668 Q87.7001 259.668 85.8714 263.233 Q84.0658 266.775 84.0658 273.904 Q84.0658 281.011 85.8714 284.576 Q87.7001 288.117 91.3112 288.117 Q94.9454 288.117 96.7509 284.576 Q98.5796 281.011 98.5796 273.904 Q98.5796 266.775 96.7509 263.233 Q94.9454 259.668 91.3112 259.668 M91.3112 255.965 Q97.1213 255.965 100.177 260.571 Q103.256 265.154 103.256 273.904 Q103.256 282.631 100.177 287.238 Q97.1213 291.821 91.3112 291.821 Q85.501 291.821 82.4223 287.238 Q79.3668 282.631 79.3668 273.904 Q79.3668 265.154 82.4223 260.571 Q85.501 255.965 91.3112 255.965 Z" fill="#000000" fill-rule="evenodd" fill-opacity="1" /><path clip-path="url(#clip960)" d="M56.1725 150.663 L72.4918 150.663 L72.4918 154.598 L50.5475 154.598 L50.5475 150.663 Q53.2095 147.908 57.7928 143.279 Q62.3993 138.626 63.5798 137.283 Q65.8252 134.76 66.7048 133.024 Q67.6076 131.265 67.6076 129.575 Q67.6076 126.82 65.6632 125.084 Q63.7419 123.348 60.64 123.348 Q58.441 123.348 55.9873 124.112 Q53.5567 124.876 50.779 126.427 L50.779 121.705 Q53.603 120.57 56.0567 119.992 Q58.5104 119.413 60.5474 119.413 Q65.9178 119.413 69.1122 122.098 Q72.3066 124.783 72.3066 129.274 Q72.3066 131.404 71.4965 133.325 Q70.7094 135.223 68.6029 137.816 Q68.0242 138.487 64.9224 141.705 Q61.8206 144.899 56.1725 150.663 Z" fill="#000000" fill-rule="evenodd" fill-opacity="1" /><path clip-path="url(#clip960)" d="M82.3529 120.038 L100.709 120.038 L100.709 123.973 L86.6353 123.973 L86.6353 132.445 Q87.6538 132.098 88.6723 131.936 Q89.6908 131.751 90.7093 131.751 Q96.4963 131.751 99.8759 134.922 Q103.256 138.093 103.256 143.51 Q103.256 149.089 99.7833 152.191 Q96.3111 155.269 89.9917 155.269 Q87.8158 155.269 85.5473 154.899 Q83.3019 154.529 80.8946 153.788 L80.8946 149.089 Q82.9779 150.223 85.2001 150.779 Q87.4223 151.334 89.8991 151.334 Q93.9037 151.334 96.2417 149.228 Q98.5796 147.121 98.5796 143.51 Q98.5796 139.899 96.2417 137.793 Q93.9037 135.686 89.8991 135.686 Q88.0241 135.686 86.1492 136.103 Q84.2973 136.519 82.3529 137.399 L82.3529 120.038 Z" fill="#000000" fill-rule="evenodd" fill-opacity="1" /><path clip-path="url(#clip960)" d="M1150.37 8.64 L1156.65 8.64 L1167.38 24.6989 L1178.18 8.64 L1184.46 8.64 L1170.57 29.3864 L1185.38 51.84 L1179.1 51.84 L1166.95 33.4663 L1154.71 51.84 L1148.4 51.84 L1163.82 28.7788 L1150.37 8.64 Z" fill="#000000" fill-rule="evenodd" fill-opacity="1" /><path clip-path="url(#clip960)" d="M1230.61 28.2001 L1230.61 33.3505 Q1227.57 35.6364 1224.96 36.6202 Q1222.39 37.604 1219.58 37.604 Q1216.4 37.604 1212.18 35.8968 Q1211.86 35.7811 1211.71 35.7232 Q1211.51 35.6364 1211.08 35.4917 Q1206.59 33.6977 1203.87 33.6977 Q1201.32 33.6977 1198.84 34.8262 Q1196.35 35.9257 1193.51 38.3273 L1193.51 33.1769 Q1196.55 30.891 1199.13 29.9072 Q1201.73 28.8945 1204.54 28.8945 Q1207.72 28.8945 1211.97 30.6306 Q1212.26 30.7464 1212.41 30.8042 Q1212.64 30.891 1213.04 31.0357 Q1217.53 32.8297 1220.25 32.8297 Q1222.74 32.8297 1225.17 31.7302 Q1227.63 30.6306 1230.61 28.2001 Z" fill="#000000" fill-rule="evenodd" fill-opacity="1" /><path clip-path="url(#clip960)" d="M1272.16 45.6768 L1272.16 34.0739 L1262.61 34.0739 L1262.61 29.2707 L1277.94 29.2707 L1277.94 47.818 Q1274.56 50.2196 1270.48 51.4638 Q1266.4 52.6791 1261.77 52.6791 Q1251.64 52.6791 1245.91 46.7764 Q1240.21 40.8447 1240.21 30.2834 Q1240.21 19.6932 1245.91 13.7904 Q1251.64 7.85875 1261.77 7.85875 Q1265.99 7.85875 1269.79 8.90042 Q1273.6 9.94208 1276.82 11.9675 L1276.82 18.1886 Q1273.58 15.4397 1269.93 14.0509 Q1266.28 12.662 1262.26 12.662 Q1254.33 12.662 1250.34 17.089 Q1246.38 21.5161 1246.38 30.2834 Q1246.38 39.0218 1250.34 43.4488 Q1254.33 47.8759 1262.26 47.8759 Q1265.36 47.8759 1267.79 47.3551 Q1270.22 46.8053 1272.16 45.6768 Z" fill="#000000" fill-rule="evenodd" fill-opacity="1" /><path clip-path="url(#clip960)" d="M1294.47 13.4432 L1294.47 29.6758 L1301.82 29.6758 Q1305.9 29.6758 1308.12 27.5635 Q1310.35 25.4513 1310.35 21.545 Q1310.35 17.6677 1308.12 15.5555 Q1305.9 13.4432 1301.82 13.4432 L1294.47 13.4432 M1288.62 8.64 L1301.82 8.64 Q1309.08 8.64 1312.78 11.9386 Q1316.52 15.2083 1316.52 21.545 Q1316.52 27.9397 1312.78 31.2093 Q1309.08 34.479 1301.82 34.479 L1294.47 34.479 L1294.47 51.84 L1288.62 51.84 L1288.62 8.64 Z" fill="#000000" fill-rule="evenodd" fill-opacity="1" /><path clip-path="url(#clip960)" d="M1330.2 13.4432 L1330.2 47.0368 L1337.26 47.0368 Q1346.2 47.0368 1350.34 42.9859 Q1354.51 38.935 1354.51 30.1966 Q1354.51 21.5161 1350.34 17.4941 Q1346.2 13.4432 1337.26 13.4432 L1330.2 13.4432 M1324.36 8.64 L1336.36 8.64 Q1348.92 8.64 1354.8 13.8772 Q1360.67 19.0855 1360.67 30.1966 Q1360.67 41.3655 1354.77 46.6028 Q1348.86 51.84 1336.36 51.84 L1324.36 51.84 L1324.36 8.64 Z" fill="#000000" fill-rule="evenodd" fill-opacity="1" /><path clip-path="url(#clip960)" d="M1371.12 44.4905 L1377.22 44.4905 L1377.22 49.4673 L1372.48 58.7265 L1368.74 58.7265 L1371.12 49.4673 L1371.12 44.4905 Z" fill="#000000" fill-rule="evenodd" fill-opacity="1" /><path clip-path="url(#clip960)" d="M1434.37 32.2799 L1434.37 51.84 L1429.04 51.84 L1429.04 32.4535 Q1429.04 27.8529 1427.25 25.567 Q1425.46 23.2811 1421.87 23.2811 Q1417.56 23.2811 1415.07 26.03 Q1412.58 28.7788 1412.58 33.5241 L1412.58 51.84 L1407.23 51.84 L1407.23 19.4328 L1412.58 19.4328 L1412.58 24.4675 Q1414.49 21.545 1417.06 20.0983 Q1419.67 18.6515 1423.05 18.6515 Q1428.64 18.6515 1431.5 22.1237 Q1434.37 25.567 1434.37 32.2799 Z" fill="#000000" fill-rule="evenodd" fill-opacity="1" /><path clip-path="url(#clip960)" d="M1445.68 24.9304 L1482.78 24.9304 L1482.78 29.7915 L1445.68 29.7915 L1445.68 24.9304 M1445.68 36.7359 L1482.78 36.7359 L1482.78 41.6549 L1445.68 41.6549 L1445.68 36.7359 Z" fill="#000000" fill-rule="evenodd" fill-opacity="1" /><path clip-path="url(#clip960)" d="M1496.4 46.921 L1505.95 46.921 L1505.95 13.964 L1495.57 16.0474 L1495.57 10.7233 L1505.89 8.64 L1511.74 8.64 L1511.74 46.921 L1521.29 46.921 L1521.29 51.84 L1496.4 51.84 L1496.4 46.921 Z" fill="#000000" fill-rule="evenodd" fill-opacity="1" /><path clip-path="url(#clip960)" d="M1545.59 12.4884 Q1541.08 12.4884 1538.79 16.9444 Q1536.54 21.3714 1536.54 30.2834 Q1536.54 39.1665 1538.79 43.6225 Q1541.08 48.0495 1545.59 48.0495 Q1550.14 48.0495 1552.39 43.6225 Q1554.68 39.1665 1554.68 30.2834 Q1554.68 21.3714 1552.39 16.9444 Q1550.14 12.4884 1545.59 12.4884 M1545.59 7.85875 Q1552.86 7.85875 1556.68 13.6168 Q1560.52 19.346 1560.52 30.2834 Q1560.52 41.1919 1556.68 46.95 Q1552.86 52.6791 1545.59 52.6791 Q1538.33 52.6791 1534.48 46.95 Q1530.66 41.1919 1530.66 30.2834 Q1530.66 19.346 1534.48 13.6168 Q1538.33 7.85875 1545.59 7.85875 Z" fill="#000000" fill-rule="evenodd" fill-opacity="1" /><path clip-path="url(#clip960)" d="M1583.3 12.4884 Q1578.78 12.4884 1576.5 16.9444 Q1574.24 21.3714 1574.24 30.2834 Q1574.24 39.1665 1576.5 43.6225 Q1578.78 48.0495 1583.3 48.0495 Q1587.84 48.0495 1590.1 43.6225 Q1592.38 39.1665 1592.38 30.2834 Q1592.38 21.3714 1590.1 16.9444 Q1587.84 12.4884 1583.3 12.4884 M1583.3 7.85875 Q1590.56 7.85875 1594.38 13.6168 Q1598.23 19.346 1598.23 30.2834 Q1598.23 41.1919 1594.38 46.95 Q1590.56 52.6791 1583.3 52.6791 Q1576.03 52.6791 1572.19 46.95 Q1568.37 41.1919 1568.37 30.2834 Q1568.37 19.346 1572.19 13.6168 Q1576.03 7.85875 1583.3 7.85875 Z" fill="#000000" fill-rule="evenodd" fill-opacity="1" /><path clip-path="url(#clip960)" d="M1621 12.4884 Q1616.48 12.4884 1614.2 16.9444 Q1611.94 21.3714 1611.94 30.2834 Q1611.94 39.1665 1614.2 43.6225 Q1616.48 48.0495 1621 48.0495 Q1625.54 48.0495 1627.8 43.6225 Q1630.08 39.1665 1630.08 30.2834 Q1630.08 21.3714 1627.8 16.9444 Q1625.54 12.4884 1621 12.4884 M1621 7.85875 Q1628.26 7.85875 1632.08 13.6168 Q1635.93 19.346 1635.93 30.2834 Q1635.93 41.1919 1632.08 46.95 Q1628.26 52.6791 1621 52.6791 Q1613.74 52.6791 1609.89 46.95 Q1606.07 41.1919 1606.07 30.2834 Q1606.07 19.346 1609.89 13.6168 Q1613.74 7.85875 1621 7.85875 Z" fill="#000000" fill-rule="evenodd" fill-opacity="1" /><polyline clip-path="url(#clip962)" style="stroke:#009af9; stroke-linecap:round; stroke-linejoin:round; stroke-width:0; stroke-opacity:1; fill:none" points="
  214.25,813.625 1392.17,129.981 2570.08,130.02 
  "/>
<circle clip-path="url(#clip962)" cx="214.25" cy="813.625" r="14.4" fill="#009af9" fill-rule="evenodd" fill-opacity="1" stroke="#000000" stroke-opacity="1" stroke-width="3.84"/>
<circle clip-path="url(#clip962)" cx="1392.17" cy="129.981" r="14.4" fill="#009af9" fill-rule="evenodd" fill-opacity="1" stroke="#000000" stroke-opacity="1" stroke-width="3.84"/>
<circle clip-path="url(#clip962)" cx="2570.08" cy="130.02" r="14.4" fill="#009af9" fill-rule="evenodd" fill-opacity="1" stroke="#000000" stroke-opacity="1" stroke-width="3.84"/>
<polyline clip-path="url(#clip962)" style="stroke:#e26f46; stroke-linecap:round; stroke-linejoin:round; stroke-width:0; stroke-opacity:1; fill:none" points="
  214.25,359.322 1392.17,747.911 2570.08,353.706 
  "/>
<circle clip-path="url(#clip962)" cx="214.25" cy="359.322" r="14.4" fill="#e26f46" fill-rule="evenodd" fill-opacity="1" stroke="#000000" stroke-opacity="1" stroke-width="3.84"/>
<circle clip-path="url(#clip962)" cx="1392.17" cy="747.911" r="14.4" fill="#e26f46" fill-rule="evenodd" fill-opacity="1" stroke="#000000" stroke-opacity="1" stroke-width="3.84"/>
<circle clip-path="url(#clip962)" cx="2570.08" cy="353.706" r="14.4" fill="#e26f46" fill-rule="evenodd" fill-opacity="1" stroke="#000000" stroke-opacity="1" stroke-width="3.84"/>
<polyline clip-path="url(#clip962)" style="stroke:#3da44d; stroke-linecap:round; stroke-linejoin:round; stroke-width:0; stroke-opacity:1; fill:none" points="
  214.25,775.037 1392.17,567.349 2570.08,563.392 
  "/>
<circle clip-path="url(#clip962)" cx="214.25" cy="775.037" r="14.4" fill="#3da44d" fill-rule="evenodd" fill-opacity="1" stroke="#000000" stroke-opacity="1" stroke-width="3.84"/>
<circle clip-path="url(#clip962)" cx="1392.17" cy="567.349" r="14.4" fill="#3da44d" fill-rule="evenodd" fill-opacity="1" stroke="#000000" stroke-opacity="1" stroke-width="3.84"/>
<circle clip-path="url(#clip962)" cx="2570.08" cy="563.392" r="14.4" fill="#3da44d" fill-rule="evenodd" fill-opacity="1" stroke="#000000" stroke-opacity="1" stroke-width="3.84"/>
<polyline clip-path="url(#clip962)" style="stroke:#000000; stroke-linecap:round; stroke-linejoin:round; stroke-width:4; stroke-opacity:1; fill:none" points="
  -2353.6,820.076 5137.94,820.076 
  "/>
<path clip-path="url(#clip960)" d="
M226.815 341.021 L918.799 341.021 L918.799 133.661 L226.815 133.661  Z
  " fill="#ffffff" fill-rule="evenodd" fill-opacity="1"/>
<polyline clip-path="url(#clip960)" style="stroke:#000000; stroke-linecap:round; stroke-linejoin:round; stroke-width:4; stroke-opacity:1; fill:none" points="
  226.815,341.021 918.799,341.021 918.799,133.661 226.815,133.661 226.815,341.021 
  "/>
<polyline clip-path="url(#clip960)" style="stroke:#009af9; stroke-linecap:round; stroke-linejoin:round; stroke-width:0.8; stroke-opacity:1; fill:none" points="
  254.561,185.501 421.04,185.501 
  "/>
<circle clip-path="url(#clip960)" cx="337.801" cy="185.501" r="23.04" fill="#009af9" fill-rule="evenodd" fill-opacity="1" stroke="#000000" stroke-opacity="1" stroke-width="6.144"/>
<path clip-path="url(#clip960)" d="M471.032 169.355 L471.032 173.916 Q468.37 172.642 466.009 172.017 Q463.648 171.393 461.448 171.393 Q457.629 171.393 455.546 172.874 Q453.486 174.355 453.486 177.087 Q453.486 179.379 454.851 180.559 Q456.24 181.717 460.083 182.434 L462.907 183.013 Q468.138 184.008 470.615 186.531 Q473.115 189.031 473.115 193.244 Q473.115 198.267 469.735 200.86 Q466.379 203.453 459.874 203.453 Q457.421 203.453 454.643 202.897 Q451.888 202.341 448.925 201.253 L448.925 196.439 Q451.773 198.036 454.504 198.846 Q457.236 199.656 459.874 199.656 Q463.879 199.656 466.055 198.082 Q468.231 196.508 468.231 193.591 Q468.231 191.045 466.657 189.61 Q465.106 188.175 461.541 187.457 L458.694 186.902 Q453.462 185.86 451.124 183.638 Q448.786 181.416 448.786 177.457 Q448.786 172.874 452.004 170.235 Q455.245 167.596 460.916 167.596 Q463.347 167.596 465.87 168.036 Q468.393 168.476 471.032 169.355 Z" fill="#000000" fill-rule="evenodd" fill-opacity="1" /><path clip-path="url(#clip960)" d="M492.004 189.749 Q486.842 189.749 484.851 190.929 Q482.86 192.11 482.86 194.957 Q482.86 197.226 484.342 198.568 Q485.846 199.888 488.416 199.888 Q491.958 199.888 494.087 197.388 Q496.24 194.865 496.24 190.698 L496.24 189.749 L492.004 189.749 M500.499 187.99 L500.499 202.781 L496.24 202.781 L496.24 198.846 Q494.782 201.207 492.606 202.341 Q490.43 203.453 487.282 203.453 Q483.3 203.453 480.939 201.23 Q478.601 198.985 478.601 195.235 Q478.601 190.86 481.518 188.638 Q484.458 186.416 490.268 186.416 L496.24 186.416 L496.24 185.999 Q496.24 183.059 494.295 181.462 Q492.374 179.842 488.879 179.842 Q486.657 179.842 484.55 180.374 Q482.444 180.906 480.499 181.971 L480.499 178.036 Q482.837 177.133 485.036 176.693 Q487.235 176.23 489.319 176.23 Q494.944 176.23 497.721 179.147 Q500.499 182.064 500.499 187.99 Z" fill="#000000" fill-rule="evenodd" fill-opacity="1" /><path clip-path="url(#clip960)" d="M529.457 181.832 Q531.055 178.962 533.277 177.596 Q535.499 176.23 538.508 176.23 Q542.559 176.23 544.758 179.078 Q546.957 181.902 546.957 187.133 L546.957 202.781 L542.675 202.781 L542.675 187.272 Q542.675 183.545 541.355 181.74 Q540.036 179.934 537.328 179.934 Q534.018 179.934 532.096 182.133 Q530.175 184.332 530.175 188.129 L530.175 202.781 L525.893 202.781 L525.893 187.272 Q525.893 183.522 524.573 181.74 Q523.254 179.934 520.499 179.934 Q517.235 179.934 515.314 182.156 Q513.393 184.355 513.393 188.129 L513.393 202.781 L509.11 202.781 L509.11 176.855 L513.393 176.855 L513.393 180.883 Q514.851 178.499 516.888 177.365 Q518.925 176.23 521.726 176.23 Q524.55 176.23 526.518 177.666 Q528.508 179.101 529.457 181.832 Z" fill="#000000" fill-rule="evenodd" fill-opacity="1" /><path clip-path="url(#clip960)" d="M559.573 198.892 L559.573 212.642 L555.291 212.642 L555.291 176.855 L559.573 176.855 L559.573 180.791 Q560.916 178.476 562.953 177.365 Q565.013 176.23 567.86 176.23 Q572.582 176.23 575.522 179.98 Q578.485 183.73 578.485 189.841 Q578.485 195.953 575.522 199.703 Q572.582 203.453 567.86 203.453 Q565.013 203.453 562.953 202.341 Q560.916 201.207 559.573 198.892 M574.064 189.841 Q574.064 185.142 572.119 182.48 Q570.198 179.795 566.818 179.795 Q563.439 179.795 561.494 182.48 Q559.573 185.142 559.573 189.841 Q559.573 194.541 561.494 197.226 Q563.439 199.888 566.818 199.888 Q570.198 199.888 572.119 197.226 Q574.064 194.541 574.064 189.841 Z" fill="#000000" fill-rule="evenodd" fill-opacity="1" /><path clip-path="url(#clip960)" d="M585.545 166.763 L589.804 166.763 L589.804 202.781 L585.545 202.781 L585.545 166.763 Z" fill="#000000" fill-rule="evenodd" fill-opacity="1" /><path clip-path="url(#clip960)" d="M620.892 188.754 L620.892 190.837 L601.309 190.837 Q601.587 195.235 603.948 197.55 Q606.332 199.841 610.568 199.841 Q613.022 199.841 615.313 199.24 Q617.628 198.638 619.897 197.434 L619.897 201.462 Q617.605 202.434 615.198 202.943 Q612.79 203.453 610.313 203.453 Q604.11 203.453 600.475 199.841 Q596.864 196.23 596.864 190.073 Q596.864 183.707 600.29 179.98 Q603.739 176.23 609.573 176.23 Q614.804 176.23 617.836 179.61 Q620.892 182.967 620.892 188.754 M616.633 187.504 Q616.587 184.008 614.665 181.925 Q612.767 179.842 609.619 179.842 Q606.054 179.842 603.901 181.855 Q601.772 183.869 601.448 187.527 L616.633 187.504 Z" fill="#000000" fill-rule="evenodd" fill-opacity="1" /><path clip-path="url(#clip960)" d="M643.137 168.221 L650.105 168.221 L658.924 191.74 L667.79 168.221 L674.757 168.221 L674.757 202.781 L670.197 202.781 L670.197 172.434 L661.285 196.138 L656.586 196.138 L647.674 172.434 L647.674 202.781 L643.137 202.781 L643.137 168.221 Z" fill="#000000" fill-rule="evenodd" fill-opacity="1" /><path clip-path="url(#clip960)" d="M706.03 188.754 L706.03 190.837 L686.447 190.837 Q686.725 195.235 689.086 197.55 Q691.47 199.841 695.706 199.841 Q698.16 199.841 700.452 199.24 Q702.767 198.638 705.035 197.434 L705.035 201.462 Q702.743 202.434 700.336 202.943 Q697.929 203.453 695.452 203.453 Q689.248 203.453 685.614 199.841 Q682.003 196.23 682.003 190.073 Q682.003 183.707 685.429 179.98 Q688.878 176.23 694.711 176.23 Q699.943 176.23 702.975 179.61 Q706.03 182.967 706.03 188.754 M701.771 187.504 Q701.725 184.008 699.804 181.925 Q697.906 179.842 694.757 179.842 Q691.193 179.842 689.04 181.855 Q686.91 183.869 686.586 187.527 L701.771 187.504 Z" fill="#000000" fill-rule="evenodd" fill-opacity="1" /><path clip-path="url(#clip960)" d="M724.804 189.749 Q719.642 189.749 717.651 190.929 Q715.66 192.11 715.66 194.957 Q715.66 197.226 717.142 198.568 Q718.646 199.888 721.216 199.888 Q724.757 199.888 726.887 197.388 Q729.04 194.865 729.04 190.698 L729.04 189.749 L724.804 189.749 M733.299 187.99 L733.299 202.781 L729.04 202.781 L729.04 198.846 Q727.581 201.207 725.405 202.341 Q723.229 203.453 720.081 203.453 Q716.1 203.453 713.739 201.23 Q711.401 198.985 711.401 195.235 Q711.401 190.86 714.317 188.638 Q717.257 186.416 723.067 186.416 L729.04 186.416 L729.04 185.999 Q729.04 183.059 727.095 181.462 Q725.174 179.842 721.679 179.842 Q719.456 179.842 717.35 180.374 Q715.243 180.906 713.299 181.971 L713.299 178.036 Q715.637 177.133 717.836 176.693 Q720.035 176.23 722.118 176.23 Q727.743 176.23 730.521 179.147 Q733.299 182.064 733.299 187.99 Z" fill="#000000" fill-rule="evenodd" fill-opacity="1" /><path clip-path="url(#clip960)" d="M763.623 187.133 L763.623 202.781 L759.364 202.781 L759.364 187.272 Q759.364 183.592 757.928 181.763 Q756.493 179.934 753.623 179.934 Q750.174 179.934 748.183 182.133 Q746.192 184.332 746.192 188.129 L746.192 202.781 L741.91 202.781 L741.91 176.855 L746.192 176.855 L746.192 180.883 Q747.72 178.545 749.78 177.388 Q751.864 176.23 754.572 176.23 Q759.039 176.23 761.331 179.008 Q763.623 181.763 763.623 187.133 Z" fill="#000000" fill-rule="evenodd" fill-opacity="1" /><path clip-path="url(#clip960)" d="M794.757 168.221 L798.692 168.221 L786.655 207.179 L782.72 207.179 L794.757 168.221 Z" fill="#000000" fill-rule="evenodd" fill-opacity="1" /><path clip-path="url(#clip960)" d="M827.326 202.781 L814.132 168.221 L819.016 168.221 L829.965 197.318 L840.937 168.221 L845.798 168.221 L832.627 202.781 L827.326 202.781 Z" fill="#000000" fill-rule="evenodd" fill-opacity="1" /><path clip-path="url(#clip960)" d="M858.761 189.749 Q853.599 189.749 851.608 190.929 Q849.618 192.11 849.618 194.957 Q849.618 197.226 851.099 198.568 Q852.604 199.888 855.173 199.888 Q858.715 199.888 860.844 197.388 Q862.997 194.865 862.997 190.698 L862.997 189.749 L858.761 189.749 M867.256 187.99 L867.256 202.781 L862.997 202.781 L862.997 198.846 Q861.539 201.207 859.363 202.341 Q857.187 203.453 854.039 203.453 Q850.057 203.453 847.696 201.23 Q845.358 198.985 845.358 195.235 Q845.358 190.86 848.275 188.638 Q851.215 186.416 857.025 186.416 L862.997 186.416 L862.997 185.999 Q862.997 183.059 861.053 181.462 Q859.131 179.842 855.636 179.842 Q853.414 179.842 851.307 180.374 Q849.201 180.906 847.257 181.971 L847.257 178.036 Q849.595 177.133 851.794 176.693 Q853.993 176.23 856.076 176.23 Q861.701 176.23 864.479 179.147 Q867.256 182.064 867.256 187.99 Z" fill="#000000" fill-rule="evenodd" fill-opacity="1" /><path clip-path="url(#clip960)" d="M891.053 180.837 Q890.335 180.42 889.479 180.235 Q888.645 180.027 887.627 180.027 Q884.016 180.027 882.071 182.388 Q880.15 184.726 880.15 189.124 L880.15 202.781 L875.868 202.781 L875.868 176.855 L880.15 176.855 L880.15 180.883 Q881.492 178.522 883.645 177.388 Q885.798 176.23 888.877 176.23 Q889.317 176.23 889.849 176.3 Q890.381 176.346 891.029 176.462 L891.053 180.837 Z" fill="#000000" fill-rule="evenodd" fill-opacity="1" /><polyline clip-path="url(#clip960)" style="stroke:#e26f46; stroke-linecap:round; stroke-linejoin:round; stroke-width:0.8; stroke-opacity:1; fill:none" points="
  254.561,237.341 421.04,237.341 
  "/>
<circle clip-path="url(#clip960)" cx="337.801" cy="237.341" r="23.04" fill="#e26f46" fill-rule="evenodd" fill-opacity="1" stroke="#000000" stroke-opacity="1" stroke-width="6.144"/>
<path clip-path="url(#clip960)" d="M448.786 220.061 L453.462 220.061 L453.462 234.228 L470.453 234.228 L470.453 220.061 L475.129 220.061 L475.129 254.621 L470.453 254.621 L470.453 238.163 L453.462 238.163 L453.462 254.621 L448.786 254.621 L448.786 220.061 Z" fill="#000000" fill-rule="evenodd" fill-opacity="1" /><path clip-path="url(#clip960)" d="M484.249 228.695 L488.508 228.695 L488.508 254.621 L484.249 254.621 L484.249 228.695 M484.249 218.603 L488.508 218.603 L488.508 223.996 L484.249 223.996 L484.249 218.603 Z" fill="#000000" fill-rule="evenodd" fill-opacity="1" /><path clip-path="url(#clip960)" d="M497.42 218.603 L501.68 218.603 L501.68 254.621 L497.42 254.621 L497.42 218.603 Z" fill="#000000" fill-rule="evenodd" fill-opacity="1" /><path clip-path="url(#clip960)" d="M510.592 218.603 L514.851 218.603 L514.851 254.621 L510.592 254.621 L510.592 218.603 Z" fill="#000000" fill-rule="evenodd" fill-opacity="1" /><polyline clip-path="url(#clip960)" style="stroke:#3da44d; stroke-linecap:round; stroke-linejoin:round; stroke-width:0.8; stroke-opacity:1; fill:none" points="
  254.561,289.181 421.04,289.181 
  "/>
<circle clip-path="url(#clip960)" cx="337.801" cy="289.181" r="23.04" fill="#3da44d" fill-rule="evenodd" fill-opacity="1" stroke="#000000" stroke-opacity="1" stroke-width="6.144"/>
<path clip-path="url(#clip960)" d="M474.342 301.531 L474.342 292.248 L466.703 292.248 L466.703 288.406 L478.971 288.406 L478.971 303.244 Q476.263 305.165 472.999 306.16 Q469.735 307.133 466.032 307.133 Q457.93 307.133 453.347 302.41 Q448.786 297.665 448.786 289.216 Q448.786 280.744 453.347 276.022 Q457.93 271.276 466.032 271.276 Q469.411 271.276 472.444 272.11 Q475.499 272.943 478.069 274.563 L478.069 279.54 Q475.476 277.341 472.559 276.23 Q469.643 275.119 466.425 275.119 Q460.083 275.119 456.888 278.66 Q453.717 282.202 453.717 289.216 Q453.717 296.207 456.888 299.748 Q460.083 303.29 466.425 303.29 Q468.902 303.29 470.847 302.873 Q472.791 302.433 474.342 301.531 Z" fill="#000000" fill-rule="evenodd" fill-opacity="1" /><path clip-path="url(#clip960)" d="M492.189 275.744 L492.189 288.73 L498.069 288.73 Q501.332 288.73 503.115 287.04 Q504.897 285.35 504.897 282.225 Q504.897 279.123 503.115 277.434 Q501.332 275.744 498.069 275.744 L492.189 275.744 M487.513 271.901 L498.069 271.901 Q503.879 271.901 506.842 274.54 Q509.828 277.156 509.828 282.225 Q509.828 287.341 506.842 289.957 Q503.879 292.572 498.069 292.572 L492.189 292.572 L492.189 306.461 L487.513 306.461 L487.513 271.901 Z" fill="#000000" fill-rule="evenodd" fill-opacity="1" /><path clip-path="url(#clip960)" d="M520.777 275.744 L520.777 302.619 L526.425 302.619 Q533.578 302.619 536.888 299.378 Q540.221 296.137 540.221 289.147 Q540.221 282.202 536.888 278.985 Q533.578 275.744 526.425 275.744 L520.777 275.744 M516.101 271.901 L525.707 271.901 Q535.754 271.901 540.453 276.091 Q545.152 280.258 545.152 289.147 Q545.152 298.082 540.43 302.271 Q535.707 306.461 525.707 306.461 L516.101 306.461 L516.101 271.901 Z" fill="#000000" fill-rule="evenodd" fill-opacity="1" /><path clip-path="url(#clip960)" d="
M143.576 1800.78 L2640.76 1800.78 L2640.76 1069.28 L143.576 1069.28  Z
  " fill="#ffffff" fill-rule="evenodd" fill-opacity="1"/>
<defs>
  <clipPath id="clip963">
    <rect x="143" y="1069" width="2498" height="733"/>
  </clipPath>
</defs>
<polyline clip-path="url(#clip963)" style="stroke:#000000; stroke-linecap:round; stroke-linejoin:round; stroke-width:2; stroke-opacity:0.1; fill:none" points="
  214.25,1800.78 214.25,1069.28 
  "/>
<polyline clip-path="url(#clip963)" style="stroke:#000000; stroke-linecap:round; stroke-linejoin:round; stroke-width:2; stroke-opacity:0.1; fill:none" points="
  1392.17,1800.78 1392.17,1069.28 
  "/>
<polyline clip-path="url(#clip963)" style="stroke:#000000; stroke-linecap:round; stroke-linejoin:round; stroke-width:2; stroke-opacity:0.1; fill:none" points="
  2570.08,1800.78 2570.08,1069.28 
  "/>
<polyline clip-path="url(#clip960)" style="stroke:#000000; stroke-linecap:round; stroke-linejoin:round; stroke-width:4; stroke-opacity:1; fill:none" points="
  143.576,1800.78 2640.76,1800.78 
  "/>
<polyline clip-path="url(#clip960)" style="stroke:#000000; stroke-linecap:round; stroke-linejoin:round; stroke-width:4; stroke-opacity:1; fill:none" points="
  214.25,1800.78 214.25,1781.88 
  "/>
<polyline clip-path="url(#clip960)" style="stroke:#000000; stroke-linecap:round; stroke-linejoin:round; stroke-width:4; stroke-opacity:1; fill:none" points="
  1392.17,1800.78 1392.17,1781.88 
  "/>
<polyline clip-path="url(#clip960)" style="stroke:#000000; stroke-linecap:round; stroke-linejoin:round; stroke-width:4; stroke-opacity:1; fill:none" points="
  2570.08,1800.78 2570.08,1781.88 
  "/>
<path clip-path="url(#clip960)" d="M158.51 1829.26 L158.51 1876.66 L154.575 1876.66 L154.575 1829.26 L158.51 1829.26 Z" fill="#000000" fill-rule="evenodd" fill-opacity="1" /><path clip-path="url(#clip960)" d="M173.857 1848.98 L173.857 1861.64 L181.357 1861.64 Q185.13 1861.64 186.936 1860.09 Q188.764 1858.52 188.764 1855.3 Q188.764 1852.06 186.936 1850.53 Q185.13 1848.98 181.357 1848.98 L173.857 1848.98 M173.857 1834.77 L173.857 1845.18 L180.778 1845.18 Q184.204 1845.18 185.871 1843.91 Q187.561 1842.61 187.561 1839.97 Q187.561 1837.36 185.871 1836.06 Q184.204 1834.77 180.778 1834.77 L173.857 1834.77 M169.181 1830.92 L181.126 1830.92 Q186.473 1830.92 189.366 1833.15 Q192.26 1835.37 192.26 1839.46 Q192.26 1842.64 190.778 1844.51 Q189.297 1846.39 186.427 1846.85 Q189.876 1847.59 191.774 1849.95 Q193.695 1852.29 193.695 1855.81 Q193.695 1860.44 190.547 1862.96 Q187.399 1865.48 181.589 1865.48 L169.181 1865.48 L169.181 1830.92 Z" fill="#000000" fill-rule="evenodd" fill-opacity="1" /><path clip-path="url(#clip960)" d="M201.519 1839.56 L205.778 1839.56 L205.778 1865.48 L201.519 1865.48 L201.519 1839.56 M201.519 1829.46 L205.778 1829.46 L205.778 1834.86 L201.519 1834.86 L201.519 1829.46 Z" fill="#000000" fill-rule="evenodd" fill-opacity="1" /><path clip-path="url(#clip960)" d="M226.473 1852.45 Q221.311 1852.45 219.32 1853.63 Q217.329 1854.81 217.329 1857.66 Q217.329 1859.93 218.811 1861.27 Q220.315 1862.59 222.885 1862.59 Q226.426 1862.59 228.556 1860.09 Q230.709 1857.57 230.709 1853.4 L230.709 1852.45 L226.473 1852.45 M234.968 1850.69 L234.968 1865.48 L230.709 1865.48 L230.709 1861.55 Q229.25 1863.91 227.074 1865.04 Q224.899 1866.15 221.75 1866.15 Q217.769 1866.15 215.408 1863.93 Q213.07 1861.69 213.07 1857.94 Q213.07 1853.56 215.987 1851.34 Q218.926 1849.12 224.737 1849.12 L230.709 1849.12 L230.709 1848.7 Q230.709 1845.76 228.764 1844.16 Q226.843 1842.54 223.348 1842.54 Q221.125 1842.54 219.019 1843.08 Q216.912 1843.61 214.968 1844.67 L214.968 1840.74 Q217.306 1839.84 219.505 1839.4 Q221.704 1838.93 223.787 1838.93 Q229.412 1838.93 232.19 1841.85 Q234.968 1844.77 234.968 1850.69 Z" fill="#000000" fill-rule="evenodd" fill-opacity="1" /><path clip-path="url(#clip960)" d="M260.269 1840.32 L260.269 1844.35 Q258.463 1843.42 256.519 1842.96 Q254.574 1842.5 252.491 1842.5 Q249.32 1842.5 247.723 1843.47 Q246.148 1844.44 246.148 1846.39 Q246.148 1847.87 247.283 1848.72 Q248.417 1849.56 251.843 1850.32 L253.301 1850.65 Q257.838 1851.62 259.736 1853.4 Q261.658 1855.16 261.658 1858.33 Q261.658 1861.94 258.787 1864.05 Q255.94 1866.15 250.94 1866.15 Q248.857 1866.15 246.588 1865.74 Q244.343 1865.34 241.843 1864.53 L241.843 1860.14 Q244.204 1861.36 246.496 1861.99 Q248.787 1862.59 251.033 1862.59 Q254.042 1862.59 255.662 1861.57 Q257.283 1860.53 257.283 1858.65 Q257.283 1856.92 256.102 1855.99 Q254.945 1855.07 250.986 1854.21 L249.505 1853.86 Q245.547 1853.03 243.787 1851.32 Q242.028 1849.58 242.028 1846.57 Q242.028 1842.91 244.621 1840.92 Q247.213 1838.93 251.982 1838.93 Q254.343 1838.93 256.426 1839.28 Q258.509 1839.63 260.269 1840.32 Z" fill="#000000" fill-rule="evenodd" fill-opacity="1" /><path clip-path="url(#clip960)" d="M273.926 1829.26 L273.926 1876.66 L269.991 1876.66 L269.991 1829.26 L273.926 1829.26 Z" fill="#000000" fill-rule="evenodd" fill-opacity="1" /><path clip-path="url(#clip960)" d="M1189.24 1832.06 L1189.24 1836.62 Q1186.58 1835.34 1184.22 1834.72 Q1181.85 1834.09 1179.66 1834.09 Q1175.84 1834.09 1173.75 1835.58 Q1171.69 1837.06 1171.69 1839.79 Q1171.69 1842.08 1173.06 1843.26 Q1174.45 1844.42 1178.29 1845.14 L1181.11 1845.71 Q1186.35 1846.71 1188.82 1849.23 Q1191.32 1851.73 1191.32 1855.95 Q1191.32 1860.97 1187.94 1863.56 Q1184.59 1866.15 1178.08 1866.15 Q1175.63 1866.15 1172.85 1865.6 Q1170.1 1865.04 1167.13 1863.96 L1167.13 1859.14 Q1169.98 1860.74 1172.71 1861.55 Q1175.44 1862.36 1178.08 1862.36 Q1182.09 1862.36 1184.26 1860.78 Q1186.44 1859.21 1186.44 1856.29 Q1186.44 1853.75 1184.86 1852.31 Q1183.31 1850.88 1179.75 1850.16 L1176.9 1849.6 Q1171.67 1848.56 1169.33 1846.34 Q1166.99 1844.12 1166.99 1840.16 Q1166.99 1835.58 1170.21 1832.94 Q1173.45 1830.3 1179.12 1830.3 Q1181.55 1830.3 1184.08 1830.74 Q1186.6 1831.18 1189.24 1832.06 Z" fill="#000000" fill-rule="evenodd" fill-opacity="1" /><path clip-path="url(#clip960)" d="M1202.64 1832.2 L1202.64 1839.56 L1211.41 1839.56 L1211.41 1842.87 L1202.64 1842.87 L1202.64 1856.94 Q1202.64 1860.11 1203.5 1861.02 Q1204.38 1861.92 1207.04 1861.92 L1211.41 1861.92 L1211.41 1865.48 L1207.04 1865.48 Q1202.11 1865.48 1200.23 1863.65 Q1198.36 1861.8 1198.36 1856.94 L1198.36 1842.87 L1195.23 1842.87 L1195.23 1839.56 L1198.36 1839.56 L1198.36 1832.2 L1202.64 1832.2 Z" fill="#000000" fill-rule="evenodd" fill-opacity="1" /><path clip-path="url(#clip960)" d="M1228.8 1852.45 Q1223.64 1852.45 1221.65 1853.63 Q1219.66 1854.81 1219.66 1857.66 Q1219.66 1859.93 1221.14 1861.27 Q1222.64 1862.59 1225.21 1862.59 Q1228.75 1862.59 1230.88 1860.09 Q1233.03 1857.57 1233.03 1853.4 L1233.03 1852.45 L1228.8 1852.45 M1237.29 1850.69 L1237.29 1865.48 L1233.03 1865.48 L1233.03 1861.55 Q1231.58 1863.91 1229.4 1865.04 Q1227.22 1866.15 1224.08 1866.15 Q1220.09 1866.15 1217.73 1863.93 Q1215.4 1861.69 1215.4 1857.94 Q1215.4 1853.56 1218.31 1851.34 Q1221.25 1849.12 1227.06 1849.12 L1233.03 1849.12 L1233.03 1848.7 Q1233.03 1845.76 1231.09 1844.16 Q1229.17 1842.54 1225.67 1842.54 Q1223.45 1842.54 1221.34 1843.08 Q1219.24 1843.61 1217.29 1844.67 L1217.29 1840.74 Q1219.63 1839.84 1221.83 1839.4 Q1224.03 1838.93 1226.11 1838.93 Q1231.74 1838.93 1234.52 1841.85 Q1237.29 1844.77 1237.29 1850.69 Z" fill="#000000" fill-rule="evenodd" fill-opacity="1" /><path clip-path="url(#clip960)" d="M1267.62 1849.84 L1267.62 1865.48 L1263.36 1865.48 L1263.36 1849.97 Q1263.36 1846.29 1261.92 1844.46 Q1260.49 1842.64 1257.62 1842.64 Q1254.17 1842.64 1252.18 1844.84 Q1250.19 1847.03 1250.19 1850.83 L1250.19 1865.48 L1245.9 1865.48 L1245.9 1839.56 L1250.19 1839.56 L1250.19 1843.59 Q1251.72 1841.25 1253.78 1840.09 Q1255.86 1838.93 1258.57 1838.93 Q1263.03 1838.93 1265.33 1841.71 Q1267.62 1844.46 1267.62 1849.84 Z" fill="#000000" fill-rule="evenodd" fill-opacity="1" /><path clip-path="url(#clip960)" d="M1293.17 1843.49 L1293.17 1829.46 L1297.43 1829.46 L1297.43 1865.48 L1293.17 1865.48 L1293.17 1861.59 Q1291.83 1863.91 1289.77 1865.04 Q1287.73 1866.15 1284.86 1866.15 Q1280.16 1866.15 1277.2 1862.4 Q1274.26 1858.65 1274.26 1852.54 Q1274.26 1846.43 1277.2 1842.68 Q1280.16 1838.93 1284.86 1838.93 Q1287.73 1838.93 1289.77 1840.07 Q1291.83 1841.18 1293.17 1843.49 M1278.66 1852.54 Q1278.66 1857.24 1280.58 1859.93 Q1282.53 1862.59 1285.9 1862.59 Q1289.28 1862.59 1291.23 1859.93 Q1293.17 1857.24 1293.17 1852.54 Q1293.17 1847.84 1291.23 1845.18 Q1289.28 1842.5 1285.9 1842.5 Q1282.53 1842.5 1280.58 1845.18 Q1278.66 1847.84 1278.66 1852.54 Z" fill="#000000" fill-rule="evenodd" fill-opacity="1" /><path clip-path="url(#clip960)" d="M1317.99 1852.45 Q1312.83 1852.45 1310.84 1853.63 Q1308.84 1854.81 1308.84 1857.66 Q1308.84 1859.93 1310.33 1861.27 Q1311.83 1862.59 1314.4 1862.59 Q1317.94 1862.59 1320.07 1860.09 Q1322.22 1857.57 1322.22 1853.4 L1322.22 1852.45 L1317.99 1852.45 M1326.48 1850.69 L1326.48 1865.48 L1322.22 1865.48 L1322.22 1861.55 Q1320.77 1863.91 1318.59 1865.04 Q1316.41 1866.15 1313.27 1866.15 Q1309.28 1866.15 1306.92 1863.93 Q1304.59 1861.69 1304.59 1857.94 Q1304.59 1853.56 1307.5 1851.34 Q1310.44 1849.12 1316.25 1849.12 L1322.22 1849.12 L1322.22 1848.7 Q1322.22 1845.76 1320.28 1844.16 Q1318.36 1842.54 1314.86 1842.54 Q1312.64 1842.54 1310.53 1843.08 Q1308.43 1843.61 1306.48 1844.67 L1306.48 1840.74 Q1308.82 1839.84 1311.02 1839.4 Q1313.22 1838.93 1315.3 1838.93 Q1320.93 1838.93 1323.71 1841.85 Q1326.48 1844.77 1326.48 1850.69 Z" fill="#000000" fill-rule="evenodd" fill-opacity="1" /><path clip-path="url(#clip960)" d="M1350.28 1843.54 Q1349.56 1843.12 1348.71 1842.94 Q1347.87 1842.73 1346.85 1842.73 Q1343.24 1842.73 1341.3 1845.09 Q1339.38 1847.43 1339.38 1851.83 L1339.38 1865.48 L1335.09 1865.48 L1335.09 1839.56 L1339.38 1839.56 L1339.38 1843.59 Q1340.72 1841.22 1342.87 1840.09 Q1345.02 1838.93 1348.1 1838.93 Q1348.54 1838.93 1349.08 1839 Q1349.61 1839.05 1350.26 1839.16 L1350.28 1843.54 Z" fill="#000000" fill-rule="evenodd" fill-opacity="1" /><path clip-path="url(#clip960)" d="M1370.97 1843.49 L1370.97 1829.46 L1375.23 1829.46 L1375.23 1865.48 L1370.97 1865.48 L1370.97 1861.59 Q1369.63 1863.91 1367.57 1865.04 Q1365.53 1866.15 1362.66 1866.15 Q1357.96 1866.15 1355 1862.4 Q1352.06 1858.65 1352.06 1852.54 Q1352.06 1846.43 1355 1842.68 Q1357.96 1838.93 1362.66 1838.93 Q1365.53 1838.93 1367.57 1840.07 Q1369.63 1841.18 1370.97 1843.49 M1356.46 1852.54 Q1356.46 1857.24 1358.38 1859.93 Q1360.33 1862.59 1363.71 1862.59 Q1367.08 1862.59 1369.03 1859.93 Q1370.97 1857.24 1370.97 1852.54 Q1370.97 1847.84 1369.03 1845.18 Q1367.08 1842.5 1363.71 1842.5 Q1360.33 1842.5 1358.38 1845.18 Q1356.46 1847.84 1356.46 1852.54 Z" fill="#000000" fill-rule="evenodd" fill-opacity="1" /><path clip-path="url(#clip960)" d="M1403.94 1834.77 L1403.94 1861.64 L1409.58 1861.64 Q1416.74 1861.64 1420.05 1858.4 Q1423.38 1855.16 1423.38 1848.17 Q1423.38 1841.22 1420.05 1838.01 Q1416.74 1834.77 1409.58 1834.77 L1403.94 1834.77 M1399.26 1830.92 L1408.87 1830.92 Q1418.91 1830.92 1423.61 1835.11 Q1428.31 1839.28 1428.31 1848.17 Q1428.31 1857.1 1423.59 1861.29 Q1418.87 1865.48 1408.87 1865.48 L1399.26 1865.48 L1399.26 1830.92 Z" fill="#000000" fill-rule="evenodd" fill-opacity="1" /><path clip-path="url(#clip960)" d="M1457.76 1851.46 L1457.76 1853.54 L1438.17 1853.54 Q1438.45 1857.94 1440.81 1860.25 Q1443.2 1862.54 1447.43 1862.54 Q1449.89 1862.54 1452.18 1861.94 Q1454.49 1861.34 1456.76 1860.14 L1456.76 1864.16 Q1454.47 1865.14 1452.06 1865.65 Q1449.65 1866.15 1447.18 1866.15 Q1440.97 1866.15 1437.34 1862.54 Q1433.73 1858.93 1433.73 1852.78 Q1433.73 1846.41 1437.15 1842.68 Q1440.6 1838.93 1446.44 1838.93 Q1451.67 1838.93 1454.7 1842.31 Q1457.76 1845.67 1457.76 1851.46 M1453.5 1850.21 Q1453.45 1846.71 1451.53 1844.63 Q1449.63 1842.54 1446.48 1842.54 Q1442.92 1842.54 1440.77 1844.56 Q1438.64 1846.57 1438.31 1850.23 L1453.5 1850.21 Z" fill="#000000" fill-rule="evenodd" fill-opacity="1" /><path clip-path="url(#clip960)" d="M1461.69 1839.56 L1466.2 1839.56 L1474.31 1861.32 L1482.41 1839.56 L1486.92 1839.56 L1477.2 1865.48 L1471.41 1865.48 L1461.69 1839.56 Z" fill="#000000" fill-rule="evenodd" fill-opacity="1" /><path clip-path="url(#clip960)" d="M1492.8 1839.56 L1497.06 1839.56 L1497.06 1865.48 L1492.8 1865.48 L1492.8 1839.56 M1492.8 1829.46 L1497.06 1829.46 L1497.06 1834.86 L1492.8 1834.86 L1492.8 1829.46 Z" fill="#000000" fill-rule="evenodd" fill-opacity="1" /><path clip-path="url(#clip960)" d="M1517.76 1852.45 Q1512.59 1852.45 1510.6 1853.63 Q1508.61 1854.81 1508.61 1857.66 Q1508.61 1859.93 1510.09 1861.27 Q1511.6 1862.59 1514.17 1862.59 Q1517.71 1862.59 1519.84 1860.09 Q1521.99 1857.57 1521.99 1853.4 L1521.99 1852.45 L1517.76 1852.45 M1526.25 1850.69 L1526.25 1865.48 L1521.99 1865.48 L1521.99 1861.55 Q1520.53 1863.91 1518.36 1865.04 Q1516.18 1866.15 1513.03 1866.15 Q1509.05 1866.15 1506.69 1863.93 Q1504.35 1861.69 1504.35 1857.94 Q1504.35 1853.56 1507.27 1851.34 Q1510.21 1849.12 1516.02 1849.12 L1521.99 1849.12 L1521.99 1848.7 Q1521.99 1845.76 1520.05 1844.16 Q1518.13 1842.54 1514.63 1842.54 Q1512.41 1842.54 1510.3 1843.08 Q1508.2 1843.61 1506.25 1844.67 L1506.25 1840.74 Q1508.59 1839.84 1510.79 1839.4 Q1512.99 1838.93 1515.07 1838.93 Q1520.7 1838.93 1523.47 1841.85 Q1526.25 1844.77 1526.25 1850.69 Z" fill="#000000" fill-rule="evenodd" fill-opacity="1" /><path clip-path="url(#clip960)" d="M1539.24 1832.2 L1539.24 1839.56 L1548.01 1839.56 L1548.01 1842.87 L1539.24 1842.87 L1539.24 1856.94 Q1539.24 1860.11 1540.09 1861.02 Q1540.97 1861.92 1543.63 1861.92 L1548.01 1861.92 L1548.01 1865.48 L1543.63 1865.48 Q1538.7 1865.48 1536.83 1863.65 Q1534.95 1861.8 1534.95 1856.94 L1534.95 1842.87 L1531.83 1842.87 L1531.83 1839.56 L1534.95 1839.56 L1534.95 1832.2 L1539.24 1832.2 Z" fill="#000000" fill-rule="evenodd" fill-opacity="1" /><path clip-path="url(#clip960)" d="M1553.61 1839.56 L1557.87 1839.56 L1557.87 1865.48 L1553.61 1865.48 L1553.61 1839.56 M1553.61 1829.46 L1557.87 1829.46 L1557.87 1834.86 L1553.61 1834.86 L1553.61 1829.46 Z" fill="#000000" fill-rule="evenodd" fill-opacity="1" /><path clip-path="url(#clip960)" d="M1576.83 1842.54 Q1573.4 1842.54 1571.41 1845.23 Q1569.42 1847.89 1569.42 1852.54 Q1569.42 1857.2 1571.39 1859.88 Q1573.38 1862.54 1576.83 1862.54 Q1580.23 1862.54 1582.22 1859.86 Q1584.21 1857.17 1584.21 1852.54 Q1584.21 1847.94 1582.22 1845.25 Q1580.23 1842.54 1576.83 1842.54 M1576.83 1838.93 Q1582.38 1838.93 1585.56 1842.54 Q1588.73 1846.15 1588.73 1852.54 Q1588.73 1858.91 1585.56 1862.54 Q1582.38 1866.15 1576.83 1866.15 Q1571.25 1866.15 1568.08 1862.54 Q1564.93 1858.91 1564.93 1852.54 Q1564.93 1846.15 1568.08 1842.54 Q1571.25 1838.93 1576.83 1838.93 Z" fill="#000000" fill-rule="evenodd" fill-opacity="1" /><path clip-path="url(#clip960)" d="M1617.34 1849.84 L1617.34 1865.48 L1613.08 1865.48 L1613.08 1849.97 Q1613.08 1846.29 1611.64 1844.46 Q1610.21 1842.64 1607.34 1842.64 Q1603.89 1842.64 1601.9 1844.84 Q1599.91 1847.03 1599.91 1850.83 L1599.91 1865.48 L1595.63 1865.48 L1595.63 1839.56 L1599.91 1839.56 L1599.91 1843.59 Q1601.44 1841.25 1603.5 1840.09 Q1605.58 1838.93 1608.29 1838.93 Q1612.75 1838.93 1615.05 1841.71 Q1617.34 1844.46 1617.34 1849.84 Z" fill="#000000" fill-rule="evenodd" fill-opacity="1" /><path clip-path="url(#clip960)" d="M2523.37 1849.28 Q2524.87 1849.79 2526.28 1851.46 Q2527.72 1853.12 2529.16 1856.04 L2533.9 1865.48 L2528.88 1865.48 L2524.46 1856.62 Q2522.74 1853.15 2521.12 1852.01 Q2519.53 1850.88 2516.75 1850.88 L2511.66 1850.88 L2511.66 1865.48 L2506.98 1865.48 L2506.98 1830.92 L2517.53 1830.92 Q2523.46 1830.92 2526.38 1833.4 Q2529.29 1835.88 2529.29 1840.88 Q2529.29 1844.14 2527.77 1846.29 Q2526.26 1848.45 2523.37 1849.28 M2511.66 1834.77 L2511.66 1847.03 L2517.53 1847.03 Q2520.91 1847.03 2522.63 1845.48 Q2524.36 1843.91 2524.36 1840.88 Q2524.36 1837.84 2522.63 1836.32 Q2520.91 1834.77 2517.53 1834.77 L2511.66 1834.77 Z" fill="#000000" fill-rule="evenodd" fill-opacity="1" /><path clip-path="url(#clip960)" d="M2539.92 1830.92 L2546.89 1830.92 L2555.71 1854.44 L2564.57 1830.92 L2571.54 1830.92 L2571.54 1865.48 L2566.98 1865.48 L2566.98 1835.14 L2558.07 1858.84 L2553.37 1858.84 L2544.46 1835.14 L2544.46 1865.48 L2539.92 1865.48 L2539.92 1830.92 Z" fill="#000000" fill-rule="evenodd" fill-opacity="1" /><path clip-path="url(#clip960)" d="M2601.54 1832.06 L2601.54 1836.62 Q2598.88 1835.34 2596.52 1834.72 Q2594.15 1834.09 2591.96 1834.09 Q2588.14 1834.09 2586.05 1835.58 Q2583.99 1837.06 2583.99 1839.79 Q2583.99 1842.08 2585.36 1843.26 Q2586.75 1844.42 2590.59 1845.14 L2593.41 1845.71 Q2598.65 1846.71 2601.12 1849.23 Q2603.62 1851.73 2603.62 1855.95 Q2603.62 1860.97 2600.24 1863.56 Q2596.89 1866.15 2590.38 1866.15 Q2587.93 1866.15 2585.15 1865.6 Q2582.4 1865.04 2579.43 1863.96 L2579.43 1859.14 Q2582.28 1860.74 2585.01 1861.55 Q2587.74 1862.36 2590.38 1862.36 Q2594.39 1862.36 2596.56 1860.78 Q2598.74 1859.21 2598.74 1856.29 Q2598.74 1853.75 2597.16 1852.31 Q2595.61 1850.88 2592.05 1850.16 L2589.2 1849.6 Q2583.97 1848.56 2581.63 1846.34 Q2579.29 1844.12 2579.29 1840.16 Q2579.29 1835.58 2582.51 1832.94 Q2585.75 1830.3 2591.42 1830.3 Q2593.85 1830.3 2596.38 1830.74 Q2598.9 1831.18 2601.54 1832.06 Z" fill="#000000" fill-rule="evenodd" fill-opacity="1" /><path clip-path="url(#clip960)" d="M2610.91 1830.92 L2632.77 1830.92 L2632.77 1834.86 L2615.59 1834.86 L2615.59 1845.09 L2632.05 1845.09 L2632.05 1849.03 L2615.59 1849.03 L2615.59 1861.55 L2633.18 1861.55 L2633.18 1865.48 L2610.91 1865.48 L2610.91 1830.92 Z" fill="#000000" fill-rule="evenodd" fill-opacity="1" /><polyline clip-path="url(#clip963)" style="stroke:#000000; stroke-linecap:round; stroke-linejoin:round; stroke-width:2; stroke-opacity:0.1; fill:none" points="
  143.576,1780.08 2640.76,1780.08 
  "/>
<polyline clip-path="url(#clip963)" style="stroke:#000000; stroke-linecap:round; stroke-linejoin:round; stroke-width:2; stroke-opacity:0.1; fill:none" points="
  143.576,1580.27 2640.76,1580.27 
  "/>
<polyline clip-path="url(#clip963)" style="stroke:#000000; stroke-linecap:round; stroke-linejoin:round; stroke-width:2; stroke-opacity:0.1; fill:none" points="
  143.576,1380.47 2640.76,1380.47 
  "/>
<polyline clip-path="url(#clip963)" style="stroke:#000000; stroke-linecap:round; stroke-linejoin:round; stroke-width:2; stroke-opacity:0.1; fill:none" points="
  143.576,1180.66 2640.76,1180.66 
  "/>
<polyline clip-path="url(#clip960)" style="stroke:#000000; stroke-linecap:round; stroke-linejoin:round; stroke-width:4; stroke-opacity:1; fill:none" points="
  143.576,1800.78 143.576,1069.28 
  "/>
<polyline clip-path="url(#clip960)" style="stroke:#000000; stroke-linecap:round; stroke-linejoin:round; stroke-width:4; stroke-opacity:1; fill:none" points="
  143.576,1780.08 162.473,1780.08 
  "/>
<polyline clip-path="url(#clip960)" style="stroke:#000000; stroke-linecap:round; stroke-linejoin:round; stroke-width:4; stroke-opacity:1; fill:none" points="
  143.576,1580.27 162.473,1580.27 
  "/>
<polyline clip-path="url(#clip960)" style="stroke:#000000; stroke-linecap:round; stroke-linejoin:round; stroke-width:4; stroke-opacity:1; fill:none" points="
  143.576,1380.47 162.473,1380.47 
  "/>
<polyline clip-path="url(#clip960)" style="stroke:#000000; stroke-linecap:round; stroke-linejoin:round; stroke-width:4; stroke-opacity:1; fill:none" points="
  143.576,1180.66 162.473,1180.66 
  "/>
<path clip-path="url(#clip960)" d="M91.3112 1765.88 Q87.7001 1765.88 85.8714 1769.44 Q84.0658 1772.98 84.0658 1780.11 Q84.0658 1787.22 85.8714 1790.78 Q87.7001 1794.32 91.3112 1794.32 Q94.9454 1794.32 96.7509 1790.78 Q98.5796 1787.22 98.5796 1780.11 Q98.5796 1772.98 96.7509 1769.44 Q94.9454 1765.88 91.3112 1765.88 M91.3112 1762.17 Q97.1213 1762.17 100.177 1766.78 Q103.256 1771.36 103.256 1780.11 Q103.256 1788.84 100.177 1793.44 Q97.1213 1798.03 91.3112 1798.03 Q85.501 1798.03 82.4223 1793.44 Q79.3668 1788.84 79.3668 1780.11 Q79.3668 1771.36 82.4223 1766.78 Q85.501 1762.17 91.3112 1762.17 Z" fill="#000000" fill-rule="evenodd" fill-opacity="1" /><path clip-path="url(#clip960)" d="M82.3529 1562.99 L100.709 1562.99 L100.709 1566.93 L86.6353 1566.93 L86.6353 1575.4 Q87.6538 1575.05 88.6723 1574.89 Q89.6908 1574.7 90.7093 1574.7 Q96.4963 1574.7 99.8759 1577.88 Q103.256 1581.05 103.256 1586.46 Q103.256 1592.04 99.7833 1595.14 Q96.3111 1598.22 89.9917 1598.22 Q87.8158 1598.22 85.5473 1597.85 Q83.3019 1597.48 80.8946 1596.74 L80.8946 1592.04 Q82.9779 1593.18 85.2001 1593.73 Q87.4223 1594.29 89.8991 1594.29 Q93.9037 1594.29 96.2417 1592.18 Q98.5796 1590.08 98.5796 1586.46 Q98.5796 1582.85 96.2417 1580.75 Q93.9037 1578.64 89.8991 1578.64 Q88.0241 1578.64 86.1492 1579.06 Q84.2973 1579.47 82.3529 1580.35 L82.3529 1562.99 Z" fill="#000000" fill-rule="evenodd" fill-opacity="1" /><path clip-path="url(#clip960)" d="M51.9595 1393.81 L59.5984 1393.81 L59.5984 1367.45 L51.2882 1369.11 L51.2882 1364.85 L59.5521 1363.19 L64.228 1363.19 L64.228 1393.81 L71.8668 1393.81 L71.8668 1397.75 L51.9595 1397.75 L51.9595 1393.81 Z" fill="#000000" fill-rule="evenodd" fill-opacity="1" /><path clip-path="url(#clip960)" d="M91.3112 1366.27 Q87.7001 1366.27 85.8714 1369.83 Q84.0658 1373.37 84.0658 1380.5 Q84.0658 1387.61 85.8714 1391.17 Q87.7001 1394.71 91.3112 1394.71 Q94.9454 1394.71 96.7509 1391.17 Q98.5796 1387.61 98.5796 1380.5 Q98.5796 1373.37 96.7509 1369.83 Q94.9454 1366.27 91.3112 1366.27 M91.3112 1362.56 Q97.1213 1362.56 100.177 1367.17 Q103.256 1371.75 103.256 1380.5 Q103.256 1389.23 100.177 1393.84 Q97.1213 1398.42 91.3112 1398.42 Q85.501 1398.42 82.4223 1393.84 Q79.3668 1389.23 79.3668 1380.5 Q79.3668 1371.75 82.4223 1367.17 Q85.501 1362.56 91.3112 1362.56 Z" fill="#000000" fill-rule="evenodd" fill-opacity="1" /><path clip-path="url(#clip960)" d="M52.9549 1194.01 L60.5937 1194.01 L60.5937 1167.64 L52.2836 1169.31 L52.2836 1165.05 L60.5474 1163.38 L65.2233 1163.38 L65.2233 1194.01 L72.8622 1194.01 L72.8622 1197.94 L52.9549 1197.94 L52.9549 1194.01 Z" fill="#000000" fill-rule="evenodd" fill-opacity="1" /><path clip-path="url(#clip960)" d="M82.3529 1163.38 L100.709 1163.38 L100.709 1167.32 L86.6353 1167.32 L86.6353 1175.79 Q87.6538 1175.44 88.6723 1175.28 Q89.6908 1175.1 90.7093 1175.1 Q96.4963 1175.1 99.8759 1178.27 Q103.256 1181.44 103.256 1186.85 Q103.256 1192.43 99.7833 1195.54 Q96.3111 1198.61 89.9917 1198.61 Q87.8158 1198.61 85.5473 1198.24 Q83.3019 1197.87 80.8946 1197.13 L80.8946 1192.43 Q82.9779 1193.57 85.2001 1194.12 Q87.4223 1194.68 89.8991 1194.68 Q93.9037 1194.68 96.2417 1192.57 Q98.5796 1190.47 98.5796 1186.85 Q98.5796 1183.24 96.2417 1181.14 Q93.9037 1179.03 89.8991 1179.03 Q88.0241 1179.03 86.1492 1179.45 Q84.2973 1179.86 82.3529 1180.74 L82.3529 1163.38 Z" fill="#000000" fill-rule="evenodd" fill-opacity="1" /><path clip-path="url(#clip960)" d="M1131.52 968.64 L1137.8 968.64 L1148.53 984.699 L1159.33 968.64 L1165.6 968.64 L1151.72 989.386 L1166.53 1011.84 L1160.25 1011.84 L1148.1 993.466 L1135.86 1011.84 L1129.55 1011.84 L1144.97 988.779 L1131.52 968.64 Z" fill="#000000" fill-rule="evenodd" fill-opacity="1" /><path clip-path="url(#clip960)" d="M1211.76 988.2 L1211.76 993.351 Q1208.72 995.636 1206.11 996.62 Q1203.54 997.604 1200.73 997.604 Q1197.55 997.604 1193.32 995.897 Q1193.01 995.781 1192.86 995.723 Q1192.66 995.636 1192.22 995.492 Q1187.74 993.698 1185.02 993.698 Q1182.47 993.698 1179.99 994.826 Q1177.5 995.926 1174.66 998.327 L1174.66 993.177 Q1177.7 990.891 1180.27 989.907 Q1182.88 988.895 1185.69 988.895 Q1188.87 988.895 1193.12 990.631 Q1193.41 990.746 1193.56 990.804 Q1193.79 990.891 1194.19 991.036 Q1198.68 992.83 1201.4 992.83 Q1203.89 992.83 1206.32 991.73 Q1208.78 990.631 1211.76 988.2 Z" fill="#000000" fill-rule="evenodd" fill-opacity="1" /><path clip-path="url(#clip960)" d="M1253.31 1005.68 L1253.31 994.074 L1243.76 994.074 L1243.76 989.271 L1259.09 989.271 L1259.09 1007.82 Q1255.71 1010.22 1251.63 1011.46 Q1247.55 1012.68 1242.92 1012.68 Q1232.79 1012.68 1227.06 1006.78 Q1221.36 1000.84 1221.36 990.283 Q1221.36 979.693 1227.06 973.79 Q1232.79 967.859 1242.92 967.859 Q1247.14 967.859 1250.93 968.9 Q1254.75 969.942 1257.97 971.968 L1257.97 978.189 Q1254.72 975.44 1251.08 974.051 Q1247.43 972.662 1243.41 972.662 Q1235.48 972.662 1231.49 977.089 Q1227.53 981.516 1227.53 990.283 Q1227.53 999.022 1231.49 1003.45 Q1235.48 1007.88 1243.41 1007.88 Q1246.51 1007.88 1248.94 1007.36 Q1251.37 1006.81 1253.31 1005.68 Z" fill="#000000" fill-rule="evenodd" fill-opacity="1" /><path clip-path="url(#clip960)" d="M1275.62 973.443 L1275.62 989.676 L1282.96 989.676 Q1287.04 989.676 1289.27 987.564 Q1291.5 985.451 1291.5 981.545 Q1291.5 977.668 1289.27 975.555 Q1287.04 973.443 1282.96 973.443 L1275.62 973.443 M1269.77 968.64 L1282.96 968.64 Q1290.23 968.64 1293.93 971.939 Q1297.66 975.208 1297.66 981.545 Q1297.66 987.94 1293.93 991.209 Q1290.23 994.479 1282.96 994.479 L1275.62 994.479 L1275.62 1011.84 L1269.77 1011.84 L1269.77 968.64 Z" fill="#000000" fill-rule="evenodd" fill-opacity="1" /><path clip-path="url(#clip960)" d="M1311.35 973.443 L1311.35 1007.04 L1318.41 1007.04 Q1327.35 1007.04 1331.49 1002.99 Q1335.66 998.935 1335.66 990.197 Q1335.66 981.516 1331.49 977.494 Q1327.35 973.443 1318.41 973.443 L1311.35 973.443 M1305.51 968.64 L1317.51 968.64 Q1330.07 968.64 1335.94 973.877 Q1341.82 979.086 1341.82 990.197 Q1341.82 1001.37 1335.92 1006.6 Q1330.01 1011.84 1317.51 1011.84 L1305.51 1011.84 L1305.51 968.64 Z" fill="#000000" fill-rule="evenodd" fill-opacity="1" /><path clip-path="url(#clip960)" d="M1352.26 1004.49 L1358.37 1004.49 L1358.37 1009.47 L1353.62 1018.73 L1349.89 1018.73 L1352.26 1009.47 L1352.26 1004.49 Z" fill="#000000" fill-rule="evenodd" fill-opacity="1" /><path clip-path="url(#clip960)" d="M1415.52 992.28 L1415.52 1011.84 L1410.19 1011.84 L1410.19 992.454 Q1410.19 987.853 1408.4 985.567 Q1406.6 983.281 1403.02 983.281 Q1398.71 983.281 1396.22 986.03 Q1393.73 988.779 1393.73 993.524 L1393.73 1011.84 L1388.38 1011.84 L1388.38 979.433 L1393.73 979.433 L1393.73 984.467 Q1395.64 981.545 1398.21 980.098 Q1400.82 978.652 1404.2 978.652 Q1409.79 978.652 1412.65 982.124 Q1415.52 985.567 1415.52 992.28 Z" fill="#000000" fill-rule="evenodd" fill-opacity="1" /><path clip-path="url(#clip960)" d="M1426.83 984.93 L1463.92 984.93 L1463.92 989.792 L1426.83 989.792 L1426.83 984.93 M1426.83 996.736 L1463.92 996.736 L1463.92 1001.65 L1426.83 1001.65 L1426.83 996.736 Z" fill="#000000" fill-rule="evenodd" fill-opacity="1" /><path clip-path="url(#clip960)" d="M1477.55 1006.92 L1487.1 1006.92 L1487.1 973.964 L1476.71 976.047 L1476.71 970.723 L1487.04 968.64 L1492.89 968.64 L1492.89 1006.92 L1502.44 1006.92 L1502.44 1011.84 L1477.55 1011.84 L1477.55 1006.92 Z" fill="#000000" fill-rule="evenodd" fill-opacity="1" /><path clip-path="url(#clip960)" d="M1526.74 972.488 Q1522.23 972.488 1519.94 976.944 Q1517.69 981.371 1517.69 990.283 Q1517.69 999.166 1519.94 1003.62 Q1522.23 1008.05 1526.74 1008.05 Q1531.29 1008.05 1533.54 1003.62 Q1535.83 999.166 1535.83 990.283 Q1535.83 981.371 1533.54 976.944 Q1531.29 972.488 1526.74 972.488 M1526.74 967.859 Q1534.01 967.859 1537.82 973.617 Q1541.67 979.346 1541.67 990.283 Q1541.67 1001.19 1537.82 1006.95 Q1534.01 1012.68 1526.74 1012.68 Q1519.48 1012.68 1515.63 1006.95 Q1511.81 1001.19 1511.81 990.283 Q1511.81 979.346 1515.63 973.617 Q1519.48 967.859 1526.74 967.859 Z" fill="#000000" fill-rule="evenodd" fill-opacity="1" /><path clip-path="url(#clip960)" d="M1564.44 972.488 Q1559.93 972.488 1557.65 976.944 Q1555.39 981.371 1555.39 990.283 Q1555.39 999.166 1557.65 1003.62 Q1559.93 1008.05 1564.44 1008.05 Q1568.99 1008.05 1571.24 1003.62 Q1573.53 999.166 1573.53 990.283 Q1573.53 981.371 1571.24 976.944 Q1568.99 972.488 1564.44 972.488 M1564.44 967.859 Q1571.71 967.859 1575.53 973.617 Q1579.38 979.346 1579.38 990.283 Q1579.38 1001.19 1575.53 1006.95 Q1571.71 1012.68 1564.44 1012.68 Q1557.18 1012.68 1553.33 1006.95 Q1549.51 1001.19 1549.51 990.283 Q1549.51 979.346 1553.33 973.617 Q1557.18 967.859 1564.44 967.859 Z" fill="#000000" fill-rule="evenodd" fill-opacity="1" /><path clip-path="url(#clip960)" d="M1602.15 972.488 Q1597.63 972.488 1595.35 976.944 Q1593.09 981.371 1593.09 990.283 Q1593.09 999.166 1595.35 1003.62 Q1597.63 1008.05 1602.15 1008.05 Q1606.69 1008.05 1608.95 1003.62 Q1611.23 999.166 1611.23 990.283 Q1611.23 981.371 1608.95 976.944 Q1606.69 972.488 1602.15 972.488 M1602.15 967.859 Q1609.41 967.859 1613.23 973.617 Q1617.08 979.346 1617.08 990.283 Q1617.08 1001.19 1613.23 1006.95 Q1609.41 1012.68 1602.15 1012.68 Q1594.88 1012.68 1591.04 1006.95 Q1587.22 1001.19 1587.22 990.283 Q1587.22 979.346 1591.04 973.617 Q1594.88 967.859 1602.15 967.859 Z" fill="#000000" fill-rule="evenodd" fill-opacity="1" /><path clip-path="url(#clip960)" d="M1639.85 972.488 Q1635.34 972.488 1633.05 976.944 Q1630.79 981.371 1630.79 990.283 Q1630.79 999.166 1633.05 1003.62 Q1635.34 1008.05 1639.85 1008.05 Q1644.39 1008.05 1646.65 1003.62 Q1648.94 999.166 1648.94 990.283 Q1648.94 981.371 1646.65 976.944 Q1644.39 972.488 1639.85 972.488 M1639.85 967.859 Q1647.11 967.859 1650.93 973.617 Q1654.78 979.346 1654.78 990.283 Q1654.78 1001.19 1650.93 1006.95 Q1647.11 1012.68 1639.85 1012.68 Q1632.59 1012.68 1628.74 1006.95 Q1624.92 1001.19 1624.92 990.283 Q1624.92 979.346 1628.74 973.617 Q1632.59 967.859 1639.85 967.859 Z" fill="#000000" fill-rule="evenodd" fill-opacity="1" /><polyline clip-path="url(#clip963)" style="stroke:#009af9; stroke-linecap:round; stroke-linejoin:round; stroke-width:0; stroke-opacity:1; fill:none" points="
  214.25,1774.03 1392.17,1089.98 2570.08,1090.02 
  "/>
<circle clip-path="url(#clip963)" cx="214.25" cy="1774.03" r="14.4" fill="#009af9" fill-rule="evenodd" fill-opacity="1" stroke="#000000" stroke-opacity="1" stroke-width="3.84"/>
<circle clip-path="url(#clip963)" cx="1392.17" cy="1089.98" r="14.4" fill="#009af9" fill-rule="evenodd" fill-opacity="1" stroke="#000000" stroke-opacity="1" stroke-width="3.84"/>
<circle clip-path="url(#clip963)" cx="2570.08" cy="1090.02" r="14.4" fill="#009af9" fill-rule="evenodd" fill-opacity="1" stroke="#000000" stroke-opacity="1" stroke-width="3.84"/>
<polyline clip-path="url(#clip963)" style="stroke:#e26f46; stroke-linecap:round; stroke-linejoin:round; stroke-width:0; stroke-opacity:1; fill:none" points="
  214.25,1103.97 1392.17,1747.3 2570.08,1103.18 
  "/>
<circle clip-path="url(#clip963)" cx="214.25" cy="1103.97" r="14.4" fill="#e26f46" fill-rule="evenodd" fill-opacity="1" stroke="#000000" stroke-opacity="1" stroke-width="3.84"/>
<circle clip-path="url(#clip963)" cx="1392.17" cy="1747.3" r="14.4" fill="#e26f46" fill-rule="evenodd" fill-opacity="1" stroke="#000000" stroke-opacity="1" stroke-width="3.84"/>
<circle clip-path="url(#clip963)" cx="2570.08" cy="1103.18" r="14.4" fill="#e26f46" fill-rule="evenodd" fill-opacity="1" stroke="#000000" stroke-opacity="1" stroke-width="3.84"/>
<polyline clip-path="url(#clip963)" style="stroke:#3da44d; stroke-linecap:round; stroke-linejoin:round; stroke-width:0; stroke-opacity:1; fill:none" points="
  214.25,1773.06 1392.17,1676.66 2570.08,1676.43 
  "/>
<circle clip-path="url(#clip963)" cx="214.25" cy="1773.06" r="14.4" fill="#3da44d" fill-rule="evenodd" fill-opacity="1" stroke="#000000" stroke-opacity="1" stroke-width="3.84"/>
<circle clip-path="url(#clip963)" cx="1392.17" cy="1676.66" r="14.4" fill="#3da44d" fill-rule="evenodd" fill-opacity="1" stroke="#000000" stroke-opacity="1" stroke-width="3.84"/>
<circle clip-path="url(#clip963)" cx="2570.08" cy="1676.43" r="14.4" fill="#3da44d" fill-rule="evenodd" fill-opacity="1" stroke="#000000" stroke-opacity="1" stroke-width="3.84"/>
<polyline clip-path="url(#clip963)" style="stroke:#000000; stroke-linecap:round; stroke-linejoin:round; stroke-width:4; stroke-opacity:1; fill:none" points="
  -2353.6,1780.08 5137.94,1780.08 
  "/>
</svg>
